<svg xmlns="http://www.w3.org/2000/svg" width="36" height="36" viewBox="0 0 36 36">
  <metadata><?xpacket begin="﻿" id="W5M0MpCehiHzreSzNTczkc9d"?>
<x:xmpmeta xmlns:x="adobe:ns:meta/" x:xmptk="Adobe XMP Core 5.6-c142 79.160924, 2017/07/13-01:06:39        ">
   <rdf:RDF xmlns:rdf="http://www.w3.org/1999/02/22-rdf-syntax-ns#">
      <rdf:Description rdf:about=""/>
   </rdf:RDF>
</x:xmpmeta>
                                                                                                    
                                                                                                    
                                                                                                    
                                                                                                    
                                                                                                    
                                                                                                    
                                                                                                    
                                                                                                    
                                                                                                    
                                                                                                    
                                                                                                    
                                                                                                    
                                                                                                    
                                                                                                    
                                                                                                    
                                                                                                    
                                                                                                    
                                                                                                    
                                                                                                    
                                                                                                    
                           
<?xpacket end="w"?></metadata>
<defs>
    <style>
      .cls-1, .cls-3 {
        fill: #fff;
      }

      .cls-2 {
        fill: #f17423;
      }

      .cls-3 {
        fill-rule: evenodd;
      }
    </style>
  </defs>
  <circle class="cls-1" cx="18" cy="18" r="18"/>
  <circle id="Ellipse_4_copy_11" data-name="Ellipse 4 copy 11" class="cls-2" cx="18" cy="18" r="14"/>
  <path id="Shape_1_copy_15" data-name="Shape 1 copy 15" class="cls-3" d="M25.338,12.455a4.772,4.772,0,0,0-6.856,0L18,12.949l-0.486-.5a4.767,4.767,0,0,0-6.856-.007,5.036,5.036,0,0,0,.007,7.014l6.971,7.132a0.489,0.489,0,0,0,.705,0l6.986-7.12A5.05,5.05,0,0,0,25.338,12.455Zm-0.713,6.292-6.633,6.76-6.618-6.771a4,4,0,0,1,0-5.563,3.783,3.783,0,0,1,5.438,0l0.839,0.858a0.492,0.492,0,0,0,.709,0l0.831-.851a3.784,3.784,0,0,1,5.438,0A4.006,4.006,0,0,1,24.625,18.748Z"/>
</svg>
