<?xml version="1.0" encoding="UTF-8"?>
<svg width="1201px" height="730px" viewBox="0 0 1201 730" version="1.1" xmlns="http://www.w3.org/2000/svg" xmlns:xlink="http://www.w3.org/1999/xlink">
    <!-- Generator: Sketch 59.1 (86144) - https://sketch.com -->
    <title>map</title>
    <desc>Created with Sketch.</desc>
    <defs>
        <rect id="path-1" x="0" y="0.66" width="1439" height="729.5"></rect>
    </defs>
    <g id="11.-Contact" stroke="none" stroke-width="1" fill="none" fill-rule="evenodd">
        <g id="Artboard" transform="translate(-1724.000000, -1077.000000)">
            <g id="map" transform="translate(1724.000000, 1076.000000)">
                <g id="ĐT_43" transform="translate(979.385697, 193.589533) rotate(82.185000) translate(-979.385697, -193.589533) translate(956.385697, 183.589533)" fill="#333333" font-family="Helvetica" font-size="17" font-weight="normal">
                    <text id="ĐT-43">
                        <tspan x="0" y="16">ĐT 43</tspan>
                    </text>
                </g>
                <g id="road" transform="translate(0.000000, 0.500000)">
                    <rect id="Rectangle_51" fill="#F2F7FB" fill-rule="nonzero" x="0" y="0.5" width="1366" height="729.5"></rect>
                    <g id="Group_91">
                        <g id="Group_90-Clipped">
                            <mask id="mask-2" fill="white">
                                <use xlink:href="#path-1"></use>
                            </mask>
                            <g id="Rectangle_52"></g>
                            <g id="Group_90" mask="url(#mask-2)">
                                <g transform="translate(-1.000000, -273.000000)" id="Group_89">
                                    <g transform="translate(0.765000, 0.491000)">
                                        <path d="M510.785,605.278 L550.179,739.618 C550.179,739.618 554.828,759.653 573.408,770.687 C591.988,781.721 624.508,796.82 624.508,796.82 C624.508,796.82 887.575,921.095 900.351,928.644 C913.127,936.193 1115.222,1036.653 1115.222,1036.653" id="Path_32" stroke="#BBC2C7" stroke-width="9" stroke-dasharray="12"></path>
                                        <path d="M893.967,497.166 C894.548,494.266 905.001,449.547 931.134,421.672 C957.267,393.797 1163.646,220.742 1163.646,220.742 L1146.805,206.224 C1146.805,206.224 928.813,393.217 914.873,413.542 C900.933,433.867 878.873,485.552 877.706,491.942 C876.539,498.332 893.967,497.166 893.967,497.166 Z" id="Path_33" stroke="#97D6DE" fill="#FFFFFF" fill-rule="nonzero"></path>
                                        <path d="M427.067,1144.673 C427.067,1144.673 583.862,1023.301 608.252,994.851 C628.675,971.025 672.132,868.251 672.132,868.251 C672.132,868.251 706.975,839.215 723.232,822.951 C739.489,806.687 782.465,752.102 784.788,737.004 C787.111,721.906 783.626,703.322 792.918,695.192 C802.21,687.062 821.954,669.64 830.084,661.51 C838.214,653.38 863.766,587.178 867.251,572.078 C870.736,556.978 866.089,548.849 866.089,548.849 L855.636,565.109 L851.571,579.627 C851.571,579.627 845.183,608.082 835.892,626.665 C826.601,645.248 817.309,661.511 817.309,661.511 C817.309,661.511 787.109,681.256 781.309,694.031 C775.509,706.806 772.017,718.422 772.017,727.713 C772.017,737.004 766.21,753.265 759.241,761.395 C752.272,769.525 701.169,827.595 688.392,838.05 C675.615,848.505 652.392,864.183 646.58,864.763 C640.768,865.343 636.127,865.344 636.127,865.344 L627.997,875.797 C627.997,875.797 639.612,877.539 644.257,876.958 C648.902,876.377 659.937,870.57 659.937,870.57 C659.937,870.57 623.937,956.517 612.318,975.1 C600.699,993.683 417.776,1141.187 417.776,1141.187 L427.067,1144.673 Z" id="Path_34" stroke="#97D6DE" fill="#FFFFFF" fill-rule="nonzero"></path>
                                        <path d="M1121.32,857.795 C1143.533,863.022 1192.749,868.684 1192.749,868.684 L1192.313,860.409 C1192.313,860.409 1129.596,856.489 1098.236,842.987 C1066.876,829.485 1000.236,800.304 1000.236,800.304 C1000.236,800.304 1067.745,641.331 1080.376,623.909 C1093.007,606.487 1187.814,479.159 1187.814,479.159 L1175.038,469.868 C1175.038,469.868 1093.738,567.429 1069.346,606.919 C1051.61,635.635 1007.464,733.752 980.677,792.743 L880.03,787.668 C880.03,787.668 863.915,788.103 854.769,778.086 C845.623,768.069 839.09,761.971 831.25,761.1 C823.41,760.229 804.25,760.229 804.25,760.229 L816.45,767.198 C816.45,767.198 833.437,766.763 840.405,773.731 C847.373,780.699 857.391,793.766 869.587,795.944 C879.903,797.786 954.414,799.944 977.134,800.56 C968.859,818.748 962.685,832.154 960.18,836.885 C949.727,856.63 859.134,1065.69 848.68,1079.627 C838.226,1093.564 794.092,1152.798 794.092,1152.798 L812.675,1160.928 C812.675,1160.928 864.94,1100.528 869.586,1088.919 C874.232,1077.31 921.851,975.097 921.851,975.097 C921.851,975.097 949.725,992.519 959.017,1030.847 C968.309,1069.175 965.986,1107.503 974.117,1124.924 C982.248,1142.345 995.023,1153.96 998.508,1157.445 C1001.993,1160.93 1005.477,1182.997 1005.477,1182.997 L1014.769,1180.674 C1016.65395,1169.65307 1013.74931,1158.35134 1006.784,1149.605 C995.024,1134.797 974.554,1119.118 974.554,1095.598 C974.554,1072.078 976.296,1034.622 961.488,1005.876 C946.68,977.13 925.338,966.241 925.338,966.241 L998.945,806.397 C998.945,806.397 1099.108,852.568 1121.32,857.795 Z" id="Path_35" stroke="#97D6DE" fill="#FFFFFF" fill-rule="nonzero"></path>
                                        <path d="M98.377,1014.59 C98.377,1014.59 162.256,1015.752 178.516,1014.59 C194.776,1013.428 301.629,999.49 301.629,999.49 C301.629,999.49 380.607,985.553 391.06,982.069 L401.513,978.584 C401.513,978.584 461.908,949.548 471.199,942.584 C480.49,935.62 525.207,905.998 544.951,901.353 C564.695,896.708 618.703,883.353 639.608,869.994 C660.513,856.635 673.873,830.503 673.873,830.503 L739.495,720.166 C739.495,720.166 754.013,680.677 754.595,669.643 C755.177,658.609 761.564,637.703 778.405,627.25 C795.246,616.797 832.993,601.118 851.576,579.631 C870.159,558.144 889.904,506.46 889.904,506.46 L871.904,505.298 C871.904,505.298 866.677,533.172 845.191,560.467 C823.705,587.762 787.119,598.795 778.408,605.182 C769.697,611.569 754.594,619.703 747.042,636.539 C739.49,653.375 740.073,667.898 737.75,674.286 C735.427,680.674 693.034,767.201 679.097,788.686 C665.16,810.171 639.608,850.823 617.541,865.341 C595.474,879.859 550.757,884.505 529.271,893.796 C507.785,903.087 456.681,935.027 446.809,941.415 C436.937,947.803 402.674,959.415 389.317,964.063 C375.96,968.711 297.565,983.812 283.042,984.973 C268.519,986.134 180.842,994.845 161.095,996.003 C141.348,997.161 97.795,997.164 97.795,997.164 L98.377,1014.59 Z" id="Path_36" fill="#019AA8" fill-rule="nonzero"></path>
                                        <path d="M478.26,694.507 C478.26,694.507 493.493,704.663 507.881,703.817 C522.269,702.971 525.654,699.187 525.654,699.187 L545.966,771.523 L478.26,876.476 C478.26,876.476 473.182,862.076 467.26,860.388 L461.336,858.696 L426.636,840.076 L459.644,753.75 C459.644,753.75 474.878,726.668 474.031,717.358 C473.184,708.048 478.26,694.507 478.26,694.507 Z" id="Path_37" fill="#7CCCD4" fill-rule="nonzero"></path>
                                        <path d="M715.665,86.642 L412.527,152.842 C412.527,152.842 364.182,165.042 351.986,168.522 C339.79,172.002 315.836,186.379 303.206,189.863 C290.576,193.347 224.372,183.763 208.258,182.894 C192.144,182.025 97.631,161.991 97.631,161.991 L89.793,180.284 C89.793,180.284 98.504,184.639 113.748,187.684 C128.992,190.729 304.513,213.82 309.305,212.949 C314.097,212.078 333.695,199.449 348.939,193.349 C364.183,187.249 591.539,132.373 591.539,132.373 C591.539,132.373 586.309,304.848 585.873,313.995 C585.437,323.142 577.598,337.95 577.598,337.95 L519.235,428.978 C519.235,428.978 512.266,442.915 509.217,450.755 C506.168,458.595 503.99,485.599 502.684,489.518 C501.378,493.437 490.924,496.487 490.924,496.487 C486.494936,497.351718 482.129593,498.515721 477.858,499.971 C471.758,502.148 471.758,514.779 473.503,521.748 C475.248,528.717 464.793,542.655 464.793,542.655 L452.593,572.271 C452.593,572.271 470.015,577.498 473.5,580.982 C476.985,584.466 482.215,598.405 489.183,598.405 C496.151,598.405 501.383,591.436 501.383,591.436 L507.276,604.792 L513.184,603.192 L513.578,596.664 C513.578,596.664 524.031,598.407 527.515,594.922 C530.999,591.437 529.257,584.469 529.257,584.469 L525.773,563.563 L527.515,549.626 L539.715,537.426 L529.253,516.522 C529.253,516.522 522.284,513.037 520.542,511.295 C518.8,509.553 520.542,495.615 518.8,492.131 C517.058,488.647 508.347,490.389 508.347,490.389 C508.347,490.389 511.832,460.772 513.574,453.803 C515.316,446.834 586.744,337.078 590.229,330.105 C593.714,323.132 593.713,309.205 593.713,309.205 L598.94,129.762 L719.15,103.63 L715.665,86.642 Z M480.486,505.198 C484.405,498.447 495.076,501.06 495.076,501.06 L497.689,532.637 L495.076,535.686 C495.076,535.686 487.236,530.677 483.316,526.975 C479.396,523.273 476.566,511.949 480.486,505.198 Z M472.646,545.703 L478.606,528.503 L488.148,537.431 L485.713,541.351 L472.646,545.703 Z M488.546,592.503 C480.297,589.267 482.446,557.466 482.446,557.466 L495.077,548.984 L501.177,584.034 C501.177,584.034 496.793,595.736 488.543,592.505 L488.546,592.503 Z M524.696,590.567 C523.825,594.923 513.807,590.567 513.807,590.567 L505.532,548.984 L511.632,543.964 L519.254,553.982 C519.254,553.982 525.564,586.205 524.693,590.564 L524.696,590.567 Z M519.469,515 L527.309,521.533 L518.598,526.542 L515.153,526.542 L519.469,515 Z M515.155,496.054 C516.502,497.797 515.113,506.072 515.155,513.911 C515.197,521.75 505.532,530.026 505.532,530.026 L500.414,532.639 L498.993,516.087 C498.993,516.087 504.328,507.811 505.526,506.287 C506.724,504.763 508.139,493.547 508.139,493.547 C508.139,493.547 513.805,494.305 515.153,496.051 L515.155,496.054 Z" id="Path_38" stroke="#97D6DE" fill="#FFFFFF" fill-rule="nonzero"></path>
                                        <path d="M404.405,573.241 C404.405,573.241 384.093,555.241 371.317,555.241 C358.541,555.241 329.505,559.887 316.148,555.241 C302.791,550.595 258.657,530.27 248.784,529.109 C238.911,527.948 173.871,518.656 163.418,510.526 C152.965,502.396 104.765,457.1 103.604,424.576 C102.443,392.052 109.992,366.5 120.445,354.308 C130.898,342.116 212.199,267.78 212.199,267.78 C212.199,267.78 254.592,227.129 265.045,202.158 C275.498,177.187 284.209,134.214 285.371,128.406 C286.533,122.598 289.436,103.435 289.436,103.435 L294.082,0.648 L276.082,0.648 C276.082,0.648 276.082,92.983 269.694,109.248 C263.306,125.513 248.207,199.841 235.432,214.359 C222.657,228.877 96.054,329.918 85.02,384.506 C73.986,439.094 95.473,465.806 105.927,483.806 C116.381,501.806 144.835,527.941 160.515,534.906 C176.195,541.871 221.49,545.359 230.202,544.778 C238.914,544.197 273.175,552.908 282.467,558.134 C291.759,563.36 308.599,569.748 325.44,570.334 C342.281,570.92 359.122,569.172 367.252,573.234 C375.382,577.296 382.352,581.364 382.352,581.364 L395.709,603.432 C395.709,603.432 386.998,660.924 371.319,689.67 C355.64,718.416 322.538,767.196 316.44,788.102 C310.342,809.008 306.858,865.629 306.858,865.629 L298.508,1114.473 L322.027,1114.473 C322.027,1114.473 326.022,828.173 332.99,808.137 C339.958,788.101 356.51,753.259 372.19,735.837 C387.87,718.415 411.39,651.342 414.002,633.049 C416.614,614.756 416.402,591.019 416.402,591.019 L404.405,573.241 Z" id="Path_39" stroke="#79CCD5" fill="#FFFFFF" fill-rule="nonzero"></path>
                                        <path d="M506.044,371.512 C506.044,371.512 516.497,374.633 511.271,381.602 C506.045,388.571 501.399,383.925 501.399,383.925 L501.399,389.732 C501.399,389.732 483.399,387.409 476.428,384.505 C469.457,381.601 449.715,371.512 449.715,371.512 C449.715,371.512 437.52,366.503 428.809,368.245 C420.098,369.987 407.322,375.214 407.322,375.214 C407.322,375.214 381.915,389.919 372.481,400.768 C363.047,411.617 358.543,414.705 353.897,427.481 C349.251,440.257 346.928,469.874 349.251,477.424 C351.574,484.974 356.22,492.524 363.769,496.007 C371.318,499.49 382.788,503.556 386.344,508.207 C389.9,512.858 393.821,516.918 386.344,522.725 C378.867,528.532 363.769,529.113 352.154,526.79 C340.539,524.467 297.566,516.337 289.436,516.337 C281.306,516.337 274.748,516.311 269.691,517.499 C264.191,518.792 255.656,518.984 249.177,516.337 C243.593,514.056 189.552,498.916 186.067,494.85 C182.582,490.784 174.453,480.913 173.867,470.46 C173.281,460.007 170.967,439.101 177.933,424.583 C184.899,410.065 205.807,344.951 205.807,344.951 C205.807,344.951 212.195,331.087 200.58,324.698 C188.965,318.309 152.381,297.978 152.381,297.978 C152.381,297.978 135.543,288.105 135.543,279.395 C135.543,270.685 135.543,257.908 130.897,252.101 C126.251,246.294 116.96,238.168 116.381,234.098 C115.802,230.028 117.252,210.288 103.315,203.898 C89.378,197.508 71.375,192.283 71.375,192.283 L71.375,197.22 C71.375,197.22 102.154,206.511 105.057,212.028 C107.96,217.545 106.8,230.028 109.994,236.418 C113.188,242.808 125.671,252.1 127.413,257.908 C129.155,263.716 127.703,283.169 130.313,287.234 C132.923,291.299 150.225,304.462 156.736,308.721 C163.247,312.98 180.836,319.464 183.159,321.787 C185.482,324.11 200.872,324.982 198.839,336.015 C196.806,347.048 181.998,394.958 179.384,402.215 C176.77,409.472 164.576,443.446 165.157,455.642 C165.738,467.838 163.415,493.099 181.417,501.229 C199.419,509.359 249.176,524.168 249.176,524.168 C249.176,524.168 258.367,526.491 262.431,526.491 C265.498151,526.33705 268.528135,525.750244 271.431,524.748 C271.431,524.748 277.531,539.723 276.367,548.787 C275.203,557.851 273.754,565.979 266.785,572.658 C259.816,579.337 252.267,586.014 252.267,586.014 C252.267,586.014 262.429,591.241 261.267,590.951 C260.105,590.661 276.076,578.466 279.267,568.302 C282.458,558.138 281.88,534.33 281.009,531.426 C280.138,528.522 278.686,522.715 278.686,522.715 C278.686,522.715 300.754,521.844 306.561,523.876 C312.368,525.908 348.373,533.167 351.861,533.458 C355.349,533.749 392.221,534.329 392.221,534.329 C392.221,534.329 395.121,540.137 397.738,541.588 C400.355,543.039 402.648,543.04 404.403,543.621 C406.158,544.202 404.997,546.401 406.739,548.786 C408.481,551.171 423,549.137 423.871,551.17 C424.742,553.203 423,557.27 418.063,559.59 C413.126,561.91 413.709,572.368 413.709,572.368 L423.001,566.56 L424.257,562.428 C424.257,562.428 430.55,554.655 428.808,551.461 C427.066,548.267 422.42,546.234 419.517,546.525 C416.614,546.816 412.548,547.977 411.096,546.234 C409.644,544.491 410.515,541.008 407.902,540.717 C405.289,540.426 400.643,540.427 399.191,538.975 C397.739,537.523 395.707,532.587 395.707,532.587 L412.258,521.268 C412.258,521.268 418.936,516.041 423.872,516.331 C428.808,516.621 432.583,514.589 433.454,513.137 C434.325,511.685 434.035,507.037 434.035,507.037 C434.035,507.037 437.52,507.037 438.971,505.585 C440.422,504.133 441.004,498.036 441.871,498.036 C442.738,498.036 445.307,494.909 445.307,494.909 L444.484,492.229 C444.484,492.229 439.547,495.714 438.676,498.037 C437.805,500.36 438.095,501.811 436.353,502.973 C435.219427,503.687047 433.916895,504.087986 432.578,504.135 C432.578,504.135 422.996,498.035 421.835,496.295 C420.674,494.555 414.285,482.648 414.285,482.648 C414.285,482.648 418.35,480.325 419.222,478.874 C420.094,477.423 420.093,472.774 420.093,472.774 L417.362,470.284 C417.362,470.284 416.762,472.484 416.395,474.516 C416.028,476.548 414.576,479.452 413.415,479.452 C412.254,479.452 409.059,477.71 409.059,479.743 C409.059,481.776 417.189,496.293 418.931,498.326 C420.673,500.359 430.255,506.456 430.255,506.456 C430.255,506.456 432.868,510.521 430.836,512.263 C428.804,514.005 421.989,510.811 416.395,513.715 C410.801,516.619 396.574,528.233 394.832,529.104 C393.09,529.975 387.863,529.685 387.863,529.685 C387.863,529.685 397.445,522.426 395.412,514.585 C393.379,506.744 381.77,500.068 375.962,497.168 C370.154,494.268 353.023,485.268 352.443,472.197 C351.863,459.126 352.443,432.997 364.643,419.06 C376.843,405.123 398.77,379.28 416.404,376.087 C434.038,372.894 429.104,368.627 446.525,374.345 C463.946,380.063 473.238,387.701 481.95,390.025 C490.662,392.349 502.275,394.961 507.792,393.799 C513.309,392.637 520.858,384.217 524.052,374.055 C527.246,363.893 542.636,293.625 542.636,293.625 C542.636,293.625 544.668,287.817 542.636,286.656 C540.604,285.495 528.118,284.333 524.636,292.173 C521.154,300.013 506.044,371.512 506.044,371.512 Z" id="Path_41" fill="#B7D9EF" fill-rule="nonzero"></path>
                                        <path d="M33.336,447.515 C33.336,447.515 60.563,529.793 104.184,555.239 C132.059,571.5 164,574.4 191.873,570.919 C202.245,569.619 275.497,578.734 293.79,604.153 C312.083,629.572 342.861,694.032 300.759,741.071 C264.376,781.719 226.717,775.043 191.874,770.688 C157.031,766.333 106.046,756.75 89.726,797.688 C73.406,838.626 111.734,870.859 130.026,880.441 C148.318,890.023 203.2,928.1 212.779,958.716 C222.358,989.332 222.557,1000.883 219.748,1016.333 C217.425,1029.109 222.362,1046.821 239.783,1052.919 C257.204,1059.017 319.052,1052.048 347.797,1036.368 C376.542,1020.688 420.097,1004.138 430.55,998.04 C441.003,991.942 517.143,937.94 543.533,934.451 C569.923,930.962 574.279,930.967 574.279,930.967 C574.279,930.967 573.989,869.991 575.731,860.699 C577.473,851.407 584.442,836.309 580.377,821.79 C576.312,807.271 546.114,796.819 542.049,796.239 C537.984,795.659 529.849,788.109 526.949,782.302 C524.049,776.495 519.399,756.75 519.399,756.75 C519.399,756.75 485.137,757.331 481.071,745.136 C477.005,732.941 476.425,721.907 477.587,719.003 C478.749,716.099 476.063,703.396 494.787,705.791 C513.511,708.186 514.169,702.743 522.008,710.582 C529.847,718.421 530.936,722.995 527.67,740.417 C524.404,757.839 532.025,782.882 538.558,786.367 C545.091,789.852 575.144,802.918 578.628,807.273 C582.112,811.628 589.081,817.291 587.774,829.05 C586.467,840.809 581.674,854.75 581.674,868.25 C581.674,881.75 582.545,930.533 582.545,930.533 C582.545,930.533 624.357,959.714 640.473,961.021 C656.589,962.328 671.396,957.536 685.773,970.603 C700.15,983.67 701.452,988.896 704.066,1016.77 C706.68,1044.644 706.243,1073.826 690.999,1094.733 C675.755,1115.64 645.699,1135.238 635.25,1141.771 C624.801,1148.304 609.118,1155.708 609.118,1155.708 L563.385,1151.788 C563.385,1151.788 619.57,1116.944 636.556,1101.701 C653.542,1086.458 663.124,1080.359 666.173,1063.373 C669.222,1046.387 673.142,1008.059 660.073,996.735 C647.004,985.411 635.247,991.944 630.891,991.944 C626.535,991.944 589.95,976.7 583.417,970.167 C576.884,963.634 566,965.374 552.5,968.859 C539,972.344 456.681,1021.559 426.193,1039.417 C395.705,1057.275 328.631,1082.971 287.255,1084.717 C245.879,1086.463 217.568,1083.411 199.275,1060.327 C180.982,1037.243 190.709,1022.145 187.075,998.044 C184.135,978.526 170.524,949.264 148.312,929.664 C126.1,910.064 78.632,887.412 63.824,871.733 C49.016,856.054 44.66,811.633 56.855,783.754 C69.05,755.875 99.1,731.924 161.385,739.328 C223.67,746.732 261.125,746.3 277.239,714.067 C293.353,681.834 299.017,638.718 254.591,615.634 C210.165,592.55 165.741,601.7 146.142,598.212 C126.543,594.724 87.779,590.372 68.615,567.288 C49.451,544.204 16.786,503.263 15.044,499.344 C13.302,495.425 0.236,472.776 0.236,472.776 L33.336,447.515 Z" id="Path_42" fill="#B7D9EF" fill-rule="nonzero"></path>
                                        <path d="M486.3,710.872 C486.3,710.872 476.428,694.612 475.847,684.739 C475.266,674.866 474.104,643.508 459.586,644.088 C445.068,644.668 441.586,660.348 441.003,665.575 C440.42,670.802 438.68,677.775 434.034,680.093 C428.915431,682.836719 425.772864,688.223921 425.904,694.03 C425.904,700.418 427.066,706.806 429.97,710.871 C432.874,714.936 436.358,723.647 432.293,730.616 C428.228,737.585 416.613,749.78 416.613,759.071 C416.613,768.362 420.679,788.107 419.513,792.171 C418.347,796.235 411.383,831.66 410.222,839.209 C409.061,846.758 408.48,874.053 403.834,878.118 C399.188,882.183 385.834,878.118 378.863,876.376 C371.892,874.634 342.863,865.923 324.275,869.988 C305.687,874.053 268.525,884.506 251.104,893.217 L183.74,926.898" id="Path_43" stroke="#B7D9EF" stroke-width="26.784"></path>
                                        <path d="M336.474,1106.345 L337.635,855.472 C337.635,855.472 335.312,807.853 352.735,782.301 C370.158,756.749 396.869,726.551 402.677,707.969 C408.485,689.387 423.583,640.605 423.583,640.605 C423.583,640.605 421.26,631.314 425.906,631.314 C430.552,631.314 436.359,634.798 437.521,631.314 C438.683,627.83 442.167,619.699 442.167,619.699" id="Path_45" stroke="#BBC2C7" stroke-width="5" stroke-dasharray="12"></path>
                                        <circle id="Ellipse_31" fill="#BBC2C7" fill-rule="nonzero" cx="433.224" cy="628.64" r="8.941"></circle>
                                        <path d="M503.717,536.55 C503.717,536.55 500.233,474.703 498.055,466.863 C495.877,459.023 488.473,446.393 485.424,441.163 C482.375,435.933 468.438,424.673 466.26,411.363 C464.082,398.053 464.953,349.703 454.06,334.463 C443.167,319.223 430.106,309.202 401.36,293.958 C372.614,278.714 340.385,259.114 334.722,252.581 C329.059,246.048 316.431,234.283 316.431,226.008 L316.431,210.18 L309.297,212.699 C309.297,212.699 306.717,233.742 312.076,242.559 C315.723,248.559 338.644,269.127 353.888,277.402 C369.132,285.677 415.734,313.117 420.526,315.73 C425.318,318.343 444.916,328.796 448.837,344.694 C452.758,360.592 454.499,396.306 454.499,396.306 C454.499,396.306 453.192,413.728 462.774,426.359 C472.356,438.99 488.906,455.687 489.774,464.107 C490.642,472.527 491.081,479.495 491.081,479.495 C491.081,479.495 473.66,494.739 465.381,494.303 C457.102,493.867 445.346,483.415 445.346,483.415 C445.346,483.415 386.984,431.585 374.788,413.728 C362.592,395.871 335.588,364.076 332.976,344.694 C330.364,325.312 319.044,280.887 309.027,269.563 C299.01,258.239 284.637,249.092 282.459,242.123 C280.281,235.154 276.073,209.461 276.073,209.461 L269.339,208.639 C269.339,208.639 274.183,243.43 277.233,249.092 C280.283,254.754 303.365,273.046 307.285,282.192 C311.205,291.338 321.223,315.729 321.658,326.182 C322.093,336.635 322.529,350.572 326.884,359.282 C331.239,367.992 363.034,411.36 363.034,411.36 C363.034,411.36 407.459,461.634 420.09,472.523 C432.721,483.412 449.503,503.011 463.644,501.268 C477.785,499.525 492.826,485.589 492.826,485.589 L495.003,535.241 L503.717,536.55 Z" id="Path_46" stroke="#79CCD5" fill="#FFFFFF" fill-rule="nonzero"></path>
                                        <path d="M1197.105,635.959 L1205.235,620.859 L909.066,495.424 C909.066,495.424 789.437,458.258 736.011,465.226 C682.585,472.194 519.692,522.137 519.692,522.137 C519.692,522.137 462.781,542.753 408.774,570.047 C354.767,597.341 339.374,603.438 339.374,603.438 C339.374,603.438 274.196,635.938 254.045,643.726 C240.738,649.739 194.064,662.671 176.191,664.414 C158.318,666.157 102.152,659.192 102.152,659.192 L102.152,679.222 C102.152,679.222 170.123,684.611 192.772,681.122 C215.421,677.633 252.795,667.663 271.142,657.731 C304.207,643.41 395.707,603.431 395.707,603.431 L490.655,555.957 C490.655,555.957 505.899,545.526 510.255,548.782 C514.611,552.038 525.063,565.637 542.485,572.557 C559.907,579.477 578.2,580.784 586.039,585.139 C593.878,589.494 597.363,588.188 604.332,603.432 C611.301,618.676 617.398,625.645 629.158,632.614 C640.918,639.583 675.325,656.569 675.325,656.569 C675.325,656.569 695.795,668.328 697.102,677.475 C698.409,686.622 697.974,706.22 727.59,733.225 C757.206,760.23 778.113,756.744 785.952,758.486 C793.791,760.228 812.085,776.778 819.925,788.973 C827.765,801.168 856.511,848.207 865.225,856.918 C873.939,865.629 926.201,916.151 926.201,916.151 L932.301,902.214 C932.301,902.214 876.551,852.562 864.356,836.014 C852.161,819.466 832.992,788.692 830.378,782.592 C827.764,776.492 813.828,756.75 805.407,753.266 C795.771101,749.564635 785.529189,747.693621 775.207,747.749 C766.207,748.039 745.881,737.586 733.685,723.358 C721.489,709.13 710.166,690.547 706.685,673.996 C703.204,657.445 687.811,650.477 683.165,648.735 C678.519,646.993 639.611,629.281 628.865,616.796 C618.119,604.311 610.865,585.146 607.378,583.114 C603.891,581.082 589.378,570.338 579.214,569.757 C569.05,569.176 547.855,562.788 544.37,560.175 L522.302,543.624 C522.302,543.624 557.437,529.976 587.056,523.008 C616.675,516.04 722.073,487.292 751.691,486.132 C781.309,484.972 816.151,488.455 829.508,493.101 C842.865,497.747 871.901,505.301 871.901,505.301 C871.901,505.301 1114.352,590.082 1197.105,635.959 Z" id="Path_40" fill="#019AA8" fill-rule="nonzero"></path>
                                        <path d="M914.874,114.456 C914.874,114.456 895.711,286.926 886.999,323.511 C878.287,360.096 831.25,515.15 796.406,567.411 C761.562,619.672 749.368,607.481 737.173,624.903 C724.978,642.325 684.911,750.342 669.228,772.99 C653.545,795.638 616.963,844.42 594.314,856.615 C571.665,868.81 418.355,936.756 399.191,941.981 C380.027,947.206 285.951,968.114 237.17,971.598 C188.389,975.082 90.828,980.309 90.828,980.309" id="Path_44" stroke="#BECDCE" stroke-width="8" stroke-dasharray="12"></path>
                                    </g>
                                </g>
                            </g>
                        </g>
                    </g>
                </g>
                <g id="Group_94" transform="translate(321.639000, 55.500000)" fill="#019AA8" fill-rule="nonzero">
                    <g id="Group_93" transform="translate(42.176000, 41.081500) rotate(15.008914) translate(-42.176000, -41.081500) translate(7.671912, 8.077590)">
                        <path d="M0.88910534,7.72491524 L7.75991939,0.308036496 L8.80504321,1.27715132 L7.70491287,7.2308567 C7.48517837,8.46377523 7.18449227,9.68088574 6.80480623,10.8742884 L6.83781014,10.8832894 C7.66690837,9.81116242 8.4800047,8.88905317 9.55013149,7.73291619 L12.4254722,4.63254886 L13.3255788,5.46864792 L6.45576487,12.8845265 L5.48665005,11.9844199 L6.61878419,6.03971558 C6.84504228,4.76941652 7.14796509,3.5139735 7.52589166,2.28027016 L7.48288656,2.26026779 C6.67079035,3.24638463 5.8676952,4.16049293 4.72555988,5.39063868 L1.7902121,8.55901406 L0.88910534,7.72491524 Z" id="Path_47"></path>
                        <path d="M17.632089,13.3375802 C17.2540442,13.7016234 16.8319942,14.1106718 16.2319231,14.7597487 L13.3675838,17.8521151 C12.2354496,19.0732598 11.3003389,19.5973219 10.3552269,19.5803199 C9.39821685,19.5231028 8.49699799,19.1108317 7.82792744,18.4241829 C7.19378836,17.8659997 6.72213484,17.146944 6.4627657,16.3429363 L7.38787531,15.8298755 C7.6022583,16.5473436 8.00901317,17.1924098 8.56401466,17.6950965 C9.55313184,18.6132053 10.7642753,18.7682236 12.0034222,17.4260646 L12.5534873,16.8319942 L12.5314847,16.8119919 C11.6303939,17.0557255 10.6678389,16.7963704 10.0111861,16.1329114 C9.3859097,15.5013913 9.04686514,14.6411469 9.07313649,13.752835 C9.09940784,12.8645231 9.48869791,12.0258187 10.1502026,11.4323545 C11.8224007,9.63214121 13.9506529,9.69514867 15.1697973,10.8272828 C15.8914071,11.4238906 16.2031941,12.3838047 15.9698921,13.2905747 L15.9918947,13.310577 L16.7799881,12.5484867 L17.632089,13.3375802 Z M14.6837397,14.5107192 C14.8275934,14.3679134 14.9468785,14.2023334 15.0367815,14.0206612 C15.4322676,13.2571335 15.2657388,12.3231775 14.6307334,11.7433913 C13.7076241,10.8862898 12.3234601,11.0563099 11.1813248,12.2884559 C10.2132101,13.3335797 9.93617723,14.6887403 10.9813011,15.6608555 C11.5996658,16.2272764 12.5128996,16.3299141 13.2415688,15.9148856 C13.4487942,15.7957325 13.6363627,15.6452729 13.7976347,15.4688327 L14.6837397,14.5107192 Z" id="Path_48"></path>
                        <path d="M21.5785566,21.8575897 C20.9600055,22.6540701 20.0317749,23.149739 19.0258196,23.2207342 C18.0198642,23.2917293 17.0312176,22.9313437 16.306932,22.2296337 C15.5879487,21.577624 15.1767303,20.6530131 15.1740529,19.6824222 C15.1714015,18.7118313 15.5775375,17.7849767 16.2929304,17.1290294 C16.9090087,16.3336875 17.8341268,15.8377177 18.8375257,15.7648334 C19.8409246,15.6919491 20.8280054,16.0490218 21.5525535,16.7469842 C22.2806796,17.3950123 22.6993473,18.3217707 22.7043513,19.2964929 C22.7092662,20.2712151 22.3000507,21.2021858 21.5785566,21.8575897 Z M17.3020499,18.0021329 C16.221922,19.168271 16.0779049,20.670449 17.024017,21.5475529 C17.9481265,22.4026542 19.446304,22.1756273 20.5574356,20.9764853 C21.3935347,20.0763786 22.003607,18.5121933 20.8574712,17.4520677 C19.7113354,16.3919421 18.2401611,16.9860125 17.3020499,18.0021329 Z M23.8578267,14.8327574 L23.4577793,17.3850598 L22.7096906,16.6919776 L23.0397297,15.0547837 L23.016727,15.0347813 L21.4105367,15.4888351 L20.695452,14.8257565 L23.1877473,14.2106837 L23.8578267,14.8327574 Z" id="Path_49"></path>
                        <path d="M28.0703257,32.4508447 C27.2139158,32.1307815 26.4352961,31.6323831 25.7860551,30.9886715 C24.7242097,30.1189951 24.0930479,28.8305408 24.0567593,27.4584855 C24.0204707,26.0864302 24.5826427,24.7664141 25.5970327,23.8418248 C26.5071393,22.7403885 27.8425999,22.0778177 29.2702016,22.0194314 C30.6978034,21.9610452 32.0829093,22.5123498 33.0799193,23.5357885 C33.7076087,24.0703221 34.2049708,24.741111 34.5340916,25.4970209 L33.5789784,26.064088 C33.3066038,25.414663 32.8932501,24.8339181 32.368835,24.3638866 C30.6306291,22.7536958 28.4453702,22.7947007 26.6401563,24.7419314 C24.9589571,26.5571465 24.923953,28.6923994 26.7271666,30.3635974 C27.2565493,30.8689426 27.8862325,31.2573836 28.5753856,31.5037325 L28.0703257,32.4508447 Z" id="Path_50"></path>
                        <path d="M36.2532953,25.9630761 L37.2204098,26.8631827 L34.1420451,30.1855764 L34.1650478,30.2065788 C34.5945586,30.0708998 35.0532918,30.0570513 35.4902048,30.1665741 C35.9539006,30.2682092 36.3828655,30.4895882 36.7343522,30.8086502 C37.4504371,31.4707286 38.1865243,32.9719065 36.4843226,34.8091241 L33.5489748,37.9774995 L32.57986,37.0773929 L35.4141958,34.0190305 C36.2142906,33.1609289 36.5623319,32.1388078 35.6492237,31.2927075 C35.0423234,30.7499275 34.1564574,30.6557036 33.448963,31.0586798 C33.2593127,31.1574122 33.0915961,31.2934906 32.9559046,31.4587272 L29.9785518,34.6711078 L29.009437,33.7710012 L36.2532953,25.9630761 Z" id="Path_51"></path>
                        <path d="M35.1261617,39.4356723 L40.0597462,34.1100413 L41.0288611,35.010148 L36.0942764,40.3357789 L35.1261617,39.4356723 Z M44.1602321,33.634985 L41.3599003,33.9650241 L40.6668182,33.3219479 L43.0921055,32.6458678 L44.1602321,33.634985 Z" id="Path_52"></path>
                        <path d="M45.1763524,50.7700152 C44.4202629,49.5778739 43.7161794,48.3697308 43.1331104,47.2816019 C43.0461082,47.0878512 42.9282276,46.9095104 42.784069,46.7535393 C41.0838676,45.0533379 40.783832,42.3610189 42.9920937,39.973736 C45.2003553,37.5864532 48.0626944,37.4134327 50.0659318,39.2736531 C52.0691691,41.1338735 51.9411539,43.915203 49.9129136,46.1044624 C48.1487046,48.0046875 46.1364662,48.413736 44.5122738,47.704652 L44.472269,47.7486572 C45.0353357,48.6187603 45.6724112,49.5388693 46.2004738,50.2309513 L45.1763524,50.7700152 Z M48.8587887,45.2053559 C50.2359519,43.7201799 50.8830286,41.4779143 49.3088421,40.0197415 C47.6916505,38.5195638 45.5083918,39.2836543 44.0362174,40.9008459 C42.5670433,42.463031 42.1209905,44.6882946 43.6171677,46.0744589 C45.1463489,47.4916268 47.2896028,46.9005567 48.8587887,45.2053559 L48.8587887,45.2053559 Z" id="Path_53"></path>
                        <path d="M53.4603339,53.7193646 C52.9502735,54.2694298 52.5122216,54.7634883 52.1601799,55.2125415 L51.3020782,54.4174473 L52.0531672,53.4973383 L52.0301645,53.4763358 C51.0872826,53.7613484 50.0639783,53.5167947 49.3518472,52.83626 C48.5157481,52.0611682 47.9426802,50.6720036 49.6768857,48.8007819 L52.5602273,45.687413 L53.5293421,46.5875196 L50.7970184,49.535869 C49.8589072,50.5479889 49.535869,51.5161036 50.4159732,52.3312001 C50.9893671,52.8433465 51.8140079,52.9616028 52.5082211,52.6312357 C52.7130541,52.5262127 52.8978765,52.3860727 53.0542858,52.2171866 L56.0816445,48.9487994 L57.0507593,49.848906 L53.4603339,53.7193646 Z" id="Path_54"></path>
                        <path d="M61.0432323,58.40692 C60.4247167,59.2035372 59.4963601,59.699227 58.4903053,59.7700383 C57.4842505,59.8408496 56.4956124,59.4800877 55.7716078,58.777964 C55.0526244,58.1259542 54.641406,57.2013433 54.6387286,56.2307524 C54.6360773,55.2601615 55.0422133,54.3333069 55.7576061,53.6773596 C56.3740215,52.8824345 57.2991722,52.3868687 58.3024621,52.3141832 C59.3057521,52.2414976 60.2926718,52.5985392 61.0172293,53.2963145 C61.7453553,53.9443426 62.164023,54.871101 62.169027,55.8458232 C62.1739419,56.8205454 61.7647265,57.7515161 61.0432323,58.40692 L61.0432323,58.40692 Z M56.7667257,54.5474627 C55.6865977,55.7136009 55.5425806,57.2157789 56.4886927,58.0928828 C57.4128022,58.9489842 58.9109797,58.7219573 60.0221114,57.5228152 C60.8582104,56.6227086 61.4682827,55.0585233 60.3221469,53.9983977 C59.1760111,52.9382721 57.706837,53.5403434 56.7667257,54.5524633 L56.7667257,54.5474627 Z M63.3995115,51.4470954 L62.8874508,53.8973857 L62.1503635,53.2143048 L62.5504109,51.6601206 L62.5274082,51.6401183 L61.0092283,52.1541792 L60.3091454,51.5021019 L62.6904275,50.785017 L63.3995115,51.4470954 Z M66.5238817,52.6652397 L64.0895933,53.1082922 L63.5275267,52.5882306 L65.6217748,51.8301408 L66.5238817,52.6652397 Z" id="Path_55"></path>
                        <path d="M63.749553,65.5807699 C63.0703044,65.3489938 62.4505188,64.9702928 61.9343379,64.4716385 C61.174515,63.8361165 60.7245781,62.904612 60.6991236,61.9143741 C60.6736691,60.9241362 61.0751539,59.9707455 61.8013222,59.2970254 C62.4751691,58.4975864 63.4567151,58.0217904 64.5017188,57.9880314 C65.5467225,57.9542724 66.5569313,58.3657244 67.2809714,59.1200045 C67.7475385,59.5429064 68.1185059,60.0604878 68.3691003,60.6381843 L67.4559921,61.1832489 C67.2763559,60.6828601 66.9704256,60.2374007 66.5678869,59.8900957 C65.4556578,58.9776782 63.8268463,59.0823068 62.8404969,60.1295289 C61.8541475,61.176751 61.8471324,62.8089045 62.8244434,63.8645666 C63.2334913,64.2473503 63.7232574,64.5334175 64.2576132,64.7016658 L63.749553,65.5807699 Z" id="Path_56"></path>
                    </g>
                </g>
                <g id="ĐT_43-2" transform="translate(417.076521, 55.072848) rotate(30.000000) translate(-417.076521, -55.072848) translate(396.576521, 46.072848)" fill="#019AA8" font-family="Helvetica" font-size="15" font-weight="normal">
                    <text id="ĐT-43">
                        <tspan x="0" y="15">ĐT 43</tspan>
                    </text>
                </g>
                <g id="ĐT_743" transform="translate(603.921244, 31.869230) rotate(-88.961000) translate(-603.921244, -31.869230) translate(579.421244, 22.869230)" fill="#019AA8" font-family="Helvetica" font-size="15" font-weight="normal">
                    <text id="ĐT-743">
                        <tspan x="0" y="15">ĐT 743</tspan>
                    </text>
                </g>
                <g id="Group_96" transform="translate(663.907000, 199.500000)" fill="#FFFFFF" fill-rule="nonzero">
                    <g id="Group_95">
                        <path d="M14.42,25.18 C12.5714796,25.1424942 10.7260786,25.010656 8.891,24.785 C8.59133637,24.7527601 8.2887305,24.7601572 7.991,24.807 C4.925,25.418 1.665,23.871 0.591,19.624 C-0.431,15.589 1.353,12.124 5.096,11.176 C8.879,10.218 11.865,12.557 12.796,16.242 C13.596,19.403 12.677,21.885 10.949,23.128 L10.968,23.206 C12.168,23.231 13.502,23.183 14.623,23.126 L14.42,25.18 Z M10.3,17 C9.667,14.5 7.865,12.519 5.5,13.119 C3.114,13.719 2.409,16.319 3.091,18.93 C3.736,21.553 5.619,23.366 7.908,22.787 C10.217,22.2 11,19.731 10.3,17 Z" id="Path_57"></path>
                        <polygon id="Path_58" points="13.21 9.35 15.595 8.745 18.4 19.819 23.773 18.458 24.279 20.458 16.521 22.423"></polygon>
                        <path d="M25.366,18.78 C25.2422118,18.3829456 25.2888328,17.9523187 25.4947293,17.590957 C25.7006259,17.2295953 26.0473135,16.9699403 26.452,16.874 C27.2861557,16.6902024 28.115473,17.2021941 28.3249269,18.0302801 C28.5343808,18.8583661 28.0482273,19.7030895 27.227,19.938 C26.8258021,20.0458523 26.3978422,19.9824851 26.0451123,19.7630004 C25.6923825,19.5435156 25.4464769,19.1875725 25.366,18.78 L25.366,18.78 Z" id="Path_59"></path>
                        <polygon id="Path_60" points="35.23 6.563 35.191 6.572 33.178 8.321 32.314 6.621 34.995 4.332 36.995 3.826 40.188 16.432 37.881 17.017"></polygon>
                        <path d="M46.761,10.826 L46.575,14.815 L44.112,15.439 L44.99,1.307 L48.035,0.535 L55.593,12.535 L53.033,13.183 L50.912,9.783 L46.761,10.826 Z M50.047,8.074 L48.204,5.115 C47.751,4.384 47.311,3.546 46.925,2.839 L46.886,2.849 C46.886,3.649 46.921,4.615 46.886,5.449 L46.693,8.924 L50.047,8.074 Z" id="Path_61"></path>
                    </g>
                </g>
                <g id="Quận_12" transform="translate(139.721000, 377.836000) rotate(6.662964) translate(-139.721000, -377.836000) translate(100.730654, 365.838970)" fill="#019AA8" font-family="Helvetica" font-size="20" font-weight="normal">
                    <text id="Quận-12">
                        <tspan x="0.270932919" y="19">Quận 12</tspan>
                    </text>
                </g>
                <g id="Group_98" transform="translate(154.000000, 306.500000)" fill="#1162A1" fill-rule="nonzero">
                    <g id="Group_97">
                        <path d="M0.494,11.949 C1.43720686,12.515489 2.51479305,12.8193261 3.615,12.829 C5.395,12.829 6.435,11.889 6.435,10.529 C6.435,9.27 5.714,8.549 3.894,7.849 C1.694,7.068 0.334,5.929 0.334,4.028 C0.334,1.928 2.074,0.367 4.695,0.367 C5.72806387,0.332532725 6.75309819,0.55955375 7.675,1.027 L7.195,2.448 C6.40788239,2.02490079 5.5276205,1.80492125 4.634,1.808 C2.795,1.808 2.094,2.908 2.094,3.828 C2.094,5.089 2.915,5.709 4.775,6.428 C7.055,7.308 8.215,8.408 8.215,10.389 C8.215,12.469 6.675,14.27 3.495,14.27 C2.29256732,14.2850359 1.10673593,13.9884057 0.053,13.409 L0.494,11.949 Z" id="Path_62"></path>
                        <path d="M19.431,9.215 C19.407,12.795 16.916,14.339 14.575,14.322 C11.955,14.305 9.947,12.37 9.968,9.31 C9.991,6.069 12.124,4.183 14.804,4.201 C17.586,4.221 19.452,6.254 19.431,9.215 Z M11.749,9.262 C11.734,11.382 12.949,12.991 14.664,13.0030682 C16.344,13.015 17.616,11.442 17.63,9.262 C17.642,7.622 16.836,5.536 14.755,5.521 C12.674,5.506 11.761,7.422 11.749,9.262 L11.749,9.262 Z M15.349,0.244 L17.249,3.118 L15.888,3.108 L14.741,1.2 L14.701,1.2 L13.528,3.093 L12.228,3.084 L14.128,0.236 L15.349,0.244 Z" id="Path_63"></path>
                        <path d="M21.692,7.1 C21.71,6.1 21.704,5.279 21.658,4.478 L23.218,4.505 L23.291,6.105 L23.331,6.105 C23.9965064,4.96176007 25.2414679,4.28226991 26.563,4.341 C27.903,4.364 29.969,5.201 29.912,8.521 L29.812,14.303 L28.051,14.272 L28.151,8.691 C28.178,7.131 27.621,5.82 25.961,5.791 C24.5580113,5.81982653 23.4353356,6.96471584 23.434,8.368 L23.334,14.189 L21.573,14.158 L21.692,7.1 Z" id="Path_64"></path>
                        <path d="M41.29,4.989 C41.225,5.689 41.159,6.466 41.119,7.645 L40.925,13.262 C40.849,15.48 40.363,16.824 39.394,17.632 C38.3790177,18.4089822 37.1105694,18.7791394 35.837,18.67 C34.7106622,18.6604687 33.6079426,18.3459984 32.646,17.76 L33.131,16.437 C33.9731371,16.9733538 34.9458463,17.2693506 35.944,17.293 C37.744,17.354 39.094,16.461 39.178,14.022 L39.215,12.942 L39.175,12.942 C38.4795695,13.9741061 37.2827924,14.5524401 36.042,14.456 C33.642,14.373 31.994,12.275 32.086,9.597 C32.198,6.318 34.401,4.533 36.62,4.609 C37.8694722,4.57904021 39.0235511,5.27437173 39.581,6.393 L39.621,6.393 L39.751,4.937 L41.29,4.989 Z M39.339,8.744 C39.3581357,8.47519696 39.3338239,8.20506668 39.267,7.944 C39.000241,6.82930515 38.0187151,6.03227661 36.873,6 C35.193,5.942 33.945,7.32 33.868,9.559 C33.803,11.459 34.709,13.07 36.607,13.135 C37.7242154,13.166466 38.7341668,12.4736393 39.107,11.42 C39.2117439,11.1189454 39.26975,10.8036214 39.279,10.485 L39.339,8.744 Z" id="Path_65"></path>
                        <path d="M47.866,12.876 C48.7699064,13.5029763 49.8250025,13.8768864 50.922,13.959 C52.699,14.075 53.797,13.205 53.887,11.849 C53.969,10.591 53.298,9.825 51.528,9.007 C49.384,8.084 48.101,6.857 48.228,4.962 C48.366,2.862 50.205,1.423 52.819,1.596 C53.85238,1.62811157 54.8607682,1.92157973 55.75,2.449 L55.177,3.835 C54.4200962,3.36066295 53.5565423,3.08323939 52.665,3.028 C50.829,2.907 50.058,3.959 49.998,4.877 C49.915,6.135 50.693,6.808 52.498,7.647 C54.715,8.676 55.798,9.847 55.67,11.825 C55.534,13.901 53.879,15.597 50.706,15.388 C49.5059709,15.3240928 48.3429169,14.9506477 47.33,14.304 L47.866,12.876 Z" id="Path_66"></path>
                        <path d="M63.042,16.2 L63.02,14.973 L62.96,14.967 C62.176597,15.8242981 61.0283405,16.2519632 59.875,16.116 C59.1030704,16.0986139 58.3737764,15.7584395 57.8644005,15.1781691 C57.3550245,14.5978986 57.1122165,13.8306748 57.195,13.063 C57.42,10.733 59.614,9.663 63.336,10.039 L63.354,9.839 C63.4897475,9.24158399 63.3441942,8.61490574 62.9590336,8.13847672 C62.573873,7.6620477 61.9915977,7.38842957 61.379,7.396 C60.4923428,7.31438501 59.6003445,7.4787369 58.801,7.871 L58.514,6.678 C59.5245257,6.19525832 60.6498173,6.00441939 61.763,6.127 C64.711,6.412 65.233,8.492 65.046,10.427 L64.699,14.027 C64.6115623,14.7987631 64.5898175,15.5765572 64.634,16.352 L63.042,16.2 Z M63.257,11.257 C61.35,11.032 59.147,11.157 58.966,13.033 C58.8856452,13.4799213 59.0043987,13.9396521 59.2911479,14.2917463 C59.5778972,14.6438406 60.0040655,14.8532095 60.458,14.865 C61.5002163,14.9942935 62.5059499,14.4329445 62.943,13.478 C63.0223043,13.304444 63.0739302,13.1195357 63.096,12.93 L63.257,11.257 Z M61.407,2.114 L62.865,5.129 L61.63,5.01 L59.475,1.928 L61.407,2.114 Z" id="Path_67"></path>
                        <path d="M67.206,16.677 L68.424,7.077 L70.17,7.299 L68.951,16.899 L67.206,16.677 Z M70.711,4.625 C70.635337,5.22229596 70.089796,5.64516301 69.4925,5.5695 C68.895204,5.49383699 68.472337,4.94829596 68.548,4.351 C68.5772297,4.05820629 68.7255268,3.79029953 68.9581286,3.61008041 C69.1907304,3.42986129 69.4871851,3.35317581 69.778,3.398 C70.0699014,3.42471762 70.3371616,3.57280341 70.5145824,3.80613172 C70.6920032,4.03946002 70.763271,4.33657674 70.711,4.625 L70.711,4.625 Z" id="Path_68"></path>
                        <path d="M85.978,19.368 C84.5805048,19.5598607 83.1606893,19.5152379 81.778,19.236 C79.9181286,19.0270446 78.2461572,18.0055075 77.2114715,16.4459532 C76.1767857,14.886399 75.8855348,12.9488233 76.416,11.154 C77.266,7.227 80.574,4.922 84.995,5.854 C86.1260197,6.06502797 87.2011919,6.50762576 88.153,7.154 L87.453,8.454 C86.6177597,7.85902176 85.6618205,7.45513747 84.653,7.271 C83.2393251,6.85440208 81.7141335,7.0774446 80.4789524,7.88140866 C79.2437712,8.68537271 78.4223724,9.98969673 78.231,11.451 C77.524,14.797 79.121,17.198 82.192,17.851 C82.9559803,18.0560005 83.7543428,18.0992565 84.536,17.978 L85.367,14.046 L82.687,13.479 L82.976,12.11 L87.319,13.028 L85.978,19.368 Z" id="Path_69"></path>
                        <path d="M97.926,19.007 C96.678,22.36 93.811,22.957 91.619,22.142 C89.165,21.229 87.941,18.725 89.008,15.858 C90.137,12.822 92.787,11.781 95.297,12.716 C97.9,13.686 98.959,16.233 97.926,19.007 Z M90.697,16.423 C89.958,18.409 90.543,20.333 92.154,20.933 C93.728,21.519 95.46,20.478 96.219,18.433 C96.792,16.895 96.749,14.661 94.799,13.933 C92.849,13.205 91.338,14.7 90.7,16.423 L90.697,16.423 Z M96,8.755 L96.632,12.041 L95.47,11.608 L94.182,8.078 L96,8.755 Z" id="Path_70"></path>
                        <path d="M101.709,18.526 C102.329,17.742 102.822,17.087 103.271,16.426 L104.494,17.394 L103.581,18.711 L103.612,18.735 C104.834571,18.231368 106.235505,18.4461855 107.251,19.293 C108.301,20.124 109.436,22.042 107.378,24.646 L103.792,29.179 L102.412,28.087 L105.873,23.711 C106.84,22.487 107.192,21.111 105.89,20.078 C104.757504,19.250462 103.171209,19.480186 102.32,20.595 L98.71,25.159 L97.33,24.067 L101.709,18.526 Z" id="Path_71"></path>
                    </g>
                </g>
                <g id="QL._13" transform="translate(383.350620, 412.003298) rotate(-69.731000) translate(-383.350620, -412.003298) translate(352.350620, 400.003298)" fill="#019AA8" font-family="Helvetica" font-size="20" font-weight="normal">
                    <text id="QL.-13">
                        <tspan x="0.961" y="19">QL. 13</tspan>
                    </text>
                </g>
                <g id="QL._13-2" transform="translate(93.070000, 128.367000) rotate(-79.454266) translate(-93.070000, -128.367000) translate(62.073441, 116.368332)" fill="#019AA8" font-family="Helvetica" font-size="20" font-weight="normal">
                    <text id="QL.-13">
                        <tspan x="0.960893323" y="19">QL. 13</tspan>
                    </text>
                </g>
                <g id="Đi_Biên_Hoà" transform="translate(1111.703946, 255.254842) rotate(-50.000000) translate(-1111.703946, -255.254842) translate(1057.703946, 243.254842)" fill="#01233A" font-family="Helvetica" font-size="20" font-weight="normal">
                    <text id="Đi-Biên-Hoà">
                        <tspan x="0.281" y="19">Đi Biên Hoà</tspan>
                    </text>
                </g>
                <g id="Group_100" transform="translate(837.992000, 302.099000) rotate(-4.012171) translate(-837.992000, -302.099000) translate(801.975732, 270.084539)" fill="#FFFFFF" fill-rule="nonzero">
                    <g id="Group_99" transform="translate(0.489221, 0.133060)">
                        <path d="M0,54.8827902 C0.619982075,54.4623814 1.27386476,54.0942795 1.95488301,53.7822931 C2.74854689,53.3369504 3.67819594,53.1988026 4.56706291,53.3941178 C5.25017363,53.6080664 5.80406993,54.1125403 6.08074664,54.7727405 C6.41267795,55.4021423 6.47861775,56.1382899 6.26382933,56.8166637 C5.87888417,57.7592636 5.12633995,58.504221 4.17988803,58.8795955 C3.89914919,59.0216646 3.60263498,59.1301291 3.296489,59.2027415 L4.8231786,62.4822228 L3.7667014,62.9734447 L0,54.8827902 Z M2.89430734,58.3383511 C3.21122859,58.2695615 3.51838253,58.1616879 3.80872038,58.017206 C5.08429655,57.4229376 5.57351752,56.4424947 5.04727982,55.3159859 C4.54705388,54.2344974 3.53559701,54.0684224 2.37007055,54.6156696 C2.03184532,54.7622457 1.71104665,54.9461345 1.41363853,55.1639172 L2.89430734,58.3383511 Z" id="Path_72"></path>
                        <path d="M5.93067885,51.4612447 L6.99115786,50.9440111 L8.76395863,54.5846555 L8.78796947,54.5726501 C8.81556009,54.1706388 8.9540858,53.7841521 9.18815023,53.4561458 C9.42298084,53.1023219 9.74657079,52.8163346 10.1265741,52.6267712 C10.9099279,52.2445986 12.3986004,52.1165407 13.3790432,54.127449 L15.0688065,57.5990171 L14.007327,58.1152503 L12.3765904,54.7647369 C11.9193839,53.8243121 11.1820509,53.1990297 10.1805985,53.6862497 C9.53650654,54.0178381 9.17460321,54.7223432 9.2801918,55.4390415 C9.30085921,55.6297217 9.36008538,55.8142078 9.45427044,55.9812864 L11.1680445,59.5008762 L10.1075655,60.0171094 L5.93067885,51.4612447 Z" id="Path_73"></path>
                        <path d="M20.0010343,55.0378603 L19.5378251,54.3585534 L19.5028093,54.377562 C19.3790011,55.1452161 18.8930103,55.806238 18.1972196,56.1533641 C17.7585674,56.4272317 17.2251869,56.5046445 16.7267772,56.3667784 C16.2283676,56.2289124 15.8105908,55.8883981 15.5750351,55.4280365 C14.8457057,54.0414102 15.6750803,52.6337743 17.9040872,51.4792529 L17.8420591,51.3601991 C17.6992856,50.9758593 17.3880137,50.6783092 16.9976317,50.5529966 C16.6072497,50.427684 16.1809507,50.4884738 15.8411554,50.717909 C15.3137698,50.9974405 14.8740192,51.4174543 14.5705814,51.9314571 L13.9703103,51.3682027 C14.3591393,50.7269705 14.9194641,50.2071887 15.588041,49.8675249 C17.3428336,48.9451082 18.3993109,49.9175474 19.0045843,51.0680671 L20.1340944,53.2150369 C20.3682016,53.6796455 20.6420095,54.1231607 20.9524641,54.5406357 L20.0010343,55.0378603 Z M18.3062688,52.1895737 C17.1547487,52.7648335 15.9682127,53.6462317 16.5544776,54.7607351 C16.6735578,55.040655 16.9088593,55.254675 17.198781,55.3467655 C17.4887027,55.438856 17.8043761,55.3998472 18.063159,55.2399515 C18.6940952,54.9291718 19.0510839,54.2455506 18.9455576,53.5501883 C18.9260761,53.4234967 18.8869198,53.3006268 18.8295052,53.1860238 L18.3062688,52.1895737 Z M20.2241351,56.903703 C20.3479049,57.116622 20.3449469,57.3802657 20.216431,57.590354 C20.087915,57.8004423 19.8545417,57.9231356 19.6086182,57.9099045 C19.3626947,57.8966733 19.1438327,57.749649 19.0385996,57.5269846 C18.9527072,57.3667459 18.9347364,57.1787338 18.9887186,57.0051255 C19.0427009,56.8315171 19.1641169,56.6868464 19.3257293,56.6035675 C19.4844078,56.5227114 19.6689072,56.508955 19.837822,56.5653853 C20.0067367,56.6218156 20.1459196,56.7437065 20.2241351,56.903703 Z" id="Path_74"></path>
                        <path d="M20.403216,49.5083626 C20.0580601,48.9331028 19.7639272,48.4698935 19.4527867,48.0306952 L20.3371862,47.4994552 L20.9214501,48.3688479 L20.9564659,48.3478384 C20.9090405,47.4979782 21.3480313,46.6948421 22.0889775,46.2759025 C22.7948391,45.8425042 23.6990743,45.9106647 24.3319906,46.4449789 L24.355001,46.431973 C24.3392354,46.0561544 24.4026337,45.6812179 24.5410851,45.3314759 C24.7309661,44.8506205 25.0831369,44.4513755 25.5365347,44.2029662 C26.2718668,43.7617669 27.6534909,43.5876883 28.8130147,45.5185605 L30.7799031,48.79404 L29.7914566,49.3873079 L27.9006025,46.2388858 C27.2583124,45.1704032 26.4809613,44.7612184 25.665593,45.2514398 C25.1269092,45.606324 24.8694106,46.2614837 25.0223024,46.8881791 C25.0679883,47.0829041 25.1432275,47.2694837 25.2454032,47.441429 L27.3093355,50.8769808 L26.320889,51.4702488 L24.3199852,48.1377435 C23.7887452,47.253344 23.0113941,46.8441592 22.2410461,47.306368 C21.5309603,47.8532762 21.3464342,48.8470442 21.8128527,49.6124096 L23.8267624,52.9669248 L22.8393164,53.5601928 L20.403216,49.5083626 Z" id="Path_75"></path>
                        <path d="M36.4064446,44.7832283 L28.6029198,39.3707835 L29.6033717,38.6094396 L33.412092,41.3026562 C34.4585647,42.0399892 35.388985,42.7122929 36.2203605,43.4096078 L36.2423705,43.3936006 C35.8131766,42.4061546 35.4240008,41.2726426 35.0318237,40.0921094 L33.5521553,35.6140867 L34.5446036,34.8607464 L37.4309073,44.0048767 L36.4064446,44.7832283 Z" id="Path_76"></path>
                        <path d="M35.5890754,33.7252335 C35.9535796,34.0885007 36.5370457,34.107731 36.9246786,33.7692534 C37.3158318,33.4266516 37.360339,32.8338154 37.0247238,32.4366514 L37.5429579,31.9714413 C37.94377,32.4127541 38.0774681,33.0349585 37.8933221,33.601966 C37.7091761,34.1689736 37.235406,34.5938916 36.6517783,34.7154898 C36.0681507,34.8370879 35.4641053,34.6367315 35.0688404,34.1904436 L35.5890754,33.7252335 Z M43.4066065,38.9916123 L42.7913286,38.4453655 L42.761315,38.4723777 C42.8288266,39.2478387 42.5185971,40.0083291 41.9279386,40.5153005 C41.5691488,40.8876906 41.0707347,41.092701 40.5537662,41.0805326 C40.0367977,41.0683641 39.5485813,40.8401304 39.2077099,40.4512716 C38.1612372,39.2837442 38.6264473,37.7150356 40.5012942,36.0492832 L40.4112535,35.949238 C40.1788844,35.6101681 39.8034241,35.3968747 39.3931939,35.3708934 C38.9829638,35.3449122 38.5835942,35.5091331 38.3103045,35.8161779 C37.8675349,36.2161326 37.5438272,36.7306028 37.374882,37.3028495 L36.6565575,36.9026687 C36.8763783,36.1855879 37.2921927,35.5441942 37.8570998,35.0508322 C39.3337668,33.7272344 40.5973376,34.4125439 41.4647294,35.3809814 L43.0834605,37.1877975 C43.4244929,37.5806753 43.7983435,37.9438159 44.2009653,38.2732878 L43.4066065,38.9916123 Z M41.06755,36.6435517 C40.0921094,37.4819304 39.1556864,38.6264473 39.9970664,39.5658717 C40.1805228,39.8083497 40.4605355,39.9588469 40.7639865,39.9780648 C41.0674375,39.9972828 41.3641992,39.8833134 41.57678,39.6659168 C42.1134047,39.2105721 42.2927886,38.459832 42.0199802,37.811079 C41.970808,37.6931476 41.9032753,37.5837446 41.8198898,37.4869326 L41.06755,36.6435517 Z" id="Path_77"></path>
                        <path d="M42.429165,33.4180947 C41.928939,32.9708927 41.5117506,32.6177332 41.0855581,32.2855832 L41.7858744,31.5072316 L42.6292554,32.1735326 L42.6462631,32.1535235 C42.3596478,31.3148389 42.5615176,30.3863917 43.1704998,29.7424345 C43.770771,29.0741326 45.0993711,28.3938253 46.7561194,29.8794964 L49.6394218,32.4646641 L48.8520662,33.3430609 L46.0678085,30.8419311 C45.289457,30.1416148 44.3810466,29.8514837 43.6387113,30.6808584 C43.1569995,31.2356897 43.0929128,32.0396132 43.4806399,32.663754 C43.5752045,32.8243746 43.6955289,32.9683583 43.8368008,33.0899465 L46.7381113,35.6911215 L45.9507557,36.5695182 L42.429165,33.4180947 Z" id="Path_78"></path>
                        <path d="M48.0907223,26.1107941 L48.7390151,25.2103874 L45.5815889,22.9453643 C45.9493274,22.2006219 46.3779789,21.4875411 46.8631678,20.8134013 C47.5477271,19.6821773 48.6373389,18.8540581 49.9105443,18.4973551 C51.1209384,18.2787148 52.3664356,18.5999566 53.3200844,19.3767524 C54.4146079,20.0852859 55.1746156,21.2077866 55.4260356,22.4871573 C55.5386869,23.9356931 55.0825761,25.3711326 54.1544612,26.4889649 C53.7489928,27.0682144 53.3114456,27.6243336 52.8438692,28.1547173 L49.5013595,25.7536328 L48.8530666,26.6540395 L48.0907223,26.1107941 Z M51.5873017,22.8453191 L50.1806663,24.8062048 L52.7948471,26.6810517 C53.054129,26.3903736 53.2956749,26.0843486 53.5181738,25.7646377 C54.9868372,23.7167127 54.6466836,21.8238577 52.6177671,20.3712015 C50.8719786,19.103629 49.0911742,19.3087216 47.6545253,21.3126268 C47.380781,21.6811441 47.1460812,22.0771161 46.9542089,22.4941605 L49.4153206,24.2599581 L50.8209555,22.3000728 L51.5873017,22.8453191 Z" id="Path_79"></path>
                        <path d="M51.8344133,11.49019 L53.7802922,11.771317 L53.3961187,12.3375728 L51.2331417,12.3775909 L51.8344133,11.49019 Z M52.090529,13.0719045 L54.3235376,13.1919587 L53.8233117,13.9352945 L52.4046709,13.7832258 L52.3816605,13.8162407 L53.0489619,15.0768101 L52.5597409,15.7981359 L51.612313,13.7802244 L52.090529,13.0719045 Z M58.5524478,14.2124197 C59.3386604,14.6509748 59.9011945,15.4032758 60.0995384,16.2814106 C60.2978823,17.1595454 60.1133074,18.0805956 59.5919173,18.8144984 C59.1132783,19.5374689 58.3522777,20.0254176 57.4955279,20.1586898 C56.6387781,20.291962 55.7655164,20.0582319 55.0898838,19.5148147 C54.3043716,19.0779026 53.741479,18.3278272 53.5414843,17.4515146 C53.3414896,16.5752021 53.5232286,15.6551846 54.0414102,14.9207396 C54.5160931,14.1905883 55.2784286,13.6962787 56.138716,13.5608154 C56.9990034,13.4253521 57.8763545,13.661472 58.5524478,14.2104188 L58.5524478,14.2124197 Z M55.7221694,18.5143628 C56.8987008,19.3147243 58.2443086,19.2356886 58.8906005,18.2812575 C59.5218857,17.3498368 59.1187036,16.057253 57.9101577,15.2378829 C57.0007469,14.6216045 55.5390867,14.2954572 54.7577337,15.4489782 C53.9763808,16.6024992 54.7017084,17.8180483 55.7221694,18.5123619 L55.7221694,18.5143628 Z" id="Path_80"></path>
                        <path d="M58.163272,12.1815023 C57.5950153,11.8263419 57.1208011,11.5472158 56.6455865,11.2971028 L57.1988364,10.409702 L58.1432629,10.9209329 L58.1572693,10.8979225 C57.7300316,10.1214492 57.76856,9.17210735 58.2573145,8.43280905 C58.7325291,7.67146515 59.9260682,6.7720589 61.8129205,7.95059123 L65.0974041,10.0005172 L64.4731221,11.0009691 L61.3006891,9.02107476 C60.4142888,8.46782486 59.4698622,8.33676567 58.880596,9.2801918 C58.5016809,9.90954206 58.5771352,10.7123597 59.0666801,11.2600861 C59.1873451,11.4026146 59.3306602,11.5242972 59.4908717,11.6202488 L62.7993661,13.6851815 L62.1750841,14.6856334 L58.163272,12.1815023 Z" id="Path_81"></path>
                        <path d="M63.0975007,0 C63.5036842,0.236106648 63.9568889,0.500225949 64.6622075,0.857387276 L68.0177232,2.56615912 C69.3433219,3.24146415 70.018627,3.91877008 70.2367255,4.73513883 C70.4206517,5.57161195 70.286174,6.4466085 69.8595551,7.18924734 C69.5338838,7.87111184 69.0298725,8.45221125 68.4008963,8.87100698 L67.7355957,8.20070421 C68.3000843,7.84200034 68.7554481,7.3354254 69.0521904,6.73604263 C69.3699344,6.22432486 69.4336216,5.59456916 69.2247634,5.0295961 C69.0159053,4.46462303 68.5578998,4.02772569 67.9837078,3.8457371 L67.3384163,3.51658842 L67.3264109,3.54059927 C67.7565777,4.25546767 67.7684288,5.1465975 67.3574249,5.87265264 C66.9665051,6.56258191 66.3102252,7.06243736 65.5412206,7.2559642 C64.772216,7.44949103 63.9575107,7.3198221 63.2865862,6.89711538 C61.3277013,5.89666349 60.8684939,4.05583199 61.543799,2.73023323 C61.8795491,1.96312987 62.628586,1.4593528 63.465667,1.43764938 L63.4776725,1.41463898 L62.6312902,0.92241665 L63.0975007,0 Z M64.8252812,2.24901587 C64.4174863,2.02309028 63.9355387,1.97207913 63.4894838,2.10763005 C63.0434289,2.24318096 62.6713523,2.55372019 62.458212,2.96834078 C61.9469811,3.96879268 62.4301993,5.11931236 63.7678035,5.8006201 C64.902316,6.3788813 66.1378741,6.28683973 66.7151348,5.15132682 C67.0497198,4.48285331 66.9156062,3.67494028 66.3829848,3.15042303 C66.2304112,3.00098982 66.0555898,2.87611739 65.8647507,2.78025582 L64.8252812,2.24901587 Z" id="Path_82"></path>
                    </g>
                </g>
                <g id="Group_102" transform="translate(630.731000, 330.500000)" fill="#019AA8" fill-rule="nonzero">
                    <g id="Group_101">
                        <polygon id="Path_83" points="5.936 3.34 3.546 1.403 4.246 0.54 10.063 5.254 9.363 6.116 6.963 4.171 1.297 11.165 0.27 10.334"></polygon>
                        <path d="M12.185,13.662 C11.7503156,14.571871 10.9490078,15.2537992 9.98132755,15.5373671 C9.0136473,15.820935 7.97101869,15.6793518 7.114,15.148 C6.27152902,14.6642191 5.67199134,13.8477463 5.46261531,12.8990825 C5.25323927,11.9504187 5.45342031,10.9574429 6.014,10.164 C6.44679385,9.25555533 7.24527016,8.57384529 8.21033882,8.28884577 C9.17540747,8.00384625 10.2161245,8.14241441 11.073,8.67 C11.9230103,9.1486844 12.5296444,9.96593693 12.741751,10.9181276 C12.9538576,11.8703182 12.7514642,12.8677868 12.185,13.662 L12.185,13.662 Z M7.185,10.803 C6.378,12.173 6.557,13.671 7.669,14.325 C8.755,14.965 10.169,14.425 11,13.016 C11.625,11.955 11.886,10.299 10.543,9.507 C9.2,8.715 7.884,9.613 7.184,10.8 L7.185,10.803 Z M12.914,6.309 L13.066,8.888 L12.187,8.37 L12.161,6.7 L12.135,6.686 L10.662,7.472 L9.822,6.977 L12.122,5.844 L12.914,6.309 Z" id="Path_84"></path>
                        <path d="M14.542,19.211 L19.396,10.336 L20.647,11.021 L21.035,17.066 C21.1229992,18.3159493 21.1283442,19.5703462 21.051,20.821 L21.085,20.821 C21.628,19.578 22.192,18.483 22.948,17.102 L24.979,13.388 L26.059,13.978 L21.205,22.853 L20.046,22.22 L19.691,16.175 C19.6000903,14.886962 19.5870666,13.5946086 19.652,12.305 L19.605,12.296 C19.059,13.452 18.505,14.533 17.696,16.008 L15.622,19.8 L14.542,19.211 Z" id="Path_85"></path>
                        <path d="M32.072,20.411 C31.799,20.861 31.499,21.363 31.084,22.145 L29.107,25.866 C28.326,27.337 27.556,28.083 26.638,28.309 C25.6983264,28.498803 24.7216435,28.3312087 23.899,27.839 C23.1430671,27.4621055 22.5033975,26.887405 22.048,26.176 L22.811,25.443 C23.2010184,26.0813913 23.7590112,26.6002935 24.424,26.943 C25.616,27.577 26.824,27.419 27.679,25.803 L28.059,25.088 L28.033,25.073 C27.224659,25.5402134 26.2273742,25.5360103 25.423,25.062 C24.6578744,24.612087 24.1105958,23.86823 23.9087747,23.0038764 C23.7069536,22.1395228 23.8682305,21.2302226 24.355,20.488 C25.508,18.316 27.58,17.837 29.055,18.618 C29.9068408,19.0077353 30.4561395,19.8552692 30.464,20.792 L30.491,20.807 L31.057,19.868 L32.072,20.411 Z M29.523,22.301 C29.6251773,22.1257369 29.6978146,21.9348529 29.738,21.736 C29.9262879,20.8959503 29.5262248,20.0342759 28.763,19.636 C27.651,19.045 26.357,19.563 25.569,21.047 C24.9,22.306 24.98,23.689 26.239,24.357 C26.9815336,24.7465817 27.8907302,24.6115565 28.488,24.023 C28.658083,23.8552836 28.8008165,23.6619354 28.911,23.45 L29.523,22.301 Z" id="Path_86"></path>
                        <path d="M38.048,27.571 C37.6606009,28.501719 36.8953608,29.2235497 35.9436285,29.5559976 C34.9918962,29.8884455 33.9436483,29.8000811 33.061,29.313 C32.1949829,28.8734492 31.5544152,28.0891511 31.296675,27.1527962 C31.0389347,26.2164414 31.18791,25.2148143 31.707,24.394 C32.0924265,23.4648218 32.8547639,22.7433569 33.8037508,22.4096661 C34.7527377,22.0759753 35.798849,22.1615381 36.681,22.645 C37.554514,23.0787309 38.2024801,23.8633294 38.4632686,24.8030839 C38.7240572,25.7428384 38.5730811,26.749149 38.048,27.571 Z M32.948,31.283 C32.803018,31.5495063 32.5117544,31.7024157 32.2100575,31.6704097 C31.9083607,31.6384037 31.6556623,31.4277872 31.5698236,31.1367939 C31.4839848,30.8458006 31.5819153,30.5317538 31.8179391,30.3411281 C32.0539629,30.1505025 32.3815854,30.1208496 32.648,30.266 C32.8238628,30.3598899 32.9545467,30.5205972 33.0106049,30.7119098 C33.0666631,30.9032224 33.0433793,31.1090451 32.946,31.283 L32.948,31.283 Z M32.913,24.972 C32.176,26.381 32.432,27.872 33.575,28.464 C34.691,29.048 36.075,28.435 36.834,26.986 C37.403,25.896 37.58,24.229 36.198,23.508 C34.816,22.787 33.549,23.749 32.911,24.972 L32.913,24.972 Z" id="Path_87"></path>
                        <path d="M42.544,33.74 C41.8272967,33.6992531 41.1285364,33.500144 40.498,33.157 C39.5950416,32.7480814 38.9115155,31.9706348 38.6215809,31.0227496 C38.3316464,30.0748645 38.463301,29.0480742 38.983,28.204 C39.4189007,27.2529905 40.2378907,26.5316286 41.2363243,26.2192844 C42.2347578,25.9069402 43.3188369,26.0329569 44.219,26.566 C44.7820824,26.8487938 45.278176,27.2487373 45.674,27.739 L44.939,28.509 C44.6338586,28.0737531 44.2201635,27.7259045 43.739,27.5 C42.4234865,26.9227327 40.8855182,27.4603673 40.2161569,28.7314962 C39.5467956,30.0026252 39.9736927,31.5749344 41.194,32.333 C41.689107,32.5917118 42.2357479,32.7365716 42.794,32.757 L42.544,33.74 Z" id="Path_88"></path>
                        <path d="M48.143,36.905 L49.79,26.4 L51.046,27.041 L50.19,32.193 C49.959,33.606 49.734,34.873 49.437,36.052 L49.464,36.065 C50.249,35.151 51.202,34.206 52.202,33.234 L55.992,29.559 L57.235,30.191 L49.426,37.561 L48.143,36.905 Z" id="Path_89"></path>
                        <path d="M56.732,41.255 L57.05,40.391 L57.01,40.37 C56.2295615,40.7573928 55.3101439,40.7443593 54.541,40.335 C54.0064147,40.1125741 53.5894232,39.6764158 53.3912296,39.1323809 C53.193036,38.588346 53.2317588,37.9861695 53.498,37.472 C54.289,35.904 56.115,35.75 58.613,37.027 L58.68,36.894 C58.9374878,36.5133367 59.0062652,36.0356437 58.8666241,35.5978025 C58.7269829,35.1599613 58.3943352,34.8102953 57.964,34.649 C57.3665613,34.3506255 56.6983602,34.2229371 56.033,34.28 L56.157,33.368 C56.9948181,33.3059238 57.833321,33.4790967 58.578,33.868 C60.56,34.868 60.36,36.468 59.705,37.768 L58.481,40.193 C58.2100209,40.7087747 57.9835332,41.2467248 57.804,41.801 L56.732,41.255 Z M58.227,37.855 C56.955,37.18 55.379,36.671 54.745,37.93 C54.5670863,38.2203671 54.5248792,38.5739605 54.6294478,38.8980465 C54.7340165,39.2221324 54.9749278,39.4843757 55.289,39.616 C55.9827615,39.9892464 56.8383421,39.8703146 57.404,39.322 C57.5063264,39.2217674 57.5926647,39.1064248 57.66,38.98 L58.227,37.855 Z M59.038,30.955 C58.8095835,31.4837023 59.02765,32.099086 59.538,32.366 C60.0545409,32.6356323 60.6918717,32.4405583 60.969,31.928 L61.669,32.279 C61.3743764,32.8809364 60.7788613,33.277973 60.1099134,33.3184607 C59.4409655,33.3589483 58.8019122,33.0366331 58.4368415,32.4746242 C58.0717709,31.9126154 58.0370727,31.1977221 58.346,30.603 L59.038,30.955 Z" id="Path_90"></path>
                        <path d="M61.96,37.961 C62.295,37.29 62.555,36.733 62.784,36.177 L63.83,36.699 L63.361,37.806 L63.387,37.819 C64.206916,37.2619845 65.2678098,37.2046285 66.143,37.67 C67.043,38.119 68.169,39.353 67.057,41.579 L65.121,45.455 L63.941,44.865 L65.809,41.123 C66.332,40.077 66.379,39.011 65.265,38.455 C64.5240957,38.0992848 63.6378272,38.2684262 63.08,38.872 C62.9342795,39.021419 62.8140204,39.1937002 62.724,39.382 L60.775,43.282 L59.595,42.693 L61.96,37.961 Z" id="Path_91"></path>
                    </g>
                </g>
                <g id="Kha_Vạn_Cân" transform="translate(855.302981, 363.983724) rotate(-68.469000) translate(-855.302981, -363.983724) translate(809.802981, 354.983724)" fill="#01233A" font-family="Helvetica" font-size="15" font-weight="normal">
                    <text id="Kha-Vạn-Cân">
                        <tspan x="0.769" y="15">Kha Vạn Cân</tspan>
                    </text>
                </g>
                <g id="Đường_sắt_Bắc_Nam" transform="translate(840.448000, 140.840000) rotate(-71.329417) translate(-840.448000, -140.840000) translate(770.475690, 131.843560)" fill="#019AA8" font-family="Helvetica" font-size="15" font-weight="normal">
                    <text id="Đường-sắt-Bắc-Nam">
                        <tspan x="0.850663363" y="15">Đường sắt Bắc Nam</tspan>
                    </text>
                </g>
            </g>
        </g>
    </g>
</svg>