<?xml version="1.0" encoding="utf-8"?>
<!-- Generator: Adobe Illustrator 17.0.0, SVG Export Plug-In . SVG Version: 6.00 Build 0)  -->
<!DOCTYPE svg PUBLIC "-//W3C//DTD SVG 1.1//EN" "http://www.w3.org/Graphics/SVG/1.1/DTD/svg11.dtd">
<svg version="1.1" id="Layer_1" xmlns="http://www.w3.org/2000/svg" xmlns:xlink="http://www.w3.org/1999/xlink" x="0px" y="0px"
	 width="180px" height="180px" viewBox="0 0 180 180" enable-background="new 0 0 180 180" xml:space="preserve">
<g>
	<g>
		<path fill-rule="evenodd" clip-rule="evenodd" fill="#174C86" d="M121.895,95.886c3.424,0,6.659,0.01,9.896-0.004
			c1.722-0.008,3.441-0.07,5.166-0.092c1.288-0.016,1.74,0.492,1.722,1.877c-0.018,1.223-0.513,1.707-1.706,1.703
			c-6.074-0.029-12.148-0.068-18.224-0.059c-0.766,0.004-1.428-0.156-1.694-0.83c-0.28-0.703-0.313-1.488,0.204-2.205
			c3.337-4.639,6.655-9.289,9.977-13.938c2.001-2.797,4.001-5.594,6.007-8.4c-0.255-0.295-0.563-0.152-0.823-0.148
			c-4.417,0.047-8.837,0.111-13.252,0.162c-1.324,0.018-1.837-0.461-1.849-1.68c-0.015-1.379,0.492-1.918,1.825-1.918
			c5.783-0.002,11.566,0.016,17.348-0.018c0.796-0.006,1.528,0.16,1.785,0.859c0.257,0.695,0.227,1.482-0.296,2.205
			c-3.61,5.002-7.186,10.031-10.771,15.049C125.474,90.88,123.739,93.306,121.895,95.886z"/>
		<path fill-rule="evenodd" clip-rule="evenodd" fill="#174C86" d="M83.579,55.718c0-0.455-0.031-0.775,0.005-1.09
			c0.065-0.551,0.387-0.914,0.951-0.924c1.365-0.024,2.729-0.029,4.094,0c0.725,0.014,1.002,0.484,0.993,1.174
			c-0.007,1.135,0.023,2.271-0.014,3.408c-0.014,0.492,0.153,0.756,0.59,0.978c1.644,0.844,3.271,1.723,4.901,2.596
			c1.113,0.596,1.499,1.533,1.028,2.469c-0.462,0.93-1.471,1.16-2.605,0.559c-5.473-2.899-10.943-5.797-16.402-8.725
			c-0.528-0.283-0.896-0.268-1.412,0.01c-5.315,2.852-10.646,5.674-15.973,8.504c-0.173,0.09-0.338,0.193-0.51,0.279
			c-1.016,0.498-1.996,0.268-2.465-0.572c-0.497-0.897-0.168-1.906,0.846-2.453c1.853-1.002,3.723-1.98,5.583-2.967
			c3.956-2.098,7.917-4.184,11.858-6.301c0.949-0.508,1.822-0.512,2.762,0C79.683,53.681,81.576,54.66,83.579,55.718z"/>
		<path fill-rule="evenodd" clip-rule="evenodd" fill="#174C86" d="M150.181,82.949c1.375-2.746,2.674-5.352,3.973-7.957
			c0.592-1.189,1.179-2.385,1.774-3.57c0.531-1.057,2.214-1.482,3.179-0.801c0.524,0.371,0.642,0.873,0.371,1.453
			c-0.406,0.883-0.807,1.769-1.24,2.639c-1.948,3.881-3.9,7.758-5.873,11.625c-0.244,0.479-0.374,0.941-0.372,1.477
			c0.015,3.279,0.011,6.559,0.006,9.84c0,1.17-0.539,1.639-1.854,1.641c-1.363,0.002-1.872-0.422-1.874-1.605
			c-0.008-3.182-0.016-6.365,0.005-9.547c0.007-0.67-0.128-1.264-0.424-1.861c-2.019-4.098-4.017-8.205-6.021-12.31
			c-0.17-0.352-0.341-0.701-0.503-1.055c-0.637-1.391-0.592-2.018,0.164-2.389c1.255-0.615,2.648-0.174,3.224,1.021
			C146.508,75.287,148.298,79.025,150.181,82.949z"/>
		<path fill-rule="evenodd" clip-rule="evenodd" fill="#174C86" d="M86.541,42.168c1.57,0.1,2.714,0.783,3.325,2.203
			c0.61,1.422,0.342,2.74-0.682,3.879c-0.338,0.375-0.56,0.631-0.402,1.227c0.248,0.953-0.133,1.799-0.99,2.342
			c-0.779,0.496-1.615,0.5-2.398,0.035c-0.867-0.514-1.25-1.336-1.05-2.318c0.117-0.57-0.006-0.902-0.405-1.324
			c-1.059-1.117-1.274-2.467-0.656-3.873C83.903,42.925,85.06,42.25,86.541,42.168z"/>
		<path fill-rule="evenodd" clip-rule="evenodd" fill="#174C86" d="M98.03,84.505c-0.936-13.443-14.438-22.568-27.297-18.414
			C57.227,70.453,51.57,86.794,60.423,98.902c5.539,7.582,9.853,15.863,13.064,24.703c1.674,4.611,2.906,9.338,3.729,14.226
			c0.028-0.113,0.071-0.225,0.088-0.338c0.971-6.318,2.707-12.41,5.356-18.232c3.502-7.703,8.444-14.6,12.349-22.084
			C97.113,93.152,98.349,89.06,98.03,84.505z M77.072,101.732c-8.682-0.039-15.603-7.055-15.55-15.768
			c0.049-8.592,7.121-15.547,15.75-15.494c8.573,0.055,15.493,7.127,15.454,15.793C92.687,94.822,85.657,101.767,77.072,101.732z"/>
		<path fill-rule="evenodd" clip-rule="evenodd" fill="#174C86" d="M56.365,97.099c-1.156-2.211-2.323-4.416-3.341-6.701
			c-0.699-1.576-1.562-3.066-2.66-4.404c-0.313-0.383-0.371-0.559,0.107-0.867c2.054-1.334,3.234-3.268,3.536-5.68
			c0.546-4.358-1.198-8.281-6.604-9.006c-2.561-0.344-5.125-0.141-7.689-0.105c-1.275,0.018-1.739,0.523-1.741,1.787
			c-0.002,4.258,0,8.516,0,12.771c0,4.225-0.002,8.447,0,12.674c0,1.209,0.539,1.723,1.789,1.727
			c1.462,0.006,1.981-0.436,1.984-1.727c0.004-2.857,0-5.717-0.002-8.578c0-2.16,0.014-2.018,2.164-2.203
			c1.945-0.164,3.14,0.707,4.118,2.174c0.36,0.541,0.71,1.088,1.035,1.65c1.299,2.254,2.293,4.652,3.318,7.035
			c0.675,1.563,1.204,1.855,2.848,1.641C56.589,99.109,57.006,98.328,56.365,97.099z M45.92,83.345
			c-1.197,0.074-2.397,0.037-3.597,0.08c-0.515,0.02-0.672-0.182-0.662-0.68c0.025-1.426,0.007-2.855,0.007-4.283
			c0-1.363,0.008-2.725-0.003-4.088c-0.004-0.393,0.011-0.703,0.532-0.711c1.588-0.023,3.187-0.158,4.752,0.178
			c3.585,0.768,4.739,4.953,2.184,7.877C48.285,82.691,47.206,83.263,45.92,83.345z"/>
		<path fill-rule="evenodd" clip-rule="evenodd" fill="#174C86" d="M35.8,77.312c-0.271-3.432-2.3-5.902-5.663-6.666
			c-2.796-0.635-5.625-0.371-8.444-0.283c-0.854,0.027-1.309,0.662-1.31,1.59c-0.002,4.289,0,8.576,0,12.865
			c0,4.225-0.002,8.447,0,12.672c0,1.346,0.482,1.807,1.889,1.803c1.344,0,1.829-0.467,1.829-1.758c0.001-2.727,0-5.455,0-8.188
			c0-1.93,0.001-1.951,1.952-1.916C31.686,87.535,36.309,83.773,35.8,77.312z M32.023,79.507c-0.445,2.74-2.164,4.313-5.001,4.578
			c-2.941,0.273-2.941,0.273-2.941-2.645c0-0.877,0-1.754,0-2.631c0-1.494,0-2.986,0-4.48c0-0.322-0.059-0.666,0.447-0.676
			c1.656-0.035,3.315-0.123,4.914,0.445C31.631,74.878,32.485,76.669,32.023,79.507z"/>
		<path fill-rule="evenodd" clip-rule="evenodd" fill="#174C86" d="M116.516,77.32c-0.196-3.441-2.289-5.91-5.646-6.672
			c-2.796-0.637-5.625-0.369-8.444-0.287c-0.85,0.025-1.319,0.668-1.32,1.586c0,4.289,0,8.576,0,12.865c0,4.256,0,8.51,0,12.768
			c0.001,1.232,0.534,1.713,1.887,1.713c1.344,0,1.838-0.469,1.84-1.75c0.002-2.729,0-5.459,0-8.188c0-1.939,0-1.939,1.94-1.928
			C113.003,87.462,116.866,83.455,116.516,77.32z M107.087,84.109c-2.276,0.043-2.276,0.043-2.276-2.258c0-1.008,0-2.016,0-3.021
			c0-1.461,0.024-2.922-0.012-4.383c-0.013-0.563,0.098-0.82,0.731-0.817c1.623,0.01,3.243-0.047,4.809,0.521
			c1.344,0.49,2.194,1.412,2.389,2.813C113.245,80.73,111.767,84.025,107.087,84.109z"/>
	</g>
</g>
</svg>
