<svg width="16" height="16" viewBox="0 0 16 16" fill="none" xmlns="http://www.w3.org/2000/svg">
<g clip-path="url(#clip0_806_1758)">
<path d="M2.84375 0L2.84375 16H9.40625L9.40625 0L2.84375 0ZM3.78125 0.9375H4.71875L4.71875 15.0625H3.78125L3.78125 0.9375ZM8.46875 1.88281L6.59375 1.88281V2.82031H8.46875V3.76562H7.53125V4.70312H8.46875V5.64844H6.59375V6.58594H8.46875V7.53125H7.53125V8.46875H8.46875V9.41406H6.59375V10.3516H8.46875V11.2969H7.53125V12.2344H8.46875V13.1797H6.59375V14.1172H8.46875V15.0625H5.65625L5.65625 0.9375L8.46875 0.9375V1.88281Z" fill="#F17423"/>
<path d="M13.1563 15.0625H12.2188V0.9375L13.1562 0.9375V0L10.3438 0V0.9375L11.2812 0.9375V15.0625H10.3438V16H13.1563V15.0625Z" fill="#F17423"/>
</g>
<defs>
<clipPath id="clip0_806_1758">
<rect width="16" height="16" fill="white"/>
</clipPath>
</defs>
</svg>
