<svg width="16" height="16" viewBox="0 0 16 16" fill="none" xmlns="http://www.w3.org/2000/svg">
<g clip-path="url(#clip0_806_1762)">
<path d="M0 13.1562H16V6.59375H0L0 13.1562ZM0.9375 12.2188V11.2812H15.0625V12.2188H0.9375ZM1.88281 7.53125V9.40625H2.82031V7.53125H3.76562V8.46875H4.70312V7.53125H5.64844V9.40625H6.58594V7.53125H7.53125V8.46875H8.46875V7.53125H9.41406V9.40625H10.3516V7.53125H11.2969V8.46875H12.2344V7.53125H13.1797V9.40625H14.1172V7.53125H15.0625V10.3438H0.9375V7.53125H1.88281Z" fill="#F17423"/>
<path d="M15.0625 2.84375V3.78125H0.9375V2.84375H0V5.65625H0.9375V4.71875H15.0625V5.65625H16V2.84375H15.0625Z" fill="#F17423"/>
</g>
<defs>
<clipPath id="clip0_806_1762">
<rect width="16" height="16" fill="white" transform="translate(0 16) rotate(-90)"/>
</clipPath>
</defs>
</svg>
