<svg width="16" height="16" viewBox="0 0 16 16" fill="none" xmlns="http://www.w3.org/2000/svg">
<path d="M13.3334 1.77777H2.66672C2.43097 1.77777 2.20488 1.87142 2.03818 2.03812C1.87148 2.20482 1.77783 2.43091 1.77783 2.66666V13.3333C1.77783 13.5691 1.87148 13.7952 2.03818 13.9619C2.20488 14.1286 2.43097 14.2222 2.66672 14.2222H3.50228V14.92C3.50228 15.0379 3.5491 15.1509 3.63245 15.2343C3.7158 15.3176 3.82885 15.3644 3.94672 15.3644C4.06459 15.3644 4.17764 15.3176 4.26099 15.2343C4.34434 15.1509 4.39117 15.0379 4.39117 14.92V14.2222H11.5023V14.92C11.5023 15.0379 11.5491 15.1509 11.6325 15.2343C11.7158 15.3176 11.8288 15.3644 11.9467 15.3644C12.0646 15.3644 12.1776 15.3176 12.261 15.2343C12.3443 15.1509 12.3912 15.0379 12.3912 14.92V14.2222H13.3334C13.5691 14.2222 13.7952 14.1286 13.9619 13.9619C14.1286 13.7952 14.2223 13.5691 14.2223 13.3333V2.66666C14.2223 2.43091 14.1286 2.20482 13.9619 2.03812C13.7952 1.87142 13.5691 1.77777 13.3334 1.77777ZM2.66672 13.3333V2.66666H13.3334V13.3333H2.66672Z" fill="#F17423"/>
<path d="M8.88886 8.00001H9.77775V8.8889H8.88886V8.00001ZM10.6666 8.00001H11.5555V8.8889H10.6666V8.00001ZM8.88886 9.77779H9.77775V10.6667H8.88886V9.77779ZM10.6666 9.77779H11.5555V10.6667H10.6666V9.77779ZM12.0977 4.44446H8.88886V6.22224C8.88328 6.27196 8.88825 6.32231 8.90346 6.36999C8.91866 6.41766 8.94377 6.46159 8.97712 6.49889C9.01047 6.5362 9.05132 6.56605 9.097 6.58648C9.14267 6.60692 9.19215 6.61748 9.24219 6.61748C9.29224 6.61748 9.34171 6.60692 9.38739 6.58648C9.43307 6.56605 9.47392 6.5362 9.50727 6.49889C9.54062 6.46159 9.56572 6.41766 9.58093 6.36999C9.59614 6.32231 9.60111 6.27196 9.59553 6.22224V5.15557H12.0977C12.192 5.15557 12.2825 5.11811 12.3492 5.05143C12.4158 4.98475 12.4533 4.89431 12.4533 4.80001C12.4533 4.70571 12.4158 4.61528 12.3492 4.5486C12.2825 4.48192 12.192 4.44446 12.0977 4.44446ZM3.91553 4.44446H7.53331V5.33335H3.91553V4.44446ZM3.91553 6.22224H7.53331V7.11112H3.91553V6.22224ZM3.91553 8.00001H7.53331V8.8889H3.91553V8.00001ZM3.91553 9.77779H7.53331V10.6667H3.91553V9.77779ZM3.91553 11.5556H7.53331V12.4445H3.91553V11.5556Z" fill="#F17423"/>
</svg>
