<svg width="16" height="16" viewBox="0 0 16 16" fill="none" xmlns="http://www.w3.org/2000/svg">
<path d="M13.9279 1.47373L0.533485 5.93853C0.328105 6.0079 0.193474 6.20298 0.201029 6.42072C0.211333 6.63709 0.363136 6.82187 0.574012 6.87201L7.49583 8.51987L9.14366 15.4417C9.1938 15.6526 9.37789 15.8051 9.59495 15.8147C9.73507 15.8202 9.86558 15.7666 9.95969 15.6725C10.0119 15.6203 10.0524 15.5564 10.0771 15.4822L14.5419 2.08783C14.5996 1.91336 14.5543 1.72103 14.4245 1.59121C14.2947 1.46138 14.1023 1.41605 13.9279 1.47373ZM9.69455 13.5596L8.37159 8.00403C8.32901 7.82544 8.18957 7.686 8.01166 7.6441L2.45608 6.32115L13.3131 2.7026L9.69455 13.5596Z" fill="#F17423"/>
</svg>
