<svg width="16" height="16" viewBox="0 0 16 16" fill="none" xmlns="http://www.w3.org/2000/svg">
<g clip-path="url(#clip0_7_488)">
<path d="M16 2.82353V0H13.1765V0.941176H2.82353V0H0V2.82353H0.941177V13.1765H0V16H2.82353V15.0588H13.1765V16H16V13.1765H15.0588V2.82353H16ZM14.1176 0.941176H15.0588V1.88235H14.1176V0.941176ZM0.941177 0.941176H1.88235V1.88235H0.941177V0.941176ZM1.88235 15.0588H0.941177V14.1176H1.88235V15.0588ZM15.0588 15.0588H14.1176V14.1176H15.0588V15.0588ZM14.1176 13.1765H13.1765V14.1176H2.82353V13.1765H1.88235V2.82353H2.82353V1.88235H13.1765V2.82353H14.1176V13.1765Z" fill="#F17423"/>
<path d="M4.53711 7.10345L7.43304 4.20753L7.99864 4.77313L5.10271 7.66905L4.53711 7.10345Z" fill="#F17423"/>
<path d="M7.99854 10.4296L10.8266 7.6016L11.3921 8.1672L8.56413 10.9952L7.99854 10.4296Z" fill="#F17423"/>
<path d="M8.55469 11.0082L4.53128 7.12282L5.08693 6.54744L9.11033 10.4328L8.55469 11.0082Z" fill="#F17423"/>
<path d="M11.0615 8.49738L7.03716 4.61109L7.5928 4.0357L11.6172 7.92199L11.0615 8.49738Z" fill="#F17423"/>
</g>
<defs>
<clipPath id="clip0_7_488">
<rect width="16" height="16" fill="white"/>
</clipPath>
</defs>
</svg>
