<svg width="16" height="16" viewBox="0 0 16 16" fill="none" xmlns="http://www.w3.org/2000/svg">
<mask id="mask0_806_1741" style="mask-type:alpha" maskUnits="userSpaceOnUse" x="0" y="0" width="16" height="16">
<rect width="16" height="16" fill="white"/>
</mask>
<g mask="url(#mask0_806_1741)">
<path fill-rule="evenodd" clip-rule="evenodd" d="M15.5632 0C15.3232 0 15.1298 0.191875 15.127 0.431125V0.555844V0.597031V0.635281V1.06391V2.00666V2.85522V2.88188V2.91484V3.07725C15.127 3.31903 15.3217 3.51372 15.5635 3.51372C15.8034 3.51372 15.9968 3.32188 15.9997 3.08263V2.91484V2.88188V2.85522V2.00666V1.06391V0.635281V0.597031V0.555844V0.4365C15.9997 0.194687 15.805 0 15.5632 0ZM8.62912 3.38671C8.46222 3.55574 8.18834 3.55574 8.01931 3.38887L6.69316 2.06271C6.52416 1.89368 6.52416 1.62196 6.69316 1.45293L8.01931 0.126773C8.18834 -0.0422578 8.46006 -0.0422578 8.62912 0.126773C8.79813 0.295805 8.79813 0.567555 8.62912 0.736586L8.04544 1.32027L9.96284 1.32052H11.0976H12.0804H13.0232L12.4395 0.736867C12.2705 0.567836 12.2705 0.296086 12.4395 0.127055C12.6064 -0.0419766 12.8803 -0.0419766 13.0493 0.12493L14.3755 1.45102C14.5445 1.62005 14.5445 1.89184 14.3755 2.06084L13.0493 3.38696C12.8803 3.55602 12.6086 3.55602 12.4395 3.38696C12.2705 3.21793 12.2705 2.94621 12.4395 2.77718L13.0232 2.19349L11.9353 2.19334H8.98819V2.19324H8.04544L8.62912 2.77693C8.79813 2.94593 8.79813 3.21768 8.62912 3.38671ZM10.5102 11.0781L14.5126 15.1287H6.50781L10.5102 11.0781ZM9.89741 10.4567L5.94141 14.4604V6.45312L9.89741 10.4567ZM15.126 6.40625V14.5086L11.123 10.4574L15.126 6.40625ZM10.5105 9.8362L6.66016 5.93945H14.3609L10.5105 9.8362ZM15.5685 5.06641H15.28H15.1744H5.94108H5.50486C5.26705 5.06641 5.07523 5.25488 5.06895 5.49109L5.06866 5.49566L5.06836 5.50069V5.94225V15.1756V15.2812V15.5643L5.06839 15.5644L5.06836 15.5646C5.06836 15.6703 5.10567 15.7669 5.16777 15.8422L5.16836 15.8429C5.17705 15.8533 5.18617 15.8634 5.19577 15.873L5.19905 15.8761C5.20789 15.8847 5.21695 15.8931 5.22652 15.901L5.23286 15.9058C5.24164 15.9128 5.25052 15.9197 5.25986 15.9259C5.26289 15.928 5.26617 15.9298 5.26927 15.9318C5.27789 15.9373 5.28652 15.9428 5.29552 15.9477L5.29858 15.9493L5.30274 15.9513L5.3078 15.9537L5.30939 15.9545L5.30945 15.9546C5.31734 15.9585 5.32521 15.9625 5.33339 15.966C5.33817 15.968 5.34317 15.9696 5.34805 15.9715L5.35043 15.9724C5.35794 15.9753 5.36546 15.9782 5.3732 15.9807C5.37861 15.9824 5.3842 15.9836 5.3897 15.9851L5.39404 15.9862C5.4009 15.9881 5.40778 15.99 5.41483 15.9915C5.41863 15.9923 5.42251 15.9929 5.42638 15.9934L5.43252 15.9944L5.43756 15.9952C5.44432 15.9964 5.45107 15.9975 5.45798 15.9983L5.4664 15.9989L5.46959 15.999L5.47645 15.9994L5.48362 15.9999C5.48888 16.0003 5.49414 16.0007 5.49948 16.0008H5.94108H15.1744H15.28H15.5631H15.5633H15.5634C15.6691 16.0008 15.7657 15.9635 15.841 15.9014L15.8417 15.9008C15.8521 15.8921 15.8622 15.883 15.8718 15.8734L15.8749 15.8701C15.8835 15.8613 15.892 15.8522 15.8998 15.8427L15.9032 15.8383L15.9046 15.8363C15.9116 15.8275 15.9185 15.8187 15.9248 15.8093L15.9281 15.804L15.9306 15.7999C15.9361 15.7913 15.9416 15.7827 15.9465 15.7736L15.9487 15.7693L15.9525 15.7614L15.9539 15.7587L15.9539 15.7587L15.9539 15.7587L15.9539 15.7586L15.9539 15.7586C15.9577 15.7511 15.9615 15.7436 15.9648 15.7358C15.9669 15.731 15.9684 15.726 15.9703 15.7211C15.9735 15.7128 15.9768 15.7045 15.9795 15.696C15.9806 15.6925 15.9815 15.6889 15.9824 15.6853L15.9839 15.6795L15.9849 15.6759C15.9868 15.6687 15.9888 15.6616 15.9903 15.6544C15.9915 15.6485 15.9922 15.6425 15.9932 15.6367C15.9946 15.6282 15.9961 15.6198 15.997 15.6112C15.9975 15.6071 15.9977 15.603 15.9979 15.5989L15.9982 15.5927L15.9987 15.5863L15.9987 15.5862L15.9993 15.5773L15.9996 15.5697V15.2812V15.1756V5.94225V5.50606L15.9995 5.50434L15.9996 5.50262C15.9996 5.26269 15.8077 5.06931 15.5685 5.06641ZM2.06085 6.69318C1.89182 6.52415 1.62007 6.52415 1.45104 6.69318L0.124911 8.0193C-0.0419948 8.18834 -0.0419948 8.46221 0.127068 8.62909C0.296068 8.79812 0.567818 8.79812 0.736849 8.62909L1.32054 8.0454V8.98818V9.97109V11.1058L1.32026 13.0232L0.736599 12.4395C0.567536 12.2705 0.295818 12.2705 0.126786 12.4395C-0.0422448 12.6086 -0.0422448 12.8803 0.126786 13.0493L1.45291 14.3755C1.62194 14.5445 1.89369 14.5445 2.06272 14.3755L3.38885 13.0493C3.55572 12.8803 3.55572 12.6064 3.38669 12.4395C3.21769 12.2705 2.94594 12.2705 2.77691 12.4395L2.19322 13.0232V12.0805H2.19335V9.13334L2.19351 8.0454L2.77716 8.62909C2.94622 8.79812 3.21794 8.79812 3.38697 8.62909C3.55601 8.46005 3.55601 8.18834 3.38697 8.0193L2.06085 6.69318ZM2.91488 5.06836H3.08263C3.32188 5.07123 3.51375 5.26461 3.51375 5.50458C3.51375 5.74633 3.31903 5.94108 3.07725 5.94108H2.91488H2.88188H2.85525H2.00666H1.06394H0.635313H0.597031H0.555844H0.431156C0.191906 5.93817 0 5.7448 0 5.50486C0 5.26305 0.194719 5.06836 0.4365 5.06836H0.555844H0.597031H0.635313H1.06394H2.00666H2.85525H2.88188H2.91488ZM3.08263 15.127H2.91488H2.88188H2.85525H2.00666H1.06394H0.635313H0.597031H0.555844H0.4365C0.194719 15.127 0 15.3216 0 15.5635C0 15.8034 0.191906 15.9968 0.431156 15.9997H0.555844H0.597031H0.635313H1.06394H2.00666H2.85525H2.88188H2.91488H3.07725C3.31903 15.9997 3.51375 15.805 3.51375 15.5632C3.51375 15.3232 3.32188 15.1299 3.08263 15.127ZM5.94108 3.08259C5.9382 3.32184 5.74483 3.51372 5.50486 3.51372C5.26308 3.51372 5.06836 3.31903 5.06836 3.07722V2.91484V2.88184V2.85522V2.00663V1.06388V0.635281V0.597031V0.555844V0.431094C5.07127 0.191844 5.26464 0 5.50458 0C5.74636 0 5.94108 0.194688 5.94108 0.436469V0.555844V0.597031V0.635281V1.06388V2.00663V2.85522V2.88184V2.91484V3.08259Z" fill="#F17423"/>
</g>
</svg>
