<svg width="16" height="16" viewBox="0 0 16 16" fill="none" xmlns="http://www.w3.org/2000/svg">
<path d="M15.5 7.5H13.9775C13.737 4.5855 11.4142 2.265 8.5 2.024V0.5C8.5 0.224 8.276 0 8 0C7.724 0 7.5 0.224 7.5 0.5V2.024C4.586 2.265 2.263 4.5855 2.02225 7.5H0.5C0.224 7.5 0 7.724 0 8C0 8.276 0.224 8.5 0.5 8.5H2.02225C2.263 11.4142 4.586 13.735 7.5 13.976V15.5C7.5 15.776 7.724 16 8 16C8.276 16 8.5 15.776 8.5 15.5V13.976C11.4142 13.735 13.737 11.4142 13.9775 8.5H15.5C15.776 8.5 16 8.276 16 8C16 7.724 15.776 7.5 15.5 7.5ZM7.5 3.02475V7.5H3.02425C3.25875 5.1375 5.1375 3.25925 7.5 3.02475ZM3.02425 8.5H7.5V12.9753C5.1375 12.7408 3.25875 10.8625 3.02425 8.5ZM8.5 12.9753V8.5H12.9757C12.7412 10.8625 10.8625 12.7408 8.5 12.9753ZM8.5 7.5V3.02475C10.8625 3.25925 12.7412 5.1375 12.9757 7.5H8.5Z" fill="#F17423"/>
</svg>
