<svg width="16" height="16" viewBox="0 0 16 16" fill="none" xmlns="http://www.w3.org/2000/svg">
<path d="M11 5.5L10.295 6.205L11.585 7.5H4.415L5.705 6.205L5 5.5L2.5 8L5 10.5L5.705 9.795L4.415 8.5H11.585L10.295 9.795L11 10.5L13.5 8L11 5.5Z" fill="#F17423"/>
<path d="M14 15H2C1.73486 14.9997 1.48066 14.8943 1.29319 14.7068C1.10571 14.5193 1.00026 14.2651 1 14V2C1.00026 1.73486 1.10571 1.48066 1.29319 1.29319C1.48066 1.10571 1.73486 1.00026 2 1H14C14.2651 1.00026 14.5193 1.10571 14.7068 1.29319C14.8943 1.48066 14.9997 1.73486 15 2V14C14.9997 14.2651 14.8943 14.5193 14.7068 14.7068C14.5193 14.8943 14.2651 14.9997 14 15ZM2 2V14H14V2H2Z" fill="#F17423"/>
</svg>
