<svg width="16" height="16" viewBox="0 0 16 16" fill="none" xmlns="http://www.w3.org/2000/svg">
<path d="M14.9287 2.75107C14.8741 2.70671 14.8098 2.67592 14.7411 2.66124C14.6723 2.64656 14.601 2.64841 14.5331 2.66662L10.262 3.99996L5.98201 1.82662C5.9235 1.79955 5.85981 1.78552 5.79534 1.78552C5.73088 1.78552 5.66718 1.79955 5.60868 1.82662L1.16423 3.6444C1.08237 3.67803 1.01241 3.73534 0.963316 3.80897C0.914224 3.88261 0.888234 3.96923 0.888677 4.05773V13.16C0.88904 13.2327 0.907277 13.3043 0.941785 13.3684C0.976292 13.4325 1.02602 13.4872 1.08658 13.5275C1.14715 13.5679 1.21671 13.5928 1.28915 13.6C1.36158 13.6072 1.43468 13.5965 1.50201 13.5688L5.77757 11.8133L10.0398 14C10.103 14.0324 10.1732 14.0491 10.2442 14.0488C10.2884 14.0555 10.3334 14.0555 10.3776 14.0488L14.822 12.6622C14.9157 12.6328 14.997 12.5733 15.0532 12.4929C15.1095 12.4125 15.1376 12.3158 15.1331 12.2177V3.11107C15.1308 3.03898 15.111 2.96853 15.0754 2.90581C15.0398 2.84309 14.9894 2.78998 14.9287 2.75107ZM14.222 11.8888L10.5242 13.0444V12.0266H9.81312V12.9155L6.07979 11V10.2488H5.36868V11.0133L1.77757 12.4933V4.35107L5.36868 2.87107V3.91551H6.07979V2.87551L9.81312 4.78662V5.71996H10.5242V4.88884L14.222 3.71551V11.8888Z" fill="#F17423"/>
<path d="M9.81348 6.69336H10.5246V8.38669H9.81348V6.69336Z" fill="#F17423"/>
<path d="M9.81348 9.35999H10.5246V11.0533H9.81348V9.35999Z" fill="#F17423"/>
<path d="M5.36865 4.91553H6.07976V6.60886H5.36865V4.91553Z" fill="#F17423"/>
<path d="M5.36865 7.61328H6.07976V9.27995H5.36865V7.61328Z" fill="#F17423"/>
</svg>
