<svg xmlns="http://www.w3.org/2000/svg" width="54" height="54">
    <path fill="#00A65A" fill-rule="evenodd" d="M46.087 7.905c-10.545-10.542-27.64-10.54-38.182.006-10.542 10.545-10.54 27.641.006 38.183 10.545 10.542 27.64 10.54 38.182-.006 5.063-5.065 7.907-11.933 7.905-19.094-.001-7.161-2.847-14.027-7.911-19.089zM40.889 37.61l-.003.004v-.009l-1.368 1.358c-1.769 1.792-4.346 2.529-6.795 1.945-2.468-.661-4.813-1.712-6.948-3.114-1.983-1.268-3.821-2.75-5.481-4.419-1.526-1.516-2.898-3.18-4.094-4.968-1.309-1.924-2.345-4.02-3.078-6.228-.841-2.594-.144-5.441 1.8-7.353l1.602-1.602c.445-.447 1.169-.449 1.616-.003l.003.003 5.058 5.058c.447.445.449 1.169.004 1.617l-.004.003-2.97 2.97c-.852.843-.959 2.182-.252 3.15 1.074 1.474 2.263 2.861 3.555 4.149 1.441 1.446 3.007 2.763 4.68 3.933.967.674 2.277.561 3.114-.27l2.871-2.916c.445-.447 1.169-.449 1.616-.004l.004.004 5.066 5.076c.448.445.45 1.169.004 1.616z"/>
</svg>
