<svg xmlns="http://www.w3.org/2000/svg" width="53" height="53">
    <path fill="#6E6E6E" fill-rule="evenodd" d="M26.5 0C41.135 0 53 11.864 53 26.5 53 41.135 41.135 53 26.5 53 11.864 53 0 41.135 0 26.5 0 11.864 11.864 0 26.5 0z"/>
    <path fill="#FFF" fill-rule="evenodd" d="M33.144 26.711c-1.071 0-2.129-.252-3.08-.73l-2.829.706c-.26.067-.549-.011-.743-.221-.189-.204-.252-.494-.164-.758l.834-2.502c-.572-1.021-.873-2.172-.873-3.351 0-3.78 3.075-6.855 6.855-6.855C36.925 13 40 16.075 40 19.855c0 3.78-3.075 6.856-6.856 6.856zm0-9.903c-.42 0-.761.341-.761.762s.341.761.761.761c.421 0 .762-.34.762-.761s-.341-.762-.762-.762zm.762 3.047c0-.421-.341-.762-.762-.762s-.761.341-.761.762v3.047c0 .421.34.762.761.762s.762-.341.762-.762v-3.047zm-6.094 18.383c0 .421-.34.761-.761.761h-12.29c-.421 0-.761-.34-.761-.761v-3.149c0-2.308 1.155-4.344 2.909-5.587.977 1.083 2.427 1.779 3.997 1.779 1.57 0 3.02-.696 3.997-1.779 1.754 1.243 2.909 3.279 2.909 5.587v3.149zm-6.906-8.481c-2.1 0-3.859-1.709-3.859-3.808 0-2.1 1.759-3.809 3.859-3.809s3.859 1.709 3.859 3.809c0 2.099-1.759 3.808-3.859 3.808z"/>
</svg>
