<svg xmlns="http://www.w3.org/2000/svg" width="54.5" height="54.5">
    <path fill="#FFF" fill-rule="evenodd" stroke="#E84E4E" d="M27 .5C41.635.5 53.5 12.364 53.5 27c0 14.635-11.865 26.5-26.5 26.5C12.364 53.5.5 41.635.5 27 .5 12.364 12.364.5 27 .5z"/>
    <path fill="#E84E4E" fill-rule="evenodd" d="M35.5 28.323c0-.434-.35-.785-.782-.785-.432 0-.782.351-.782.785 0 3.838-3.111 6.961-6.936 6.961-3.825 0-6.936-3.123-6.936-6.961 0-.434-.35-.785-.782-.785-.432 0-.782.351-.782.785 0 4.439 3.396 8.097 7.718 8.494v2.113h-2.902c-.432 0-.782.351-.782.784 0 .434.35.785.782.785h7.368c.431 0 .781-.351.781-.785 0-.433-.35-.784-.781-.784h-2.902v-2.113c4.322-.397 7.718-4.055 7.718-8.494z"/>
    <path fill="#E84E4E" fill-rule="evenodd" d="M27 33.633c2.757 0 5-2.25 5-5.017v-9.099c0-2.767-2.243-5.018-5-5.018s-5 2.251-5 5.018v9.099c0 2.767 2.243 5.017 5 5.017z"/>
    <path fill="#E84E4E" fill-rule="evenodd" d="M13.469 38.265l22.919-25.113 1.477 1.347-22.919 25.114-1.477-1.348z"/>
</svg>
