<svg xmlns="http://www.w3.org/2000/svg" width="55" height="54">
    <path fill="#E84E4E" fill-rule="evenodd" d="M27.585 54.008c14.908-.302 26.749-12.632 26.446-27.54C53.729 11.559 41.399-.281 26.491.021 11.583.322-.258 12.653.044 27.561c.145 7.16 3.129 13.968 8.294 18.928 5.165 4.959 12.088 7.664 19.247 7.519zM9.763 29.681v-.005l.007.006-.032-1.928c-.067-2.517 1.186-4.886 3.305-6.246 2.185-1.322 4.568-2.286 7.058-2.854 2.288-.552 4.63-.851 6.984-.891 2.151-.051 4.301.112 6.419.488 2.294.389 4.523 1.094 6.624 2.094 2.453 1.191 4.023 3.666 4.056 6.392l.045 2.265c.014.632-.486 1.155-1.117 1.169h-.005l-7.151.143c-.631.015-1.154-.485-1.168-1.117l-.001-.005-.084-4.199c-.018-1.199-.909-2.204-2.097-2.364-1.807-.246-3.631-.35-5.455-.311-2.041.037-4.075.255-6.078.651-1.156.23-1.982 1.254-1.963 2.432l.114 4.091c.015.631-.486 1.154-1.117 1.168l-.005.001-7.17.137c-.632.014-1.154-.486-1.169-1.117z"/>
</svg>
