<svg xmlns="http://www.w3.org/2000/svg" width="53" height="53">
    <path fill="#6E6E6E" fill-rule="evenodd" d="M26.5 0C41.136 0 53 11.864 53 26.5 53 41.135 41.136 53 26.5 53S0 41.135 0 26.5C0 11.864 11.864 0 26.5 0z"/>
    <path fill="#FFF" fill-rule="evenodd" d="M35 27.822c0-.433-.351-.784-.782-.784-.432 0-.782.351-.782.784 0 3.84-3.112 6.962-6.936 6.962-3.825 0-6.936-3.122-6.936-6.962 0-.433-.35-.784-.782-.784-.432 0-.782.351-.782.784 0 4.44 3.396 8.098 7.718 8.495v2.113h-2.902c-.432 0-.782.351-.782.784 0 .434.35.786.782.786h7.367c.432 0 .782-.352.782-.786 0-.433-.35-.784-.782-.784h-2.901v-2.113C31.603 35.92 35 32.262 35 27.822z"/>
    <path fill="#FFF" fill-rule="evenodd" d="M26.499 33.133c2.758 0 5.001-2.251 5.001-5.017v-9.099c0-2.766-2.243-5.018-5.001-5.018-2.756 0-4.999 2.252-4.999 5.018v9.099c0 2.766 2.243 5.017 4.999 5.017z"/>
    <path fill="#FFF" fill-rule="evenodd" d="M12.968 37.765l22.92-25.114 1.477 1.348-22.919 25.114-1.478-1.348z"/>
</svg>
