<?xml version="1.0" encoding="utf-8"?>
<!-- Generator: Adobe Illustrator 17.0.0, SVG Export Plug-In . SVG Version: 6.00 Build 0)  -->
<!DOCTYPE svg PUBLIC "-//W3C//DTD SVG 1.1//EN" "http://www.w3.org/Graphics/SVG/1.1/DTD/svg11.dtd">
<svg version="1.1" id="Layer_1" xmlns="http://www.w3.org/2000/svg" xmlns:xlink="http://www.w3.org/1999/xlink" x="0px" y="0px"
	 width="1233.901px" height="443px" viewBox="0 0 1233.901 443" enable-background="new 0 0 1233.901 443" xml:space="preserve">
<rect x="0.001" fill="none" width="30" height="30"/>
<rect x="60.004" fill="none" width="30" height="30"/>
<rect x="90.004" fill="none" width="30" height="30"/>
<g>
	<rect x="0" y="120" fill="none" width="30" height="30"/>
	<rect x="0" y="150" fill="none" width="30" height="30"/>
	<rect x="0" y="180" fill="none" width="30" height="30"/>
	<rect x="30.001" y="120" fill="none" width="30" height="30"/>
	<rect x="30.001" y="150" fill="none" width="30" height="30"/>
	<rect x="30.001" y="180" fill="none" width="30" height="30"/>
	<rect x="60.004" y="120" fill="none" width="30" height="30"/>
	<rect x="60.004" y="150" fill="none" width="30" height="30"/>
	<rect x="60.004" y="180" fill="none" width="30" height="30"/>
</g>
<g>
	<rect x="0" y="30" fill="none" width="30" height="30"/>
	<rect x="0" y="60" fill="none" width="30" height="30"/>
	<rect x="0" y="90" fill="none" width="30" height="30"/>
	<rect x="30.001" y="30" fill="none" width="30" height="30"/>
	<rect x="30.001" y="60" fill="none" width="30" height="30"/>
	<rect x="30.001" y="90" fill="none" width="30" height="30"/>
	<rect x="60.004" y="30" fill="none" width="30" height="30"/>
	<rect x="60.004" y="60" fill="none" width="30" height="30"/>
	<rect x="60.004" y="90" fill="none" width="30" height="30"/>
</g>
<path opacity="0.55" enable-background="new    " d="M30,55.727c-12.703,0-23-10.298-23-23s10.297-23,23-23s23,10.297,23,23
	S42.703,55.727,30,55.727z"/>
<path fill="#FFFFFF" d="M22.707,33.23L33.8,43.619c0.273,0.255,0.273,0.665,0,0.921s-0.71,0.256-0.983,0L21.23,33.688
	c-0.273-0.256-0.273-0.665,0-0.921L32.817,21.92c0.134-0.125,0.314-0.193,0.489-0.193s0.355,0.063,0.489,0.193
	c0.273,0.256,0.273,0.665,0,0.921L22.707,33.23z"/>
<path opacity="0.55" enable-background="new    " d="M90.004,9.727c12.703,0,23,10.297,23,23s-10.297,23-23,23s-23-10.298-23-23
	S77.302,9.727,90.004,9.727z"/>
<path fill="#FFFFFF" d="M97.297,32.224L86.204,21.835c-0.273-0.256-0.273-0.665,0-0.921c0.273-0.256,0.71-0.256,0.983,0
	l11.587,10.852c0.273,0.256,0.273,0.665,0,0.921L87.187,43.534c-0.134,0.125-0.314,0.193-0.489,0.193s-0.355-0.063-0.489-0.193
	c-0.273-0.255-0.273-0.665,0-0.921L97.297,32.224z"/>
</svg>
