<?xml version="1.0" encoding="utf-8"?>
<!-- Generator: Adobe Illustrator 17.0.0, SVG Export Plug-In . SVG Version: 6.00 Build 0)  -->
<!DOCTYPE svg PUBLIC "-//W3C//DTD SVG 1.1//EN" "http://www.w3.org/Graphics/SVG/1.1/DTD/svg11.dtd">
<svg version="1.1" id="Layer_1" xmlns="http://www.w3.org/2000/svg" xmlns:xlink="http://www.w3.org/1999/xlink" x="0px" y="0px"
	 width="1137.469px" height="443px" viewBox="0 0 1137.469 443" enable-background="new 0 0 1137.469 443" xml:space="preserve">
<path fill="#9B9B9B" d="M15,3.049c-6.628,0-12,4.94-12,11.033c0,3.446,1.719,6.523,4.411,8.547v4.323l3.833-2.388
	c1.182,0.358,2.444,0.552,3.756,0.552c6.628,0,12-4.94,12-11.033C27.001,7.989,21.628,3.049,15,3.049z M16.285,17.839v0.002
	l-0.001-0.001l-0.001,0.001l-0.057-0.06l-3.099-3.099l-5.684,3.158l6.277-6.948l3.156,3.158l5.684-3.158L16.285,17.839z"/>
<rect x="0" fill="none" width="30" height="30"/>
</svg>
