<?xml version="1.0" encoding="utf-8"?>
<!-- Generator: Adobe Illustrator 17.0.0, SVG Export Plug-In . SVG Version: 6.00 Build 0)  -->
<!DOCTYPE svg PUBLIC "-//W3C//DTD SVG 1.1//EN" "http://www.w3.org/Graphics/SVG/1.1/DTD/svg11.dtd">
<svg version="1.1" id="Layer_1" xmlns="http://www.w3.org/2000/svg" xmlns:xlink="http://www.w3.org/1999/xlink" x="0px" y="0px"
	 width="1137.469px" height="443px" viewBox="0 0 1137.469 443" enable-background="new 0 0 1137.469 443" xml:space="preserve">
<rect fill="none" width="30" height="30"/>
<rect x="30" fill="none" width="30" height="30"/>
<g>
	<rect y="30" fill="none" width="30" height="30"/>
	<rect x="30" y="30" fill="none" width="30" height="30"/>
	<rect y="60" fill="none" width="30" height="30"/>
	<rect x="30" y="60" fill="none" width="30" height="30"/>
</g>
<g>
	<rect x="60" y="30" fill="none" width="30" height="30"/>
	<rect x="90" y="30" fill="none" width="30" height="30"/>
	<rect x="60" y="60" fill="none" width="30" height="30"/>
	<rect x="90" y="60" fill="none" width="30" height="30"/>
</g>
<g>
	<rect x="120" y="30" fill="none" width="30" height="30"/>
	<rect x="150" y="30" fill="none" width="30" height="30"/>
	<rect x="120" y="60" fill="none" width="30" height="30"/>
	<rect x="150" y="60" fill="none" width="30" height="30"/>
</g>
<rect x="60" fill="none" width="30" height="30"/>
<rect x="90" fill="none" width="30" height="30"/>
<rect x="120" fill="none" width="30" height="30"/>
<rect x="150" fill="none" width="30" height="30"/>
<g>
	<rect x="180" y="30" fill="none" width="30" height="30"/>
	<rect x="210" y="30" fill="none" width="30" height="30"/>
	<rect x="180" y="60" fill="none" width="30" height="30"/>
	<rect x="210" y="60" fill="none" width="30" height="30"/>
</g>
<g>
	<rect x="240" y="30" fill="none" width="30" height="30"/>
	<rect x="270" y="30" fill="none" width="30" height="30"/>
	<rect x="240" y="60" fill="none" width="30" height="30"/>
	<rect x="270" y="60" fill="none" width="30" height="30"/>
</g>
<rect x="180" fill="none" width="30" height="30"/>
<rect x="210" fill="none" width="30" height="30"/>
<g>
	<path fill="#FFFFFF" d="M41.195,17.888c0.565,0,1.187,0.056,1.755,0.162v-1.727h4.137v3.083c0.487,0.181,0.842,0.377,1.176,0.623
		c0.633,0.466,0.98,1.079,1.001,1.751c0.805-0.193,1.544-0.521,2.183-0.967c0.231-0.161,0.508-0.302,0.67-0.423v-4.798L45,7.516
		l-7.242,8.124v2.903c0.487-0.125,0.93-0.26,1.445-0.402C39.811,17.974,40.486,17.888,41.195,17.888z"/>
	<path fill="#FFFFFF" d="M45.032,5.546l8.047,9.129h1.835L45.016,3.461l-4.094,4.578V6.191H37.92v5.216l-2.887,3.269h1.861
		L45.032,5.546z"/>
	<path fill="#FFFFFF" d="M54.008,21.166c-0.446,0-1.046,0.201-1.808,0.733c-1.394,0.973-3.1,1.401-4.659,1.401
		c-1.268,0-2.437-0.283-3.264-0.786c-0.409-0.249-0.408-0.333-0.171-0.333c0.477,0,1.907,0.336,2.876,0.336
		c0.477,0,0.842-0.081,0.927-0.324c0.395-1.123-1.136-1.484-2.736-2.142c-1.172-0.482-2.602-0.845-3.964-0.845
		c-0.568,0-1.129,0.063-1.65,0.207c-2.364,0.654-4.073,1.148-4.559,1.307v6.3c0.973-0.364,2.101-0.712,2.743-0.712
		c1.178,0,5.943,1.542,8.641,1.542c0.378,0,0.716-0.03,0.998-0.099c2.29-0.561,6.265-3.849,7.345-4.971
		C55.244,22.242,55.039,21.166,54.008,21.166z"/>
</g>
<path fill="#FFFFFF" d="M27.991,26.211l-6.163-6.183c1.585-1.817,2.453-4.103,2.453-6.483c0-5.561-4.69-10.085-10.455-10.085
	S3.371,7.984,3.371,13.545S8.061,23.63,13.826,23.63c2.164,0,4.226-0.629,5.99-1.825l6.21,6.23c0.26,0.26,0.609,0.403,0.983,0.403
	c0.354,0,0.69-0.13,0.945-0.367C28.495,27.568,28.512,26.734,27.991,26.211z M13.826,6.092c4.261,0,7.727,3.344,7.727,7.454
	S18.087,21,13.826,21s-7.728-3.344-7.728-7.454S9.565,6.092,13.826,6.092z"/>
<g>
	<path fill="#FFFFFF" d="M87.105,12.843L75.741,2.561c-0.426-0.385-1.056-0.385-1.482,0L62.896,12.843
		c-0.476,0.431-0.53,1.185-0.121,1.686s1.128,0.556,1.602,0.127L75,5.044l10.623,9.612c0.214,0.194,0.478,0.289,0.74,0.289
		c0.32,0,0.638-0.141,0.862-0.416C87.634,14.029,87.581,13.273,87.105,12.843z"/>
	<path fill="#FFFFFF" d="M71.811,26.783v-2.927l-0.619,2.927H71.811z"/>
	<path fill="#FFFFFF" d="M78.189,26.783h0.619l-0.619-2.927V26.783z"/>
	<path fill="#FFFFFF" d="M75.371,6.721c-0.213-0.193-0.53-0.193-0.742,0l-8.563,7.772c-0.125,0.113-0.197,0.278-0.197,0.452v11.24
		c0,0.33,0.254,0.598,0.569,0.598h2.421l1.395-6.563c0.069-0.316,0.25-0.602,0.539-0.775c0.071-0.043,1.671-0.97,3.771-1.091
		l0.283,0.598h0.01l-0.768,6.286l0.841,1.545h0.141l0.841-1.545l-0.768-6.286h0.007l0.285-0.598
		c2.099,0.121,3.701,1.048,3.772,1.091c0.289,0.173,0.47,0.459,0.539,0.775l1.395,6.563h2.421c0.314,0,0.569-0.268,0.569-0.598
		v-11.24c0-0.174-0.072-0.339-0.197-0.452L75.371,6.721z M75,18.083c-1.591,0-2.882-1.94-2.882-3.614s1.291-3.03,2.882-3.03
		c1.59,0,2.88,1.357,2.88,3.03C77.88,16.143,76.59,18.083,75,18.083z"/>
</g>
<path fill="#FFFFFF" d="M106.517,14.945l6.872-6.871c0.148-0.148,0.148-0.388,0-0.536l-0.98-0.981
	c-0.071-0.071-0.168-0.111-0.268-0.111c-0.101,0-0.197,0.04-0.268,0.111L105,13.429l-6.872-6.871c-0.142-0.142-0.394-0.142-0.536,0
	l-0.98,0.981c-0.148,0.148-0.148,0.388,0,0.536l6.873,6.871l-6.873,6.871c-0.148,0.148-0.148,0.388,0,0.536l0.98,0.98
	c0.071,0.071,0.168,0.111,0.268,0.111c0.101,0,0.197-0.04,0.268-0.111L105,16.461l6.872,6.871c0.071,0.071,0.168,0.111,0.268,0.111
	c0.101,0,0.197-0.04,0.268-0.111l0.98-0.98c0.148-0.148,0.148-0.388,0-0.536L106.517,14.945z"/>
<g>
	<path fill="#6D2C90" d="M25.695,54.388c-0.137,0.148-0.226,0.244-0.293,0.315C25.526,54.57,25.695,54.388,25.695,54.388z"/>
	<path fill="#6D2C90" d="M31.771,55.513c0.455,0.56,0.681,1.22,0.681,1.981c0,0.544-0.155,1.067-0.466,1.573
		c-0.17,0.286-0.395,0.563-0.675,0.827l-0.932,0.921c-0.894,0.879-1.472,1.656-1.736,2.337c-0.264,0.679-0.396,1.575-0.396,2.685
		h2.075c0-0.978,0.112-1.718,0.332-2.219c0.222-0.501,0.706-1.112,1.451-1.836c1.026-0.994,1.707-1.748,2.045-2.26
		c0.337-0.513,0.508-1.181,0.508-2.005c0-1.358-0.46-2.476-1.381-3.35c-0.921-0.875-2.146-1.311-3.677-1.311
		c-1.654,0-2.956,0.511-3.904,1.532s-1.422,2.371-1.422,4.049h2.074c0.038-1.01,0.199-1.783,0.477-2.319
		c0.497-0.962,1.394-1.444,2.692-1.444C30.564,54.673,31.317,54.953,31.771,55.513z"/>
	<path fill="#6D2C90" d="M47.5,61.525c0-9.665-7.835-17.5-17.5-17.5s-17.5,7.835-17.5,17.5s7.835,17.5,17.5,17.5
		S47.5,71.19,47.5,61.525z M14.091,61.525c0-8.787,7.122-15.91,15.909-15.91s15.909,7.123,15.909,15.91
		c0,8.786-7.122,15.909-15.909,15.909C21.213,77.434,14.091,70.311,14.091,61.525z"/>
	<path fill="#6D2C90" d="M28.199,67.771h2.319v2.423h-2.319V67.771z"/>
</g>
<g>
	<path fill="#78B307" d="M90,77.5c9.649,0,17.5-7.85,17.5-17.5S99.649,42.5,90,42.5S72.5,50.35,72.5,60S80.351,77.5,90,77.5z
		 M90,44.654c8.462,0,15.346,6.884,15.346,15.346S98.462,75.346,90,75.346S74.654,68.462,74.654,60S81.538,44.654,90,44.654z"/>
	<path fill="#78B307" d="M90.279,64.205c0.995,0,1.801,0.806,1.801,1.801s-0.806,1.801-1.801,1.801s-1.801-0.806-1.801-1.801
		S89.284,64.205,90.279,64.205z"/>
	<path fill="#78B307" d="M89.909,61.53c0.595,0,1.077-0.482,1.077-1.077V51.3c0-0.595-0.482-1.077-1.077-1.077
		c-0.594,0-1.077,0.482-1.077,1.077v9.154C88.833,61.048,89.315,61.53,89.909,61.53z"/>
</g>
<g>
	<path fill="#D62222" d="M210,77.5c9.649,0,17.5-7.85,17.5-17.5s-7.851-17.5-17.5-17.5c-9.649,0-17.5,7.85-17.5,17.5
		S200.351,77.5,210,77.5z M210,44.654c8.462,0,15.346,6.884,15.346,15.346S218.462,75.346,210,75.346S194.654,68.462,194.654,60
		S201.538,44.654,210,44.654z"/>
	<path fill="#D62222" d="M210.279,64.205c0.995,0,1.801,0.806,1.801,1.801s-0.806,1.801-1.801,1.801s-1.801-0.806-1.801-1.801
		S209.284,64.205,210.279,64.205z"/>
	<path fill="#D62222" d="M209.909,61.53c0.595,0,1.077-0.482,1.077-1.077V51.3c0-0.595-0.482-1.077-1.077-1.077
		c-0.594,0-1.077,0.482-1.077,1.077v9.154C208.833,61.048,209.315,61.53,209.909,61.53z"/>
</g>
<g>
	<path fill="#138CF3" d="M150,43.101c-8.353,0-15.149,6.796-15.149,15.149S141.647,73.399,150,73.399s15.149-6.796,15.149-15.149
		S158.353,43.101,150,43.101z M150,71.885c-7.519,0-13.635-6.116-13.635-13.635S142.481,44.615,150,44.615
		c7.519,0,13.635,6.116,13.635,13.635S157.519,71.885,150,71.885z"/>
	<path fill="#138CF3" d="M153.966,54.562l-5.807,5.776l-2.119-2.131c-0.297-0.297-0.772-0.297-1.069-0.006
		c-0.296,0.291-0.296,0.772-0.006,1.069l2.65,2.669c0.148,0.148,0.34,0.222,0.538,0.222c0.192,0,0.383-0.074,0.531-0.222
		l6.345-6.308c0.297-0.297,0.297-0.772,0.006-1.069C154.739,54.265,154.263,54.265,153.966,54.562z"/>
</g>
</svg>
