<?xml version="1.0" encoding="utf-8"?>
<!-- Generator: Adobe Illustrator 17.0.0, SVG Export Plug-In . SVG Version: 6.00 Build 0)  -->
<!DOCTYPE svg PUBLIC "-//W3C//DTD SVG 1.1//EN" "http://www.w3.org/Graphics/SVG/1.1/DTD/svg11.dtd">
<svg version="1.1" id="Layer_1" xmlns="http://www.w3.org/2000/svg" xmlns:xlink="http://www.w3.org/1999/xlink" x="0px" y="0px"
	 width="1137.469px" height="443px" viewBox="0 0 1137.469 443" enable-background="new 0 0 1137.469 443" xml:space="preserve">
<rect x="0.003" fill="none" width="30" height="30"/>
<rect x="30.003" fill="none" width="30" height="30"/>
<rect x="59.997" fill="none" width="30" height="30"/>
<rect x="0.003" y="30" fill="none" width="30" height="30"/>
<rect x="30.003" y="30" fill="none" width="30" height="30"/>
<rect x="59.997" y="30" fill="none" width="30" height="30"/>
<rect x="89.993" fill="none" width="30" height="30"/>
<rect x="89.993" y="30" fill="none" width="30" height="30"/>
<rect x="0.003" y="60" fill="none" width="30" height="30"/>
<rect x="30.003" y="60" fill="none" width="30" height="30"/>
<rect x="59.997" y="60" fill="none" width="30" height="30"/>
<rect x="89.993" y="60" fill="none" width="30" height="30"/>
<rect x="119.89" fill="none" width="30" height="30"/>
<rect x="119.89" y="30" fill="none" width="30" height="30"/>
<rect x="149.886" fill="none" width="30" height="30"/>
<rect x="149.886" y="30" fill="none" width="30" height="30"/>
<rect x="119.89" y="60" fill="none" width="30" height="30"/>
<rect x="149.886" y="60" fill="none" width="30" height="30"/>
<rect x="0.003" y="90" fill="none" width="30" height="30"/>
<rect x="30.003" y="90" fill="none" width="30" height="30"/>
<rect x="59.997" y="90" fill="none" width="30" height="30"/>
<rect x="89.993" y="90" fill="none" width="30" height="30"/>
<rect x="119.89" y="90" fill="none" width="30" height="30"/>
<rect x="149.886" y="90" fill="none" width="30" height="30"/>
<rect x="0.003" y="120" fill="none" width="30" height="30"/>
<rect x="30.003" y="120" fill="none" width="30" height="30"/>
<rect x="59.997" y="120" fill="none" width="30" height="30"/>
<rect x="89.993" y="120" fill="none" width="30" height="30"/>
<rect x="119.89" y="120" fill="none" width="30" height="30"/>
<rect x="149.886" y="120" fill="none" width="30" height="30"/>
<rect x="179.886" fill="none" width="30" height="30"/>
<rect x="209.886" fill="none" width="30" height="30"/>
<rect x="239.88" fill="none" width="30" height="30"/>
<rect x="179.886" y="30" fill="none" width="30" height="30"/>
<rect x="209.886" y="30" fill="none" width="30" height="30"/>
<rect x="239.88" y="30" fill="none" width="30" height="30"/>
<rect x="269.876" fill="none" width="30" height="30"/>
<rect x="269.876" y="30" fill="none" width="30" height="30"/>
<rect x="179.886" y="60" fill="none" width="30" height="30"/>
<rect x="209.886" y="60" fill="none" width="30" height="30"/>
<rect x="239.88" y="60" fill="none" width="30" height="30"/>
<rect x="269.876" y="60" fill="none" width="30" height="30"/>
<rect x="299.773" fill="none" width="30" height="30"/>
<rect x="299.773" y="30" fill="none" width="30" height="30"/>
<rect x="329.769" fill="none" width="30" height="30"/>
<rect x="329.769" y="30" fill="none" width="30" height="30"/>
<rect x="299.773" y="60" fill="none" width="30" height="30"/>
<rect x="329.769" y="60" fill="none" width="30" height="30"/>
<rect x="179.886" y="90" fill="none" width="30" height="30"/>
<rect x="209.886" y="90" fill="none" width="30" height="30"/>
<rect x="239.88" y="90" fill="none" width="30" height="30"/>
<rect x="269.876" y="90" fill="none" width="30" height="30"/>
<rect x="299.773" y="90" fill="none" width="30" height="30"/>
<rect x="329.769" y="90" fill="none" width="30" height="30"/>
<rect x="179.886" y="120" fill="none" width="30" height="30"/>
<rect x="209.886" y="120" fill="none" width="30" height="30"/>
<rect x="239.88" y="120" fill="none" width="30" height="30"/>
<rect x="269.876" y="120" fill="none" width="30" height="30"/>
<rect x="299.773" y="120" fill="none" width="30" height="30"/>
<rect x="329.769" y="120" fill="none" width="30" height="30"/>
<rect x="359.769" fill="none" width="30" height="30"/>
<rect x="389.769" fill="none" width="30" height="30"/>
<rect x="419.763" fill="none" width="30" height="30"/>
<rect x="359.769" y="30" fill="none" width="30" height="30"/>
<rect x="389.769" y="30" fill="none" width="30" height="30"/>
<rect x="419.763" y="30" fill="none" width="30" height="30"/>
<rect x="449.759" fill="none" width="30" height="30"/>
<rect x="449.759" y="30" fill="none" width="30" height="30"/>
<rect x="359.769" y="60" fill="none" width="30" height="30"/>
<rect x="389.769" y="60" fill="none" width="30" height="30"/>
<rect x="419.763" y="60" fill="none" width="30" height="30"/>
<rect x="449.759" y="60" fill="none" width="30" height="30"/>
<rect x="479.656" fill="none" width="30" height="30"/>
<rect x="479.656" y="30" fill="none" width="30" height="30"/>
<rect x="509.652" fill="none" width="30" height="30"/>
<rect x="509.652" y="30" fill="none" width="30" height="30"/>
<rect x="479.656" y="60" fill="none" width="30" height="30"/>
<rect x="509.652" y="60" fill="none" width="30" height="30"/>
<rect x="359.769" y="90" fill="none" width="30" height="30"/>
<rect x="389.769" y="90" fill="none" width="30" height="30"/>
<rect x="419.763" y="90" fill="none" width="30" height="30"/>
<rect x="449.759" y="90" fill="none" width="30" height="30"/>
<rect x="479.656" y="90" fill="none" width="30" height="30"/>
<rect x="509.652" y="90" fill="none" width="30" height="30"/>
<rect x="359.769" y="120" fill="none" width="30" height="30"/>
<rect x="389.769" y="120" fill="none" width="30" height="30"/>
<rect x="419.763" y="120" fill="none" width="30" height="30"/>
<rect x="449.759" y="120" fill="none" width="30" height="30"/>
<rect x="479.656" y="120" fill="none" width="30" height="30"/>
<rect x="509.652" y="120" fill="none" width="30" height="30"/>
<rect x="0.003" y="150" fill="none" width="30" height="30"/>
<rect x="30.003" y="150" fill="none" width="30" height="30"/>
<rect x="59.997" y="150" fill="none" width="30" height="30"/>
<rect x="0.003" y="180" fill="none" width="30" height="30"/>
<rect x="30.003" y="180" fill="none" width="30" height="30"/>
<rect x="59.997" y="180" fill="none" width="30" height="30"/>
<rect x="89.993" y="150" fill="none" width="30" height="30"/>
<rect x="89.993" y="180" fill="none" width="30" height="30"/>
<rect x="0.003" y="210" fill="none" width="30" height="30"/>
<rect x="30.003" y="210" fill="none" width="30" height="30"/>
<rect x="59.997" y="210" fill="none" width="30" height="30"/>
<rect x="89.993" y="210" fill="none" width="30" height="30"/>
<rect x="119.89" y="150" fill="none" width="30" height="30"/>
<rect x="119.89" y="180" fill="none" width="30" height="30"/>
<rect x="149.886" y="150" fill="none" width="30" height="30"/>
<rect x="149.886" y="180" fill="none" width="30" height="30"/>
<rect x="119.89" y="210" fill="none" width="30" height="30"/>
<rect x="149.886" y="210" fill="none" width="30" height="30"/>
<rect x="0.003" y="240" fill="none" width="30" height="30"/>
<rect x="30.003" y="240" fill="none" width="30" height="30"/>
<rect x="59.997" y="240" fill="none" width="30" height="30"/>
<rect x="89.993" y="240" fill="none" width="30" height="30"/>
<rect x="119.89" y="240" fill="none" width="30" height="30"/>
<rect x="149.886" y="240" fill="none" width="30" height="30"/>
<rect x="0.003" y="270" fill="none" width="30" height="30"/>
<rect x="30.003" y="270" fill="none" width="30" height="30"/>
<rect x="59.997" y="270" fill="none" width="30" height="30"/>
<rect x="89.993" y="270" fill="none" width="30" height="30"/>
<rect x="119.89" y="270" fill="none" width="30" height="30"/>
<rect x="149.886" y="270" fill="none" width="30" height="30"/>
<rect x="179.886" y="150" fill="none" width="30" height="30"/>
<rect x="209.886" y="150" fill="none" width="30" height="30"/>
<rect x="239.88" y="150" fill="none" width="30" height="30"/>
<rect x="179.886" y="180" fill="none" width="30" height="30"/>
<rect x="209.886" y="180" fill="none" width="30" height="30"/>
<rect x="239.88" y="180" fill="none" width="30" height="30"/>
<rect x="269.876" y="150" fill="none" width="30" height="30"/>
<rect x="269.876" y="180" fill="none" width="30" height="30"/>
<rect x="179.886" y="210" fill="none" width="30" height="30"/>
<rect x="209.886" y="210" fill="none" width="30" height="30"/>
<rect x="239.88" y="210" fill="none" width="30" height="30"/>
<rect x="269.876" y="210" fill="none" width="30" height="30"/>
<rect x="299.773" y="150" fill="none" width="30" height="30"/>
<rect x="299.773" y="180" fill="none" width="30" height="30"/>
<rect x="329.769" y="150" fill="none" width="30" height="30"/>
<rect x="329.769" y="180" fill="none" width="30" height="30"/>
<rect x="299.773" y="210" fill="none" width="30" height="30"/>
<rect x="329.769" y="210" fill="none" width="30" height="30"/>
<rect x="179.886" y="240" fill="none" width="30" height="30"/>
<rect x="209.886" y="240" fill="none" width="30" height="30"/>
<rect x="239.88" y="240" fill="none" width="30" height="30"/>
<rect x="269.876" y="240" fill="none" width="30" height="30"/>
<rect x="299.773" y="240" fill="none" width="30" height="30"/>
<rect x="329.769" y="240" fill="none" width="30" height="30"/>
<rect x="179.886" y="270" fill="none" width="30" height="30"/>
<rect x="209.886" y="270" fill="none" width="30" height="30"/>
<rect x="239.88" y="270" fill="none" width="30" height="30"/>
<rect x="269.876" y="270" fill="none" width="30" height="30"/>
<rect x="299.773" y="270" fill="none" width="30" height="30"/>
<rect x="329.769" y="270" fill="none" width="30" height="30"/>
<rect x="359.769" y="150" fill="none" width="30" height="30"/>
<rect x="389.769" y="150" fill="none" width="30" height="30"/>
<rect x="419.763" y="150" fill="none" width="30" height="30"/>
<rect x="359.769" y="180" fill="none" width="30" height="30"/>
<rect x="389.769" y="180" fill="none" width="30" height="30"/>
<rect x="419.763" y="180" fill="none" width="30" height="30"/>
<rect x="449.759" y="150" fill="none" width="30" height="30"/>
<rect x="449.759" y="180" fill="none" width="30" height="30"/>
<rect x="359.769" y="210" fill="none" width="30" height="30"/>
<rect x="389.769" y="210" fill="none" width="30" height="30"/>
<rect x="419.763" y="210" fill="none" width="30" height="30"/>
<rect x="449.759" y="210" fill="none" width="30" height="30"/>
<rect x="479.656" y="150" fill="none" width="30" height="30"/>
<rect x="479.656" y="180" fill="none" width="30" height="30"/>
<rect x="509.652" y="150" fill="none" width="30" height="30"/>
<rect x="509.652" y="180" fill="none" width="30" height="30"/>
<rect x="479.656" y="210" fill="none" width="30" height="30"/>
<rect x="509.652" y="210" fill="none" width="30" height="30"/>
<rect x="479.656" y="240" fill="none" width="30" height="30"/>
<rect x="509.652" y="240" fill="none" width="30" height="30"/>
<rect x="479.656" y="270" fill="none" width="30" height="30"/>
<rect x="509.652" y="270" fill="none" width="30" height="30"/>
<rect x="539.652" fill="none" width="30" height="30"/>
<rect x="569.652" fill="none" width="30" height="30"/>
<rect x="599.646" fill="none" width="30" height="30"/>
<rect x="539.652" y="30" fill="none" width="30" height="30"/>
<rect x="569.652" y="30" fill="none" width="30" height="30"/>
<rect x="599.646" y="30" fill="none" width="30" height="30"/>
<rect x="629.642" fill="none" width="30" height="30"/>
<rect x="629.642" y="30" fill="none" width="30" height="30"/>
<rect x="539.652" y="60" fill="none" width="30" height="30"/>
<rect x="569.652" y="60" fill="none" width="30" height="30"/>
<rect x="599.646" y="60" fill="none" width="30" height="30"/>
<rect x="629.642" y="60" fill="none" width="30" height="30"/>
<rect x="659.539" fill="none" width="30" height="30"/>
<rect x="659.539" y="30" fill="none" width="30" height="30"/>
<rect x="689.535" fill="none" width="30" height="30"/>
<rect x="689.535" y="30" fill="none" width="30" height="30"/>
<rect x="659.539" y="60" fill="none" width="30" height="30"/>
<rect x="689.535" y="60" fill="none" width="30" height="30"/>
<rect x="539.652" y="90" fill="none" width="30" height="30"/>
<rect x="569.652" y="90" fill="none" width="30" height="30"/>
<rect x="599.646" y="90" fill="none" width="30" height="30"/>
<rect x="629.642" y="90" fill="none" width="30" height="30"/>
<rect x="659.539" y="90" fill="none" width="30" height="30"/>
<rect x="689.535" y="90" fill="none" width="30" height="30"/>
<rect x="539.652" y="120" fill="none" width="30" height="30"/>
<rect x="569.652" y="120" fill="none" width="30" height="30"/>
<rect x="599.646" y="120" fill="none" width="30" height="30"/>
<rect x="629.642" y="120" fill="none" width="30" height="30"/>
<rect x="659.539" y="120" fill="none" width="30" height="30"/>
<rect x="689.535" y="120" fill="none" width="30" height="30"/>
<rect x="719.535" fill="none" width="30" height="30"/>
<rect x="749.535" fill="none" width="30" height="30"/>
<rect x="779.529" fill="none" width="30" height="30"/>
<rect x="719.535" y="30" fill="none" width="30" height="30"/>
<rect x="749.535" y="30" fill="none" width="30" height="30"/>
<rect x="779.529" y="30" fill="none" width="30" height="30"/>
<rect x="809.525" fill="none" width="30" height="30"/>
<rect x="809.525" y="30" fill="none" width="30" height="30"/>
<rect x="719.535" y="60" fill="none" width="30" height="30"/>
<rect x="749.535" y="60" fill="none" width="30" height="30"/>
<rect x="779.529" y="60" fill="none" width="30" height="30"/>
<rect x="809.525" y="60" fill="none" width="30" height="30"/>
<rect x="839.422" fill="none" width="30" height="30"/>
<rect x="839.422" y="30" fill="none" width="30" height="30"/>
<rect x="869.418" fill="none" width="30" height="30"/>
<rect x="869.418" y="30" fill="none" width="30" height="30"/>
<rect x="839.422" y="60" fill="none" width="30" height="30"/>
<rect x="869.418" y="60" fill="none" width="30" height="30"/>
<rect x="719.535" y="90" fill="none" width="30" height="30"/>
<rect x="749.535" y="90" fill="none" width="30" height="30"/>
<rect x="779.529" y="90" fill="none" width="30" height="30"/>
<rect x="809.525" y="90" fill="none" width="30" height="30"/>
<rect x="839.422" y="90" fill="none" width="30" height="30"/>
<rect x="869.418" y="90" fill="none" width="30" height="30"/>
<rect x="719.535" y="120" fill="none" width="30" height="30"/>
<rect x="749.535" y="120" fill="none" width="30" height="30"/>
<rect x="779.529" y="120" fill="none" width="30" height="30"/>
<rect x="809.525" y="120" fill="none" width="30" height="30"/>
<rect x="839.422" y="120" fill="none" width="30" height="30"/>
<rect x="869.418" y="120" fill="none" width="30" height="30"/>
<rect x="899.418" fill="none" width="30" height="30"/>
<rect x="929.418" fill="none" width="30" height="30"/>
<rect x="959.412" fill="none" width="30" height="30"/>
<rect x="899.418" y="30" fill="none" width="30" height="30"/>
<rect x="929.418" y="30" fill="none" width="30" height="30"/>
<rect x="959.412" y="30" fill="none" width="30" height="30"/>
<rect x="989.408" fill="none" width="30" height="30"/>
<rect x="989.408" y="30" fill="none" width="30" height="30"/>
<rect x="899.418" y="60" fill="none" width="30" height="30"/>
<rect x="929.418" y="60" fill="none" width="30" height="30"/>
<rect x="959.412" y="60" fill="none" width="30" height="30"/>
<rect x="989.408" y="60" fill="none" width="30" height="30"/>
<rect x="1019.305" fill="none" width="30" height="30"/>
<rect x="1019.305" y="30" fill="none" width="30" height="30"/>
<rect x="1049.301" fill="none" width="30" height="30"/>
<rect x="1049.301" y="30" fill="none" width="30" height="30"/>
<rect x="1019.305" y="60" fill="none" width="30" height="30"/>
<rect x="1049.301" y="60" fill="none" width="30" height="30"/>
<rect x="899.418" y="90" fill="none" width="30" height="30"/>
<rect x="929.418" y="90" fill="none" width="30" height="30"/>
<rect x="959.412" y="90" fill="none" width="30" height="30"/>
<rect x="989.408" y="90" fill="none" width="30" height="30"/>
<rect x="1019.305" y="90" fill="none" width="30" height="30"/>
<rect x="1049.301" y="90" fill="none" width="30" height="30"/>
<rect x="899.418" y="120" fill="none" width="30" height="30"/>
<rect x="929.418" y="120" fill="none" width="30" height="30"/>
<rect x="959.412" y="120" fill="none" width="30" height="30"/>
<rect x="989.408" y="120" fill="none" width="30" height="30"/>
<rect x="1019.305" y="120" fill="none" width="30" height="30"/>
<rect x="1049.301" y="120" fill="none" width="30" height="30"/>
<rect x="539.652" y="150" fill="none" width="30" height="30"/>
<rect x="569.652" y="150" fill="none" width="30" height="30"/>
<rect x="599.646" y="150" fill="none" width="30" height="30"/>
<rect x="539.652" y="180" fill="none" width="30" height="30"/>
<rect x="569.652" y="180" fill="none" width="30" height="30"/>
<rect x="599.646" y="180" fill="none" width="30" height="30"/>
<rect x="629.642" y="150" fill="none" width="30" height="30"/>
<rect x="629.642" y="180" fill="none" width="30" height="30"/>
<rect x="539.652" y="210" fill="none" width="30" height="30"/>
<rect x="569.652" y="210" fill="none" width="30" height="30"/>
<rect x="599.646" y="210" fill="none" width="30" height="30"/>
<rect x="629.642" y="210" fill="none" width="30" height="30"/>
<rect x="659.539" y="150" fill="none" width="30" height="30"/>
<rect x="659.539" y="180" fill="none" width="30" height="30"/>
<rect x="689.535" y="150" fill="none" width="30" height="30"/>
<rect x="689.535" y="180" fill="none" width="30" height="30"/>
<rect x="659.539" y="210" fill="none" width="30" height="30"/>
<rect x="689.535" y="210" fill="none" width="30" height="30"/>
<rect x="539.652" y="240" fill="none" width="30" height="30"/>
<rect x="569.652" y="240" fill="none" width="30" height="30"/>
<rect x="599.646" y="240" fill="none" width="30" height="30"/>
<rect x="629.642" y="240" fill="none" width="30" height="30"/>
<rect x="659.539" y="240" fill="none" width="30" height="30"/>
<rect x="689.535" y="240" fill="none" width="30" height="30"/>
<rect x="539.652" y="270" fill="none" width="30" height="30"/>
<rect x="569.652" y="270" fill="none" width="30" height="30"/>
<rect x="599.646" y="270" fill="none" width="30" height="30"/>
<rect x="629.642" y="270" fill="none" width="30" height="30"/>
<rect x="659.539" y="270" fill="none" width="30" height="30"/>
<rect x="689.535" y="270" fill="none" width="30" height="30"/>
<rect x="719.535" y="150" fill="none" width="30" height="30"/>
<rect x="749.535" y="150" fill="none" width="30" height="30"/>
<rect x="779.529" y="150" fill="none" width="30" height="30"/>
<rect x="719.535" y="180" fill="none" width="30" height="30"/>
<rect x="749.535" y="180" fill="none" width="30" height="30"/>
<rect x="779.529" y="180" fill="none" width="30" height="30"/>
<rect x="809.525" y="150" fill="none" width="30" height="30"/>
<rect x="809.525" y="180" fill="none" width="30" height="30"/>
<rect x="719.535" y="210" fill="none" width="30" height="30"/>
<rect x="749.535" y="210" fill="none" width="30" height="30"/>
<rect x="779.529" y="210" fill="none" width="30" height="30"/>
<rect x="809.525" y="210" fill="none" width="30" height="30"/>
<rect x="839.422" y="150" fill="none" width="30" height="30"/>
<rect x="839.422" y="180" fill="none" width="30" height="30"/>
<rect x="869.418" y="150" fill="none" width="30" height="30"/>
<rect x="869.418" y="180" fill="none" width="30" height="30"/>
<rect x="839.422" y="210" fill="none" width="30" height="30"/>
<rect x="869.418" y="210" fill="none" width="30" height="30"/>
<rect x="719.535" y="240" fill="none" width="30" height="30"/>
<rect x="749.535" y="240" fill="none" width="30" height="30"/>
<rect x="779.529" y="240" fill="none" width="30" height="30"/>
<rect x="809.525" y="240" fill="none" width="30" height="30"/>
<rect x="839.422" y="240" fill="none" width="30" height="30"/>
<rect x="869.418" y="240" fill="none" width="30" height="30"/>
<rect x="719.535" y="270" fill="none" width="30" height="30"/>
<rect x="749.535" y="270" fill="none" width="30" height="30"/>
<rect x="779.529" y="270" fill="none" width="30" height="30"/>
<rect x="809.525" y="270" fill="none" width="30" height="30"/>
<rect x="839.422" y="270" fill="none" width="30" height="30"/>
<rect x="869.418" y="270" fill="none" width="30" height="30"/>
<rect x="899.418" y="150" fill="none" width="30" height="30"/>
<rect x="929.418" y="150" fill="none" width="30" height="30"/>
<rect x="959.412" y="150" fill="none" width="30" height="30"/>
<rect x="899.418" y="180" fill="none" width="30" height="30"/>
<rect x="929.418" y="180" fill="none" width="30" height="30"/>
<rect x="959.412" y="180" fill="none" width="30" height="30"/>
<rect x="989.408" y="150" fill="none" width="30" height="30"/>
<rect x="989.408" y="180" fill="none" width="30" height="30"/>
<rect x="899.418" y="210" fill="none" width="30" height="30"/>
<rect x="929.418" y="210" fill="none" width="30" height="30"/>
<rect x="959.412" y="210" fill="none" width="30" height="30"/>
<rect x="989.408" y="210" fill="none" width="30" height="30"/>
<rect x="1019.305" y="150" fill="none" width="30" height="30"/>
<rect x="1019.305" y="180" fill="none" width="30" height="30"/>
<rect x="1049.301" y="150" fill="none" width="30" height="30"/>
<rect x="1049.301" y="180" fill="none" width="30" height="30"/>
<rect x="1019.305" y="210" fill="none" width="30" height="30"/>
<rect x="1049.301" y="210" fill="none" width="30" height="30"/>
<rect x="899.418" y="240" fill="none" width="30" height="30"/>
<rect x="929.418" y="240" fill="none" width="30" height="30"/>
<rect x="959.412" y="240" fill="none" width="30" height="30"/>
<rect x="989.408" y="240" fill="none" width="30" height="30"/>
<rect x="1019.305" y="240" fill="none" width="30" height="30"/>
<rect x="1049.301" y="240" fill="none" width="30" height="30"/>
<rect x="899.418" y="270" fill="none" width="30" height="30"/>
<rect x="929.418" y="270" fill="none" width="30" height="30"/>
<rect x="959.412" y="270" fill="none" width="30" height="30"/>
<rect x="989.408" y="270" fill="none" width="30" height="30"/>
<rect x="1019.305" y="270" fill="none" width="30" height="30"/>
<rect x="1049.301" y="270" fill="none" width="30" height="30"/>
<g>
	<path fill="#777677" d="M194.885,23.785c-0.147,0-0.287-0.062-0.389-0.169c-0.283-0.302-6.927-7.431-6.927-11.366
		c0-4.058,3.282-7.359,7.317-7.359s7.319,3.301,7.319,7.359c0,3.935-6.645,11.064-6.927,11.366
		C195.175,23.724,195.032,23.785,194.885,23.785z M194.885,5.97c-3.443,0-6.243,2.816-6.243,6.279c0,2.724,4.194,7.929,6.243,10.2
		c2.052-2.27,6.243-7.473,6.243-10.2C201.13,8.789,198.328,5.97,194.885,5.97z"/>
	<path fill="#777677" d="M194.885,14.555c-1.707,0-3.094-1.396-3.094-3.113c0-1.717,1.389-3.113,3.094-3.113
		c1.707,0,3.094,1.396,3.094,3.113C197.979,13.158,196.592,14.555,194.885,14.555z M194.885,9.409c-1.116,0-2.021,0.912-2.021,2.033
		s0.907,2.033,2.021,2.033c1.114,0,2.021-0.912,2.021-2.033C196.906,10.321,195.999,9.409,194.885,9.409z"/>
</g>
<path fill="#777677" d="M174.621,13.418l-9.335-8.331c-0.017-0.017-0.033-0.028-0.052-0.04c-0.204-0.195-0.53-0.204-0.748-0.012
	l-9.335,8.331c-0.228,0.204-0.245,0.551-0.045,0.779c0.109,0.121,0.261,0.183,0.413,0.183c0.131,0,0.261-0.045,0.368-0.138
	l1.681-1.503v0.292v4.348v5.075c0,0.762,0.62,1.384,1.387,1.384c0.012,0,0.021,0,0.033,0c0.012,0,0.021,0,0.033,0h2.881
	c0.717,0,1.301-0.582,1.301-1.299v-4.939c0-0.109,0.09-0.199,0.199-0.199h2.976c0.109,0,0.199,0.09,0.199,0.199v4.939
	c0,0.717,0.584,1.299,1.301,1.299h2.947c0.774,0,1.387-0.762,1.387-1.734v-4.529v-1.384v-3.401l1.681,1.503
	c0.107,0.093,0.237,0.138,0.368,0.138c0.152,0,0.302-0.062,0.413-0.183C174.866,13.969,174.845,13.622,174.621,13.418z
	 M171.104,16.135v1.384v4.524c0,0.394-0.195,0.634-0.285,0.634h-2.947c-0.109,0-0.199-0.09-0.199-0.199v-4.93
	c0-0.717-0.584-1.299-1.301-1.299h-2.976c-0.717,0-1.301,0.582-1.301,1.299v4.939c0,0.109-0.09,0.199-0.199,0.199h-2.881
	c-0.012,0-0.021,0-0.033,0s-0.021,0-0.033,0c-0.154,0-0.285-0.126-0.285-0.285v-5.077v-4.348v-1.275l6.193-5.521l6.248,5.574
	L171.104,16.135L171.104,16.135z"/>
<g>
	<path fill="#808080" d="M24.589,24.258h-1.344c0.014-0.109,0.021-0.218,0.021-0.33c0-0.933-0.537-1.729-1.323-2.095v-11.13
		c0-0.197-0.133-0.33-0.33-0.33h-4.958V5.412c0-0.197-0.133-0.33-0.33-0.33H7.398c-0.199,0-0.33,0.133-0.33,0.33v18.846H5.415
		c-0.197,0-0.33,0.133-0.33,0.33s0.133,0.33,0.33,0.33h1.983H8.39h7.934h6.514h1.753c0.197,0,0.33-0.133,0.33-0.33
		C24.921,24.391,24.788,24.258,24.589,24.258z M21.283,21.636c-0.107-0.014-0.218-0.024-0.33-0.024
		c-0.249,0-0.494,0.043-0.727,0.121c-0.057-0.076-0.15-0.121-0.266-0.121c-0.197,0-0.33,0.133-0.33,0.33v0.102
		c-0.126,0.09-0.242,0.192-0.347,0.309c-0.017,0.017-0.033,0.036-0.05,0.055c-0.273-0.342-0.627-0.589-1.026-0.71
		c-0.057-0.052-0.135-0.083-0.23-0.083c-0.038,0-0.071,0.005-0.102,0.014c-0.074-0.009-0.15-0.014-0.228-0.014
		c-0.207,0-0.442,0.026-0.629,0.104c-0.024,0.007-0.047,0.017-0.069,0.024c-0.228-0.185-0.496-0.321-0.777-0.394
		c-0.002,0-0.007-0.002-0.009-0.002c-0.024-0.007-0.05-0.012-0.074-0.017c-0.019-0.005-0.04-0.007-0.059-0.012
		c-0.009-0.002-0.017-0.002-0.026-0.005c-0.021-0.005-0.043-0.007-0.064-0.009c-0.009-0.002-0.019-0.002-0.028-0.005
		c-0.019-0.002-0.04-0.005-0.059-0.007c-0.014,0-0.028-0.002-0.043-0.002c-0.017,0-0.031-0.002-0.047-0.002
		c-0.031-0.002-0.062-0.002-0.095-0.002c-0.024,0-0.047,0-0.074,0c-0.017,0-0.031,0.002-0.047,0.002c-0.007,0-0.012,0-0.019,0
		c-0.302,0.019-0.596,0.104-0.853,0.256V11.033h1.653h4.958L21.283,21.636L21.283,21.636z M7.728,5.742h8.267v4.628h-1.653
		c-0.197,0-0.33,0.133-0.33,0.33v10.283c-0.169-0.169-0.363-0.311-0.577-0.425c-0.019-0.009-0.038-0.019-0.057-0.028
		c-0.007-0.005-0.014-0.007-0.021-0.012c-0.235-0.114-0.494-0.19-0.762-0.218c-0.005,0-0.007,0-0.012,0
		c-0.031-0.002-0.062-0.005-0.095-0.007c-0.007,0-0.017,0-0.026-0.002c-0.036-0.002-0.071-0.002-0.107-0.002
		c-0.492,0-0.948,0.161-1.323,0.435V20.62c0-0.199-0.133-0.33-0.33-0.33c-0.197,0-0.33,0.133-0.33,0.33v0.66
		c0,0.05,0.007,0.095,0.024,0.135c-0.161,0.268-0.273,0.57-0.321,0.891c-0.38,0.043-0.729,0.18-1.026,0.385v-0.086
		c0-0.197-0.133-0.33-0.33-0.33c-0.197,0-0.33,0.133-0.33,0.33v0.66c0,0.038,0.005,0.074,0.014,0.107
		c-0.164,0.266-0.275,0.565-0.321,0.883H7.728L7.728,5.742L7.728,5.742z M10.221,22.942c0.007,0,0.012,0,0.019-0.002
		c0.017-0.002,0.036-0.002,0.052-0.005c0.026,0,0.052-0.002,0.078-0.002c0.199,0,0.33-0.133,0.33-0.33
		c0-0.926,0.727-1.653,1.653-1.653c0.826,0,1.52,0.596,1.62,1.422c0.021,0.09,0.076,0.164,0.147,0.211
		c0.005,0.002,0.009,0.007,0.014,0.009c0.005,0.002,0.009,0.007,0.017,0.009c0.012,0.007,0.024,0.012,0.038,0.019c0,0,0,0,0.002,0
		c0.014,0.007,0.031,0.012,0.047,0.014l0,0c0.019,0.007,0.043,0.009,0.066,0.007c0.109,0.002,0.209-0.057,0.266-0.14l0,0l0,0
		l0.033-0.033c0.264-0.33,0.629-0.53,1.059-0.53c0.223,0,0.446,0.062,0.646,0.18c-0.394,0.37-0.617,0.855-0.644,1.373
		c-0.002,0.033-0.002,0.069-0.002,0.102c0,0.23,0.038,0.451,0.114,0.66H8.754C8.908,23.546,9.497,23.009,10.221,22.942z
		 M16.557,24.258c-0.126-0.214-0.199-0.465-0.199-0.693c0-0.366,0.145-0.696,0.392-0.936c0.047-0.045,0.097-0.085,0.152-0.121
		c0.052,0,0.104-0.009,0.152-0.033c0.727-0.397,1.586-0.033,1.852,0.693c0.033,0.1,0.133,0.197,0.297,0.197
		c0.031,0,0.066-0.009,0.1-0.028c0.083-0.014,0.15-0.074,0.197-0.171c0.128-0.273,0.328-0.489,0.568-0.641
		c0.052-0.014,0.097-0.04,0.133-0.076c0.228-0.114,0.484-0.176,0.755-0.176c0.926,0,1.653,0.727,1.653,1.653
		c0,0.1,0,0.23-0.033,0.33L16.557,24.258L16.557,24.258z"/>
	<path fill="#808080" d="M15.992,13.678c-0.199,0-0.33,0.133-0.33,0.33v0.66c0,0.197,0.133,0.33,0.33,0.33
		c0.199,0,0.33-0.133,0.33-0.33v-0.66C16.325,13.809,16.192,13.678,15.992,13.678z"/>
	<path fill="#808080" d="M15.992,19.63c-0.199,0-0.33,0.133-0.33,0.33v0.66c0,0.197,0.133,0.33,0.33,0.33
		c0.199,0,0.33-0.133,0.33-0.33v-0.66C16.325,19.76,16.192,19.63,15.992,19.63z"/>
	<path fill="#808080" d="M15.992,15.661c-0.199,0-0.33,0.133-0.33,0.33v0.66c0,0.199,0.133,0.33,0.33,0.33
		c0.199,0,0.33-0.133,0.33-0.33v-0.66C16.325,15.794,16.192,15.661,15.992,15.661z"/>
	<path fill="#808080" d="M15.992,17.644c-0.199,0-0.33,0.133-0.33,0.33v0.66c0,0.197,0.133,0.33,0.33,0.33
		c0.199,0,0.33-0.133,0.33-0.33v-0.66C16.325,17.777,16.192,17.644,15.992,17.644z"/>
	<path fill="#808080" d="M15.992,11.693c-0.199,0-0.33,0.133-0.33,0.33v0.66c0,0.199,0.133,0.33,0.33,0.33
		c0.199,0,0.33-0.133,0.33-0.33v-0.66C16.325,11.826,16.192,11.693,15.992,11.693z"/>
	<path fill="#808080" d="M17.977,15.001c0.199,0,0.33-0.133,0.33-0.33v-0.663c0-0.199-0.133-0.33-0.33-0.33
		c-0.197,0-0.33,0.133-0.33,0.33v0.66C17.647,14.868,17.778,15.001,17.977,15.001z"/>
	<path fill="#808080" d="M17.977,13.016c0.199,0,0.33-0.133,0.33-0.33v-0.66c0-0.199-0.133-0.33-0.33-0.33
		c-0.197,0-0.33,0.133-0.33,0.33v0.66C17.647,12.885,17.778,13.016,17.977,13.016z"/>
	<path fill="#808080" d="M17.977,16.984c0.199,0,0.33-0.133,0.33-0.33v-0.66c0-0.199-0.133-0.33-0.33-0.33
		c-0.197,0-0.33,0.133-0.33,0.33v0.66C17.647,16.851,17.778,16.984,17.977,16.984z"/>
	<path fill="#808080" d="M17.977,18.967c0.199,0,0.33-0.133,0.33-0.33v-0.66c0-0.197-0.133-0.33-0.33-0.33
		c-0.197,0-0.33,0.133-0.33,0.33v0.66C17.647,18.836,17.778,18.967,17.977,18.967z"/>
	<path fill="#808080" d="M17.977,20.952c0.199,0,0.33-0.133,0.33-0.33v-0.66c0-0.197-0.133-0.33-0.33-0.33
		c-0.197,0-0.33,0.133-0.33,0.33v0.66C17.647,20.819,17.778,20.952,17.977,20.952z"/>
	<path fill="#808080" d="M19.96,16.984c0.197,0,0.33-0.133,0.33-0.33v-0.66c0-0.199-0.133-0.33-0.33-0.33
		c-0.197,0-0.33,0.133-0.33,0.33v0.66C19.63,16.851,19.763,16.984,19.96,16.984z"/>
	<path fill="#808080" d="M19.96,15.001c0.197,0,0.33-0.133,0.33-0.33v-0.663c0-0.199-0.133-0.33-0.33-0.33
		c-0.197,0-0.33,0.133-0.33,0.33v0.66C19.63,14.868,19.763,15.001,19.96,15.001z"/>
	<path fill="#808080" d="M19.96,20.952c0.197,0,0.33-0.133,0.33-0.33v-0.66c0-0.197-0.133-0.33-0.33-0.33
		c-0.197,0-0.33,0.133-0.33,0.33v0.66C19.63,20.819,19.763,20.952,19.96,20.952z"/>
	<path fill="#808080" d="M19.96,18.967c0.197,0,0.33-0.133,0.33-0.33v-0.66c0-0.197-0.133-0.33-0.33-0.33
		c-0.197,0-0.33,0.133-0.33,0.33v0.66C19.63,18.836,19.763,18.967,19.96,18.967z"/>
	<path fill="#808080" d="M19.96,13.016c0.197,0,0.33-0.133,0.33-0.33v-0.66c0-0.199-0.133-0.33-0.33-0.33
		c-0.197,0-0.33,0.133-0.33,0.33v0.66C19.63,12.885,19.763,13.016,19.96,13.016z"/>
	<path fill="#808080" d="M8.718,17.644c0.197,0,0.33-0.133,0.33-0.33v-0.66c0-0.197-0.133-0.33-0.33-0.33
		c-0.197,0-0.33,0.133-0.33,0.33v0.66C8.388,17.514,8.521,17.644,8.718,17.644z"/>
	<path fill="#808080" d="M8.718,19.63c0.197,0,0.33-0.133,0.33-0.33v-0.66c0-0.199-0.133-0.33-0.33-0.33
		c-0.197,0-0.33,0.133-0.33,0.33v0.66C8.388,19.497,8.521,19.63,8.718,19.63z"/>
	<path fill="#808080" d="M8.718,21.613c0.197,0,0.33-0.133,0.33-0.33v-0.66c0-0.199-0.133-0.33-0.33-0.33
		c-0.197,0-0.33,0.133-0.33,0.33v0.66C8.388,21.48,8.521,21.613,8.718,21.613z"/>
	<path fill="#808080" d="M8.718,7.727c0.197,0,0.33-0.133,0.33-0.33V6.735c0-0.197-0.133-0.33-0.33-0.33
		c-0.197,0-0.33,0.133-0.33,0.33v0.663C8.388,7.594,8.521,7.727,8.718,7.727z"/>
	<path fill="#808080" d="M8.718,9.71c0.197,0,0.33-0.133,0.33-0.33V8.72c0-0.197-0.133-0.33-0.33-0.33
		c-0.197,0-0.33,0.133-0.33,0.33v0.66C8.388,9.577,8.521,9.71,8.718,9.71z"/>
	<path fill="#808080" d="M8.718,11.693c0.197,0,0.33-0.133,0.33-0.33v-0.663c0-0.197-0.133-0.33-0.33-0.33
		c-0.197,0-0.33,0.133-0.33,0.33v0.663C8.388,11.563,8.521,11.693,8.718,11.693z"/>
	<path fill="#808080" d="M8.718,13.678c0.197,0,0.33-0.133,0.33-0.33v-0.66c0-0.199-0.133-0.33-0.33-0.33
		c-0.197,0-0.33,0.133-0.33,0.33v0.66C8.388,13.545,8.521,13.678,8.718,13.678z"/>
	<path fill="#808080" d="M8.718,15.661c0.197,0,0.33-0.133,0.33-0.33v-0.66c0-0.199-0.133-0.33-0.33-0.33
		c-0.197,0-0.33,0.133-0.33,0.33v0.66C8.388,15.528,8.521,15.661,8.718,15.661z"/>
	<path fill="#808080" d="M10.703,9.71c0.199,0,0.33-0.133,0.33-0.33V8.72c0-0.197-0.133-0.33-0.33-0.33
		c-0.197,0-0.33,0.133-0.33,0.33v0.66C10.373,9.577,10.504,9.71,10.703,9.71z"/>
	<path fill="#808080" d="M10.703,7.727c0.199,0,0.33-0.133,0.33-0.33V6.735c0-0.197-0.133-0.33-0.33-0.33
		c-0.197,0-0.33,0.133-0.33,0.33v0.663C10.373,7.594,10.504,7.727,10.703,7.727z"/>
	<path fill="#808080" d="M10.703,13.678c0.199,0,0.33-0.133,0.33-0.33v-0.66c0-0.199-0.133-0.33-0.33-0.33
		c-0.197,0-0.33,0.133-0.33,0.33v0.66C10.373,13.545,10.504,13.678,10.703,13.678z"/>
	<path fill="#808080" d="M10.703,11.693c0.199,0,0.33-0.133,0.33-0.33v-0.663c0-0.197-0.133-0.33-0.33-0.33
		c-0.197,0-0.33,0.133-0.33,0.33v0.663C10.373,11.563,10.504,11.693,10.703,11.693z"/>
	<path fill="#808080" d="M10.703,15.661c0.199,0,0.33-0.133,0.33-0.33v-0.66c0-0.199-0.133-0.33-0.33-0.33
		c-0.197,0-0.33,0.133-0.33,0.33v0.66C10.373,15.528,10.504,15.661,10.703,15.661z"/>
	<path fill="#808080" d="M10.703,17.644c0.199,0,0.33-0.133,0.33-0.33v-0.66c0-0.197-0.133-0.33-0.33-0.33
		c-0.197,0-0.33,0.133-0.33,0.33v0.66C10.373,17.514,10.504,17.644,10.703,17.644z"/>
	<path fill="#808080" d="M10.703,19.63c0.199,0,0.33-0.133,0.33-0.33v-0.66c0-0.199-0.133-0.33-0.33-0.33
		c-0.197,0-0.33,0.133-0.33,0.33v0.66C10.373,19.497,10.504,19.63,10.703,19.63z"/>
	<path fill="#808080" d="M12.686,11.693c0.197,0,0.33-0.133,0.33-0.33v-0.663c0-0.197-0.133-0.33-0.33-0.33
		c-0.197,0-0.33,0.133-0.33,0.33v0.663C12.356,11.563,12.489,11.693,12.686,11.693z"/>
	<path fill="#808080" d="M12.686,9.71c0.197,0,0.33-0.133,0.33-0.33V8.72c0-0.197-0.133-0.33-0.33-0.33
		c-0.197,0-0.33,0.133-0.33,0.33v0.66C12.356,9.577,12.489,9.71,12.686,9.71z"/>
	<path fill="#808080" d="M12.686,7.727c0.197,0,0.33-0.133,0.33-0.33V6.735c0-0.197-0.133-0.33-0.33-0.33
		c-0.197,0-0.33,0.133-0.33,0.33v0.663C12.356,7.594,12.489,7.727,12.686,7.727z"/>
	<path fill="#808080" d="M12.686,19.63c0.197,0,0.33-0.133,0.33-0.33v-0.66c0-0.199-0.133-0.33-0.33-0.33
		c-0.197,0-0.33,0.133-0.33,0.33v0.66C12.356,19.497,12.489,19.63,12.686,19.63z"/>
	<path fill="#808080" d="M12.686,17.644c0.197,0,0.33-0.133,0.33-0.33v-0.66c0-0.197-0.133-0.33-0.33-0.33
		c-0.197,0-0.33,0.133-0.33,0.33v0.66C12.356,17.514,12.489,17.644,12.686,17.644z"/>
	<path fill="#808080" d="M12.686,15.661c0.197,0,0.33-0.133,0.33-0.33v-0.66c0-0.199-0.133-0.33-0.33-0.33
		c-0.197,0-0.33,0.133-0.33,0.33v0.66C12.356,15.528,12.489,15.661,12.686,15.661z"/>
	<path fill="#808080" d="M12.686,13.678c0.197,0,0.33-0.133,0.33-0.33v-0.66c0-0.199-0.133-0.33-0.33-0.33
		c-0.197,0-0.33,0.133-0.33,0.33v0.66C12.356,13.545,12.489,13.678,12.686,13.678z"/>
	<path fill="#808080" d="M14.672,9.71c0.199,0,0.33-0.133,0.33-0.33V8.72c0-0.197-0.133-0.33-0.33-0.33
		c-0.199,0-0.33,0.133-0.33,0.33v0.66C14.339,9.577,14.472,9.71,14.672,9.71z"/>
	<path fill="#808080" d="M14.672,7.727c0.199,0,0.33-0.133,0.33-0.33V6.735c0-0.197-0.133-0.33-0.33-0.33
		c-0.199,0-0.33,0.133-0.33,0.33v0.663C14.339,7.594,14.472,7.727,14.672,7.727z"/>
</g>
<g>
	<path fill="#777677" d="M140.367,9.808l4.175,1.097l1.052-4.175l-0.803-0.211l-0.684,2.603c-1.75-2.821-4.871-4.7-8.433-4.7
		c-5.479,0-9.919,4.441-9.919,9.919s4.441,9.919,9.919,9.919c3.655,0,6.846-1.976,8.566-4.918l-0.717-0.389
		c-1.584,2.688-4.505,4.493-7.851,4.493c-5.027,0-9.105-4.077-9.105-9.105s4.077-9.105,9.105-9.105c3.372,0,6.319,1.833,7.891,4.562
		l-2.987-0.793L140.367,9.808z"/>
	<path fill="#777677" d="M136.111,18.744v-0.758c0.717-0.04,1.263-0.252,1.684-0.632c0.42-0.38,0.632-0.886,0.632-1.475
		c0-0.632-0.171-1.097-0.546-1.392c-0.38-0.337-0.926-0.591-1.729-0.758h-0.04v-1.94c0.546,0.085,1.012,0.252,1.475,0.591
		l0.677-0.929c-0.677-0.465-1.394-0.717-2.149-0.758V10.19h-0.632v0.506c-0.632,0.04-1.183,0.252-1.603,0.632
		c-0.42,0.38-0.632,0.886-0.632,1.475c0,0.589,0.171,1.052,0.546,1.349c0.337,0.294,0.929,0.546,1.684,0.717v1.981
		c-0.591-0.085-1.183-0.38-1.769-0.886l-0.758,0.886c0.758,0.677,1.603,1.052,2.529,1.138v0.758H136.111L136.111,18.744z
		 M136.151,15.075c0.42,0.126,0.677,0.252,0.843,0.38c0.126,0.171,0.211,0.337,0.211,0.591c0,0.254-0.085,0.42-0.294,0.591
		c-0.211,0.171-0.465,0.252-0.758,0.297L136.151,15.075L136.151,15.075z M134.679,13.265c-0.126-0.126-0.211-0.335-0.211-0.546
		c0-0.252,0.086-0.42,0.252-0.591c0.211-0.169,0.42-0.252,0.758-0.294v1.814C135.054,13.517,134.802,13.391,134.679,13.265z"/>
</g>
<g>
	<path fill="#777677" d="M55.84,23.11L36.83,3.646c-0.119-0.121-0.294-0.157-0.451-0.09c-0.154,0.066-0.256,0.221-0.256,0.392
		v19.463c0,0.233,0.185,0.423,0.413,0.423h19.01c0.166,0,0.318-0.102,0.382-0.261C55.995,23.414,55.959,23.231,55.84,23.11z
		 M36.951,22.986V4.967l1.895,1.94l-0.534,0.549c-0.161,0.164-0.161,0.432,0,0.598c0.081,0.083,0.188,0.123,0.292,0.123
		c0.105,0,0.211-0.04,0.292-0.123l0.534-0.549L40.499,8.6l-0.534,0.549c-0.161,0.164-0.161,0.432,0,0.598
		c0.081,0.083,0.188,0.123,0.292,0.123c0.107,0,0.211-0.04,0.292-0.123l0.534-0.549l1.069,1.095l-0.534,0.549
		c-0.161,0.164-0.161,0.435,0,0.598c0.081,0.083,0.188,0.123,0.292,0.123s0.211-0.043,0.292-0.123l0.534-0.549l1.069,1.095
		l-0.534,0.549c-0.161,0.164-0.161,0.432,0,0.598c0.081,0.083,0.188,0.123,0.292,0.123c0.107,0,0.211-0.04,0.292-0.123l0.534-0.549
		l1.069,1.095l-0.534,0.549c-0.161,0.164-0.161,0.432,0,0.598c0.081,0.083,0.188,0.123,0.292,0.123s0.211-0.04,0.292-0.123
		l0.534-0.549l1.069,1.095l-0.534,0.549c-0.161,0.164-0.161,0.432,0,0.598c0.081,0.083,0.188,0.123,0.292,0.123
		c0.107,0,0.211-0.04,0.292-0.123l0.534-0.549l1.069,1.095l-0.534,0.549c-0.161,0.164-0.161,0.432,0,0.598
		c0.081,0.083,0.188,0.123,0.292,0.123c0.105,0,0.211-0.04,0.292-0.123l0.534-0.546l1.069,1.095l-0.534,0.549
		c-0.161,0.164-0.161,0.432,0,0.598c0.081,0.083,0.188,0.123,0.292,0.123c0.107,0,0.211-0.04,0.292-0.123L51,19.36l1.069,1.095
		l-0.534,0.549c-0.161,0.164-0.161,0.432,0,0.598c0.081,0.083,0.188,0.123,0.292,0.123c0.107,0,0.211-0.04,0.292-0.123l0.534-0.549
		l1.895,1.94H36.951L36.951,22.986L36.951,22.986z"/>
	<path fill="#777677" d="M45.923,18.878l-4.958-5.077c-0.119-0.121-0.294-0.157-0.451-0.093c-0.154,0.066-0.256,0.221-0.256,0.392
		v5.077c0,0.233,0.185,0.423,0.413,0.423h4.958c0.166,0,0.318-0.102,0.382-0.261C46.075,19.182,46.04,18.999,45.923,18.878z
		 M41.083,18.754v-3.633l3.548,3.633H41.083z"/>
</g>
<g>
	<path fill="#777677" d="M74.997,5.552c-5.208,0-9.447,4.237-9.447,9.447c0,5.208,4.239,9.447,9.447,9.447
		c2.928,0,5.642-1.325,7.447-3.636c0.131-0.169,0.1-0.408-0.066-0.539c-0.169-0.131-0.408-0.1-0.539,0.066
		c-1.658,2.123-4.151,3.339-6.842,3.339c-4.785,0-8.677-3.892-8.677-8.677s3.892-8.677,8.677-8.677s8.677,3.892,8.677,8.677
		c0,0.211,0.171,0.385,0.385,0.385c0.214,0,0.385-0.173,0.385-0.385C84.444,9.789,80.205,5.552,74.997,5.552z"/>
	<path fill="#777677" d="M74.84,20.86c0.026,0.005,0.05,0.007,0.076,0.007c0.152,0,0.294-0.093,0.356-0.237l4.051-9.782
		c0.059-0.145,0.026-0.309-0.083-0.418c-0.109-0.109-0.275-0.142-0.418-0.083l-9.782,4.051c-0.169,0.071-0.266,0.249-0.23,0.43
		c0.036,0.18,0.195,0.309,0.378,0.309h5.346v5.346C74.532,20.665,74.662,20.824,74.84,20.86z M71.119,14.367l7.138-2.957
		l-2.957,7.139v-3.797c0-0.211-0.171-0.385-0.385-0.385L71.119,14.367L71.119,14.367z"/>
</g>
<g>
	<path fill="#777677" d="M97.124,16.937h0.945v7.084h-0.945V16.937z"/>
	<path fill="#777677" d="M97.124,16.937h7.084v0.945h-7.084V16.937z"/>
	<path fill="#777677" d="M103.263,10.795h0.945v7.086h-0.945V10.795z"/>
	<path fill="#777677" d="M103.263,10.795h7.086v0.945h-7.086V10.795z"/>
	<path fill="#777677" d="M109.404,4.657h0.945v7.084h-0.945V4.657z"/>
	<path fill="#777677" d="M109.404,4.657h7.084v0.945h-7.084V4.657z"/>
</g>
<path fill="none" d="M236.92,25.368l-5.954-5.97c1.596-1.84,2.562-4.241,2.562-6.868c0-5.778-4.688-10.473-10.444-10.473
	c-5.764,0-10.444,4.7-10.444,10.473s4.688,10.473,10.444,10.473c2.617,0,5.013-0.969,6.849-2.569l5.954,5.968
	c0.142,0.142,0.332,0.218,0.515,0.218c0.185,0,0.375-0.071,0.515-0.218C237.203,26.121,237.203,25.653,236.92,25.368z
	 M214.103,12.533c0-4.966,4.03-9.003,8.979-9.003c4.954,0,8.979,4.042,8.979,9.003s-4.025,9.007-8.979,9.007
	C218.133,21.54,214.103,17.501,214.103,12.533z"/>
<g>
	<path fill="#8F8F8E" d="M24.67,54.333h-1.354c0.014-0.11,0.021-0.221,0.021-0.333c0-0.941-0.542-1.742-1.333-2.113v-11.22
		c0-0.2-0.133-0.333-0.333-0.333h-5v-5c0-0.2-0.133-0.333-0.333-0.333h-9c-0.2,0-0.333,0.133-0.333,0.333v19H5.336
		c-0.2,0-0.333,0.133-0.333,0.333S5.136,55,5.336,55h2h1h8h6.567h1.767c0.2,0,0.333-0.133,0.333-0.333S24.87,54.333,24.67,54.333z
		 M21.336,51.69c-0.109-0.015-0.22-0.024-0.333-0.024c-0.252,0-0.499,0.043-0.732,0.123c-0.058-0.077-0.152-0.123-0.268-0.123
		c-0.2,0-0.333,0.133-0.333,0.333v0.102c-0.126,0.091-0.244,0.195-0.35,0.31c-0.017,0.018-0.033,0.036-0.05,0.054
		c-0.276-0.345-0.632-0.595-1.034-0.717c-0.058-0.053-0.137-0.083-0.232-0.083c-0.037,0-0.072,0.005-0.104,0.013
		c-0.075-0.009-0.152-0.013-0.229-0.013c-0.209,0-0.444,0.027-0.635,0.104c-0.024,0.008-0.047,0.016-0.07,0.025
		c-0.23-0.187-0.5-0.322-0.784-0.396c-0.003-0.001-0.006-0.001-0.009-0.002c-0.025-0.006-0.05-0.012-0.075-0.018
		c-0.02-0.004-0.041-0.008-0.061-0.012c-0.009-0.002-0.018-0.003-0.027-0.005c-0.021-0.004-0.043-0.007-0.065-0.01
		c-0.01-0.001-0.019-0.003-0.029-0.004c-0.02-0.002-0.04-0.005-0.06-0.007c-0.015-0.001-0.029-0.002-0.044-0.004
		c-0.016-0.001-0.031-0.002-0.047-0.003c-0.032-0.001-0.063-0.003-0.095-0.003c-0.024,0-0.049,0-0.073,0.001
		c-0.016,0.001-0.032,0.002-0.048,0.003c-0.006,0-0.013,0.001-0.019,0.001c-0.304,0.02-0.602,0.106-0.86,0.258V41h1.667h5
		L21.336,51.69L21.336,51.69z M7.67,35.667h8.333v4.667h-1.667c-0.2,0-0.333,0.133-0.333,0.333v10.367
		c-0.17-0.17-0.367-0.315-0.58-0.427c-0.019-0.01-0.038-0.02-0.057-0.029c-0.007-0.004-0.015-0.008-0.023-0.011
		c-0.238-0.115-0.497-0.191-0.767-0.219c-0.004,0-0.008-0.001-0.012-0.001c-0.031-0.003-0.063-0.006-0.095-0.007
		c-0.008,0-0.017-0.001-0.025-0.001c-0.036-0.002-0.072-0.003-0.108-0.003c-0.496,0-0.956,0.163-1.333,0.437v-0.104
		c0-0.2-0.133-0.333-0.333-0.333s-0.333,0.133-0.333,0.333v0.667c0,0.05,0.008,0.096,0.024,0.136
		c-0.164,0.27-0.276,0.574-0.324,0.897c-0.384,0.044-0.735,0.182-1.033,0.388v-0.088c0-0.2-0.133-0.333-0.333-0.333
		s-0.333,0.133-0.333,0.333v0.667c0,0.039,0.005,0.075,0.015,0.109c-0.165,0.267-0.278,0.57-0.324,0.891H7.67V35.667L7.67,35.667z
		 M10.185,53.007c0.007-0.001,0.013-0.001,0.02-0.001c0.017-0.001,0.035-0.003,0.053-0.004C10.284,53.001,10.31,53,10.336,53
		c0.2,0,0.333-0.133,0.333-0.333c0-0.933,0.733-1.667,1.667-1.667c0.833,0,1.533,0.6,1.633,1.433
		c0.023,0.09,0.076,0.164,0.149,0.214c0.005,0.003,0.009,0.006,0.014,0.009s0.01,0.006,0.016,0.009
		c0.012,0.007,0.025,0.013,0.038,0.018c0,0,0.001,0,0.002,0.001c0.015,0.006,0.031,0.011,0.048,0.015l0,0
		c0.02,0.007,0.042,0.009,0.066,0.008c0.11,0.002,0.212-0.058,0.267-0.142l0,0l0,0l0.033-0.033C14.87,52.2,15.236,52,15.67,52
		c0.225,0,0.45,0.063,0.652,0.181c-0.398,0.374-0.623,0.861-0.649,1.383c-0.002,0.034-0.003,0.068-0.003,0.103
		c0,0.232,0.039,0.454,0.115,0.667H8.703C8.859,53.616,9.453,53.073,10.185,53.007z M16.571,54.333
		c-0.127-0.215-0.202-0.47-0.202-0.7c0-0.369,0.145-0.701,0.395-0.943c0.048-0.044,0.099-0.085,0.152-0.122
		c0.052,0,0.104-0.01,0.153-0.035c0.733-0.4,1.6-0.033,1.867,0.7c0.033,0.1,0.133,0.2,0.3,0.2c0.032,0,0.067-0.01,0.102-0.028
		c0.084-0.014,0.15-0.075,0.198-0.172c0.129-0.274,0.329-0.494,0.573-0.647c0.052-0.015,0.098-0.041,0.133-0.076
		c0.229-0.115,0.489-0.177,0.76-0.177c0.933,0,1.667,0.733,1.667,1.667c0,0.1,0,0.233-0.033,0.333H16.571L16.571,54.333z"/>
	<path fill="#8F8F8E" d="M16.003,43.667c-0.2,0-0.333,0.133-0.333,0.333v0.667c0,0.2,0.133,0.333,0.333,0.333
		c0.2,0,0.333-0.133,0.333-0.333V44C16.336,43.8,16.203,43.667,16.003,43.667z"/>
	<path fill="#8F8F8E" d="M16.003,49.667c-0.2,0-0.333,0.133-0.333,0.333v0.667c0,0.2,0.133,0.333,0.333,0.333
		c0.2,0,0.333-0.133,0.333-0.333V50C16.336,49.8,16.203,49.667,16.003,49.667z"/>
	<path fill="#8F8F8E" d="M16.003,45.667c-0.2,0-0.333,0.133-0.333,0.333v0.667c0,0.2,0.133,0.333,0.333,0.333
		c0.2,0,0.333-0.133,0.333-0.333V46C16.336,45.8,16.203,45.667,16.003,45.667z"/>
	<path fill="#8F8F8E" d="M16.003,47.667c-0.2,0-0.333,0.133-0.333,0.333v0.667c0,0.2,0.133,0.333,0.333,0.333
		c0.2,0,0.333-0.133,0.333-0.333V48C16.336,47.8,16.203,47.667,16.003,47.667z"/>
	<path fill="#8F8F8E" d="M16.003,41.667c-0.2,0-0.333,0.133-0.333,0.333v0.667c0,0.2,0.133,0.333,0.333,0.333
		c0.2,0,0.333-0.133,0.333-0.333V42C16.336,41.8,16.203,41.667,16.003,41.667z"/>
	<path fill="#8F8F8E" d="M18.003,45c0.2,0,0.333-0.133,0.333-0.333V44c0-0.2-0.133-0.333-0.333-0.333S17.67,43.8,17.67,44v0.667
		C17.67,44.867,17.803,45,18.003,45z"/>
	<path fill="#8F8F8E" d="M18.003,43c0.2,0,0.333-0.133,0.333-0.333V42c0-0.2-0.133-0.333-0.333-0.333S17.67,41.8,17.67,42v0.667
		C17.67,42.867,17.803,43,18.003,43z"/>
	<path fill="#8F8F8E" d="M18.003,47c0.2,0,0.333-0.133,0.333-0.333V46c0-0.2-0.133-0.333-0.333-0.333S17.67,45.8,17.67,46v0.667
		C17.67,46.867,17.803,47,18.003,47z"/>
	<path fill="#8F8F8E" d="M18.003,49c0.2,0,0.333-0.133,0.333-0.333V48c0-0.2-0.133-0.333-0.333-0.333S17.67,47.8,17.67,48v0.667
		C17.67,48.867,17.803,49,18.003,49z"/>
	<path fill="#8F8F8E" d="M18.003,51c0.2,0,0.333-0.133,0.333-0.333V50c0-0.2-0.133-0.333-0.333-0.333S17.67,49.8,17.67,50v0.667
		C17.67,50.867,17.803,51,18.003,51z"/>
	<path fill="#8F8F8E" d="M20.003,47c0.2,0,0.333-0.133,0.333-0.333V46c0-0.2-0.133-0.333-0.333-0.333S19.67,45.8,19.67,46v0.667
		C19.67,46.867,19.803,47,20.003,47z"/>
	<path fill="#8F8F8E" d="M20.003,45c0.2,0,0.333-0.133,0.333-0.333V44c0-0.2-0.133-0.333-0.333-0.333S19.67,43.8,19.67,44v0.667
		C19.67,44.867,19.803,45,20.003,45z"/>
	<path fill="#8F8F8E" d="M20.003,51c0.2,0,0.333-0.133,0.333-0.333V50c0-0.2-0.133-0.333-0.333-0.333S19.67,49.8,19.67,50v0.667
		C19.67,50.867,19.803,51,20.003,51z"/>
	<path fill="#8F8F8E" d="M20.003,49c0.2,0,0.333-0.133,0.333-0.333V48c0-0.2-0.133-0.333-0.333-0.333S19.67,47.8,19.67,48v0.667
		C19.67,48.867,19.803,49,20.003,49z"/>
	<path fill="#8F8F8E" d="M20.003,43c0.2,0,0.333-0.133,0.333-0.333V42c0-0.2-0.133-0.333-0.333-0.333S19.67,41.8,19.67,42v0.667
		C19.67,42.867,19.803,43,20.003,43z"/>
	<path fill="#8F8F8E" d="M8.67,47.667c0.2,0,0.333-0.133,0.333-0.333v-0.667c0-0.2-0.133-0.333-0.333-0.333
		s-0.333,0.133-0.333,0.333v0.667C8.336,47.533,8.47,47.667,8.67,47.667z"/>
	<path fill="#8F8F8E" d="M8.67,49.667c0.2,0,0.333-0.133,0.333-0.333v-0.667c0-0.2-0.133-0.333-0.333-0.333
		s-0.333,0.133-0.333,0.333v0.667C8.336,49.533,8.47,49.667,8.67,49.667z"/>
	<path fill="#8F8F8E" d="M8.67,51.667c0.2,0,0.333-0.133,0.333-0.333v-0.667c0-0.2-0.133-0.333-0.333-0.333
		s-0.333,0.133-0.333,0.333v0.667C8.336,51.533,8.47,51.667,8.67,51.667z"/>
	<path fill="#8F8F8E" d="M8.67,37.667c0.2,0,0.333-0.133,0.333-0.333v-0.667c0-0.2-0.133-0.333-0.333-0.333
		s-0.333,0.133-0.333,0.333v0.667C8.336,37.533,8.47,37.667,8.67,37.667z"/>
	<path fill="#8F8F8E" d="M8.67,39.667c0.2,0,0.333-0.133,0.333-0.333v-0.667c0-0.2-0.133-0.333-0.333-0.333
		s-0.333,0.133-0.333,0.333v0.667C8.336,39.533,8.47,39.667,8.67,39.667z"/>
	<path fill="#8F8F8E" d="M8.67,41.667c0.2,0,0.333-0.133,0.333-0.333v-0.667c0-0.2-0.133-0.333-0.333-0.333
		s-0.333,0.133-0.333,0.333v0.667C8.336,41.533,8.47,41.667,8.67,41.667z"/>
	<path fill="#8F8F8E" d="M8.67,43.667c0.2,0,0.333-0.133,0.333-0.333v-0.667c0-0.2-0.133-0.333-0.333-0.333
		s-0.333,0.133-0.333,0.333v0.667C8.336,43.533,8.47,43.667,8.67,43.667z"/>
	<path fill="#8F8F8E" d="M8.67,45.667c0.2,0,0.333-0.133,0.333-0.333v-0.667c0-0.2-0.133-0.333-0.333-0.333
		s-0.333,0.133-0.333,0.333v0.667C8.336,45.533,8.47,45.667,8.67,45.667z"/>
	<path fill="#8F8F8E" d="M10.67,39.667c0.2,0,0.333-0.133,0.333-0.333v-0.667c0-0.2-0.133-0.333-0.333-0.333
		s-0.333,0.133-0.333,0.333v0.667C10.336,39.533,10.47,39.667,10.67,39.667z"/>
	<path fill="#8F8F8E" d="M10.67,37.667c0.2,0,0.333-0.133,0.333-0.333v-0.667c0-0.2-0.133-0.333-0.333-0.333
		s-0.333,0.133-0.333,0.333v0.667C10.336,37.533,10.47,37.667,10.67,37.667z"/>
	<path fill="#8F8F8E" d="M10.67,43.667c0.2,0,0.333-0.133,0.333-0.333v-0.667c0-0.2-0.133-0.333-0.333-0.333
		s-0.333,0.133-0.333,0.333v0.667C10.336,43.533,10.47,43.667,10.67,43.667z"/>
	<path fill="#8F8F8E" d="M10.67,41.667c0.2,0,0.333-0.133,0.333-0.333v-0.667c0-0.2-0.133-0.333-0.333-0.333
		s-0.333,0.133-0.333,0.333v0.667C10.336,41.533,10.47,41.667,10.67,41.667z"/>
	<path fill="#8F8F8E" d="M10.67,45.667c0.2,0,0.333-0.133,0.333-0.333v-0.667c0-0.2-0.133-0.333-0.333-0.333
		s-0.333,0.133-0.333,0.333v0.667C10.336,45.533,10.47,45.667,10.67,45.667z"/>
	<path fill="#8F8F8E" d="M10.67,47.667c0.2,0,0.333-0.133,0.333-0.333v-0.667c0-0.2-0.133-0.333-0.333-0.333
		s-0.333,0.133-0.333,0.333v0.667C10.336,47.533,10.47,47.667,10.67,47.667z"/>
	<path fill="#8F8F8E" d="M10.67,49.667c0.2,0,0.333-0.133,0.333-0.333v-0.667c0-0.2-0.133-0.333-0.333-0.333
		s-0.333,0.133-0.333,0.333v0.667C10.336,49.533,10.47,49.667,10.67,49.667z"/>
	<path fill="#8F8F8E" d="M12.67,41.667c0.2,0,0.333-0.133,0.333-0.333v-0.667c0-0.2-0.133-0.333-0.333-0.333
		s-0.333,0.133-0.333,0.333v0.667C12.336,41.533,12.47,41.667,12.67,41.667z"/>
	<path fill="#8F8F8E" d="M12.67,39.667c0.2,0,0.333-0.133,0.333-0.333v-0.667c0-0.2-0.133-0.333-0.333-0.333
		s-0.333,0.133-0.333,0.333v0.667C12.336,39.533,12.47,39.667,12.67,39.667z"/>
	<path fill="#8F8F8E" d="M12.67,37.667c0.2,0,0.333-0.133,0.333-0.333v-0.667c0-0.2-0.133-0.333-0.333-0.333
		s-0.333,0.133-0.333,0.333v0.667C12.336,37.533,12.47,37.667,12.67,37.667z"/>
	<path fill="#8F8F8E" d="M12.67,49.667c0.2,0,0.333-0.133,0.333-0.333v-0.667c0-0.2-0.133-0.333-0.333-0.333
		s-0.333,0.133-0.333,0.333v0.667C12.336,49.533,12.47,49.667,12.67,49.667z"/>
	<path fill="#8F8F8E" d="M12.67,47.667c0.2,0,0.333-0.133,0.333-0.333v-0.667c0-0.2-0.133-0.333-0.333-0.333
		s-0.333,0.133-0.333,0.333v0.667C12.336,47.533,12.47,47.667,12.67,47.667z"/>
	<path fill="#8F8F8E" d="M12.67,45.667c0.2,0,0.333-0.133,0.333-0.333v-0.667c0-0.2-0.133-0.333-0.333-0.333
		s-0.333,0.133-0.333,0.333v0.667C12.336,45.533,12.47,45.667,12.67,45.667z"/>
	<path fill="#8F8F8E" d="M12.67,43.667c0.2,0,0.333-0.133,0.333-0.333v-0.667c0-0.2-0.133-0.333-0.333-0.333
		s-0.333,0.133-0.333,0.333v0.667C12.336,43.533,12.47,43.667,12.67,43.667z"/>
	<path fill="#8F8F8E" d="M14.67,39.667c0.2,0,0.333-0.133,0.333-0.333v-0.667c0-0.2-0.133-0.333-0.333-0.333
		s-0.333,0.133-0.333,0.333v0.667C14.336,39.533,14.47,39.667,14.67,39.667z"/>
	<path fill="#8F8F8E" d="M14.67,37.667c0.2,0,0.333-0.133,0.333-0.333v-0.667c0-0.2-0.133-0.333-0.333-0.333
		s-0.333,0.133-0.333,0.333v0.667C14.336,37.533,14.47,37.667,14.67,37.667z"/>
</g>
<path fill="#8F8F8E" d="M56.184,52.955L37.018,33.789c-0.119-0.119-0.298-0.155-0.454-0.09c-0.156,0.064-0.257,0.217-0.257,0.385
	V53.25c0,0.23,0.187,0.417,0.417,0.417H55.89c0.168,0,0.321-0.102,0.385-0.257C56.339,53.253,56.303,53.074,56.184,52.955z
	 M37.139,52.833V35.09L39.05,37l-0.539,0.539c-0.163,0.163-0.163,0.427,0,0.589c0.082,0.081,0.188,0.122,0.295,0.122
	s0.213-0.041,0.294-0.122l0.539-0.539l1.077,1.078l-0.539,0.539c-0.163,0.162-0.163,0.427,0,0.589
	c0.082,0.081,0.188,0.122,0.295,0.122s0.213-0.041,0.294-0.122l0.539-0.539l1.077,1.077l-0.539,0.539
	c-0.162,0.162-0.162,0.427,0,0.589c0.082,0.081,0.188,0.122,0.295,0.122s0.213-0.041,0.294-0.122l0.539-0.539L44.05,42l-0.539,0.539
	c-0.162,0.162-0.162,0.427,0,0.589c0.082,0.081,0.188,0.122,0.295,0.122s0.213-0.041,0.294-0.122l0.539-0.539l1.078,1.077
	l-0.539,0.539c-0.162,0.163-0.162,0.427,0,0.589c0.082,0.081,0.188,0.122,0.295,0.122s0.213-0.041,0.294-0.122l0.539-0.539
	l1.077,1.078l-0.539,0.539c-0.163,0.162-0.163,0.427,0,0.589c0.082,0.081,0.188,0.122,0.295,0.122s0.213-0.041,0.294-0.122
	l0.539-0.539L49.05,47l-0.539,0.539c-0.162,0.162-0.162,0.427,0,0.589c0.082,0.081,0.188,0.122,0.295,0.122s0.213-0.041,0.294-0.122
	l0.539-0.539l1.077,1.077l-0.539,0.539c-0.162,0.163-0.162,0.427,0,0.589c0.082,0.081,0.188,0.122,0.295,0.122
	s0.213-0.041,0.294-0.122l0.539-0.539l1.078,1.077l-0.539,0.539c-0.162,0.163-0.162,0.427,0,0.589
	c0.082,0.081,0.188,0.122,0.295,0.122s0.213-0.041,0.294-0.122l0.539-0.539l1.911,1.911L37.139,52.833L37.139,52.833z"/>
<path fill="#8F8F8E" d="M46.184,48.788l-5-5c-0.119-0.118-0.298-0.155-0.454-0.09c-0.156,0.064-0.257,0.217-0.257,0.385v5
	c0,0.23,0.187,0.417,0.417,0.417h5c0.168,0,0.321-0.102,0.385-0.257C46.339,49.087,46.303,48.908,46.184,48.788z M41.306,48.667
	V45.09l3.577,3.577H41.306z"/>
<path fill="#8F8F8E" d="M74.998,35c-5.514,0-10,4.486-10,10s4.486,10,10,10c3.1,0,5.973-1.403,7.884-3.848
	c0.138-0.177,0.107-0.433-0.07-0.571c-0.177-0.139-0.433-0.107-0.571,0.07c-1.755,2.246-4.395,3.535-7.243,3.535
	c-5.065,0-9.186-4.121-9.186-9.186s4.121-9.186,9.186-9.186c5.065,0,9.186,4.121,9.186,9.186c0,0.225,0.182,0.407,0.407,0.407
	s0.407-0.182,0.407-0.407C84.998,39.486,80.512,35,74.998,35z"/>
<path fill="#8F8F8E" d="M74.833,51.205c0.027,0.005,0.053,0.008,0.08,0.008c0.162,0,0.312-0.097,0.376-0.251l4.289-10.356
	c0.063-0.152,0.028-0.327-0.088-0.443c-0.117-0.117-0.291-0.151-0.444-0.089l-10.356,4.29c-0.179,0.075-0.281,0.265-0.243,0.455
	c0.038,0.191,0.205,0.328,0.399,0.328h5.659v5.659C74.505,51,74.643,51.167,74.833,51.205z M70.892,44.333l7.558-3.131l-3.131,7.558
	v-4.02c0-0.225-0.182-0.407-0.407-0.407L70.892,44.333L70.892,44.333z"/>
<g>
	<path fill="#8F8F8E" d="M96.124,47.5h1v7h-1V47.5z"/>
	<path fill="#8F8F8E" d="M102.124,41.5h1v7h-1V41.5z"/>
	<path fill="#8F8F8E" d="M108.124,35.5h1v7h-1V35.5z"/>
	<path fill="#8F8F8E" d="M96.124,47.5h7v1h-7V47.5z"/>
	<path fill="#8F8F8E" d="M108.124,35.5h7v1h-7V35.5z"/>
	<path fill="#8F8F8E" d="M102.124,41.5h7v1h-7V41.5z"/>
</g>
<path fill="#8F8F8E" d="M140.39,40.929l4.208,1.106l1.061-4.208l-0.808-0.212l-0.69,2.625c-1.763-2.845-4.91-4.739-8.502-4.739
	c-5.522,0-10,4.478-10,10s4.478,10,10,10c3.686,0,6.902-1.992,8.637-4.959l-0.722-0.392c-1.596,2.71-4.543,4.531-7.914,4.531
	c-5.069,0-9.18-4.11-9.18-9.18s4.11-9.18,9.18-9.18c3.4,0,6.371,1.849,7.955,4.6l-3.012-0.8L140.39,40.929z"/>
<path fill="#8F8F8E" d="M136.1,49.937v-0.763c0.723-0.041,1.273-0.253,1.698-0.637c0.424-0.384,0.637-0.894,0.637-1.486
	c0-0.637-0.171-1.106-0.551-1.404c-0.384-0.339-0.935-0.596-1.743-0.763H136.1v-1.955c0.551,0.086,1.02,0.253,1.486,0.596
	l0.682-0.935c-0.682-0.469-1.404-0.722-2.167-0.763v-0.51h-0.637v0.51c-0.637,0.041-1.192,0.253-1.616,0.637
	c-0.424,0.384-0.637,0.894-0.637,1.486s0.171,1.061,0.551,1.359c0.339,0.298,0.935,0.551,1.698,0.722v1.996
	c-0.596-0.086-1.192-0.384-1.784-0.894l-0.763,0.894c0.763,0.682,1.616,1.061,2.551,1.147v0.763L136.1,49.937L136.1,49.937z
	 M136.141,46.239c0.424,0.126,0.682,0.253,0.849,0.384c0.127,0.172,0.212,0.339,0.212,0.596s-0.086,0.424-0.298,0.596
	c-0.212,0.171-0.469,0.253-0.763,0.298V46.239z M134.655,44.414c-0.126-0.126-0.212-0.339-0.212-0.551
	c0-0.253,0.086-0.424,0.253-0.596c0.212-0.171,0.424-0.253,0.763-0.298v1.829C135.035,44.667,134.782,44.541,134.655,44.414z"/>
</svg>
