<?xml version="1.0" encoding="utf-8"?>
<!-- Generator: Adobe Illustrator 23.0.0, SVG Export Plug-In . SVG Version: 6.00 Build 0)  -->
<svg version="1.1" id="Layer_1" xmlns="http://www.w3.org/2000/svg" xmlns:xlink="http://www.w3.org/1999/xlink" x="0px" y="0px"
	 viewBox="0 0 1546.01 1399.59" style="enable-background:new 0 0 1546.01 1399.59;" xml:space="preserve">
<style type="text/css">
	.st0{fill:url(#SVGID_1_);}
	.st1{fill:#FFFFFF;}
	.st2{fill:none;stroke:#F17423;stroke-miterlimit:10;}
	.st3{fill-rule:evenodd;clip-rule:evenodd;fill:#933D14;stroke:#FFFFFF;stroke-miterlimit:10;}
	.st4{fill-rule:evenodd;clip-rule:evenodd;fill:#EF7425;stroke:#FFFFFF;stroke-width:3;stroke-miterlimit:10;}
</style>
<g>
	
		<linearGradient id="SVGID_1_" gradientUnits="userSpaceOnUse" x1="141.094" y1="694.1815" x2="1400.2928" y2="694.1815" gradientTransform="matrix(0.7129 0.7012 -0.7012 0.7129 712.6158 -341.1667)">
		<stop  offset="0" style="stop-color:#F17423"/>
		<stop  offset="0.2721" style="stop-color:#F17624"/>
		<stop  offset="0.4181" style="stop-color:#F17E27"/>
		<stop  offset="0.5341" style="stop-color:#F08C2D"/>
		<stop  offset="0.6338" style="stop-color:#F09F34"/>
		<stop  offset="0.6983" style="stop-color:#EFB03B"/>
		<stop  offset="0.7322" style="stop-color:#EFA838"/>
		<stop  offset="0.9075" style="stop-color:#F18229"/>
		<stop  offset="1" style="stop-color:#F17423"/>
	</linearGradient>
	<circle class="st0" cx="775.29" cy="694.17" r="629.6"/>
	<g>
		<g>
			<g>
				<g>
					<polygon class="st1" points="1000.09,1124.79 1008.85,1091 1030.37,1118.11 1065.24,1115.56 1045.7,1144.68 1058.47,1176.92 
						1024.89,1167.76 997.92,1190.24 996.69,1155.47 967.25,1137.14 					"/>
					<polygon class="st1" points="291.48,727.96 325.42,736.12 298.7,758.11 301.87,792.94 272.41,773.91 240.4,787.26 
						248.96,753.52 226,726.95 260.75,725.11 278.55,695.36 					"/>
					<polygon class="st1" points="584.43,283.2 562.08,310.03 554.19,276.32 521.56,263.74 551.67,245.75 553.88,211.15 
						580.34,233.76 614.33,224.94 600.59,256.91 619.39,286.05 					"/>
					<polygon class="st1" points="1232.96,670.83 1211.86,643.01 1246.48,642.92 1266.09,613.97 1276.83,647.36 1310.05,657.31 
						1282.05,677.99 1282.98,713.09 1254.93,692.5 1222.3,704.25 					"/>
				</g>
			</g>
			<path class="st1" d="M1180.63,1155.03c-70.52,62.51-155.61,107.64-249.98,131.48c-156.83,39.6-320.63,15.64-461.22-67.47
				c-140.6-83.11-241.08-215.36-282.94-372.41c-25.19-94.51-27.34-191.21-7.32-283.57l-7.87-4.65
				c-20.93,94.5-18.94,193.55,6.86,290.33c42.44,159.28,144.36,293.42,286.95,377.71c142.59,84.28,308.72,108.59,467.78,68.41
				c96.65-24.41,183.69-70.83,255.63-135.17L1180.63,1155.03z M1369.6,547.88c-42.44-159.29-144.36-293.43-286.95-377.71
				C940.06,85.89,773.93,61.59,614.87,101.76c-97.85,24.71-185.85,71.98-258.29,137.59l7.83,4.63
				c71.06-63.73,157.11-109.73,252.69-133.86c156.83-39.6,320.63-15.64,461.22,67.47c140.6,83.11,241.08,215.36,282.94,372.41
				c25.51,95.72,27.39,193.68,6.56,287.11l7.83,4.63C1397.44,746.18,1395.72,645.87,1369.6,547.88z"/>
			<path class="st1" d="M961.85,989.46c-30.1,19.08-63.44,33.46-99.1,42.45c-88.94,22.47-181.85,8.87-261.62-38.28
				c-79.76-47.15-136.76-122.16-160.5-211.23c-9.53-35.7-13.25-71.98-11.31-107.71l-16.67-9.86c-3.19,40.3,0.51,81.37,11.27,121.78
				c24.94,93.53,84.79,172.3,168.55,221.81c83.76,49.51,181.32,63.78,274.73,40.2c40.35-10.2,77.84-26.92,111.31-49.32
				L961.85,989.46z M1123.71,609.92c-24.94-93.53-84.79-172.3-168.55-221.81c-83.76-49.51-181.32-63.78-274.73-40.21
				c-41.39,10.46-79.8,27.8-113.94,51.09l16.61,9.82c30.81-19.94,65.06-34.91,101.79-44.18c88.95-22.46,181.86-8.87,261.62,38.28
				c79.76,47.15,136.77,122.16,160.5,211.23c9.8,36.77,13.45,74.15,11.11,110.91l16.61,9.82
				C1138.36,693.55,1134.75,651.37,1123.71,609.92z"/>
			<path class="st1" d="M947.68,981.08c-0.66,0.41-1.33,0.81-2,1.21c-99.89,59.21-228.94,63.08-337.34-1
				c-108.39-64.07-167.79-179.34-164.92-295.89c0.02-0.78,0.04-1.57,0.08-2.34l-7.14-4.22c-0.05,0.77-0.07,1.55-0.1,2.33
				c-1.2,33.04,2.55,66.5,11.32,99.47c23.26,87.21,79.07,160.66,157.16,206.82c78.1,46.16,169.06,59.47,256.16,37.49
				c32.92-8.32,63.82-21.3,91.95-38.43c0.66-0.41,1.33-0.81,1.97-1.23L947.68,981.08z M1111.41,715.17
				c1.17-32.98-2.58-66.37-11.34-99.28c-23.25-87.21-79.05-160.65-157.16-206.82c-78.09-46.16-169.06-59.47-256.16-37.49
				c-32.86,8.31-63.7,21.26-91.79,38.33c-1.64,0.99-3.27,2-4.88,3.02l7.13,4.21c1.63-1.01,3.29-2.01,4.93-2.99
				c99.86-59.13,228.83-62.94,337.16,1.09c108.33,64.04,167.74,179.2,164.92,295.69c-0.05,1.93-0.11,3.86-0.2,5.79l7.13,4.21
				C1111.25,719.01,1111.34,717.09,1111.41,715.17z"/>
			<g>
				<g>
					<path class="st1" d="M1453.28,737.34c-34.41-46.26-37.52-94.1-9.28-143.53c28.21-49.42,17.65-89.06-31.71-118.91
						c-49.33-29.82-70.53-73.11-63.56-129.81c6.95-56.71-17.95-89.49-74.72-98.39c-56.78-8.88-92.85-40.99-108.22-96.36
						c-15.33-55.33-50.8-76.29-106.35-62.86c-55.57,13.44-101.02-2.64-136.35-48.2c-35.34-45.55-75.94-51.49-121.82-17.79
						c-45.9,33.69-93.81,36.13-143.75,7.27C607.59-0.08,568.01,9.92,538.78,58.74c-29.22,48.85-72.31,69.39-129.24,61.65
						c-56.94-7.72-89.45,16.68-97.57,73.21c-0.87,6.03-1.99,11.82-3.41,17.36l40.19,23.76c73.82-67.46,163.77-116.05,263.89-141.34
						c161.3-40.73,329.75-16.09,474.35,69.38c144.6,85.47,247.93,221.48,290.98,383c26.72,100.26,28.23,202.92,5.51,300.58
						l40.21,23.77c4.13-3.94,8.6-7.76,13.42-11.45C1482.28,824.04,1487.68,783.61,1453.28,737.34z M1234.04,1205.98
						c0.86-6.03,2.01-11.81,3.42-17.35l-41.13-24.31c-73.31,66.2-162.31,113.94-261.22,138.92
						c-161.3,40.73-329.75,16.09-474.35-69.38s-247.93-221.48-290.98-383c-26.4-99.05-28.2-200.46-6.32-297.07l-41.12-24.31
						c-4.13,3.94-8.62,7.75-13.43,11.44c-45.18,34.63-50.57,75.06-16.17,121.33c34.41,46.25,37.5,94.11,9.29,143.51
						c-28.22,49.44-17.66,89.08,31.68,118.92c49.36,29.84,70.55,73.11,63.59,129.83c-6.97,56.7,17.93,89.5,74.71,98.38
						c56.78,8.88,92.85,40.99,108.21,96.34c15.34,55.34,50.81,76.3,106.35,62.86c55.58-13.42,101.03,2.66,136.36,48.23
						c35.33,45.56,75.94,51.49,121.84,17.8c45.88-33.7,93.81-36.13,143.72-7.29c49.94,28.85,89.53,18.85,118.76-29.99
						c29.21-48.82,72.3-69.37,129.23-61.63C1193.41,1286.92,1225.92,1262.52,1234.04,1205.98z"/>
				</g>
				<g>
					<path class="st2" d="M1453.28,737.34c-34.41-46.26-37.52-94.1-9.28-143.53c28.21-49.42,17.65-89.06-31.71-118.91
						c-49.33-29.82-70.53-73.11-63.56-129.81c6.95-56.71-17.95-89.49-74.72-98.39c-56.78-8.88-92.85-40.99-108.22-96.36
						c-15.33-55.33-50.8-76.29-106.35-62.86c-55.57,13.44-101.02-2.64-136.35-48.2c-35.34-45.55-75.94-51.49-121.82-17.79
						c-45.9,33.69-93.81,36.13-143.75,7.27C607.59-0.08,568.01,9.92,538.78,58.74c-29.22,48.85-72.31,69.39-129.24,61.65
						c-56.94-7.72-89.45,16.68-97.57,73.21c-0.87,6.03-1.99,11.82-3.41,17.36l40.19,23.76c73.82-67.46,163.77-116.05,263.89-141.34
						c161.3-40.73,329.75-16.09,474.35,69.38c144.6,85.47,247.93,221.48,290.98,383c26.72,100.26,28.23,202.92,5.51,300.58
						l40.21,23.77c4.13-3.94,8.6-7.76,13.42-11.45C1482.28,824.04,1487.68,783.61,1453.28,737.34z M1234.04,1205.98
						c0.86-6.03,2.01-11.81,3.42-17.35l-41.13-24.31c-73.31,66.2-162.31,113.94-261.22,138.92
						c-161.3,40.73-329.75,16.09-474.35-69.38s-247.93-221.48-290.98-383c-26.4-99.05-28.2-200.46-6.32-297.07l-41.12-24.31
						c-4.13,3.94-8.62,7.75-13.43,11.44c-45.18,34.63-50.57,75.06-16.17,121.33c34.41,46.25,37.5,94.11,9.29,143.51
						c-28.22,49.44-17.66,89.08,31.68,118.92c49.36,29.84,70.55,73.11,63.59,129.83c-6.97,56.7,17.93,89.5,74.71,98.38
						c56.78,8.88,92.85,40.99,108.21,96.34c15.34,55.34,50.81,76.3,106.35,62.86c55.58-13.42,101.03,2.66,136.36,48.23
						c35.33,45.56,75.94,51.49,121.84,17.8c45.88-33.7,93.81-36.13,143.72-7.29c49.94,28.85,89.53,18.85,118.76-29.99
						c29.21-48.82,72.3-69.37,129.23-61.63C1193.41,1286.92,1225.92,1262.52,1234.04,1205.98z"/>
				</g>
			</g>
		</g>
	</g>
	<path class="st3" d="M1199.24,1279.5c23.54-12.4,38.27-36.66,43.37-72.18c0.69-4.87,1.59-9.57,2.64-14.09l103.68,61.29
		L1199.24,1279.5z"/>
	<path class="st3" d="M61.97,607.94l-51.4-144.52l103.97,61.46c-3.4,3.13-7.06,6.19-10.96,9.17
		C74.94,555.98,61.02,580.96,61.97,607.94z"/>
	<polygon class="st4" points="1543.97,937.36 1354.23,1261.77 2.05,462.22 191.78,137.81 	"/>
	<g>
		<g>
			<path class="st1" d="M345.27,456.6c-25.81,44.03-74.29,51.87-121.77,24.04l-70-41.03l34.13-58.24l-17.45-10.23l16.17-27.6
				l17.45,10.23l32.94-56.2l70,41.03C354.23,366.43,371.08,412.57,345.27,456.6z M296.98,428.29c12.73-21.71,5.95-41.77-14.14-53.54
				l-20.09-11.77l-11.06,18.87l30.03,17.6l-16.17,27.6l-30.03-17.6l-12.25,20.9l20.09,11.77C263.44,453.89,284.26,450,296.98,428.29
				z"/>
			<path class="st1" d="M476.22,378.77l27.39,16.05c-3.79,7.87-0.56,16.3,7.76,21.18c8.32,4.88,17.26,3.57,22.27-3.58l27.39,16.06
				c-13.5,20.71-38.28,23.91-62.63,9.64C474.06,423.85,464.75,400.67,476.22,378.77z M445.69,610.87l4.97-30.35l-53.97-31.63
				l-24.05,19.17l-48.7-28.54l145.34-105.64l47.08,27.59L495.2,639.89L445.69,610.87z M457.69,538.3l7.13-43.8l-34.73,27.62
				L457.69,538.3z M411.3,628.6c-6.3,10.76-18.26,13.02-28.61,6.95c-10.35-6.07-14.22-17.6-7.91-28.36
				c6.3-10.75,18.5-13.42,28.85-7.36C413.97,605.91,417.6,617.85,411.3,628.6z"/>
			<path class="st1" d="M557.12,580.76c25.57-43.63,77.01-54.64,122.66-27.88c27.8,16.29,43.76,39.28,47.06,65.75l-46.05,9.27
				c-2.14-15.43-8.51-27.34-21.29-34.83c-19.89-11.66-41.36-5.71-54.09,16c-12.73,21.71-7.42,43.36,12.47,55.01
				c12.78,7.49,26.29,7.23,40.8,1.56l14.42,44.71c-24.71,10.06-52.57,7.36-80.36-8.94C547.07,674.65,531.55,624.39,557.12,580.76z"
				/>
			<path class="st1" d="M936.55,845.96c-14.51,24.76-43.85,26.91-83.01,3.96l-79.95-46.86l83.25-142.04l75.89,44.48
				c39.16,22.95,48.27,49.28,35.66,70.79c-7.73,13.19-20.85,20.22-37.64,19.1C943.82,811.23,946.42,829.12,936.55,845.96z
				 M884.29,722.09l-12.37,21.1l22.32,13.08c10.75,6.3,17.76,5.5,21.8-1.4c4.05-6.9,1.32-13.4-9.44-19.71L884.29,722.09z
				 M891.47,812.18c4.28-7.3,1.27-14.25-9.29-20.44l-28.81-16.89l-13.08,22.32l28.81,16.89
				C879.65,820.24,887.19,819.48,891.47,812.18z"/>
			<path class="st1" d="M1033.98,764.85l47.89,28.07l-83.25,142.04l-47.89-28.07L1033.98,764.85z"/>
			<path class="st1" d="M1181.3,993.5l-21.17,36.12l-118.09-69.22l83.25-142.04l115.45,67.67l-21.17,36.12l-68.38-40.08l-9.75,16.64
				l60.06,35.21l-20.22,34.49l-60.06-35.2l-10.94,18.67L1181.3,993.5z M1172.85,830.71l-28.41-16.65l45-17.24l38.96,22.84
				l6.95,47.69l-28.41-16.65l-7.89-25.61L1172.85,830.71z M1101.6,1033.21c-6.3,10.75-18.26,13.02-28.61,6.95
				c-10.35-6.07-14.22-17.6-7.91-28.36c6.3-10.75,18.5-13.42,28.85-7.35C1104.27,1010.51,1107.9,1022.45,1101.6,1033.21z"/>
			<path class="st1" d="M1291.22,965.51l-41.6-24.38l21.76-37.13l131.08,76.83l-21.76,37.13l-41.6-24.38l-61.49,104.9l-47.89-28.07
				L1291.22,965.51z"/>
		</g>
	</g>
	<g>
		<path class="st1" d="M668.99,207.83l-26.09,5.12l-3.02-15.37l71.04-13.94l3.02,15.37l-26.09,5.12l12.97,66.15l-18.87,3.7
			L668.99,207.83z"/>
		<path class="st1" d="M809.06,180.48l0.78,83.07l-19.22,0.18l-0.32-34.06l-37.74,0.35l0.32,34.06l-19.22,0.18l-0.77-83.06
			l19.22-0.18l0.31,32.75l37.74-0.35l-0.31-32.75L809.06,180.48z"/>
		<path class="st1" d="M882.62,258.56l-37.82-7.57L834.1,267l-19.32-3.87l52.6-74.19l18.62,3.72l20.13,88.74l-19.78-3.96
			L882.62,258.56z M879.55,243.06l-6.68-33.77l-19.15,28.6L879.55,243.06z M868.01,182.17l-13.38-2.68l18.13-10.17l15.83,3.17
			l12.82,16.36l-13.38-2.68l-8.68-8.63L868.01,182.17z M893.57,166.35l-1.91-6.19c3.03-1.21,6.68-1.32,10.17-0.63
			c6.52,1.3,9.98,5.75,8.87,11.33c-0.93,4.65-5.28,7.66-10.17,8.5l-3.56-5.19c3.44-0.88,4.98-2.51,5.28-4.03
			c0.42-2.1-0.95-3.7-3.28-4.17C897.1,165.61,895.5,165.77,893.57,166.35z"/>
		<path class="st1" d="M979.35,313.8l20.34-45.5l-39.14,27.41l-7.9-3.55l-5.77-46.45l-20.01,44.48l-16.45-7.4l34.09-75.75l14.5,6.53
			l7.17,59.83l49.1-34.51l14.39,6.47l-33.87,75.85L979.35,313.8z"/>
		<path class="st1" d="M1126.24,373.75c-16.76,18.76-41.57,18.55-61.83,0.44l-28.14-25.15l23.88-26.72l-8.41-7.51l8.54-9.55
			l8.41,7.51l22.93-25.66l28.14,25.15C1140.03,330.37,1143.01,354.99,1126.24,373.75z M1111.73,360.78
			c10.6-11.86,9.11-26.4-3.19-37.39l-13.1-11.71l-12.42,13.89l15.48,13.84l-8.54,9.55l-15.48-13.84l-13.36,14.95l13.09,11.7
			C1086.52,372.79,1101.13,372.64,1111.73,360.78z"/>
		<path class="st1" d="M1092.39,426.77c3.75-3.09,8.67-2.54,11.62,1.04c2.94,3.57,2.55,8.51-1.2,11.6
			c-3.75,3.09-8.4,2.31-11.34-1.26C1088.52,434.57,1088.64,429.87,1092.39,426.77z M1168.68,362.04l12.23,14.84l-64.1,52.84
			l-12.23-14.83L1168.68,362.04z"/>
		<path class="st1" d="M1238.64,464.78l-71.23,42.74l-8.12-13.53l21.94-61.46l-43.25,25.95l-9.77-16.28l71.23-42.74l8.18,13.63
			l-22,61.36l43.25-25.95L1238.64,464.78z"/>
		<path class="st1" d="M1277.19,567.06l-78.64,26.77l-6.2-18.2l32.24-10.98l-12.16-35.72l-32.24,10.98l-6.2-18.2l78.64-26.77
			l6.2,18.2l-31.01,10.56l12.16,35.72l31-10.56L1277.19,567.06z"/>
	</g>
	<g>
		<path class="st1" d="M331.46,919.24c-23.45,9.1-45.46-2.34-55.29-27.68l-13.65-35.18l33.41-12.96l-4.08-10.51l11.95-4.64
			l4.08,10.51l32.08-12.45l13.65,35.18C363.44,886.85,354.91,910.14,331.46,919.24z M324.42,901.1
			c14.82-5.75,20.1-19.38,14.13-34.76l-6.35-16.37l-17.37,6.74l7.51,19.36l-11.95,4.64l-7.51-19.36l-18.7,7.25l6.35,16.38
			C296.51,900.35,309.59,906.85,324.42,901.1z"/>
		<path class="st1" d="M320.27,1011.22c-4.05,2.7-8.59,1.45-11.16-2.4s-1.98-8.52,2.07-11.22c4.05-2.7,8.89-1.65,11.46,2.2
			S324.32,1008.52,320.27,1011.22z M389.62,1009.75c-20.63,13.77-46.47,7.75-60.96-13.96c-14.56-21.82-10.03-47.95,10.51-61.65
			c20.53-13.7,46.4-7.85,60.96,13.96C414.61,969.81,410.25,995.98,389.62,1009.75z M378.81,993.56
			c13.13-8.76,15.92-24.03,7.69-36.37s-23.41-15.63-36.54-6.86c-13.13,8.76-15.92,24.03-7.69,36.37S365.69,1002.32,378.81,993.56z
			 M398.84,936.54l-7.51-11.25l22.91,3.54l9.09,13.62l-5.52,22.52l-7.51-11.25l1.77-13.59L398.84,936.54z"/>
		<path class="st1" d="M400.46,1021.83c17.6-17.81,43.87-17.05,62.27,1.13c10.21,10.09,15.07,22.23,13.97,34.49l-16.79-0.57
			c0.54-8.48-2.11-15.77-8.02-21.6c-11.06-10.93-26.58-10.92-37.59,0.23c-11.01,11.14-10.83,26.67,0.23,37.59
			c5.91,5.84,13.23,8.39,21.78,7.67l0.77,16.78c-12.33,1.33-24.52-3.38-34.82-13.55C383.95,1065.9,382.87,1039.64,400.46,1021.83z"
			/>
		<path class="st1" d="M555.87,1198.58c-7.99,3.18-16.57,2.5-24.57-1.91c-10.8-5.97-16.2-14.11-20.88-32.14
			c-18.57-13.51-24.27-36.32-13.36-56.06c11.94-21.61,37.6-28.3,60.56-15.62c22.85,12.63,31,37.87,19.01,59.58
			c-9.41,17.03-27.36,24.74-45.6,21.18c1.47,5.69,3.84,8.76,7.47,10.77c4.47,2.47,9.39,2.88,14.82,1.14L555.87,1198.58z
			 M523.98,1153.72c12.98,7.17,27.97,3.12,35.6-10.7s3.09-28.66-9.89-35.83c-12.98-7.17-27.97-3.12-35.6,10.7
			C506.46,1131.7,511,1146.54,523.98,1153.72z"/>
		<path class="st1" d="M594.81,1164.61l13.5-44.52l18.4,5.58l-13.29,43.84c-4.58,15.11,0.11,23.35,11.24,26.72
			c11.24,3.41,19.61-0.87,24.19-15.98l13.29-43.84l18.17,5.51l-13.5,44.52c-7.09,23.39-24.42,32.28-47.02,25.43
			C597.19,1205.02,587.72,1188.01,594.81,1164.61z"/>
		<path class="st1" d="M730.38,1202.13l-3.15,29.26l-19.11-2.06l3.18-29.5l-26.26-56.54l20.29,2.19l18.11,39.07l26.01-34.32
			l18.76,2.02L730.38,1202.13z"/>
		<path class="st1" d="M797.6,1217.6l45.12-2.92l1,15.39l-64.18,4.16l-5.37-82.89l62.64-4.06l1,15.39l-43.58,2.82l1.17,18
			l38.49-2.49l0.97,14.92l-38.49,2.49L797.6,1217.6z M794.93,1143.21l-13.62,0.88l14.88-14.52l16.1-1.04l16.62,12.48l-13.62,0.88
			l-10.62-6.09L794.93,1143.21z M825.69,1129.81l-19.52-13.13l18.83-1.22l13.95,13.49L825.69,1129.81z"/>
		<path class="st1" d="M925.88,1126.27l20.79,80.42l-15.28,3.95l-52.72-38.46l12.62,48.83l-18.38,4.75l-20.79-80.42l15.4-3.98
			l52.61,38.49l-12.62-48.83L925.88,1126.27z"/>
	</g>
</g>
</svg>
