<?xml version="1.0" encoding="utf-8"?>
<!-- Generator: Adobe Illustrator 23.0.0, SVG Export Plug-In . SVG Version: 6.00 Build 0)  -->
<svg version="1.1" id="Layer_1" xmlns="http://www.w3.org/2000/svg" xmlns:xlink="http://www.w3.org/1999/xlink" x="0px" y="0px"
	 viewBox="0 0 1336.53 782.79" style="enable-background:new 0 0 1336.53 782.79;" xml:space="preserve">
<style type="text/css">
	.st0{fill-rule:evenodd;clip-rule:evenodd;fill:#5E5E5E;}
	.st1{enable-background:new    ;}
	.st2{fill:#FFFFFF;}
</style>
<polygon class="st0" points="536.62,0 0,0 1336.49,782.79 1336.53,474.18 "/>
<g class="st1">
	<path class="st2" d="M499.54,143.18c-14.18,24.39-40.96,28.82-67.26,13.54l-38.78-22.54l18.75-32.26l-9.67-5.62l8.88-15.29
		l9.67,5.62l18.1-31.14l38.78,22.54C504.31,93.33,513.72,118.79,499.54,143.18z M472.79,127.64c6.99-12.03,3.2-23.1-7.93-29.57
		l-11.13-6.47l-6.08,10.45l16.64,9.67l-8.88,15.29l-16.64-9.67l-6.73,11.58l11.13,6.47C454.3,141.85,465.8,139.67,472.79,127.64z"/>
	<path class="st2" d="M546.8,204.94l-29.9-17.38l-13.25,10.64l-26.98-15.68l80.12-58.69l26.08,15.16l-11.33,98.67l-27.43-15.94
		L546.8,204.94z M550.6,181.58l3.85-24.23l-19.14,15.34L550.6,181.58z M560.97,117.69l-12.03-6.99
		c7.08-11.67,17.26-15.98,26.81-10.43c8.32,4.83,8.74,13.95,12.78,16.3c2.92,1.7,6.01,0.79,8.06-2.23l12.03,6.99
		c-6.89,11.33-17.06,15.65-26.62,10.09c-8.32-4.83-8.73-13.95-12.78-16.3C566.31,113.42,563.15,114.45,560.97,117.69z"/>
	<path class="st2" d="M629.24,218.57c14.05-24.17,42.46-30.36,67.75-15.66c15.4,8.95,24.27,21.63,26.15,36.25l-25.44,5.22
		c-1.21-8.52-4.76-15.1-11.84-19.21c-11.02-6.4-22.88-3.07-29.87,8.96c-6.99,12.03-4.01,23.98,7,30.38
		c7.08,4.12,14.55,3.95,22.55,0.78l8.06,24.68c-13.63,5.61-29.04,4.17-44.44-4.78C623.88,270.49,615.2,242.73,629.24,218.57z"/>
	<path class="st2" d="M816.43,274.73l-45.73,78.68L744.18,338l16.86-29l-24.5-14.24l-16.86,29l-26.53-15.42l45.73-78.68l26.53,15.42
		l-16.2,27.88l24.5,14.24l16.2-27.88L816.43,274.73z"/>
	<path class="st2" d="M803.23,319.69c13.85-23.83,42.68-30.23,68.31-15.33c25.63,14.89,34.34,43.11,20.49,66.94
		c-13.85,23.83-42.68,30.23-68.31,15.33C798.09,371.74,789.38,343.52,803.23,319.69z M865.28,355.75
		c7.12-12.25,3.56-24.24-6.21-29.93c-9.78-5.68-21.96-2.84-29.08,9.41c-7.12,12.25-3.57,24.24,6.21,29.93S858.16,368,865.28,355.75z
		"/>
	<path class="st2" d="M963.4,387.67l-23.04-13.39l11.96-20.57l72.61,42.2l-11.96,20.57l-23.04-13.39l-33.77,58.11l-26.53-15.42
		L963.4,387.67z"/>
	<path class="st2" d="M1109.34,444.97l-45.73,78.68l-26.53-15.42l16.86-29l-24.5-14.24l-16.85,29l-26.53-15.42l45.73-78.68
		l26.53,15.42l-16.2,27.88l24.5,14.24l16.2-27.88L1109.34,444.97z"/>
	<path class="st2" d="M1096.32,495.29l25.15-43.28l26.53,15.42l-24.69,42.49c-6.99,12.03-5,19.2,2.42,23.51s14.64,2.49,21.63-9.53
		l24.7-42.49l26.08,15.16l-25.15,43.28c-13.72,23.6-35.79,28.97-59.95,14.93S1082.6,518.9,1096.32,495.29z"/>
	<path class="st2" d="M1241.58,600.32l-11.63,20.01l-65.42-38.02l45.73-78.68l63.96,37.17l-11.63,20.01l-37.88-22.01l-5.36,9.22
		l33.27,19.34l-11.11,19.11l-33.27-19.34l-6.01,10.34L1241.58,600.32z M1236.58,510.35l-15.74-9.14l24.84-9.62l21.58,12.54
		l3.94,26.35l-15.74-9.15l-4.41-14.14L1236.58,510.35z"/>
</g>
</svg>
