<?xml version="1.0" encoding="utf-8"?>
<!-- Generator: Adobe Illustrator 23.0.0, SVG Export Plug-In . SVG Version: 6.00 Build 0)  -->
<svg version="1.1" id="Layer_1" xmlns="http://www.w3.org/2000/svg" xmlns:xlink="http://www.w3.org/1999/xlink" x="0px" y="0px"
	 viewBox="0 0 1348.34 787.69" style="enable-background:new 0 0 1348.34 787.69;" xml:space="preserve">
<style type="text/css">
	.st0{clip-path:url(#SVGID_2_);fill-rule:evenodd;clip-rule:evenodd;fill:#EF7425;}
	.st1{clip-path:url(#SVGID_2_);fill:#FFFFFF;}
	.st2{fill:#FFFFFF;}
</style>
<g>
	<defs>
		<polygon id="SVGID_1_" points="739.02,0.4 0,0.4 1348.34,787.69 1347.62,360.6 		"/>
	</defs>
	<clipPath id="SVGID_2_">
		<use xlink:href="#SVGID_1_"  style="overflow:visible;"/>
	</clipPath>
	<polygon class="st0" points="739.02,0.4 0,0.4 1348.34,787.69 1347.62,360.6 	"/>
	<polygon class="st1" points="642,0.13 1348,426.13 1347.62,394.75 689.58,0 	"/>
	<polygon class="st1" points="92.98,0.69 1347.62,754.95 1347.62,727 136.63,0.4 	"/>
</g>
<g>
	<g>
		<path class="st2" d="M565.23,118.65c-10.81,18.55-31.2,21.9-51.2,10.25l-29.49-17.18l14.29-24.53l-7.35-4.28l6.77-11.63l7.35,4.28
			l13.8-23.68l29.49,17.18C568.9,80.71,576.04,100.1,565.23,118.65z M544.89,106.79c5.33-9.15,2.45-17.58-6.01-22.51l-8.46-4.93
			l-4.63,7.95l12.65,7.37l-6.77,11.63l-12.65-7.37l-5.13,8.8l8.46,4.93C530.81,117.6,539.56,115.94,544.89,106.79z"/>
		<path class="st2" d="M605.43,168.17l-22.74-13.25l-10.09,8.09l-20.52-11.95l61.03-44.6l19.83,11.56l-8.71,75.08l-20.86-12.15
			L605.43,168.17z M616.28,101.79l-9.15-5.33c5.4-8.88,13.15-12.15,20.41-7.92c6.33,3.69,6.64,10.62,9.71,12.42
			c2.22,1.29,4.57,0.6,6.14-1.69l9.15,5.33c-5.25,8.62-13,11.89-20.27,7.66c-6.33-3.69-6.64-10.62-9.71-12.42
			C620.35,98.54,617.95,99.32,616.28,101.79z M608.34,150.4l2.95-18.43l-14.58,11.66L608.34,150.4z"/>
		<path class="st2" d="M700.42,178.29l-17.52-10.21l9.12-15.64l55.22,32.18l-9.11,15.64l-17.52-10.21l-25.75,44.2l-20.17-11.76
			L700.42,178.29z"/>
		<path class="st2" d="M815.71,224.51l-34.87,59.84l-20.18-11.75l12.85-22.06l-18.64-10.86l-12.85,22.06l-20.18-11.75l34.87-59.84
			l20.18,11.75l-12.35,21.2l18.64,10.86l12.35-21.2L815.71,224.51z"/>
		<path class="st2" d="M841.72,305.85l-22.74-13.25l-10.09,8.09l-20.52-11.95l61.03-44.6l19.83,11.56l-8.71,75.08l-20.86-12.15
			L841.72,305.85z M854.97,240.86L843,233.88l17.5-4.69l16.24,9.46l4.55,17.54l-11.97-6.97l-4.14-9.4L854.97,240.86z M881.54,235.73
			l0.13-6.91c3.15-0.11,6.55,0.95,9.71,2.79c5.47,3.19,7.5,8.15,4.76,12.85c-2.19,3.76-7,4.74-11.39,4.01l-2.2-6.44
			c3.01,0.15,4.25-0.62,4.75-1.47c0.75-1.28,0.22-2.73-1.23-3.58C884.71,236.2,883.31,235.84,881.54,235.73z M844.63,288.08
			l2.95-18.43L833,281.31L844.63,288.08z"/>
		<path class="st2" d="M921.47,366.29l15.72-27.37l-25.75,14.31l-8.89-5.18l-0.79-28.51l-15.34,26.33l-18.38-10.71l34.87-59.84
			l16.58,9.66l0.91,43.24l37.56-20.83l16.58,9.66L939.85,377L921.47,366.29z"/>
		<path class="st2" d="M1066.2,410.54c-10.81,18.55-31.2,21.9-51.2,10.25l-29.49-17.18l14.3-24.53l-7.35-4.28l6.77-11.63l7.35,4.28
			l13.8-23.68l29.49,17.18C1069.87,372.6,1077.01,391.99,1066.2,410.54z M1045.85,398.68c5.33-9.15,2.46-17.58-6.01-22.51
			l-8.46-4.93l-4.63,7.95l12.65,7.37l-6.77,11.63l-12.65-7.37l-5.13,8.8l8.46,4.93C1031.77,409.49,1040.52,407.83,1045.85,398.68z"
			/>
		<path class="st2" d="M1095.26,387.39l20.18,11.76l-34.87,59.84l-20.17-11.76L1095.26,387.39z M1055.87,460.51
			c2.64-4.53,7.77-5.67,12.13-3.13c4.36,2.54,5.9,7.56,3.26,12.09c-2.64,4.53-7.67,5.49-12.03,2.95
			C1054.87,469.89,1053.23,465.04,1055.87,460.51z"/>
		<path class="st2" d="M1188.44,441.68l-34.87,59.84l-16.58-9.66l-6.9-40.43l-15.84,27.18l-19.66-11.46l34.87-59.84l16.58,9.66
			l6.9,40.43l15.84-27.18L1188.44,441.68z"/>
		<path class="st2" d="M1261.45,484.22l-34.87,59.84l-20.18-11.76l12.85-22.06l-18.64-10.86l-12.85,22.06l-20.18-11.76l34.87-59.84
			l20.17,11.75l-12.35,21.2l18.64,10.86l12.35-21.2L1261.45,484.22z"/>
	</g>
</g>
</svg>
