<?xml version="1.0" encoding="utf-8"?>
<!-- Generator: Adobe Illustrator 23.0.0, SVG Export Plug-In . SVG Version: 6.00 Build 0)  -->
<svg version="1.1" id="Layer_1" xmlns="http://www.w3.org/2000/svg" xmlns:xlink="http://www.w3.org/1999/xlink" x="0px" y="0px"
	 viewBox="0 0 1349.38 790.32" style="enable-background:new 0 0 1349.38 790.32;" xml:space="preserve">
<style type="text/css">
	.st0{fill-rule:evenodd;clip-rule:evenodd;fill:#155AA9;}
	.st1{fill:#FFFFFF;}
</style>
<polygon class="st0" points="541.78,0 0,0 1349.33,790.32 1349.38,478.74 "/>
<g>
	<g>
		<path class="st1" d="M460.7,125.82c-9.94,17.14-28.75,20.27-47.22,9.55l-27.25-15.8l13.14-22.67l-6.79-3.94l6.23-10.74l6.79,3.94
			l12.69-21.88l27.25,15.8C464.01,90.8,470.64,108.68,460.7,125.82z M441.91,114.92c4.9-8.45,2.23-16.23-5.58-20.76l-7.82-4.54
			l-4.26,7.35l11.69,6.78l-6.23,10.74l-11.69-6.78l-4.72,8.13l7.82,4.54C428.94,124.91,437.01,123.36,441.91,114.92z"/>
		<path class="st1" d="M497.9,171.45l-21.01-12.18l-9.3,7.48l-18.95-10.99l56.23-41.27l18.32,10.62l-7.9,69.3l-19.27-11.17
			L497.9,171.45z M500.55,155.04l2.69-17.01l-13.43,10.78L500.55,155.04z"/>
		<path class="st1" d="M608.81,174.77l-32.06,55.28l-15.32-8.88l-6.44-37.3l-14.57,25.11l-18.17-10.54l32.06-55.29l15.32,8.89
			l6.44,37.3l14.56-25.11L608.81,174.77z"/>
		<path class="st1" d="M643.18,229.63l16.19,9.39l-13.56,23.38c-9.37,0.69-20.03-2.22-28.16-6.94
			c-17.85-10.35-23.96-29.83-14.12-46.81c9.85-16.98,29.8-21.35,48.04-10.78c10.9,6.32,17.46,15.2,19.09,25.32l-18.02,3.59
			c-1.14-6.04-3.98-10.43-8.87-13.27c-8.22-4.76-16.5-2.49-21.44,6.04c-4.81,8.29-2.8,16.84,5.18,21.46
			c2.29,1.33,4.73,2.22,7.57,2.6L643.18,229.63z"/>
		<path class="st1" d="M717.74,257.25l-16.19-9.39l8.38-14.45L760.95,263l-8.38,14.45l-16.19-9.39L712.7,308.9l-18.64-10.81
			L717.74,257.25z"/>
		<path class="st1" d="M824.22,299.69l-32.06,55.29l-18.64-10.81l11.81-20.38l-17.22-9.98l-11.82,20.38l-18.64-10.81l32.06-55.29
			l18.64,10.81l-11.36,19.59l17.22,9.99l11.36-19.59L824.22,299.69z"/>
		<path class="st1" d="M848.39,374.7l-21.01-12.18l-9.3,7.48l-18.95-10.99l56.23-41.27l18.33,10.63l-7.9,69.3l-19.27-11.18
			L848.39,374.7z M860.49,314.71l-11.06-6.42l16.15-4.36l15.01,8.7l4.23,16.18l-11.06-6.41l-3.84-8.67L860.49,314.71z M885,309.93
			l0.11-6.37c2.91-0.11,6.04,0.87,8.96,2.56c5.06,2.93,6.94,7.5,4.42,11.85c-2.01,3.47-6.45,4.39-10.49,3.72l-2.05-5.94
			c2.78,0.13,3.92-0.57,4.38-1.36c0.69-1.19,0.2-2.52-1.14-3.3C887.92,310.35,886.63,310.03,885,309.93z M851.04,358.3l2.69-17.01
			l-13.43,10.78L851.04,358.3z"/>
		<path class="st1" d="M922.1,430.33l14.45-25.28l-23.73,13.26l-8.22-4.76l-0.78-26.31l-14.11,24.32l-16.98-9.85l32.06-55.29
			l15.32,8.89l0.92,39.9l34.61-19.29l15.32,8.89l-31.9,55.37L922.1,430.33z"/>
		<path class="st1" d="M1055.75,470.9c-9.94,17.13-28.75,20.27-47.22,9.55l-27.25-15.8l13.14-22.67l-6.79-3.94l6.23-10.74l6.79,3.94
			l12.69-21.88l27.25,15.8C1059.07,435.88,1065.69,453.76,1055.75,470.9z M1036.95,460c4.9-8.45,2.24-16.23-5.58-20.76l-7.82-4.54
			l-4.26,7.35l11.69,6.78l-6.23,10.74l-11.69-6.78l-4.72,8.13l7.82,4.54C1023.99,469.99,1032.06,468.45,1036.95,460z"/>
		<path class="st1" d="M1082.54,449.5l18.64,10.81l-32.06,55.29l-18.64-10.81L1082.54,449.5z M1046.32,517.04
			c2.43-4.19,7.16-5.24,11.18-2.91c4.03,2.34,5.46,6.97,3.03,11.15c-2.43,4.19-7.07,5.08-11.1,2.75
			C1045.42,525.7,1043.89,521.23,1046.32,517.04z"/>
		<path class="st1" d="M1168.63,499.42l-32.06,55.28l-15.32-8.88l-6.44-37.3l-14.56,25.12l-18.17-10.54l32.06-55.29l15.32,8.89
			l6.44,37.3l14.57-25.11L1168.63,499.42z"/>
		<path class="st1" d="M1236.09,538.54l-32.06,55.29l-18.64-10.81l11.81-20.38l-17.22-9.99l-11.81,20.38l-18.64-10.81l32.06-55.29
			l18.64,10.81l-11.36,19.59l17.22,9.99l11.36-19.59L1236.09,538.54z"/>
	</g>
</g>
</svg>
