<?xml version="1.0" encoding="utf-8"?>
<!-- Generator: Adobe Illustrator 23.0.0, SVG Export Plug-In . SVG Version: 6.00 Build 0)  -->
<svg version="1.1" id="Layer_1" xmlns="http://www.w3.org/2000/svg" xmlns:xlink="http://www.w3.org/1999/xlink" x="0px" y="0px"
	 viewBox="0 0 1336.53 782.79" style="enable-background:new 0 0 1336.53 782.79;" xml:space="preserve">
<style type="text/css">
	.st0{fill-rule:evenodd;clip-rule:evenodd;fill:#5E5E5E;}
	.st1{fill:#FFFFFF;}
</style>
<polygon class="st0" points="536.62,0 0,0 1336.49,782.79 1336.53,474.18 "/>
<g>
	<path class="st1" d="M600.75,216.52c-14.74,24.75-42.13,28.98-68.81,13.08l-39.34-23.44l19.49-32.72l-9.81-5.84l9.24-15.51
		l9.81,5.84l18.81-31.58l39.34,23.43C606.16,165.68,615.49,191.78,600.75,216.52z M573.61,200.36c7.27-12.2,3.53-23.55-7.76-30.27
		l-11.29-6.73l-6.32,10.6l16.88,10.05l-9.24,15.51L539,189.47L532,201.22l11.29,6.72C554.58,214.67,566.34,212.56,573.61,200.36z"/>
	<path class="st1" d="M659.73,286.88l-30.33-18.07l-13.65,10.72l-27.36-16.3l82.44-59.03l26.45,15.76l-12.65,100.6l-27.82-16.57
		L659.73,286.88z M675.15,197.97l-12.2-7.27c7.36-11.83,17.8-16.12,27.49-10.35c8.44,5.03,8.76,14.34,12.87,16.78
		c2.97,1.77,6.12,0.87,8.26-2.19l12.2,7.27c-7.16,11.5-17.59,15.78-27.28,10.01c-8.44-5.03-8.76-14.33-12.87-16.78
		C680.64,193.67,677.42,194.69,675.15,197.97z M663.87,263.08l4.2-24.69l-19.7,15.45L663.87,263.08z"/>
	<path class="st1" d="M837.77,381.97c-8.29,13.91-24.86,15.01-46.86,1.9l-44.93-26.76l47.55-79.82l42.64,25.41
		c22.01,13.11,27.04,28,19.84,40.09c-4.41,7.41-11.84,11.33-21.31,10.63C842,362.41,843.4,372.5,837.77,381.97z M808.77,311.86
		l-7.06,11.86l12.55,7.47c6.04,3.6,10,3.18,12.31-0.7c2.31-3.87,0.8-7.56-5.25-11.16L808.77,311.86z M812.46,362.72
		c2.45-4.11,0.77-8.04-5.16-11.57l-16.19-9.65l-7.47,12.54l16.19,9.65C805.76,367.23,810.02,366.83,812.46,362.72z"/>
	<path class="st1" d="M908.21,434.9l-30.33-18.07l-13.65,10.72l-27.37-16.3l82.44-59.03l26.45,15.76l-12.65,100.6L905.28,452
		L908.21,434.9z M941.53,356.65l-17.1-10.19l25.92-9.28l24.51,14.6L941.53,356.65z M912.34,411.1l4.2-24.69l-19.7,15.45
		L912.34,411.1z"/>
	<path class="st1" d="M1075.07,445.01l-47.55,79.82l-22.12-13.18l-8.73-54.33l-21.6,36.26l-26.23-15.62l47.55-79.82l22.12,13.18
		l8.74,54.33l21.6-36.26L1075.07,445.01z"/>
</g>
</svg>
