<?xml version="1.0" encoding="utf-8"?>
<!-- Generator: Adobe Illustrator 16.0.0, SVG Export Plug-In . SVG Version: 6.00 Build 0)  -->
<!DOCTYPE svg PUBLIC "-//W3C//DTD SVG 1.1//EN" "http://www.w3.org/Graphics/SVG/1.1/DTD/svg11.dtd">
<svg version="1.1" id="Layer_1" xmlns="http://www.w3.org/2000/svg" xmlns:xlink="http://www.w3.org/1999/xlink" x="0px" y="0px"
	 width="180px" height="180px" viewBox="0 0 180 180" enable-background="new 0 0 180 180" xml:space="preserve">
<g>
	<path fill="#155AA8" d="M164.306,76.045c-1.562,0-2.831-1.271-2.831-2.833c0-1.561,1.269-2.833,2.831-2.833
		c1.562,0,2.833,1.272,2.833,2.833C167.139,74.774,165.867,76.045,164.306,76.045z M164.306,70.762c-1.352,0-2.451,1.1-2.451,2.451
		s1.1,2.451,2.451,2.451c1.353,0,2.453-1.101,2.453-2.451S165.658,70.762,164.306,70.762z"/>
	<g>
		<path fill="#155AA8" d="M165.019,74.208l-0.514-0.727c-0.062,0.003-0.114,0.005-0.148,0.005h-0.587v0.722h-0.34v-2.372h0.927
			c0.308,0,0.55,0.072,0.725,0.22c0.176,0.145,0.265,0.35,0.265,0.607c0,0.183-0.046,0.338-0.137,0.468
			c-0.089,0.127-0.217,0.222-0.385,0.281l0.562,0.796H165.019z M164.836,73.059c0.113-0.091,0.171-0.226,0.171-0.396
			c0-0.171-0.058-0.302-0.171-0.396c-0.111-0.091-0.277-0.137-0.492-0.137h-0.574v1.069h0.574
			C164.559,73.198,164.725,73.152,164.836,73.059z"/>
	</g>
</g>
<path fill="#155AA8" d="M20.382,97.425v-25.69c0-0.452,0.106-0.783,0.319-0.996c0.212-0.212,0.544-0.318,0.995-0.318h8.165
	c2.39,0,4.501,0.57,6.333,1.712c1.833,1.142,2.749,3.4,2.749,6.508c0,2.229-0.525,3.962-1.574,5.197
	c-1.05,1.234-2.23,2.064-3.545,2.489c-1.314,0.425-2.503,0.638-3.565,0.638h-5.616v10.46c0,0.664-0.597,0.996-1.793,0.996h-0.637
	C20.993,98.421,20.382,98.089,20.382,97.425z M30.101,83.3c1.088,0,2.098-0.345,3.027-1.035c0.93-0.691,1.394-1.899,1.394-3.625
	c0-1.647-0.472-2.795-1.415-3.446c-0.943-0.651-2.078-0.977-3.405-0.977h-5.058V83.3H30.101z"/>
<path fill="#155AA8" d="M42.538,97.425v-25.69c0-0.452,0.106-0.783,0.319-0.996c0.212-0.212,0.544-0.318,0.996-0.318h7.01
	c3.239,0,5.663,0.583,7.269,1.751c1.606,1.169,2.409,3.11,2.409,5.553c0,1.62-0.411,2.987-1.234,4.102
	c-0.823,1.116-1.951,1.951-3.385,2.509v0.159c0.689,0.24,1.301,0.744,1.832,1.514c0.531,0.771,1.049,1.806,1.553,3.107l3.227,7.991
	c0.106,0.372,0.159,0.584,0.159,0.637c0,0.453-0.637,0.678-1.912,0.678h-0.757c-0.452,0-0.836-0.061-1.155-0.179
	c-0.318-0.12-0.532-0.286-0.638-0.499l-3.066-7.712c-0.532-1.327-1.182-2.236-1.952-2.728c-0.77-0.491-1.911-0.737-3.424-0.737
	h-2.988v10.858c0,0.664-0.61,0.996-1.832,0.996h-0.597C43.148,98.421,42.538,98.089,42.538,97.425z M51.62,82.862
	c1.247,0,2.315-0.438,3.205-1.315c0.89-0.875,1.335-1.925,1.335-3.146c0-1.381-0.433-2.422-1.294-3.126
	c-0.863-0.703-2.039-1.056-3.526-1.056h-4.541v8.644H51.62z"/>
<path fill="#155AA8" d="M94.246,97.425v-25.69c0-0.452,0.105-0.783,0.318-0.996c0.212-0.212,0.544-0.318,0.995-0.318h8.166
	c2.39,0,4.5,0.57,6.333,1.712c1.832,1.142,2.748,3.4,2.748,6.508c0,2.229-0.525,3.962-1.574,5.197
	c-1.049,1.234-2.23,2.064-3.545,2.489c-1.314,0.425-2.503,0.638-3.564,0.638h-5.616v10.46c0,0.664-0.597,0.996-1.792,0.996h-0.637
	C94.855,98.421,94.246,98.089,94.246,97.425z M103.964,83.3c1.088,0,2.099-0.345,3.027-1.035c0.929-0.691,1.394-1.899,1.394-3.625
	c0-1.647-0.471-2.93-1.413-3.581c-0.943-0.651-2.079-0.976-3.405-0.976h-5.06V83.3H103.964z"/>
<path fill="#155AA8" d="M115.067,97.52c-0.253-0.611-0.378-1.142-0.378-1.593c0-0.213,0.039-0.372,0.118-0.479l15.454-21.31h-13.383
	c-0.318,0-0.551-0.125-0.696-0.378c-0.146-0.251-0.22-0.643-0.22-1.175v-0.557c0-0.558,0.073-0.957,0.22-1.196
	c0.146-0.239,0.378-0.357,0.696-0.357h18.203c0.186,0,0.411,0.312,0.677,0.936c0.265,0.624,0.398,1.161,0.398,1.613
	c0,0.159-0.04,0.305-0.119,0.437l-15.454,21.311h14.578c0.318,0,0.55,0.126,0.697,0.379c0.145,0.252,0.218,0.644,0.218,1.174v0.558
	c0,0.558-0.073,0.956-0.218,1.195c-0.147,0.239-0.379,0.357-0.697,0.357h-19.358C115.564,98.435,115.319,98.131,115.067,97.52z"/>
<path fill="#155AA8" d="M147.41,97.398V84.388l-8.205-12.427c-0.239-0.318-0.358-0.583-0.358-0.796c0-0.479,0.678-0.718,2.03-0.718
	h0.837c0.505,0,0.902,0.048,1.195,0.14c0.292,0.094,0.518,0.259,0.677,0.498l6.055,9.44l6.174-9.479
	c0.266-0.398,0.929-0.598,1.992-0.598h0.597c1.222,0.027,1.832,0.266,1.832,0.718c0,0.186-0.106,0.451-0.319,0.796l-8.244,12.546
	v12.891c0,0.663-0.61,0.995-1.832,0.995h-0.597C148.021,98.394,147.41,98.062,147.41,97.398z"/>
<g>
	<path fill="#F07423" d="M63.236,82.967c0,8.048,11.355,21.346,13.739,24.047c0.231,0.262,0.636,0.257,0.861-0.008
		c2.362-2.775,13.748-16.538,13.748-24.04c0-7.831-6.345-14.175-14.173-14.175C69.582,68.792,63.236,75.136,63.236,82.967z
		 M66.739,82.386c0-5.893,4.778-10.675,10.673-10.675s10.674,4.782,10.674,10.675c0,5.895-4.779,10.673-10.674,10.673
		S66.739,88.281,66.739,82.386z"/>
</g>
</svg>
