<?xml version="1.0" encoding="utf-8"?>
<!-- Generator: Adobe Illustrator 17.0.0, SVG Export Plug-In . SVG Version: 6.00 Build 0)  -->
<!DOCTYPE svg PUBLIC "-//W3C//DTD SVG 1.1//EN" "http://www.w3.org/Graphics/SVG/1.1/DTD/svg11.dtd">
<svg version="1.1" id="Layer_1" xmlns="http://www.w3.org/2000/svg" xmlns:xlink="http://www.w3.org/1999/xlink" x="0px" y="0px"
	 width="1137.469px" height="443px" viewBox="0 0 1137.469 443" enable-background="new 0 0 1137.469 443" xml:space="preserve">
<rect x="0" fill="none" width="100" height="100"/>
<rect x="100" fill="none" width="40" height="40"/>
<path fill="#FFFFFF" d="M25.598,41.818c10.501,0,19.013,8.548,19.013,19.091C44.61,71.453,36.098,80,25.598,80
	S6.585,71.452,6.585,60.908L6.5,58.181C6.5,37.093,23.525,20,44.525,20v10.908c-7.255,0-14.076,2.838-19.206,7.988
	c-0.988,0.992-1.889,2.047-2.702,3.156C23.589,41.899,24.584,41.818,25.598,41.818z M74.487,41.818
	c10.5,0,19.013,8.548,19.013,19.091C93.5,71.453,84.988,80,74.487,80s-19.013-8.548-19.013-19.092l-0.085-2.728
	C55.39,37.093,72.414,20,93.415,20v10.908c-7.255,0-14.076,2.838-19.206,7.988c-0.988,0.992-1.889,2.047-2.702,3.156
	C72.479,41.899,73.473,41.818,74.487,41.818z"/>
<g>
	<path fill="#494848" d="M133.174,13.46l-6.634-6.634c-0.435-0.435-1.135-0.435-1.57,0l-6.628,6.634
		c-0.435,0.435-0.435,1.135,0,1.57l0,0c0.435,0.435,1.135,0.435,1.57,0l4.722-4.722v19.438c0,0.623,0.501,1.124,1.124,1.124
		s1.124-0.501,1.124-1.124V10.309l4.722,4.722c0.435,0.435,1.135,0.435,1.57,0C133.609,14.601,133.609,13.895,133.174,13.46
		L133.174,13.46z"/>
	<path fill="#494848" d="M121.658,24.97c-0.435-0.435-1.135-0.435-1.57,0l-4.722,4.722V10.253c0-0.623-0.501-1.124-1.124-1.124
		c-0.623,0-1.124,0.501-1.124,1.124v19.438l-4.722-4.722c-0.435-0.435-1.135-0.435-1.57,0c-0.435,0.435-0.435,1.135,0,1.57
		l6.634,6.634c0.435,0.435,1.135,0.435,1.57,0l6.634-6.634C122.094,26.105,122.094,25.399,121.658,24.97L121.658,24.97
		L121.658,24.97z"/>
</g>
</svg>
