<?xml version="1.0" encoding="utf-8"?>
<!-- Generator: Adobe Illustrator 17.0.0, SVG Export Plug-In . SVG Version: 6.00 Build 0)  -->
<!DOCTYPE svg PUBLIC "-//W3C//DTD SVG 1.1//EN" "http://www.w3.org/Graphics/SVG/1.1/DTD/svg11.dtd">
<svg version="1.1" id="Layer_1" xmlns="http://www.w3.org/2000/svg" xmlns:xlink="http://www.w3.org/1999/xlink" x="0px" y="0px"
	 width="1137.469px" height="443px" viewBox="0 0 1137.469 443" enable-background="new 0 0 1137.469 443" xml:space="preserve">
<rect x="0" fill="none" width="100" height="100"/>
<rect x="100" fill="none" width="40" height="40"/>
<path fill="#FFFFFF" d="M25.598,41.818c10.501,0,19.013,8.548,19.013,19.091C44.61,71.453,36.098,80,25.598,80
	S6.585,71.452,6.585,60.908L6.5,58.181C6.5,37.093,23.525,20,44.525,20v10.908c-7.255,0-14.076,2.838-19.206,7.988
	c-0.988,0.992-1.889,2.047-2.702,3.156C23.589,41.899,24.584,41.818,25.598,41.818z M74.487,41.818
	c10.5,0,19.013,8.548,19.013,19.091C93.5,71.453,84.988,80,74.487,80s-19.013-8.548-19.013-19.092l-0.085-2.728
	C55.39,37.093,72.414,20,93.415,20v10.908c-7.255,0-14.076,2.838-19.206,7.988c-0.988,0.992-1.889,2.047-2.702,3.156
	C72.479,41.899,73.473,41.818,74.487,41.818z"/>
<g>
	<path fill="#494848" d="M131.71,14.187l-5.897-5.897c-0.387-0.387-1.009-0.387-1.396,0l-5.892,5.897
		c-0.387,0.387-0.387,1.009,0,1.396l0,0c0.387,0.387,1.009,0.387,1.396,0l4.197-4.197v17.279c0,0.554,0.445,0.999,0.999,0.999
		s0.999-0.445,0.999-0.999V11.386l4.197,4.197c0.387,0.387,1.009,0.387,1.396,0C132.097,15.201,132.097,14.574,131.71,14.187
		L131.71,14.187z"/>
	<path fill="#494848" d="M121.474,24.418c-0.387-0.387-1.009-0.387-1.396,0l-4.197,4.197V11.336c0-0.554-0.445-0.999-0.999-0.999
		s-0.999,0.445-0.999,0.999v17.279l-4.197-4.197c-0.387-0.387-1.009-0.387-1.396,0s-0.387,1.009,0,1.396l5.897,5.897
		c0.387,0.387,1.009,0.387,1.396,0l5.897-5.897C121.861,25.427,121.861,24.8,121.474,24.418L121.474,24.418L121.474,24.418z"/>
</g>
</svg>
