<?xml version="1.0" encoding="utf-8"?>
<!-- Generator: Adobe Illustrator 17.0.0, SVG Export Plug-In . SVG Version: 6.00 Build 0)  -->
<!DOCTYPE svg PUBLIC "-//W3C//DTD SVG 1.1//EN" "http://www.w3.org/Graphics/SVG/1.1/DTD/svg11.dtd">
<svg version="1.1" id="Layer_1" xmlns="http://www.w3.org/2000/svg" xmlns:xlink="http://www.w3.org/1999/xlink" x="0px" y="0px"
	 width="1137.469px" height="443px" viewBox="0 0 1137.469 443" enable-background="new 0 0 1137.469 443" xml:space="preserve">
<rect x="0" fill="none" width="100" height="100"/>
<rect x="100" fill="none" width="40" height="40"/>
<path fill="#FFFFFF" d="M16.049,15.909c5.25,0,9.507,4.274,9.507,9.545c0,5.272-4.257,9.545-9.507,9.545s-9.507-4.274-9.507-9.546
	L6.5,24.09C6.5,13.546,15.012,5,25.512,5v5.454c-3.628,0-7.038,1.419-9.603,3.994c-0.494,0.496-0.944,1.024-1.351,1.578
	C15.044,15.949,15.542,15.909,16.049,15.909z M40.493,15.909c5.25,0,9.507,4.274,9.507,9.545C50,30.727,45.744,35,40.493,35
	s-9.507-4.274-9.507-9.546l-0.042-1.364C30.945,13.546,39.457,5,49.957,5v5.454c-3.627,0-7.038,1.419-9.603,3.994
	c-0.494,0.496-0.944,1.024-1.351,1.578C39.489,15.949,39.986,15.909,40.493,15.909z"/>
<g>
	<path fill="#494848" d="M131.71,14.187l-5.897-5.897c-0.387-0.387-1.009-0.387-1.396,0l-5.892,5.897
		c-0.387,0.387-0.387,1.009,0,1.396l0,0c0.387,0.387,1.009,0.387,1.396,0l4.197-4.197v17.279c0,0.554,0.445,0.999,0.999,0.999
		s0.999-0.445,0.999-0.999V11.386l4.197,4.197c0.387,0.387,1.009,0.387,1.396,0C132.097,15.201,132.097,14.574,131.71,14.187
		L131.71,14.187z"/>
	<path fill="#494848" d="M121.474,24.418c-0.387-0.387-1.009-0.387-1.396,0l-4.197,4.197V11.336c0-0.554-0.445-0.999-0.999-0.999
		s-0.999,0.445-0.999,0.999v17.279l-4.197-4.197c-0.387-0.387-1.009-0.387-1.396,0s-0.387,1.009,0,1.396l5.897,5.897
		c0.387,0.387,1.009,0.387,1.396,0l5.897-5.897C121.861,25.427,121.861,24.8,121.474,24.418L121.474,24.418L121.474,24.418z"/>
</g>
</svg>
