<?xml version="1.0" encoding="utf-8"?>
<!-- Generator: Adobe Illustrator 17.0.0, SVG Export Plug-In . SVG Version: 6.00 Build 0)  -->
<!DOCTYPE svg PUBLIC "-//W3C//DTD SVG 1.1//EN" "http://www.w3.org/Graphics/SVG/1.1/DTD/svg11.dtd">
<svg version="1.1" id="Layer_1" xmlns="http://www.w3.org/2000/svg" xmlns:xlink="http://www.w3.org/1999/xlink" x="0px" y="0px"
	 width="595.28px" height="841.89px" viewBox="0 0 595.28 841.89" enable-background="new 0 0 595.28 841.89" xml:space="preserve">
<rect x="22" y="2" fill="#FFFFFF" width="20" height="20"/>
<path fill="#7D7D7D" d="M12,8c2.206,0,4,1.794,4,4s-1.794,4-4,4s-4-1.794-4-4S9.794,8,12,8 M12,7c-2.761,0-5,2.239-5,5s2.239,5,5,5
	s5-2.239,5-5S14.761,7,12,7L12,7z"/>
<path fill="#7D7D7D" d="M12,3c4.963,0,9,4.037,9,9s-4.037,9-9,9s-9-4.037-9-9S7.037,3,12,3 M12,2C6.477,2,2,6.477,2,12
	s4.477,10,10,10s10-4.477,10-10S17.523,2,12,2L12,2z"/>
<g>
	<path fill="#FF0027" d="M32,15.85c-0.128,0-0.256-0.049-0.354-0.146l-6.701-6.701c-0.195-0.195-0.195-0.512,0-0.707
		s0.512-0.195,0.707,0L32,14.644l6.348-6.348c0.195-0.195,0.512-0.195,0.707,0s0.195,0.512,0,0.707l-6.701,6.701
		C32.256,15.801,32.128,15.85,32,15.85z"/>
</g>
</svg>
