<svg xmlns="http://www.w3.org/2000/svg" width="46" height="53">
    <path fill-rule="evenodd" fill="#E2574D" d="M3.286 0h27.917L46 14.859v34.829C46 51.518 44.528 53 42.714 53H3.286c-1.815 0-3.287-1.482-3.287-3.312V3.312C-.001 1.482 1.472 0 3.286 0z"/>
    <path fill-rule="evenodd" fill="#B53629" d="M46.001 14.806h-11.42c-1.809 0-3.277-1.478-3.277-3.298V-.002l14.697 14.808z"/>
    <path fill-rule="evenodd" fill="#FFF" d="M33.679 23.353c.551 0 .821-.481.821-.948 0-.483-.281-.949-.821-.949h-3.138c-.613 0-.955.51-.955 1.072v7.729c0 .69.391 1.072.921 1.072.526 0 .919-.382.919-1.072v-2.121h1.898c.589 0 .883-.483.883-.963 0-.47-.294-.936-.883-.936h-1.898v-2.884h2.253zm-10.605-1.897h-2.295c-.623 0-1.065.429-1.065 1.065v7.743c0 .789.635 1.037 1.091 1.037h2.409c2.852 0 4.735-1.881 4.735-4.784-.002-3.07-1.775-5.061-4.875-5.061zm.111 7.936h-1.399v-6.027h1.261c1.909 0 2.739 1.284 2.739 3.056 0 1.659-.816 2.971-2.601 2.971zm-8.409-7.936h-2.275c-.642 0-1.001.425-1.001 1.072v7.729c0 .69.411 1.072.963 1.072.553 0 .964-.382.964-1.072v-2.256h1.426c1.759 0 3.211-1.251 3.211-3.26 0-1.966-1.401-3.285-3.288-3.285zm-.039 4.732h-1.31v-2.917h1.31c.81 0 1.325.633 1.325 1.459-.002.824-.515 1.458-1.325 1.458z"/>
</svg>
