<?xml version="1.0" encoding="utf-8"?>
<!-- Generator: Adobe Illustrator 17.0.0, SVG Export Plug-In . SVG Version: 6.00 Build 0)  -->
<!DOCTYPE svg PUBLIC "-//W3C//DTD SVG 1.1//EN" "http://www.w3.org/Graphics/SVG/1.1/DTD/svg11.dtd">
<svg version="1.1" id="Layer_1" xmlns="http://www.w3.org/2000/svg" xmlns:xlink="http://www.w3.org/1999/xlink" x="0px" y="0px"
	 width="841.89px" height="595.28px" viewBox="0 0 841.89 595.28" enable-background="new 0 0 841.89 595.28" xml:space="preserve">
<path fill="#AAB2BC" d="M447.39-97.539c-19.205,0-36.406,8.53-48.06,21.994c-6.027-8.223-15.752-13.565-26.729-13.565
	c-18.294,0-33.125,14.831-33.125,33.125c0,0.848,0.042,1.685,0.105,2.517c-19.537,3.55-34.355,20.638-34.355,41.199
	c0,23.134,18.754,41.888,41.888,41.888c0.675,0,1.346-0.017,2.013-0.049h98.263c35.101,0,63.555-28.455,63.555-63.555
	S482.49-97.539,447.39-97.539z"/>
<path fill="#AAB2BC" d="M438.395-109.206c-19.205,0-36.406,8.53-48.06,21.994c-6.027-8.223-15.752-13.565-26.729-13.565
	c-18.294,0-33.125,14.831-33.125,33.125c0,0.848,0.042,1.685,0.105,2.517c-19.537,3.55-34.355,20.638-34.355,41.199
	c0,23.134,18.754,41.888,41.888,41.888c0.675,0,1.346-0.017,2.013-0.049h98.263c35.101,0,63.555-28.455,63.555-63.555
	S473.496-109.206,438.395-109.206z"/>
<g>
	<path fill="#CAD3DB" d="M267.209,150.105h164.538v353.758H267.209V150.105z"/>
	<path fill="#E7EDF2" d="M393.904,247.183H530.47v253.389H393.904V247.183z"/>
	<path fill="#154D85" d="M496.162,66.933c1.286,0.451,1.963,1.86,1.512,3.146l-7.081,20.184c-0.451,1.286-1.86,1.963-3.146,1.512
		s-1.963-1.86-1.512-3.146l7.082-20.184C493.467,67.158,494.876,66.482,496.162,66.933z"/>
	<path fill="#154D85" d="M463.254,66.933c1.286,0.451,1.963,1.86,1.512,3.146l-7.081,20.184c-0.451,1.286-1.86,1.963-3.146,1.512
		s-1.963-1.86-1.512-3.146l7.082-20.184C460.559,67.158,461.968,66.482,463.254,66.933z"/>
	<path fill="#154D85" d="M430.346,66.933c1.286,0.451,1.963,1.86,1.512,3.146l-7.082,20.184c-0.451,1.286-1.86,1.963-3.146,1.512
		s-1.963-1.86-1.512-3.146l7.082-20.184C427.652,67.158,429.06,66.482,430.346,66.933z"/>
	<path fill="#154D85" d="M397.439,66.933c1.286,0.451,1.963,1.86,1.512,3.146l-7.082,20.184c-0.451,1.286-1.86,1.963-3.146,1.512
		s-1.963-1.86-1.512-3.146l7.081-20.184C394.744,67.158,396.153,66.482,397.439,66.933z"/>
	<path fill="#154D85" d="M364.531,66.933c1.286,0.451,1.963,1.86,1.512,3.146l-7.082,20.184c-0.451,1.286-1.86,1.963-3.146,1.512
		s-1.963-1.86-1.512-3.146l7.082-20.184C361.836,67.158,363.245,66.482,364.531,66.933z"/>
	<path fill="#154D85" d="M331.623,66.933c1.286,0.451,1.963,1.86,1.512,3.146l-7.082,20.184c-0.451,1.286-1.86,1.963-3.146,1.512
		s-1.963-1.86-1.512-3.146l7.082-20.184C328.929,67.158,330.337,66.482,331.623,66.933z"/>
	<path fill="#154D85" d="M469.836,106.422c1.286,0.451,1.963,1.86,1.512,3.146l-7.081,20.184c-0.451,1.286-1.86,1.963-3.146,1.512
		s-1.963-1.86-1.512-3.146l7.082-20.184C467.141,106.648,468.549,105.971,469.836,106.422z"/>
	<path fill="#154D85" d="M436.928,106.422c1.286,0.451,1.963,1.86,1.512,3.146l-7.082,20.184c-0.451,1.286-1.86,1.963-3.146,1.512
		s-1.963-1.86-1.512-3.146l7.082-20.184C434.233,106.648,435.642,105.971,436.928,106.422z"/>
	<path fill="#154D85" d="M404.02,106.422c1.286,0.451,1.963,1.86,1.512,3.146l-7.082,20.184c-0.451,1.286-1.86,1.963-3.146,1.512
		s-1.963-1.86-1.512-3.146l7.082-20.184C401.326,106.648,402.734,105.971,404.02,106.422z"/>
	<path fill="#154D85" d="M371.113,106.422c1.286,0.451,1.963,1.86,1.512,3.146l-7.082,20.184c-0.451,1.286-1.86,1.963-3.146,1.512
		s-1.963-1.86-1.512-3.146l7.082-20.184C368.418,106.648,369.826,105.971,371.113,106.422z"/>
	<path fill="#154D85" d="M338.205,106.422c1.286,0.451,1.963,1.86,1.512,3.146l-7.082,20.184c-0.451,1.286-1.86,1.963-3.146,1.512
		s-1.963-1.86-1.512-3.146l7.082-20.184C335.51,106.648,336.919,105.971,338.205,106.422z"/>
	<path fill="#E7EDF2" d="M402.131,206.048h1.645c2.726,0,4.936,2.21,4.936,4.936v14.808c0,2.726-2.21,4.936-4.936,4.936h-1.645
		c-2.726,0-4.936-2.21-4.936-4.936v-14.808C397.194,208.258,399.404,206.048,402.131,206.048z"/>
	<path fill="#E7EDF2" d="M364.287,388.686h1.645c2.726,0,4.936,2.21,4.936,4.936v14.808c0,2.726-2.21,4.936-4.936,4.936h-1.645
		c-2.726,0-4.936-2.21-4.936-4.936v-14.808C359.351,390.896,361.56,388.686,364.287,388.686z"/>
	<path fill="#E7EDF2" d="M328.088,426.53h1.645c2.726,0,4.936,2.21,4.936,4.936v14.808c0,2.726-2.21,4.936-4.936,4.936h-1.645
		c-2.726,0-4.936-2.21-4.936-4.936v-14.808C323.152,428.74,325.362,426.53,328.088,426.53z"/>
	<path fill="#E7EDF2" d="M229.365,498.927h357.048c2.726,0,4.936,2.21,4.936,4.936v1.645c0,2.726-2.21,4.936-4.936,4.936H229.365
		c-2.726,0-4.936-2.21-4.936-4.936v-1.645C224.429,501.137,226.639,498.927,229.365,498.927z"/>
	<path fill="#E7EDF2" d="M290.244,462.728h1.645c2.726,0,4.936,2.21,4.936,4.936v14.808c0,2.726-2.21,4.936-4.936,4.936h-1.645
		c-2.726,0-4.936-2.21-4.936-4.936v-14.808C285.308,464.938,287.518,462.728,290.244,462.728z"/>
	<path fill="#E7EDF2" d="M290.244,426.53h1.645c2.726,0,4.936,2.21,4.936,4.936v14.808c0,2.726-2.21,4.936-4.936,4.936h-1.645
		c-2.726,0-4.936-2.21-4.936-4.936v-14.808C285.308,428.74,287.518,426.53,290.244,426.53z"/>
	<path fill="#E7EDF2" d="M328.088,388.686h1.645c2.726,0,4.936,2.21,4.936,4.936v14.808c0,2.726-2.21,4.936-4.936,4.936h-1.645
		c-2.726,0-4.936-2.21-4.936-4.936v-14.808C323.152,390.896,325.362,388.686,328.088,388.686z"/>
	<path fill="#E7EDF2" d="M290.244,388.686h1.645c2.726,0,4.936,2.21,4.936,4.936v14.808c0,2.726-2.21,4.936-4.936,4.936h-1.645
		c-2.726,0-4.936-2.21-4.936-4.936v-14.808C285.308,390.896,287.518,388.686,290.244,388.686z"/>
	<path fill="#E7EDF2" d="M364.287,352.487h1.645c2.726,0,4.936,2.21,4.936,4.936v14.808c0,2.726-2.21,4.936-4.936,4.936h-1.645
		c-2.726,0-4.936-2.21-4.936-4.936v-14.808C359.351,354.697,361.56,352.487,364.287,352.487z"/>
	<path fill="#E7EDF2" d="M328.088,352.487h1.645c2.726,0,4.936,2.21,4.936,4.936v14.808c0,2.726-2.21,4.936-4.936,4.936h-1.645
		c-2.726,0-4.936-2.21-4.936-4.936v-14.808C323.152,354.697,325.362,352.487,328.088,352.487z"/>
	<path fill="#E7EDF2" d="M290.244,352.487h1.645c2.726,0,4.936,2.21,4.936,4.936v14.808c0,2.726-2.21,4.936-4.936,4.936h-1.645
		c-2.726,0-4.936-2.21-4.936-4.936v-14.808C285.308,354.697,287.518,352.487,290.244,352.487z"/>
	<path fill="#E7EDF2" d="M364.287,314.644h1.645c2.726,0,4.936,2.21,4.936,4.936v14.808c0,2.726-2.21,4.936-4.936,4.936h-1.645
		c-2.726,0-4.936-2.21-4.936-4.936V319.58C359.351,316.854,361.56,314.644,364.287,314.644z"/>
	<path fill="#E7EDF2" d="M328.088,314.644h1.645c2.726,0,4.936,2.21,4.936,4.936v14.808c0,2.726-2.21,4.936-4.936,4.936h-1.645
		c-2.726,0-4.936-2.21-4.936-4.936V319.58C323.152,316.854,325.362,314.644,328.088,314.644z"/>
	<path fill="#E7EDF2" d="M290.244,314.644h1.645c2.726,0,4.936,2.21,4.936,4.936v14.808c0,2.726-2.21,4.936-4.936,4.936h-1.645
		c-2.726,0-4.936-2.21-4.936-4.936V319.58C285.308,316.854,287.518,314.644,290.244,314.644z"/>
	<path fill="#E7EDF2" d="M364.287,278.445h1.645c2.726,0,4.936,2.21,4.936,4.936v14.808c0,2.726-2.21,4.936-4.936,4.936h-1.645
		c-2.726,0-4.936-2.21-4.936-4.936v-14.808C359.351,280.655,361.56,278.445,364.287,278.445z"/>
	<path fill="#E7EDF2" d="M328.088,278.445h1.645c2.726,0,4.936,2.21,4.936,4.936v14.808c0,2.726-2.21,4.936-4.936,4.936h-1.645
		c-2.726,0-4.936-2.21-4.936-4.936v-14.808C323.152,280.655,325.362,278.445,328.088,278.445z"/>
	<path fill="#E7EDF2" d="M290.244,278.445h1.645c2.726,0,4.936,2.21,4.936,4.936v14.808c0,2.726-2.21,4.936-4.936,4.936h-1.645
		c-2.726,0-4.936-2.21-4.936-4.936v-14.808C285.308,280.655,287.518,278.445,290.244,278.445z"/>
	<path fill="#E7EDF2" d="M364.287,242.247h1.645c2.726,0,4.936,2.21,4.936,4.936v14.808c0,2.726-2.21,4.936-4.936,4.936h-1.645
		c-2.726,0-4.936-2.21-4.936-4.936v-14.808C359.351,244.457,361.56,242.247,364.287,242.247z"/>
	<path fill="#E7EDF2" d="M328.088,242.247h1.645c2.726,0,4.936,2.21,4.936,4.936v14.808c0,2.726-2.21,4.936-4.936,4.936h-1.645
		c-2.726,0-4.936-2.21-4.936-4.936v-14.808C323.152,244.457,325.362,242.247,328.088,242.247z"/>
	<path fill="#E7EDF2" d="M290.244,242.247h1.645c2.726,0,4.936,2.21,4.936,4.936v14.808c0,2.726-2.21,4.936-4.936,4.936h-1.645
		c-2.726,0-4.936-2.21-4.936-4.936v-14.808C285.308,244.457,287.518,242.247,290.244,242.247z"/>
	<path fill="#E7EDF2" d="M364.287,206.048h1.645c2.726,0,4.936,2.21,4.936,4.936v14.808c0,2.726-2.21,4.936-4.936,4.936h-1.645
		c-2.726,0-4.936-2.21-4.936-4.936v-14.808C359.351,208.258,361.56,206.048,364.287,206.048z"/>
	<path fill="#E7EDF2" d="M328.088,206.048h1.645c2.726,0,4.936,2.21,4.936,4.936v14.808c0,2.726-2.21,4.936-4.936,4.936h-1.645
		c-2.726,0-4.936-2.21-4.936-4.936v-14.808C323.152,208.258,325.362,206.048,328.088,206.048z"/>
	<path fill="#E7EDF2" d="M290.244,206.048h1.645c2.726,0,4.936,2.21,4.936,4.936v14.808c0,2.726-2.21,4.936-4.936,4.936h-1.645
		c-2.726,0-4.936-2.21-4.936-4.936v-14.808C285.308,208.258,287.518,206.048,290.244,206.048z"/>
	<path fill="#E7EDF2" d="M402.131,168.204h1.645c2.726,0,4.936,2.21,4.936,4.936v14.808c0,2.726-2.21,4.936-4.936,4.936h-1.645
		c-2.726,0-4.936-2.21-4.936-4.936V173.14C397.194,170.414,399.404,168.204,402.131,168.204z"/>
	<path fill="#E7EDF2" d="M364.287,168.204h1.645c2.726,0,4.936,2.21,4.936,4.936v14.808c0,2.726-2.21,4.936-4.936,4.936h-1.645
		c-2.726,0-4.936-2.21-4.936-4.936V173.14C359.351,170.414,361.56,168.204,364.287,168.204z"/>
	<path fill="#E7EDF2" d="M328.088,168.204h1.645c2.726,0,4.936,2.21,4.936,4.936v14.808c0,2.726-2.21,4.936-4.936,4.936h-1.645
		c-2.726,0-4.936-2.21-4.936-4.936V173.14C323.152,170.414,325.362,168.204,328.088,168.204z"/>
	<path fill="#E7EDF2" d="M290.244,168.204h1.645c2.726,0,4.936,2.21,4.936,4.936v14.808c0,2.726-2.21,4.936-4.936,4.936h-1.645
		c-2.726,0-4.936-2.21-4.936-4.936V173.14C285.308,170.414,287.518,168.204,290.244,168.204z"/>
	<path fill="#CAD3DB" d="M499.208,451.211h1.645c2.726,0,4.936,2.21,4.936,4.936v14.808c0,2.726-2.21,4.936-4.936,4.936h-1.645
		c-2.726,0-4.936-2.21-4.936-4.936v-14.808C494.272,453.42,496.482,451.211,499.208,451.211z"/>
	<path fill="#CAD3DB" d="M463.01,451.211h1.645c2.726,0,4.936,2.21,4.936,4.936v14.808c0,2.726-2.21,4.936-4.936,4.936h-1.645
		c-2.726,0-4.936-2.21-4.936-4.936v-14.808C458.074,453.42,460.284,451.211,463.01,451.211z"/>
	<path fill="none" d="M425.166,451.211h1.645c2.726,0,4.936,2.21,4.936,4.936v14.808c0,2.726-2.21,4.936-4.936,4.936h-1.645
		c-2.726,0-4.936-2.21-4.936-4.936v-14.808C420.23,453.42,422.44,451.211,425.166,451.211z"/>
	<path fill="#CAD3DB" d="M499.208,413.367h1.645c2.726,0,4.936,2.21,4.936,4.936v14.808c0,2.726-2.21,4.936-4.936,4.936h-1.645
		c-2.726,0-4.936-2.21-4.936-4.936v-14.808C494.272,415.577,496.482,413.367,499.208,413.367z"/>
	<path fill="#CAD3DB" d="M463.01,413.367h1.645c2.726,0,4.936,2.21,4.936,4.936v14.808c0,2.726-2.21,4.936-4.936,4.936h-1.645
		c-2.726,0-4.936-2.21-4.936-4.936v-14.808C458.074,415.577,460.284,413.367,463.01,413.367z"/>
	<path fill="#CAD3DB" d="M425.166,413.367h1.645c2.726,0,4.936,2.21,4.936,4.936v14.808c0,2.726-2.21,4.936-4.936,4.936h-1.645
		c-2.726,0-4.936-2.21-4.936-4.936v-14.808C420.23,415.577,422.44,413.367,425.166,413.367z"/>
	<path fill="#CAD3DB" d="M499.208,377.168h1.645c2.726,0,4.936,2.21,4.936,4.936v14.808c0,2.726-2.21,4.936-4.936,4.936h-1.645
		c-2.726,0-4.936-2.21-4.936-4.936v-14.808C494.272,379.378,496.482,377.168,499.208,377.168z"/>
	<path fill="#CAD3DB" d="M463.01,377.168h1.645c2.726,0,4.936,2.21,4.936,4.936v14.808c0,2.726-2.21,4.936-4.936,4.936h-1.645
		c-2.726,0-4.936-2.21-4.936-4.936v-14.808C458.074,379.378,460.284,377.168,463.01,377.168z"/>
	<path fill="#CAD3DB" d="M425.166,377.168h1.645c2.726,0,4.936,2.21,4.936,4.936v14.808c0,2.726-2.21,4.936-4.936,4.936h-1.645
		c-2.726,0-4.936-2.21-4.936-4.936v-14.808C420.23,379.378,422.44,377.168,425.166,377.168z"/>
	<path fill="#CAD3DB" d="M499.208,339.324h1.645c2.726,0,4.936,2.21,4.936,4.936v14.808c0,2.726-2.21,4.936-4.936,4.936h-1.645
		c-2.726,0-4.936-2.21-4.936-4.936V344.26C494.272,341.534,496.482,339.324,499.208,339.324z"/>
	<path fill="#CAD3DB" d="M463.01,339.324h1.645c2.726,0,4.936,2.21,4.936,4.936v14.808c0,2.726-2.21,4.936-4.936,4.936h-1.645
		c-2.726,0-4.936-2.21-4.936-4.936V344.26C458.074,341.534,460.284,339.324,463.01,339.324z"/>
	<path fill="#CAD3DB" d="M425.166,339.324h1.645c2.726,0,4.936,2.21,4.936,4.936v14.808c0,2.726-2.21,4.936-4.936,4.936h-1.645
		c-2.726,0-4.936-2.21-4.936-4.936V344.26C420.23,341.534,422.44,339.324,425.166,339.324z"/>
	<path fill="#CAD3DB" d="M499.208,303.126h1.645c2.726,0,4.936,2.21,4.936,4.936v14.808c0,2.726-2.21,4.936-4.936,4.936h-1.645
		c-2.726,0-4.936-2.21-4.936-4.936v-14.808C494.272,305.336,496.482,303.126,499.208,303.126z"/>
	<path fill="#CAD3DB" d="M463.01,303.126h1.645c2.726,0,4.936,2.21,4.936,4.936v14.808c0,2.726-2.21,4.936-4.936,4.936h-1.645
		c-2.726,0-4.936-2.21-4.936-4.936v-14.808C458.074,305.336,460.284,303.126,463.01,303.126z"/>
	<path fill="#CAD3DB" d="M425.166,303.126h1.645c2.726,0,4.936,2.21,4.936,4.936v14.808c0,2.726-2.21,4.936-4.936,4.936h-1.645
		c-2.726,0-4.936-2.21-4.936-4.936v-14.808C420.23,305.336,422.44,303.126,425.166,303.126z"/>
	<path fill="#CAD3DB" d="M499.208,266.928h1.645c2.726,0,4.936,2.21,4.936,4.936v14.808c0,2.726-2.21,4.936-4.936,4.936h-1.645
		c-2.726,0-4.936-2.21-4.936-4.936v-14.808C494.272,269.137,496.482,266.928,499.208,266.928z"/>
	<path fill="#CAD3DB" d="M463.01,266.928h1.645c2.726,0,4.936,2.21,4.936,4.936v14.808c0,2.726-2.21,4.936-4.936,4.936h-1.645
		c-2.726,0-4.936-2.21-4.936-4.936v-14.808C458.074,269.137,460.284,266.928,463.01,266.928z"/>
	<path fill="#CAD3DB" d="M425.166,266.928h1.645c2.726,0,4.936,2.21,4.936,4.936v14.808c0,2.726-2.21,4.936-4.936,4.936h-1.645
		c-2.726,0-4.936-2.21-4.936-4.936v-14.808C420.23,269.137,422.44,266.928,425.166,266.928z"/>
	<path fill="#54BB74" d="M419.407,449.565c-8.656,0-16.611,2.979-22.915,7.956c-5.497-15.195-20.05-26.055-37.142-26.055
		c-20.706,0-37.678,15.94-39.343,36.216c-18.182,0.327-33.163,13.752-35.896,31.245h47.367h25.779h27.244h2.722h67.091
		c1.365-3.861,2.115-8.012,2.115-12.34C456.428,466.14,439.853,449.565,419.407,449.565z"/>
	<g>
		<g>
			<g>
				<path fill="#23AE5E" d="M555.151,491.522c0-20.446-16.575-37.021-37.021-37.021c-14.006,0-26.193,7.78-32.482,19.252
					c-5.994-12.368-17.704-17.015-32.37-17.015c-20.446,0-32.085,12.692-32.085,33.138c0,3.122,0.391,6.153,1.119,9.05H554.41
					C554.895,496.534,555.151,494.058,555.151,491.522z"/>
			</g>
		</g>
	</g>
</g>
<g>
	<g>
		<g>
			<path fill="#949DA8" d="M492.925-78.3c5.727,9.543,9.025,20.71,9.025,32.65c0,35.101-28.455,63.555-63.555,63.555h-98.263
				c-0.667,0.032-1.338,0.049-2.013,0.049c-10.839,0-20.716-4.117-28.154-10.872c6.99,13.392,20.997,22.539,37.149,22.539
				c0.675,0,1.346-0.017,2.013-0.049h98.263c35.101,0,63.555-28.455,63.555-63.555C510.945-51.224,504.07-66.851,492.925-78.3z"/>
		</g>
	</g>
</g>
<path fill="#F6BB45" d="M399.662,47.307c-2.951-0.092-25.217,0-25.217,0l33.787-77.166l0.047,50.499
	c0.269,0.004,25.729-0.075,25.729-0.075l-34.345,77.242C399.662,97.807,399.829,56.64,399.662,47.307z"/>
</svg>
