<?xml version="1.0" encoding="utf-8"?>
<!-- Generator: Adobe Illustrator 17.0.0, SVG Export Plug-In . SVG Version: 6.00 Build 0)  -->
<!DOCTYPE svg PUBLIC "-//W3C//DTD SVG 1.1//EN" "http://www.w3.org/Graphics/SVG/1.1/DTD/svg11.dtd">
<svg version="1.1" id="Layer_1" xmlns="http://www.w3.org/2000/svg" xmlns:xlink="http://www.w3.org/1999/xlink" x="0px" y="0px"
	 width="1233.901px" height="443px" viewBox="0 0 1233.901 443" enable-background="new 0 0 1233.901 443" xml:space="preserve">
<g>
	<rect x="0" fill="none" width="30" height="30"/>
	<rect x="30" fill="none" width="30" height="30"/>
	<rect x="59.994" fill="none" width="30" height="30"/>
	<rect x="0" y="30" fill="none" width="30" height="30"/>
	<rect x="30" y="30" fill="none" width="30" height="30"/>
	<rect x="59.994" y="30" fill="none" width="30" height="30"/>
	<rect x="89.99" fill="none" width="30" height="30"/>
	<rect x="89.99" y="30" fill="none" width="30" height="30"/>
	<rect x="0" y="60" fill="none" width="30" height="30"/>
	<rect x="30" y="60" fill="none" width="30" height="30"/>
	<rect x="59.994" y="60" fill="none" width="30" height="30"/>
	<rect x="89.99" y="60" fill="none" width="30" height="30"/>
	<rect x="119.887" fill="none" width="30" height="30"/>
	<rect x="119.887" y="30" fill="none" width="30" height="30"/>
	<rect x="149.883" fill="none" width="30" height="30"/>
	<rect x="149.883" y="30" fill="none" width="30" height="30"/>
	<rect x="119.887" y="60" fill="none" width="30" height="30"/>
	<rect x="149.883" y="60" fill="none" width="30" height="30"/>
	<rect x="0" y="90" fill="none" width="30" height="30"/>
	<rect x="30" y="90" fill="none" width="30" height="30"/>
	<rect x="59.994" y="90" fill="none" width="30" height="30"/>
	<rect x="89.99" y="90" fill="none" width="30" height="30"/>
	<rect x="119.887" y="90" fill="none" width="30" height="30"/>
	<rect x="149.883" y="90" fill="none" width="30" height="30"/>
	<rect x="0" y="120" fill="none" width="30" height="30"/>
	<rect x="30" y="120" fill="none" width="30" height="30"/>
	<rect x="59.994" y="120" fill="none" width="30" height="30"/>
	<rect x="89.99" y="120" fill="none" width="30" height="30"/>
	<rect x="119.887" y="120" fill="none" width="30" height="30"/>
	<rect x="149.883" y="120" fill="none" width="30" height="30"/>
	<rect x="179.883" fill="none" width="30" height="30"/>
	<rect x="209.883" fill="none" width="30" height="30"/>
	<rect x="239.877" fill="none" width="30" height="30"/>
	<rect x="179.883" y="30" fill="none" width="30" height="30"/>
	<rect x="209.883" y="30" fill="none" width="30" height="30"/>
	<rect x="239.877" y="30" fill="none" width="30" height="30"/>
	<rect x="269.873" fill="none" width="30" height="30"/>
	<rect x="269.873" y="30" fill="none" width="30" height="30"/>
	<rect x="179.883" y="60" fill="none" width="30" height="30"/>
	<rect x="209.883" y="60" fill="none" width="30" height="30"/>
	<rect x="239.877" y="60" fill="none" width="30" height="30"/>
	<rect x="269.873" y="60" fill="none" width="30" height="30"/>
	<rect x="299.77" fill="none" width="30" height="30"/>
	<rect x="299.77" y="30" fill="none" width="30" height="30"/>
	<rect x="329.766" fill="none" width="30" height="30"/>
	<rect x="329.766" y="30" fill="none" width="30" height="30"/>
	<rect x="299.77" y="60" fill="none" width="30" height="30"/>
	<rect x="329.766" y="60" fill="none" width="30" height="30"/>
	<rect x="179.883" y="90" fill="none" width="30" height="30"/>
	<rect x="209.883" y="90" fill="none" width="30" height="30"/>
	<rect x="239.877" y="90" fill="none" width="30" height="30"/>
	<rect x="269.873" y="90" fill="none" width="30" height="30"/>
	<rect x="299.77" y="90" fill="none" width="30" height="30"/>
	<rect x="329.766" y="90" fill="none" width="30" height="30"/>
	<rect x="179.883" y="120" fill="none" width="30" height="30"/>
	<rect x="209.883" y="120" fill="none" width="30" height="30"/>
	<rect x="239.877" y="120" fill="none" width="30" height="30"/>
	<rect x="269.873" y="120" fill="none" width="30" height="30"/>
	<rect x="299.77" y="120" fill="none" width="30" height="30"/>
	<rect x="329.766" y="120" fill="none" width="30" height="30"/>
	<rect x="359.766" fill="none" width="30" height="30"/>
	<rect x="389.766" fill="none" width="30" height="30"/>
	<rect x="419.76" fill="none" width="30" height="30"/>
	<rect x="359.766" y="30" fill="none" width="30" height="30"/>
	<rect x="389.766" y="30" fill="none" width="30" height="30"/>
	<rect x="419.76" y="30" fill="none" width="30" height="30"/>
	<rect x="449.756" fill="none" width="30" height="30"/>
	<rect x="449.756" y="30" fill="none" width="30" height="30"/>
	<rect x="359.766" y="60" fill="none" width="30" height="30"/>
	<rect x="389.766" y="60" fill="none" width="30" height="30"/>
	<rect x="419.76" y="60" fill="none" width="30" height="30"/>
	<rect x="449.756" y="60" fill="none" width="30" height="30"/>
	<rect x="479.653" fill="none" width="30" height="30"/>
	<rect x="479.653" y="30" fill="none" width="30" height="30"/>
	<rect x="509.649" fill="none" width="30" height="30"/>
	<rect x="509.649" y="30" fill="none" width="30" height="30"/>
	<rect x="479.653" y="60" fill="none" width="30" height="30"/>
	<rect x="509.649" y="60" fill="none" width="30" height="30"/>
	<rect x="359.766" y="90" fill="none" width="30" height="30"/>
	<rect x="389.766" y="90" fill="none" width="30" height="30"/>
	<rect x="419.76" y="90" fill="none" width="30" height="30"/>
	<rect x="449.756" y="90" fill="none" width="30" height="30"/>
	<rect x="479.653" y="90" fill="none" width="30" height="30"/>
	<rect x="509.649" y="90" fill="none" width="30" height="30"/>
	<rect x="359.766" y="120" fill="none" width="30" height="30"/>
	<rect x="389.766" y="120" fill="none" width="30" height="30"/>
	<rect x="419.76" y="120" fill="none" width="30" height="30"/>
	<rect x="449.756" y="120" fill="none" width="30" height="30"/>
	<rect x="479.653" y="120" fill="none" width="30" height="30"/>
	<rect x="509.649" y="120" fill="none" width="30" height="30"/>
</g>
<path fill="#E82441" d="M27.5,15.011C27.5,8.12,21.901,2.5,14.989,2.5S2.5,8.099,2.5,15.011S8.099,27.5,14.989,27.5
	S27.5,21.902,27.5,15.011z M4.244,15.011c0-5.922,4.823-10.745,10.745-10.745s10.745,4.823,10.745,10.745
	s-4.823,10.745-10.745,10.745S4.244,20.933,4.244,15.011z"/>
<path fill="#E82441" d="M21.234,13.827c0.172-0.172,0.258-0.388,0.258-0.624c0-0.215-0.086-0.452-0.258-0.625
	c-0.344-0.344-0.904-0.344-1.249,0l-5.06,5.06l-5.06-5.06c-0.344-0.344-0.904-0.344-1.249,0c-0.344,0.345-0.344,0.904,0,1.249
	l5.685,5.685c0.172,0.172,0.388,0.258,0.624,0.258c0.237,0,0.452-0.086,0.625-0.258L21.234,13.827z"/>
<path fill="#E82441" d="M57.5,14.989c0,6.891-5.599,12.511-12.511,12.511S32.5,21.901,32.5,14.989S38.099,2.5,44.989,2.5
	C51.88,2.499,57.5,8.098,57.5,14.989z M34.244,14.989c0,5.922,4.823,10.745,10.745,10.745s10.745-4.823,10.745-10.745
	S50.91,4.244,44.989,4.244S34.244,9.067,34.244,14.989z"/>
<path fill="#E82441" d="M51.234,16.173c0.172,0.172,0.258,0.388,0.258,0.624c0,0.215-0.086,0.452-0.258,0.625
	c-0.345,0.344-0.904,0.344-1.249,0l-5.06-5.06l-5.06,5.06c-0.344,0.344-0.904,0.344-1.249,0c-0.345-0.345-0.345-0.904,0-1.249
	l5.685-5.685c0.172-0.172,0.388-0.258,0.624-0.258c0.237,0,0.452,0.086,0.625,0.258L51.234,16.173z"/>
</svg>
