<?xml version="1.0" encoding="utf-8"?>
<!-- Generator: Adobe Illustrator 17.0.0, SVG Export Plug-In . SVG Version: 6.00 Build 0)  -->
<!DOCTYPE svg PUBLIC "-//W3C//DTD SVG 1.1//EN" "http://www.w3.org/Graphics/SVG/1.1/DTD/svg11.dtd">
<svg version="1.1" id="Layer_1" xmlns="http://www.w3.org/2000/svg" xmlns:xlink="http://www.w3.org/1999/xlink" x="0px" y="0px"
	 width="595.28px" height="841.89px" viewBox="0 0 595.28 841.89" enable-background="new 0 0 595.28 841.89" xml:space="preserve">
<g>
	<path fill="none" stroke="#FFFFFF" stroke-miterlimit="10" d="M13.346,4.65h14.4c1.768,0,3.2,1.432,3.2,3.2v14.4
		c0,1.768-1.432,3.2-3.2,3.2h-14.4c-1.768,0-3.2-1.432-3.2-3.2V7.85C10.146,6.082,11.578,4.65,13.346,4.65z"/>
	<path fill="#FFFFFF" d="M7.746,10.25h14.4c1.768,0,3.2,1.432,3.2,3.2v14.4c0,1.768-1.432,3.2-3.2,3.2h-14.4
		c-1.768,0-3.2-1.432-3.2-3.2v-14.4C4.546,11.682,5.978,10.25,7.746,10.25z"/>
</g>
</svg>
