<?xml version="1.0" encoding="utf-8"?>
<!-- Generator: Adobe Illustrator 17.0.0, SVG Export Plug-In . SVG Version: 6.00 Build 0)  -->
<!DOCTYPE svg PUBLIC "-//W3C//DTD SVG 1.1//EN" "http://www.w3.org/Graphics/SVG/1.1/DTD/svg11.dtd">
<svg version="1.1" id="Layer_1" xmlns="http://www.w3.org/2000/svg" xmlns:xlink="http://www.w3.org/1999/xlink" x="0px" y="0px"
	 width="1137.469px" height="443px" viewBox="0 0 1137.469 443" enable-background="new 0 0 1137.469 443" xml:space="preserve">
<g>
	<path fill="#8D8D8D" d="M15.001,17.798c1.556,0,2.824-1.257,2.824-2.8s-1.267-2.8-2.824-2.8s-2.824,1.257-2.824,2.8
		S13.443,17.798,15.001,17.798z M15.001,12.999c1.112,0,2.017,0.897,2.017,2s-0.905,2-2.017,2s-2.016-0.897-2.016-2
		C12.985,13.895,13.889,12.999,15.001,12.999z"/>
	<path fill="#8D8D8D" d="M22.918,17.798H20.03l1.228-1.76c2.32-3.069,1.985-8.112-0.717-10.791C19.079,3.797,17.138,3,15.071,3
		s-4.008,0.797-5.468,2.247C6.9,7.927,6.565,12.972,8.876,16.028l1.237,1.773h-3.03L2.667,27h24.667L22.918,17.798z M9.53,15.559
		c-2.096-2.773-1.796-7.329,0.644-9.747c1.308-1.297,3.048-2.013,4.898-2.013s3.59,0.715,4.898,2.013
		c2.44,2.419,2.741,6.974,0.635,9.759l-5.533,7.925l-3.978-5.697l0,0L9.53,15.559z M7.593,18.599h3.078l4.401,6.302l4.4-6.302h2.936
		l3.648,7.6H3.945L7.593,18.599z"/>
</g>
<rect fill="none" width="30" height="30"/>
<rect x="30" fill="none" width="30" height="30"/>
<polygon fill="#7F7F7F" points="52.083,5.166 49.917,3 40.083,12.834 37.917,15 40.083,17.166 49.917,27 52.083,24.834 42.25,15 "/>
</svg>
