<?xml version="1.0" encoding="utf-8"?>
<!-- Generator: Adobe Illustrator 17.0.0, SVG Export Plug-In . SVG Version: 6.00 Build 0)  -->
<!DOCTYPE svg PUBLIC "-//W3C//DTD SVG 1.1//EN" "http://www.w3.org/Graphics/SVG/1.1/DTD/svg11.dtd">
<svg version="1.1" id="Layer_1" xmlns="http://www.w3.org/2000/svg" xmlns:xlink="http://www.w3.org/1999/xlink" x="0px" y="0px"
	 width="1137.469px" height="443px" viewBox="0 0 1137.469 443" enable-background="new 0 0 1137.469 443" xml:space="preserve">
<g>
	<path fill="#8D8D8D" d="M12.5,14.599c1.167,0,2.118-0.943,2.118-2.1s-0.95-2.1-2.118-2.1s-2.118,0.943-2.118,2.1
		S11.332,14.599,12.5,14.599z M12.5,11c0.834,0,1.513,0.673,1.513,1.5S13.334,14,12.5,14c-0.834,0-1.512-0.673-1.512-1.5
		C10.988,11.672,11.666,11,12.5,11z"/>
	<path fill="#8D8D8D" d="M18.438,14.599h-2.166l0.921-1.32c1.74-2.302,1.489-6.084-0.538-8.094C15.559,4.098,14.103,3.5,12.553,3.5
		S9.547,4.098,8.452,5.185c-2.027,2.01-2.279,5.794-0.545,8.086l0.928,1.33H6.562l-3.313,6.9h18.501L18.438,14.599z M8.397,12.92
		C6.825,10.84,7.05,7.423,8.88,5.609c0.981-0.973,2.286-1.51,3.674-1.51s2.693,0.536,3.674,1.51c1.83,1.814,2.056,5.231,0.476,7.32
		l-4.15,5.944L9.57,14.6l0,0L8.397,12.92z M6.944,15.2h2.309l3.301,4.727l3.3-4.727h2.202l2.736,5.7H4.208L6.944,15.2z"/>
</g>
<rect fill="none" width="25" height="25"/>
</svg>
