<?xml version="1.0" encoding="UTF-8"?>
<svg width="14px" height="20px" viewBox="0 0 14 20" version="1.1" xmlns="http://www.w3.org/2000/svg" xmlns:xlink="http://www.w3.org/1999/xlink">
    <!-- Generator: Sketch 59.1 (86144) - https://sketch.com -->
    <title>ico-calculator</title>
    <desc>Created with Sketch.</desc>
    <g id="03.-Detail" stroke="none" stroke-width="1" fill="none" fill-rule="evenodd">
        <g id="MB---03.2a---Detail-MuaBan-/-có-thuộc-DA-Copy" transform="translate(-23.000000, -144.000000)" fill="#7E7E7E" fill-rule="nonzero">
            <g id="---TRA-GOP-active" transform="translate(13.000000, 131.000000)">
                <g id="Tính-toán" transform="translate(10.000000, 13.000000)">
                    <g id="Group-6">
                        <g id="ico-calculator">
                            <path d="M11.8593272,0 L2.14067278,0 C0.958620031,0.000501722324 0.000501722324,0.958620031 0,2.14067278 L0,17.3394495 C0.000501722324,18.5215023 0.958620031,19.4796206 2.14067278,19.4801223 L11.8593272,19.4801223 C13.04138,19.4796206 13.9994983,18.5215023 14,17.3394495 L14,2.14067278 C13.9994983,0.958620031 13.04138,0.000501722324 11.8593272,0 Z M13.1437309,17.3394495 C13.141724,18.0478784 12.5677561,18.6218463 11.8593272,18.6238532 L2.14067278,18.6238532 C1.43224388,18.6218463 0.858275994,18.0478784 0.856269113,17.3394495 L0.856269113,2.14067278 C0.858275994,1.43224388 1.43224388,0.858275994 2.14067278,0.856269113 L11.8593272,0.856269113 C12.5677561,0.858275994 13.141724,1.43224388 13.1437309,2.14067278 L13.1437309,17.3394495 Z" id="Shape"></path>
                            <path d="M8.09174312,7.06422018 L5.90825688,7.06422018 C5.67211391,7.06488914 5.48079128,7.25621177 5.48012232,7.49235474 L5.48012232,9.41896024 C5.48079128,9.65510321 5.67211391,9.84642584 5.90825688,9.8470948 L8.09174312,9.8470948 C8.32788609,9.84642584 8.51920872,9.65510321 8.51987768,9.41896024 L8.51987768,7.49235474 C8.51920872,7.25621177 8.32788609,7.06488914 8.09174312,7.06422018 Z M7.66360856,8.99082569 L6.33639144,8.99082569 L6.33639144,7.9204893 L7.66360856,7.9204893 L7.66360856,8.99082569 Z" id="Shape"></path>
                            <path d="M4.23853211,7.06422018 L2.05504587,7.06422018 C1.81890291,7.06488914 1.62758028,7.25621177 1.62691131,7.49235474 L1.62691131,9.41896024 C1.62758028,9.65510321 1.81890291,9.84642584 2.05504587,9.8470948 L4.23853211,9.8470948 C4.47467508,9.84642584 4.66599771,9.65510321 4.66666667,9.41896024 L4.66666667,7.49235474 C4.66599771,7.25621177 4.47467508,7.06488914 4.23853211,7.06422018 Z M3.81039755,8.99082569 L2.48318043,8.99082569 L2.48318043,7.9204893 L3.81039755,7.9204893 L3.81039755,8.99082569 Z" id="Shape"></path>
                            <path d="M11.9449541,7.06422018 L9.76146789,7.06422018 C9.52532492,7.06488914 9.33400229,7.25621177 9.33333333,7.49235474 L9.33333333,9.41896024 C9.33400229,9.65510321 9.52532492,9.84642584 9.76146789,9.8470948 L11.9449541,9.8470948 C12.1810971,9.84642584 12.3724197,9.65510321 12.3730887,9.41896024 L12.3730887,7.49235474 C12.3724197,7.25621177 12.1810971,7.06488914 11.9449541,7.06422018 Z M11.5168196,8.99082569 L10.1896024,8.99082569 L10.1896024,7.9204893 L11.5168196,7.9204893 L11.5168196,8.99082569 Z" id="Shape"></path>
                            <path d="M8.09174312,10.9174312 L5.90825688,10.9174312 C5.67211391,10.9181002 5.48079128,11.1094228 5.48012232,11.3455657 L5.48012232,13.2721713 C5.48079128,13.5083142 5.67211391,13.6996369 5.90825688,13.7003058 L8.09174312,13.7003058 C8.32788609,13.6996369 8.51920872,13.5083142 8.51987768,13.2721713 L8.51987768,11.3455657 C8.51920872,11.1094228 8.32788609,10.9181002 8.09174312,10.9174312 Z M7.66360856,12.8440367 L6.33639144,12.8440367 L6.33639144,11.7737003 L7.66360856,11.7737003 L7.66360856,12.8440367 Z" id="Shape"></path>
                            <path d="M4.23853211,10.9174312 L2.05504587,10.9174312 C1.81890291,10.9181002 1.62758028,11.1094228 1.62691131,11.3455657 L1.62691131,13.2721713 C1.62758028,13.5083142 1.81890291,13.6996369 2.05504587,13.7003058 L4.23853211,13.7003058 C4.47467508,13.6996369 4.66599771,13.5083142 4.66666667,13.2721713 L4.66666667,11.3455657 C4.66599771,11.1094228 4.47467508,10.9181002 4.23853211,10.9174312 Z M3.81039755,12.8440367 L2.48318043,12.8440367 L2.48318043,11.7737003 L3.81039755,11.7737003 L3.81039755,12.8440367 Z" id="Shape"></path>
                            <path d="M11.9449541,10.9174312 L9.76146789,10.9174312 C9.52532492,10.9181002 9.33400229,11.1094228 9.33333333,11.3455657 L9.33333333,13.2721713 C9.33400229,13.5083142 9.52532492,13.6996369 9.76146789,13.7003058 L11.9449541,13.7003058 C12.1810971,13.6996369 12.3724197,13.5083142 12.3730887,13.2721713 L12.3730887,11.3455657 C12.3724197,11.1094228 12.1810971,10.9181002 11.9449541,10.9174312 Z M11.5168196,12.8440367 L10.1896024,12.8440367 L10.1896024,11.7737003 L11.5168196,11.7737003 L11.5168196,12.8440367 Z" id="Shape"></path>
                            <path d="M8.09174312,14.7706422 L5.90825688,14.7706422 C5.67211391,14.7713112 5.48079128,14.9626338 5.48012232,15.1987768 L5.48012232,17.1253823 C5.48079128,17.3615252 5.67211391,17.5528479 5.90825688,17.5535168 L8.09174312,17.5535168 C8.32788609,17.5528479 8.51920872,17.3615252 8.51987768,17.1253823 L8.51987768,15.1987768 C8.51920872,14.9626338 8.32788609,14.7713112 8.09174312,14.7706422 Z M7.66360856,16.6972477 L6.33639144,16.6972477 L6.33639144,15.6269113 L7.66360856,15.6269113 L7.66360856,16.6972477 Z" id="Shape"></path>
                            <path d="M4.23853211,14.7706422 L2.05504587,14.7706422 C1.81890291,14.7713112 1.62758028,14.9626338 1.62691131,15.1987768 L1.62691131,17.1253823 C1.62758028,17.3615252 1.81890291,17.5528479 2.05504587,17.5535168 L4.23853211,17.5535168 C4.47467508,17.5528479 4.66599771,17.3615252 4.66666667,17.1253823 L4.66666667,15.1987768 C4.66599771,14.9626338 4.47467508,14.7713112 4.23853211,14.7706422 Z M3.81039755,16.6972477 L2.48318043,16.6972477 L2.48318043,15.6269113 L3.81039755,15.6269113 L3.81039755,16.6972477 Z" id="Shape"></path>
                            <path d="M11.9449541,14.7706422 L9.76146789,14.7706422 C9.52532492,14.7713112 9.33400229,14.9626338 9.33333333,15.1987768 L9.33333333,17.1253823 C9.33400229,17.3615252 9.52532492,17.5528479 9.76146789,17.5535168 L11.9449541,17.5535168 C12.1810971,17.5528479 12.3724197,17.3615252 12.3730887,17.1253823 L12.3730887,15.1987768 C12.3724197,14.9626338 12.1810971,14.7713112 11.9449541,14.7706422 Z M11.5168196,16.6972477 L10.1896024,16.6972477 L10.1896024,15.6269113 L11.5168196,15.6269113 L11.5168196,16.6972477 Z" id="Shape"></path>
                            <path d="M11.9449541,1.9266055 L2.05504587,1.9266055 C1.81890291,1.92727446 1.62758028,2.11859709 1.62691131,2.35474006 L1.62691131,5.56574924 C1.62758028,5.8018922 1.81890291,5.99321483 2.05504587,5.99388379 L11.9449541,5.99388379 C12.1810971,5.99321483 12.3724197,5.8018922 12.3730887,5.56574924 L12.3730887,2.35474006 C12.3724197,2.11859709 12.1810971,1.92727446 11.9449541,1.9266055 Z M11.5168196,5.13761468 L2.48318043,5.13761468 L2.48318043,2.78287462 L11.5168196,2.78287462 L11.5168196,5.13761468 Z" id="Shape"></path>
                        </g>
                    </g>
                </g>
            </g>
        </g>
    </g>
</svg>