<?xml version="1.0" encoding="UTF-8"?>
<svg width="13px" height="15px" viewBox="0 0 13 15" version="1.1" xmlns="http://www.w3.org/2000/svg" xmlns:xlink="http://www.w3.org/1999/xlink">
    <!-- Generator: Sketch 61.2 (89653) - https://sketch.com -->
    <title></title>
    <desc>Created with Sketch.</desc>
    <g id="01.-Home" stroke="none" stroke-width="1" fill="none" fill-rule="evenodd">
        <g id="MB---01.1---Home-/-Listing-DA-/-HEART-Share-Link" transform="translate(-308.000000, -391.000000)" fill="#EF7733" fill-rule="nonzero">
            <g id="Group-2" transform="translate(17.000000, 322.000000)">
                <g id="Group" transform="translate(15.000000, 67.000000)">
                    <g id="Group-4" transform="translate(255.000000, 2.483000)">
                        <path d="M32.7176637,12.6523388 L32.7176637,3.79266751 L25.7846675,3.79266751 L25.7846675,12.6523388 L32.7176637,12.6523388 Z M32.7176637,2.54867257 C33.061534,2.54867257 33.3598875,2.67003671 33.6127332,2.91276865 C33.865579,3.15550058 33.992,3.44879727 33.992,3.79266751 L33.992,12.6523388 C33.992,12.9962091 33.865579,13.2945626 33.6127332,13.5474083 C33.3598875,13.8002541 33.061534,13.9266751 32.7176637,13.9266751 L25.7846675,13.9266751 C25.4407973,13.9266751 25.1424437,13.8002541 24.889598,13.5474083 C24.6367522,13.2945626 24.5103312,12.9962091 24.5103312,12.6523388 L24.5103312,3.79266751 C24.5103312,3.44879727 24.6367522,3.15550058 24.889598,2.91276865 C25.1424437,2.67003671 25.4407973,2.54867257 25.7846675,2.54867257 L32.7176637,2.54867257 Z M30.82133,2.7533531e-14 L30.82133,1.27433628 L23.2359949,1.27433628 L23.2359949,10.1340076 L21.992,10.1340076 L21.992,1.27433628 C21.992,0.930466043 22.1133641,0.632112516 22.3560961,0.379266751 C22.598828,0.126420986 22.8921247,2.7533531e-14 23.2359949,2.7533531e-14 L30.82133,2.7533531e-14 Z" id=""></path>
                    </g>
                </g>
            </g>
        </g>
    </g>
</svg>