<?xml version="1.0" encoding="UTF-8"?>
<svg width="30px" height="26px" viewBox="0 0 30 26" version="1.1" xmlns="http://www.w3.org/2000/svg" xmlns:xlink="http://www.w3.org/1999/xlink">
    <!-- Generator: Sketch 61.2 (89653) - https://sketch.com -->
    <title>ico-dat nen </title>
    <desc>Created with Sketch.</desc>
    <g id="01.-Home" stroke="none" stroke-width="1" fill="none" fill-rule="evenodd">
        <g id="dat-nen-du-an" transform="translate(-38.000000, -16.000000)" fill="#CE5510" fill-rule="nonzero">
            <g id="Group-7" transform="translate(12.000000, 14.000000)">
                <g id="Group-11" transform="translate(26.000000, 0.000000)">
                    <g id="ico-dat-nen-" transform="translate(0.000000, 2.000000)">
                        <path d="M2.10526316,17.9440789 L2.10526316,0.0493421053 L1.57894737,0.0493421053 C0.708421053,0.0493421053 0,0.757763158 0,1.62828947 L0,18.2267105 C0.31,18.0467105 0.669473684,17.9440789 1.05263158,17.9440789 L2.10526316,17.9440789 Z" id="Path"></path>
                        <polygon id="Path" points="21.0526316 23.2072368 22.1052632 23.2072368 22.1052632 25.3125 21.0526316 25.3125"></polygon>
                        <path d="M17.8947368,20.8672368 L17.8947368,25.3125 L20,25.3125 L20,22.6809211 C20,22.3903947 20.2357895,22.1546053 20.5263158,22.1546053 L22.6315789,22.1546053 C22.9221053,22.1546053 23.1578947,22.3903947 23.1578947,22.6809211 L23.1578947,25.3125 L25.2631579,25.3125 L25.2631579,20.8672368 L21.5789474,18.5646053 L17.8947368,20.8672368 Z" id="Path"></path>
                        <path d="M3.15789474,18.4703947 C3.15789474,18.7609211 2.92210526,18.9967105 2.63157895,18.9967105 L1.05263158,18.9967105 C0.472105263,18.9967105 0,19.4688158 0,20.0493421 C0,20.6298684 0.472105263,21.1019737 1.05263158,21.1019737 L16.8421053,21.1019737 L16.8421053,20.5756579 C16.8421053,20.3940789 16.9357895,20.2256579 17.0894737,20.1293421 L21.3,17.4977632 C21.4705263,17.3914474 21.6868421,17.3914474 21.8578947,17.4977632 L26.0684211,20.1293421 C26.2221053,20.2256579 26.3157895,20.3940789 26.3157895,20.5756579 L26.3157895,21.1019737 L29.4736842,21.1019737 L29.4736842,1.10197368 L3.15789474,1.10197368 L3.15789474,18.4703947 Z M28.6968421,19.6009211 L28.1452632,20.4972368 L21.5789474,16.4567105 L15.0126316,20.4972368 L14.4610526,19.6009211 L21.3031579,15.3903947 C21.4721053,15.2861842 21.6857895,15.2861842 21.8547368,15.3903947 L24.2105263,16.8403947 L24.2105263,15.8388158 L25.2631579,15.8388158 L25.2631579,17.4882895 L28.6968421,19.6009211 Z M4.21052632,2.68092105 C4.21052632,2.39039474 4.44631579,2.15460526 4.73684211,2.15460526 L23.6842105,2.15460526 C23.9747368,2.15460526 24.2105263,2.39039474 24.2105263,2.68092105 L24.2105263,14.7861842 L23.1578947,14.7861842 L23.1578947,12.1546053 L20,12.1546053 L20,11.1019737 L23.1578947,11.1019737 L23.1578947,3.20723684 L11.5789474,3.20723684 L11.5789474,4.78618421 L10.5263158,4.78618421 L10.5263158,3.20723684 L5.26315789,3.20723684 L5.26315789,15.8388158 L10.5263158,15.8388158 L10.5263158,11.6282895 L10.5263158,6.89144737 L11.5789474,6.89144737 L11.5789474,11.1019737 L17.8947368,11.1019737 L17.8947368,12.1546053 L11.5789474,12.1546053 L11.5789474,15.8388158 L17.8947368,15.8388158 L17.8947368,16.8914474 L4.73684211,16.8914474 C4.44631579,16.8914474 4.21052632,16.6556579 4.21052632,16.3651316 L4.21052632,2.68092105 Z" id="Shape"></path>
                    </g>
                </g>
            </g>
        </g>
    </g>
</svg>