<?xml version="1.0" encoding="UTF-8"?>
<svg  width="32px" height="32px"  viewBox="0 0 12 12" version="1.1" xmlns="http://www.w3.org/2000/svg" xmlns:xlink="http://www.w3.org/1999/xlink">
    <!-- Generator: Sketch 59.1 (86144) - https://sketch.com -->
    <title>ico-instagram</title>
    <desc>Created with Sketch.</desc>
    <g id="Symbols" stroke="none" stroke-width="1" fill="none" fill-rule="evenodd">
        <g id="#-FOOTER" transform="translate(-342.000000, -116.000000)" fill-rule="nonzero">
            <g id="Group-17" transform="translate(0.000000, 91.000000)">
                <g id="Group-13" transform="translate(13.000000, 18.000000)">
                    <g id="Social-media" transform="translate(217.000000, 0.000000)">
                        <g id="insta" transform="translate(105.000000, 0.000000)">
                            <g id="ico-instagram" transform="translate(7.000000, 7.000000)">
                                <path d="M8.75170898,0 L3.24829102,0 C1.45715332,0 0,1.45715332 0,3.24829102 L0,8.75180053 C0,10.5428467 1.45715332,12 3.24829102,12 L8.75180053,12 C10.5428467,12 12,10.5428467 12,8.75180053 L12,3.24829102 C12,1.45715332 10.5428467,0 8.75170898,0 Z M6,9.28115845 C4.19073487,9.28115845 2.71884155,7.80926513 2.71884155,6 C2.71884155,4.19073487 4.19073487,2.71884155 6,2.71884155 C7.80926512,2.71884155 9.28115845,4.19073488 9.28115845,6 C9.28115845,7.80926513 7.80926512,9.28115845 6,9.28115845 L6,9.28115845 Z M9.35961914,3.49264526 C8.82495117,3.49264526 8.39007567,3.05776978 8.39007567,2.52310181 C8.39007567,1.98843384 8.82495117,1.5534668 9.35961914,1.5534668 C9.89428711,1.5534668 10.3292542,1.98843384 10.3292542,2.52310181 C10.3292542,3.05776978 9.89428711,3.49264526 9.35961914,3.49264526 Z" id="Shape" fill="#555555"></path>
                                <path d="M6,3.42233276 C4.57873535,3.42233276 3.42233276,4.5786438 3.42233276,6 C3.42233276,7.42126465 4.57873535,8.57766724 6,8.57766724 C7.4213562,8.57766724 8.57766724,7.42126465 8.57766724,6 C8.57766724,4.5786438 7.4213562,3.42233276 6,3.42233276 Z" id="Shape" fill="#555555"></path>
                                <path d="M9.35961914,2.25704955 C9.21295167,2.25704955 9.09356691,2.37643432 9.09356691,2.52310181 C9.09356691,2.66976928 9.21295167,2.78915405 9.35961914,2.78915405 C9.50637818,2.78915405 9.62576295,2.66986083 9.62576295,2.52310181 C9.62576295,2.37634277 9.50637818,2.25704955 9.35961914,2.25704955 Z" id="Shape" fill="#000000"></path>
                            </g>
                        </g>
                    </g>
                </g>
            </g>
        </g>
    </g>
</svg>