<?xml version="1.0" encoding="UTF-8"?>
<svg width="32px" height="32px" viewBox="0 0 28 33" version="1.1" xmlns="http://www.w3.org/2000/svg" xmlns:xlink="http://www.w3.org/1999/xlink">
    <!-- Generator: Sketch 59.1 (86144) - https://sketch.com -->
    <title>wishlist</title>
    <desc>Created with Sketch.</desc>
    <defs>
        <filter x="-4.7%" y="-29.2%" width="109.3%" height="158.3%" filterUnits="objectBoundingBox" id="filter-1">
            <feOffset dx="0" dy="-4" in="SourceAlpha" result="shadowOffsetOuter1"></feOffset>
            <feGaussianBlur stdDeviation="2.5" in="shadowOffsetOuter1" result="shadowBlurOuter1"></feGaussianBlur>
            <feColorMatrix values="0 0 0 0 0.34375   0 0 0 0 0.165592275   0 0 0 0 0.0646362305  0 0 0 0.241989357 0" type="matrix" in="shadowBlurOuter1" result="shadowMatrixOuter1"></feColorMatrix>
            <feMerge>
                <feMergeNode in="shadowMatrixOuter1"></feMergeNode>
                <feMergeNode in="SourceGraphic"></feMergeNode>
            </feMerge>
        </filter>
        <rect id="path-2" x="0" y="0" width="24" height="24"></rect>
    </defs>
    <g id="Symbols" stroke="none" stroke-width="1" fill="none" fill-rule="evenodd">
        <g id="#-Menu-bottom" transform="translate(-129.000000, -1.000000)">
            <g id="menu-bottom">
                <g filter="url(#filter-1)">
                    <g id="Group-2" transform="translate(122.000000, 9.000000)">
                        <g id="wishlist" transform="translate(9.000000, 0.000000)">
                            <mask id="mask-3" fill="white">
                                <use xlink:href="#path-2"></use>
                            </mask>
                            <g id="Mask"></g>
                            <g id="ico-news" mask="url(#mask-3)" fill="#FFFFFF" fill-rule="nonzero">
                                <g transform="translate(3.000000, 1.000000)" id="Shape">
                                    <path d="M17.9136986,5.03013699 C17.8890411,5.03013699 17.8890411,5.00547945 17.8643836,4.98082192 C17.839726,4.95616438 17.839726,4.93150685 17.8150685,4.90684932 L13.5739726,0.147945205 C13.5493151,0.123287671 13.5,0.098630137 13.4753425,0.0739726027 C13.4506849,0.0739726027 13.4506849,0.0493150685 13.4260274,0.0493150685 C13.3767123,0.0246575342 13.3027397,0 13.2287671,0 L2.82328767,0 C1.29452055,0 0.0369863014,1.25753425 0.0369863014,2.78630137 L0.0369863014,19.8739726 C0.0369863014,21.4027397 1.29452055,22.660274 2.82328767,22.660274 L15.1520548,22.660274 C16.6808219,22.660274 17.9383562,21.4027397 17.9383562,19.8739726 L17.9383562,5.20273973 C17.9383562,5.15342466 17.9136986,5.07945205 17.9136986,5.03013699 Z M13.6972603,1.67671233 L16.4342466,4.75890411 L13.6972603,4.75890411 L13.6972603,1.67671233 Z M17.0013699,19.8493151 C17.0013699,20.8849315 16.1876712,21.7232877 15.1520548,21.7232877 L2.82328767,21.7232877 C1.78767123,21.7232877 0.973972603,20.8849315 0.973972603,19.8739726 L0.973972603,2.76164384 C0.973972603,1.7260274 1.81232877,0.912328767 2.82328767,0.912328767 L12.760274,0.912328767 L12.760274,5.20273973 C12.760274,5.44931507 12.9575342,5.67123288 13.2287671,5.67123288 L17.0013699,5.67123288 L17.0013699,19.8493151 Z"></path>
                                    <path d="M3.36575342,5.67123288 L7.48356164,5.67123288 C7.73013699,5.67123288 7.95205479,5.4739726 7.95205479,5.20273973 C7.95205479,4.93150685 7.75479452,4.73424658 7.48356164,4.73424658 L3.36575342,4.73424658 C3.11917808,4.73424658 2.89726027,4.93150685 2.89726027,5.20273973 C2.89726027,5.4739726 3.11917808,5.67123288 3.36575342,5.67123288 Z"></path>
                                    <path d="M7.48356164,16.9890411 L3.36575342,16.9890411 C3.11917808,16.9890411 2.89726027,17.1863014 2.89726027,17.4575342 C2.89726027,17.7041096 3.09452055,17.9260274 3.36575342,17.9260274 L7.48356164,17.9260274 C7.73013699,17.9260274 7.95205479,17.7287671 7.95205479,17.4575342 C7.95205479,17.2109589 7.73013699,16.9890411 7.48356164,16.9890411 Z"></path>
                                    <path d="M2.89726027,8.30958904 C2.89726027,8.55616438 3.09452055,8.77808219 3.36575342,8.77808219 L14.3630137,8.77808219 C14.609589,8.77808219 14.8315068,8.58082192 14.8315068,8.30958904 C14.8315068,8.0630137 14.6342466,7.84109589 14.3630137,7.84109589 L3.36575342,7.84109589 C3.11917808,7.84109589 2.89726027,8.03835616 2.89726027,8.30958904 Z"></path>
                                    <path d="M14.3630137,10.1589041 L3.36575342,10.1589041 C3.11917808,10.1589041 2.89726027,10.3561644 2.89726027,10.6273973 C2.89726027,10.8739726 3.09452055,11.0958904 3.36575342,11.0958904 L14.3630137,11.0958904 C14.609589,11.0958904 14.8315068,10.8986301 14.8315068,10.6273973 C14.8315068,10.3561644 14.6342466,10.1589041 14.3630137,10.1589041 Z"></path>
                                    <path d="M14.3630137,12.4520548 L3.36575342,12.4520548 C3.11917808,12.4520548 2.89726027,12.6493151 2.89726027,12.9205479 C2.89726027,13.1671233 3.09452055,13.3890411 3.36575342,13.3890411 L14.3630137,13.3890411 C14.609589,13.3890411 14.8315068,13.1917808 14.8315068,12.9205479 C14.8315068,12.6493151 14.6342466,12.4520548 14.3630137,12.4520548 Z"></path>
                                    <path d="M14.3630137,14.7452055 L3.36575342,14.7452055 C3.11917808,14.7452055 2.89726027,14.9424658 2.89726027,15.2136986 C2.89726027,15.460274 3.09452055,15.6821918 3.36575342,15.6821918 L14.3630137,15.6821918 C14.609589,15.6821918 14.8315068,15.4849315 14.8315068,15.2136986 C14.8315068,14.9671233 14.6342466,14.7452055 14.3630137,14.7452055 Z"></path>
                                </g>
                            </g>
                        </g>
                    </g>
                </g>
            </g>
        </g>
    </g>
</svg>