<?xml version="1.0" encoding="UTF-8"?>
<svg  width="32px" height="32px"  viewBox="0 0 13 13" version="1.1" xmlns="http://www.w3.org/2000/svg" xmlns:xlink="http://www.w3.org/1999/xlink">
    <!-- Generator: Sketch 59.1 (86144) - https://sketch.com -->
    <title>phone_in_talk - material</title>
    <desc>Created with Sketch.</desc>
    <g id="03.-Detail" stroke="none" stroke-width="1" fill="none" fill-rule="evenodd">
        <g id="MB---03.2a---Detail-MuaBan-/-có-thuộc-DA" transform="translate(-12.000000, -495.000000)" fill="#FFFFFF">
            <g id="Group-38" transform="translate(0.000000, 481.000000)">
                <g id="Group-35">
                    <g id="Group-33" transform="translate(12.000000, 13.000000)">
                        <path d="M8.66666667,7.5 C8.66666667,7.11866476 8.56844543,6.76044612 8.372,6.42533333 C8.17555457,6.09022055 7.90977945,5.82444543 7.57466667,5.628 C7.23955388,5.43155457 6.88133524,5.33333333 6.5,5.33333333 L6.5,3.87733333 C7.15866996,3.87733333 7.76533056,4.03910949 8.32,4.36266667 C8.87466944,4.68622384 9.31377616,5.12533056 9.63733333,5.68 C9.96089051,6.23466944 10.1226667,6.84133004 10.1226667,7.5 L8.66666667,7.5 Z M11.544,7.5 C11.544,6.57555093 11.3186689,5.72622609 10.868,4.952 C10.4173311,4.18932952 9.81067048,3.58266892 9.048,3.132 C8.27377391,2.68133108 7.42444907,2.456 6.5,2.456 L6.5,1 C7.67867256,1 8.77066164,1.29466372 9.776,1.884 C10.7582271,2.46178067 11.5382193,3.24177287 12.116,4.224 C12.7053363,5.22933836 13,6.32132744 13,7.5 L11.544,7.5 Z M12.2893333,10.0306667 C12.4857788,10.0306667 12.6533326,10.0999993 12.792,10.2386667 C12.9306674,10.377334 13,10.5448879 13,10.7413333 L13,13.2893333 C13,13.4857788 12.9306674,13.6533326 12.792,13.792 C12.6533326,13.9306674 12.4857788,14 12.2893333,14 C10.625325,14 9.03067429,13.6764477 7.50533333,13.0293333 C6.03777044,12.4053302 4.73778344,11.5271168 3.60533333,10.3946667 C2.47288323,9.26221656 1.59466979,7.96222956 0.970666667,6.49466667 C0.32355232,4.96932571 0,3.37467499 0,1.71066667 C0,1.51422124 0.06933264,1.34666736 0.208,1.208 C0.34666736,1.06933264 0.51422124,1 0.710666667,1 L3.25866667,1 C3.45511209,1 3.62266597,1.06933264 3.76133333,1.208 C3.90000069,1.34666736 3.96933333,1.51422124 3.96933333,1.71066667 C3.96933333,2.65822696 4.10222089,3.51332952 4.368,4.276 C4.40266684,4.40311175 4.40844456,4.53599931 4.38533333,4.67466667 C4.36222211,4.81333403 4.29866719,4.92888843 4.19466667,5.02133333 L2.6,6.616 C3.1200026,7.63289397 3.79021812,8.55155145 4.61066667,9.372 C5.43111521,10.1924485 6.35555041,10.8684418 7.384,11.4 L8.97866667,9.80533333 C9.07111157,9.70133281 9.18666597,9.63777789 9.32533333,9.61466667 C9.46400069,9.59155544 9.59688825,9.59733316 9.724,9.632 C10.4866705,9.89777911 11.341773,10.0306667 12.2893333,10.0306667 Z" id="phone_in_talk---material"></path>
                    </g>
                </g>
            </g>
        </g>
    </g>
</svg>