<?xml version="1.0" encoding="UTF-8"?>
<svg width="32px" height="32px" viewBox="0 0 14 15" version="1.1" xmlns="http://www.w3.org/2000/svg" xmlns:xlink="http://www.w3.org/1999/xlink">
    <!-- Generator: Sketch 61.2 (89653) - https://sketch.com -->
    <title></title>
    <desc>Created with Sketch.</desc>
    <g id="Page-1" stroke="none" stroke-width="1" fill="none" fill-rule="evenodd">
        <g id="MB---03.2a---Detail-MuaBan-(Less-Color)" transform="translate(-337.000000, -448.000000)" fill="#FFFFFF" fill-rule="nonzero">
            <g id="Share-active" transform="translate(242.000000, 429.000000)">
                <g id="btt_share-ACTIVE" transform="translate(31.000000, 0.000000)">
                    <path d="M76.45,32.4242188 L76.45,26.4222656 L77.325,25.5882813 L77.325,32.4242188 C77.325,32.6703137 77.2384123,32.8776684 77.0652344,33.0462891 C76.8920564,33.2149097 76.6869804,33.2992188 76.45,33.2992188 L65.075,33.2992188 C64.828905,33.2992188 64.6215503,33.2149097 64.4529297,33.0462891 C64.2843091,32.8776684 64.2,32.6703137 64.2,32.4242188 L64.2,23.6742188 C64.2,23.4372384 64.2843091,23.2321623 64.4529297,23.0589844 C64.6215503,22.8858064 64.828905,22.7992188 65.075,22.7992188 L69.45,22.7992188 L69.4773438,22.8265625 L68.5886719,23.6742188 L65.075,23.6742188 L65.075,32.4242188 L76.45,32.4242188 Z M67.809375,28.9242188 C67.9643237,27.9398388 68.2856095,27.0192751 68.7732422,26.1625 C69.2608748,25.3057249 69.8669886,24.5651724 70.5916016,23.9408203 C71.3162146,23.3164682 72.1410761,22.8242857 73.0662109,22.4642578 C73.9913458,22.10423 74.9734323,21.9242188 76.0125,21.9242188 C76.085417,21.9242188 76.1560543,21.9242188 76.2244141,21.9242188 C76.2927738,21.9242188 76.3588538,21.9242188 76.4226563,21.9242188 L74.8367188,20.3382813 C74.7546871,20.2562496 74.7136719,20.1537116 74.7136719,20.0306641 C74.7136719,19.9076166 74.7546871,19.8050785 74.8367188,19.7230469 C74.9187504,19.6410152 75.0212884,19.6 75.1443359,19.6 C75.2673834,19.6 75.3699215,19.6410152 75.4519531,19.7230469 L78.0359375,22.3753906 L75.4519531,25.0277344 C75.40638,25.0733075 75.3585289,25.1052082 75.3083984,25.1234375 C75.258268,25.1416668 75.2058596,25.1507813 75.1511719,25.1507813 C75.0873695,25.1507813 75.0304039,25.1416668 74.9802734,25.1234375 C74.930143,25.1052082 74.8822919,25.0733075 74.8367188,25.0277344 C74.7546871,24.9457027 74.7136719,24.8431647 74.7136719,24.7201172 C74.7136719,24.5970697 74.7546871,24.4945317 74.8367188,24.4125 L76.4363281,22.8128906 C76.3634111,22.803776 76.2904952,22.7992188 76.2175781,22.7992188 C76.1446611,22.7992188 76.0671879,22.7992188 75.9851563,22.7992188 C75.0736934,22.7992188 74.2100952,22.9564437 73.3943359,23.2708984 C72.5785767,23.5853531 71.8471387,24.0160129 71.2,24.5628906 C70.5528613,25.1097684 70.0105491,25.7568973 69.5730469,26.5042969 C69.1355447,27.2516964 68.8438809,28.058329 68.6980469,28.9242188 L67.809375,28.9242188 Z" id=""></path>
                </g>
            </g>
        </g>
    </g>
</svg>