<?xml version="1.0" encoding="UTF-8"?>
<svg  width="32px" height="32px"  viewBox="0 0 16 18" version="1.1" xmlns="http://www.w3.org/2000/svg" xmlns:xlink="http://www.w3.org/1999/xlink">
    <!-- Generator: Sketch 59.1 (86144) - https://sketch.com -->
    <title>share - material</title>
    <desc>Created with Sketch.</desc>
    <g id="03.-Detail" stroke="none" stroke-width="1" fill="none" fill-rule="evenodd">
        <g id="MB---03.2a---Detail-MuaBan-/-có-thuộc-DA" transform="translate(-336.000000, -1408.000000)" fill="#EF7733">
            <g id="Group-16" transform="translate(-1.000000, 1393.000000)">
                <g id="---BDS-Cùng-dư-án" transform="translate(1.000000, 0.000000)">
                    <g id="Group-14" transform="translate(0.000000, 11.000000)">
                        <g id="Group-25" transform="translate(13.000000, 0.000000)">
                            <g id="Group-9-Copy">
                                <path d="M336.333333,16.7084337 C336.788447,16.7084337 337.215109,16.8277097 337.613333,17.0662651 C338.011558,17.3048205 338.327999,17.626504 338.562667,18.0313253 C338.797335,18.4361466 338.914667,18.8698772 338.914667,19.3325301 C338.914667,19.795183 338.797335,20.2325281 338.562667,20.6445783 C338.327999,21.0566286 338.011558,21.3855409 337.613333,21.6313253 C337.215109,21.8771097 336.788447,22 336.333333,22 C335.87822,22 335.451558,21.8771097 335.053333,21.6313253 C334.655109,21.3855409 334.338668,21.0566286 334.104,20.6445783 C333.869332,20.2325281 333.752,19.795183 333.752,19.3325301 C333.752,19.043372 333.766222,18.8481933 333.794667,18.746988 L327.501333,15.0168675 C326.989331,15.4939783 326.377781,15.7325301 325.666667,15.7325301 C325.197331,15.7325301 324.756447,15.6096398 324.344,15.3638554 C323.931553,15.1180711 323.604446,14.7855443 323.362667,14.3662651 C323.120888,13.9469859 323,13.4987976 323,13.0216867 C323,12.5445759 323.120888,12.0963876 323.362667,11.6771084 C323.604446,11.2578292 323.931553,10.9253024 324.344,10.6795181 C324.756447,10.4337337 325.197331,10.3108434 325.666667,10.3108434 C326.377781,10.3108434 326.989331,10.5493952 327.501333,11.026506 L333.752,7.33975904 C333.695111,7.05060096 333.666667,6.84096451 333.666667,6.71084337 C333.666667,6.23373255 333.787554,5.78554427 334.029333,5.36626506 C334.271112,4.94698586 334.59822,4.61445906 335.010667,4.3686747 C335.423113,4.12289034 335.863998,4 336.333333,4 C336.802669,4 337.243553,4.12289034 337.656,4.3686747 C338.068447,4.61445906 338.395554,4.94698586 338.637333,5.36626506 C338.879112,5.78554427 339,6.23373255 339,6.71084337 C339,7.18795419 338.879112,7.63614248 338.637333,8.05542169 C338.395554,8.47470089 338.068447,8.80722769 337.656,9.05301205 C337.243553,9.29879641 336.802669,9.42168675 336.333333,9.42168675 C335.679108,9.42168675 335.067558,9.16867723 334.498667,8.6626506 L328.248,12.3927711 C328.304889,12.6530133 328.333333,12.855421 328.333333,13 C328.333333,13.144579 328.304889,13.3614443 328.248,13.6506024 L334.584,17.3807229 C335.096003,16.9325279 335.679108,16.7084337 336.333333,16.7084337 Z" id="share---material"></path>
                            </g>
                        </g>
                    </g>
                </g>
            </g>
        </g>
    </g>
</svg>