<?xml version="1.0" encoding="UTF-8"?>
<svg width="30px" height="30px" viewBox="0 0 30 30" version="1.1" xmlns="http://www.w3.org/2000/svg" xmlns:xlink="http://www.w3.org/1999/xlink">
    <!-- Generator: Sketch 61.2 (89653) - https://sketch.com -->
    <title>Group 7</title>
    <desc>Created with Sketch.</desc>
    <defs>
        <filter x="-4.7%" y="-28.7%" width="109.3%" height="157.4%" filterUnits="objectBoundingBox" id="filter-1">
            <feOffset dx="0" dy="-4" in="SourceAlpha" result="shadowOffsetOuter1"></feOffset>
            <feGaussianBlur stdDeviation="2.5" in="shadowOffsetOuter1" result="shadowBlurOuter1"></feGaussianBlur>
            <feColorMatrix values="0 0 0 0 0.34375   0 0 0 0 0.165592275   0 0 0 0 0.0646362305  0 0 0 0.241989357 0" type="matrix" in="shadowBlurOuter1" result="shadowMatrixOuter1"></feColorMatrix>
            <feMerge>
                <feMergeNode in="shadowMatrixOuter1"></feMergeNode>
                <feMergeNode in="SourceGraphic"></feMergeNode>
            </feMerge>
        </filter>
    </defs>
    <g id="Symbol" stroke="none" stroke-width="1" fill="none" fill-rule="evenodd">
        <g id="#-Menu-bottom" transform="translate(-23.000000, -2.000000)" fill="#FFFFFF" fill-rule="nonzero">
            <g filter="url(#filter-1)" id="menu-bottom">
                <g>
                    <g id="Login">
                        <g id="Group" transform="translate(10.000000, 12.000000)">
                            <g id="person---material" transform="translate(19.000000, 0.000000)">
                                <g id="Group-7">
                                    <path d="M9,10.8312931 C7.84985916,10.8312931 6.59443666,10.9974519 5.23318292,11.3285677 C3.67606635,11.7178378 2.40898462,12.2395773 1.42933958,12.8989538 C0.207905442,13.7066591 -0.43218,14.6564633 -0.43218,15.7365269 L-0.43218,18.43218 L18.43218,18.43218 L18.43218,15.7365269 C18.43218,14.6564633 17.7920946,13.7066591 16.5677282,12.8969975 C15.5910154,12.2395773 14.3239336,11.7178378 12.7694897,11.3292268 C11.4055633,10.9974519 10.1501408,10.8312931 9,10.8312931 Z M9,11.6956531 C10.0774152,11.6956531 11.265082,11.8528443 12.5625242,12.1684383 C14.0233868,12.533663 15.1993944,13.0179014 16.0880222,13.6160163 L16.2821647,13.7495912 C17.1551957,14.3753083 17.56782,15.0343981 17.56782,15.7365269 L17.567,17.567 L0.432,17.567 L0.43218,15.7365269 C0.43218,14.9842461 0.905855876,14.2813722 1.90904558,13.6179725 C2.80060556,13.0179014 3.97661317,12.533663 5.44014839,12.1677792 C6.73491795,11.8528443 7.92258479,11.6956531 9,11.6956531 Z" id="Path"></path>
                                    <path d="M9,-0.43218 C8.11451793,-0.43218 7.29291852,-0.209457266 6.5432808,0.234407172 C5.79638153,0.676650162 5.20002122,1.28286766 4.75888545,2.047503 C4.31681015,2.81376685 4.09476611,3.64273128 4.09476611,4.52694611 C4.09476611,5.41242817 4.31748884,6.23402759 4.76135328,6.98366531 C5.20255784,7.72881078 5.79813532,8.32438827 6.5432808,8.76559283 C7.29291852,9.20945727 8.11451793,9.43218 9,9.43218 C9.88548207,9.43218 10.7070815,9.20945727 11.4567192,8.76559283 C12.2018647,8.32438827 12.7974422,7.72881078 13.2386467,6.98366531 C13.6825112,6.23402759 13.9052339,5.41242817 13.9052339,4.52694611 C13.9052339,3.64273128 13.6831898,2.81376685 13.2411146,2.047503 C12.7999788,1.28286766 12.2036185,0.676650162 11.4567192,0.234407172 C10.7070815,-0.209457266 9.88548207,-0.43218 9,-0.43218 Z M9,0.43218 C9.73129248,0.43218 10.4006961,0.613644841 11.0163347,0.978167679 C11.6347117,1.34431196 12.1251669,1.84287383 12.4924184,2.4794431 C12.8587304,3.11438387 13.0408739,3.79438639 13.0408739,4.52694611 C13.0408739,5.25823859 12.8594091,5.92764223 12.4948862,6.5432808 C12.1277035,7.16341161 11.6364655,7.6546496 11.0163347,8.02183232 C10.4006961,8.38635516 9.73129248,8.56782 9,8.56782 C8.26870752,8.56782 7.59930388,8.38635516 6.98366531,8.02183232 C6.3635345,7.6546496 5.8722965,7.16341161 5.50511379,6.5432808 C5.14059095,5.92764223 4.95912611,5.25823859 4.95912611,4.52694611 C4.95912611,3.79438639 5.14126964,3.11438387 5.50758162,2.4794431 C5.87483312,1.84287383 6.36528829,1.34431196 6.98366531,0.978167679 C7.59930388,0.613644841 8.26870752,0.43218 9,0.43218 Z" id="Path"></path>
                                </g>
                            </g>
                        </g>
                    </g>
                </g>
            </g>
        </g>
    </g>
</svg>