<?xml version="1.0" encoding="UTF-8"?>
<svg  width="32px" height="32px"  viewBox="0 0 13 14" version="1.1" xmlns="http://www.w3.org/2000/svg" xmlns:xlink="http://www.w3.org/1999/xlink">
    <!-- Generator: Sketch 59.1 (86144) - https://sketch.com -->
    <title>ion-calendar - Ionicons</title>
    <desc>Created with Sketch.</desc>
    <g id="03.-Detail" stroke="none" stroke-width="1" fill="none" fill-rule="evenodd">
        <g id="MB---03.2a---Detail-MuaBan-/-có-thuộc-DA" transform="translate(-138.000000, -494.000000)" fill="#FFFFFF">
            <g id="Group-38" transform="translate(0.000000, 481.000000)">
                <g id="Group-35">
                    <g id="Group-33" transform="translate(138.000000, 13.000000)">
                        <g id="Group-34">
                            <path d="M3.91741071,2.96205357 C3.7433027,3.13616158 3.52083469,3.22321429 3.25,3.22321429 C2.97916531,3.22321429 2.7566973,3.13616158 2.58258929,2.96205357 C2.40848127,2.78794556 2.32142857,2.56547754 2.32142857,2.29464286 L2.32142857,1.36607143 C2.32142857,1.09523674 2.40848127,0.872768728 2.58258929,0.698660714 C2.7566973,0.524552701 2.97916531,0.4375 3.25,0.4375 C3.52083469,0.4375 3.7433027,0.524552701 3.91741071,0.698660714 C4.09151873,0.872768728 4.17857143,1.09523674 4.17857143,1.36607143 L4.17857143,2.29464286 C4.17857143,2.56547754 4.09151873,2.78794556 3.91741071,2.96205357 Z M10.4174107,2.96205357 C10.2433027,3.13616158 10.0208347,3.22321429 9.75,3.22321429 C9.47916531,3.22321429 9.2566973,3.13616158 9.08258929,2.96205357 C8.90848127,2.78794556 8.82142857,2.56547754 8.82142857,2.29464286 L8.82142857,1.36607143 C8.82142857,1.09523674 8.90848127,0.872768728 9.08258929,0.698660714 C9.2566973,0.524552701 9.47916531,0.4375 9.75,0.4375 C10.0208347,0.4375 10.2433027,0.524552701 10.4174107,0.698660714 C10.5915187,0.872768728 10.6785714,1.09523674 10.6785714,1.36607143 L10.6785714,2.29464286 C10.6785714,2.56547754 10.5915187,2.78794556 10.4174107,2.96205357 Z M12.7678571,1.36607143 C12.9226198,1.36607143 13,1.44345161 13,1.59821429 L13,13.2053571 C13,13.3601198 12.9226198,13.4375 12.7678571,13.4375 L0.232142857,13.4375 C0.0773801786,13.4375 0,13.3601198 0,13.2053571 L0,1.59821429 C0,1.44345161 0.0773801786,1.36607143 0.232142857,1.36607143 L1.85714286,1.36607143 L1.85714286,2.55580357 C1.85714286,2.86532893 1.99739443,3.13132329 2.27790179,3.35379464 C2.55840914,3.57626599 2.88243864,3.6875 3.25,3.6875 C3.61756136,3.6875 3.94159086,3.57626599 4.22209821,3.35379464 C4.50260557,3.13132329 4.64285714,2.86532893 4.64285714,2.55580357 L4.64285714,1.36607143 L8.35714286,1.36607143 L8.35714286,2.55580357 C8.35714286,2.86532893 8.50223069,3.13132329 8.79241071,3.35379464 C9.08259074,3.57626599 9.4114565,3.6875 9.77901786,3.6875 C10.1272339,3.6875 10.4415909,3.57626599 10.7220982,3.35379464 C11.0026056,3.13132329 11.1428571,2.86532893 11.1428571,2.55580357 L11.1428571,1.36607143 L12.7678571,1.36607143 Z M11.6071429,12.0446429 L11.6071429,4.61607143 L1.39285714,4.61607143 L1.39285714,12.0446429 L11.6071429,12.0446429 Z" id="ion-calendar---Ionicons"></path>
                        </g>
                    </g>
                </g>
            </g>
        </g>
    </g>
</svg>