<?xml version="1.0" encoding="UTF-8"?>
<svg  width="32px" height="32px"  viewBox="0 0 23 32" version="1.1" xmlns="http://www.w3.org/2000/svg" xmlns:xlink="http://www.w3.org/1999/xlink">
    <!-- Generator: Sketch 59.1 (86144) - https://sketch.com -->
    <title>ico-can ho </title>
    <desc>Created with Sketch.</desc>
    <g id="01.-Home" stroke="none" stroke-width="1" fill="none" fill-rule="evenodd">
        <g id="MB---01.1---Home-/-Listing-MuaBan" transform="translate(-177.000000, -278.000000)">
            <g id="Group-20" transform="translate(0.000000, 0.000000)">
                <g id="Group-19" transform="translate(0.000000, 250.000000)">
                    <g id="Group-3-Copy" transform="translate(134.000000, 15.000000)">
                        <g id="Group-7" transform="translate(33.000000, 12.000000)">
                            <g id="Group-11" transform="translate(5.000000, 0.000000)">
                                <g id="ico-can-ho-" transform="translate(0.000000, 1.000000)">
                                    <rect id="Rectangle-6" x="0" y="0" width="32" height="32"></rect>
                                    <path d="M26.9977982,15.9853211 L26.9772477,15.9853211 C26.9772477,11.147156 26.9537615,6.29724771 26.9948624,1.47082569 C26.9948624,0.452110092 26.8040367,0.00293577982 25.6355963,0.00293577982 C19.1856881,0.0528440367 12.732844,0.0411009174 6.28293578,0 C5.34055046,0 5,0.270091743 5,1.23889908 C5.02544343,11.0130887 5.02544343,20.7872783 5,30.5614679 C5,31.5537615 5.3933945,31.7915596 6.3093578,31.7710092 C8.65798165,31.7181651 11.0066055,31.7034862 13.3552294,31.7710092 C14.4238532,31.8062385 14.6792661,31.3952294 14.6557798,30.4146789 C14.6088073,28.5592661 14.6910092,26.7009174 14.6763303,24.8366972 C14.6763303,23.8326606 15.1255046,23.4363303 16.1031193,23.4510092 C17.9115596,23.4774312 19.7229358,23.5214679 21.5255046,23.4510092 C22.8965138,23.3893578 23.3574312,23.9941284 23.3280734,25.2711927 C23.2869725,27.0326606 23.3280734,28.7941284 23.3016514,30.5555963 C23.2840367,31.3981651 23.5277064,31.8649541 24.4612844,31.7680734 C24.8995598,31.723846 25.3411741,31.723846 25.7794495,31.7680734 C26.7394495,31.8620183 27.0330275,31.4744954 27.0244115,30.5056881 C26.9743119,25.6616514 26.9977982,20.8234862 26.9977982,15.9853211 Z M9.5387156,3.96917431 C11.6877064,3.95155963 13.8366972,3.96917431 15.9974312,3.96917431 L15.9974312,3.96917431 C18.1503364,3.96917431 20.29737,3.96917431 22.4385321,3.96917431 C23.0256881,3.96917431 23.6979817,3.96917431 23.7478899,4.78238532 C23.8036697,5.66311927 23.1607339,5.7893578 22.4649541,5.79229358 C18.1591437,5.79229358 13.8611621,5.79229358 9.57100917,5.79229358 C8.87229358,5.79229358 8.10311927,5.76880734 8.12366972,4.77944954 C8.14422018,3.79009174 8.93394495,3.97504587 9.5387156,3.96917431 Z M22.2594495,14.493945 L9.67669725,14.493945 C9.48293578,14.493945 9.28623853,14.493945 9.08954128,14.493945 C8.54055046,14.4704587 8.12954128,14.2737615 8.12361388,13.6455046 C8.11779817,13.0172477 8.57577982,12.8557798 9.10715596,12.8557798 L15.8418349,12.8557798 L15.8418349,12.8058716 C17.9878899,12.8058716 20.133945,12.7823853 22.2770642,12.8205505 C22.8495413,12.8205505 23.6862385,12.6678899 23.6598165,13.6689908 C23.6304587,14.6025688 22.893578,14.4910092 22.2594495,14.493945 Z M22.4502752,10.0902752 L15.8623853,10.0902752 L15.8623853,10.0638532 L9.40366972,10.0638532 C8.7959633,10.0638532 8.15302752,10.0785321 8.10899083,9.25357798 C8.05908257,8.31706422 8.76954128,8.29944954 9.41834862,8.29944954 C13.7691743,8.29944954 18.12,8.29944954 22.4708257,8.29944954 C23.0755963,8.29944954 23.7361468,8.32587156 23.7713761,9.13321101 C23.8036697,10.0315596 23.1343119,10.1020183 22.4502752,10.1020183 L22.4502752,10.0902752 Z" fill="#CE5510" fill-rule="nonzero"></path>
                                </g>
                            </g>
                        </g>
                    </g>
                </g>
            </g>
        </g>
    </g>
</svg>