<?xml version="1.0" encoding="UTF-8"?>
<svg width="32px" height="32px" viewBox="0 0 16 17" version="1.1" xmlns="http://www.w3.org/2000/svg" xmlns:xlink="http://www.w3.org/1999/xlink">
    <!-- Generator: Sketch 51.3 (57544) - http://www.bohemiancoding.com/sketch -->
    <title>Chart - simple-line-icons</title>
    <desc>Created with Sketch.</desc>
    <defs></defs>
    <g id="02+04.-Lisitng-+-Search-+-Account" stroke="none" stroke-width="1" fill="none" fill-rule="evenodd">
        <g id="MB---04.2-Account-/-LOGIN" transform="translate(-16.000000, -506.000000)" fill="#000">
            <g id="Group-4" transform="translate(14.000000, 492.000000)">
                <g id="ico" transform="translate(0.000000, 12.000000)">
                    <path d="M6.12903226,7.16129032 C6.2688179,7.16129032 6.38978444,7.21236508 6.49193548,7.31451613 C6.59408653,7.41666718 6.64516129,7.53763371 6.64516129,7.67741935 L6.64516129,18 C6.64516129,18.1397856 6.59408653,18.2607522 6.49193548,18.3629032 C6.38978444,18.4650543 6.2688179,18.516129 6.12903226,18.516129 L2.51612903,18.516129 C2.37634339,18.516129 2.25537685,18.4650543 2.15322581,18.3629032 C2.05107476,18.2607522 2,18.1397856 2,18 L2,7.67741935 C2,7.53763371 2.05107476,7.41666718 2.15322581,7.31451613 C2.25537685,7.21236508 2.37634339,7.16129032 2.51612903,7.16129032 L6.12903226,7.16129032 Z M5.61290323,17.483871 L5.61290323,8.19354839 L3.03225806,8.19354839 L3.03225806,17.483871 L5.61290323,17.483871 Z M11.8064516,10.2258065 C11.9462373,10.2258065 12.0672038,10.2768812 12.1693548,10.3790323 C12.2715059,10.4811833 12.3225806,10.6021498 12.3225806,10.7419355 L12.3225806,18 C12.3225806,18.1397856 12.2715059,18.2607522 12.1693548,18.3629032 C12.0672038,18.4650543 11.9462373,18.516129 11.8064516,18.516129 L8.19354839,18.516129 C8.04301,18.516129 7.91935532,18.4650543 7.82258065,18.3629032 C7.72580597,18.2607522 7.67741935,18.1397856 7.67741935,18 L7.67741935,10.7419355 C7.67741935,10.6021498 7.72580597,10.4811833 7.82258065,10.3790323 C7.91935532,10.2768812 8.04301,10.2258065 8.19354839,10.2258065 L11.8064516,10.2258065 Z M11.2903226,17.483871 L11.2903226,11.2580645 L8.70967742,11.2580645 L8.70967742,17.483871 L11.2903226,17.483871 Z M17.483871,2 C17.6236566,2 17.7446231,2.05107476 17.8467742,2.15322581 C17.9489252,2.25537685 18,2.37634339 18,2.51612903 L18,18 C18,18.1397856 17.9489252,18.2607522 17.8467742,18.3629032 C17.7446231,18.4650543 17.6236566,18.516129 17.483871,18.516129 L13.8709677,18.516129 C13.7311821,18.516129 13.6102156,18.4650543 13.5080645,18.3629032 C13.4059135,18.2607522 13.3548387,18.1397856 13.3548387,18 L13.3548387,2.51612903 C13.3548387,2.37634339 13.4059135,2.25537685 13.5080645,2.15322581 C13.6102156,2.05107476 13.7311821,2 13.8709677,2 L17.483871,2 Z M16.9677419,17.483871 L16.9677419,3.03225806 L14.3870968,3.03225806 L14.3870968,17.483871 L16.9677419,17.483871 Z" id="Chart---simple-line-icons"></path>
                </g>
            </g>
        </g>
    </g>
</svg>