<?xml version="1.0" encoding="UTF-8"?>
<svg  width="32px" height="32px"  viewBox="0 0 32 30" version="1.1" xmlns="http://www.w3.org/2000/svg" xmlns:xlink="http://www.w3.org/1999/xlink">
    <!-- Generator: Sketch 59.1 (86144) - https://sketch.com -->
    <title>ico-nha rieng </title>
    <desc>Created with Sketch.</desc>
    <g id="01.-Home" stroke="none" stroke-width="1" fill="none" fill-rule="evenodd">
        <g id="MB---01.1---Home-/-Listing-MuaBan" transform="translate(-51.000000, -278.000000)" fill="#CE5510" fill-rule="nonzero">
            <g id="Group-20" transform="translate(0.000000, 0.000000)">
                <g id="Group-19" transform="translate(0.000000, 250.000000)">
                    <g id="Group-3" transform="translate(13.000000, 15.000000)">
                        <g id="Group-7" transform="translate(26.000000, 12.000000)">
                            <g id="Group-11" transform="translate(12.000000, 0.000000)">
                                <g id="ico-nha-rieng-" transform="translate(0.000000, 1.000000)">
                                    <path d="M31.9846154,12.8615385 C31.6853168,13.5597488 31.1973083,14.1607025 30.5753846,14.5969231 C30.04,14.9415385 29.6307692,14.4030769 29.2523077,14.0861538 C25.3292308,10.8 21.3876923,7.53846154 17.5384615,4.18461538 C16.4892308,3.26153846 15.7907692,3.18461538 14.6953846,4.13846154 C10.8246154,7.49846154 6.85846154,10.7353846 2.96923077,14.0615385 C2.13538462,14.7692308 1.57230769,14.8553846 0.843076923,13.9138462 C0.209230769,13.0923077 0.00307692308,12.5784615 0.975384615,11.8092308 C5.62153846,8.11692308 10.2307692,4.38051282 14.8030769,0.6 C15.7261538,-0.150769231 16.3415385,-0.227692308 17.3015385,0.556923077 C21.9169231,4.37230769 26.5846154,8.12 31.2307692,11.8953846 C31.5446154,12.1446154 31.9015385,12.3723077 31.9846154,12.8615385 Z" id="Shape"></path>
                                    <path d="M27.2738462,16.4953846 C27.2965265,15.8783227 27.0147485,15.2894641 26.52,14.92 C23.4430769,12.3815385 20.3661538,9.83384615 17.3569231,7.20615385 C16.3692308,6.34461538 15.6923077,6.42153846 14.7692308,7.24923077 C11.8810256,9.78461538 8.95179487,12.2697436 5.98153846,14.7046154 C5.27980863,15.2204687 4.88255521,16.0530842 4.92307692,16.9230769 C4.92307692,20.7107692 4.92307692,24.5015385 4.83692308,28.2892308 C4.81538462,29.4153846 5.30153846,29.68 6.31384615,29.6676923 C9.53846154,29.6276923 12.7753846,29.6676923 15.9938462,29.6676923 L15.9938462,29.6676923 C19.3230769,29.6676923 22.6523077,29.6461538 25.9815385,29.6676923 C26.8769231,29.6676923 27.3107692,29.4030769 27.3046799,28.4584615 C27.28,24.4738462 27.2769231,20.4861538 27.2738462,16.4953846 Z M12.4923077,21.7846154 C11.04,21.7846154 10.4492308,21.2646154 10.5138462,19.7969231 C10.5876923,18.0892308 10.8061538,17.8553846 12.4430769,17.7784615 C13.9815385,17.7076923 14.4892308,18.4123077 14.2892308,19.8 C14.4615385,21.1969231 13.9230769,21.7784615 12.4923077,21.7846154 Z M21.2307692,19.5476923 C21.1784615,20.7415385 21.2307692,21.8123077 19.5138462,21.76 C17.6676923,21.7046154 17.52,21.6276923 17.4676923,19.6738462 C17.2646154,18.4430769 17.7753846,17.7630769 19.2030769,17.7692308 C20.4430769,17.7753846 21.3015385,18.0307692 21.2307692,19.5476923 Z" id="Shape"></path>
                                </g>
                            </g>
                        </g>
                    </g>
                </g>
            </g>
        </g>
    </g>
</svg>