<?xml version="1.0" encoding="UTF-8"?>
<svg width="32px" height="32px" viewBox="0 0 16 16" version="1.1" xmlns="http://www.w3.org/2000/svg" xmlns:xlink="http://www.w3.org/1999/xlink">
    <!-- Generator: Sketch 51.3 (57544) - http://www.bohemiancoding.com/sketch -->
    <title>settings - simple-line-icons</title>
    <desc>Created with Sketch.</desc>
    <defs></defs>
    <g id="02+04.-Lisitng-+-Search-+-Account" stroke="none" stroke-width="1" fill="none" fill-rule="evenodd">
        <g id="MB---04.2-Account-/-LOGIN" transform="translate(-15.000000, -372.000000)" fill="#9B9B9B">
            <g id="Group-5" transform="translate(13.000000, 370.000000)">
                <g id="Group-2-Copy">
                    <g id="ico">
                        <path d="M17,8.484375 C17.2395845,8.52604188 17.4661448,8.6432282 17.6796875,8.8359375 C17.8932302,9.0286468 18,9.26562359 18,9.546875 L18,10.546875 C18,10.8177097 17.8932302,11.0364575 17.6796875,11.203125 C17.4661448,11.3697925 17.2395845,11.4843747 17,11.546875 L15.703125,11.859375 C15.6510414,12.0156258 15.5963545,12.1640618 15.5390625,12.3046875 C15.4817705,12.4453132 15.416667,12.5833327 15.34375,12.71875 L16.03125,13.875 C16.1666673,14.0833344 16.2499998,14.3229153 16.28125,14.59375 C16.3125002,14.8645847 16.2291677,15.0989573 16.03125,15.296875 L15.328125,16 C15.1302073,16.1979177 14.8906264,16.2890626 14.609375,16.2734375 C14.3281236,16.2578124 14.0833344,16.1822923 13.875,16.046875 L12.75,15.328125 C12.6041659,15.401042 12.4583341,15.4687497 12.3125,15.53125 C12.1666659,15.5937503 12.0104175,15.6510414 11.84375,15.703125 L11.5625,17 C11.5208331,17.2395845 11.4036468,17.4661448 11.2109375,17.6796875 C11.0182282,17.8932302 10.7812514,18 10.5,18 L9.5,18 C9.22916531,18 9.0104175,17.8932302 8.84375,17.6796875 C8.6770825,17.4661448 8.56250031,17.2395845 8.5,17 L8.1875,15.71875 C8.0208325,15.6666664 7.8541675,15.6067712 7.6875,15.5390625 C7.5208325,15.4713538 7.35937578,15.3958337 7.203125,15.3125 L6.046875,16.046875 C5.84895734,16.1822923 5.60677227,16.2578124 5.3203125,16.2734375 C5.03385273,16.2890626 4.79687594,16.1979177 4.609375,16 L3.890625,15.296875 C3.70312406,15.0989573 3.62499984,14.8645847 3.65625,14.59375 C3.68750016,14.3229153 3.76562438,14.0833344 3.890625,13.875 L4.625,12.65625 C4.56249969,12.5312494 4.50260445,12.4036465 4.4453125,12.2734375 C4.38802055,12.1432285 4.33854187,12.0052091 4.296875,11.859375 L3,11.546875 C2.76041547,11.4843747 2.53385523,11.3697925 2.3203125,11.203125 C2.10676977,11.0364575 2,10.8177097 2,10.546875 L2,9.546875 C2,9.26562359 2.10676977,9.0286468 2.3203125,8.8359375 C2.53385523,8.6432282 2.76041547,8.52604188 3,8.484375 L4.28125,8.203125 C4.32291687,8.05729094 4.37499969,7.91145906 4.4375,7.765625 C4.50000031,7.61979094 4.56249969,7.47916734 4.625,7.34375 L3.890625,6.125 C3.76562438,5.91666562 3.68750016,5.67708469 3.65625,5.40625 C3.62499984,5.13541531 3.70312406,4.90104266 3.890625,4.703125 L4.609375,4 C4.79687594,3.80208234 5.03385273,3.71093742 5.3203125,3.7265625 C5.60677227,3.74218758 5.84895734,3.81770766 6.046875,3.953125 L7.203125,4.6875 C7.35937578,4.60416625 7.51822836,4.52864617 7.6796875,4.4609375 C7.84114664,4.39322883 8.0052075,4.33333359 8.171875,4.28125 L8.5,3 C8.55208359,2.76041547 8.6614575,2.53385523 8.828125,2.3203125 C8.9947925,2.10676977 9.21874859,2 9.5,2 L10.5,2 C10.7812514,2 11.0156241,2.10676977 11.203125,2.3203125 C11.3906259,2.53385523 11.5104164,2.75520719 11.5625,2.984375 L11.84375,4.296875 C12.0000008,4.34895859 12.1536451,4.40624969 12.3046875,4.46875 C12.4557299,4.53125031 12.6041659,4.59895797 12.75,4.671875 L13.875,3.953125 C14.0833344,3.81770766 14.3281236,3.74218758 14.609375,3.7265625 C14.8906264,3.71093742 15.1302073,3.80208234 15.328125,4 L16.03125,4.703125 C16.2291677,4.90104266 16.3125002,5.13541531 16.28125,5.40625 C16.2499998,5.67708469 16.1666673,5.91666562 16.03125,6.125 L15.34375,7.28125 C15.416667,7.42708406 15.4869788,7.57552008 15.5546875,7.7265625 C15.6223962,7.87760492 15.6770831,8.0364575 15.71875,8.203125 L17,8.484375 Z M17,10.46875 L17.015625,9.578125 C17.0052083,9.56770828 16.9791669,9.5494793 16.9375,9.5234375 C16.8958331,9.4973957 16.8489586,9.47916672 16.796875,9.46875 L14.9375,9.046875 L14.765625,8.5 C14.7343748,8.37499938 14.6927086,8.25000063 14.640625,8.125 C14.5885414,7.99999937 14.526042,7.86979234 14.453125,7.734375 L14.203125,7.234375 L15.1875,5.59375 C15.2187502,5.55208313 15.2421874,5.51041688 15.2578125,5.46875 C15.2734376,5.42708313 15.28125,5.39583344 15.28125,5.375 L14.625,4.734375 C14.5937498,4.734375 14.559896,4.73958328 14.5234375,4.75 C14.486979,4.76041672 14.4531252,4.77604156 14.421875,4.796875 L12.8125,5.828125 L12.296875,5.5625 C12.1718744,5.49999969 12.0468756,5.44010445 11.921875,5.3828125 C11.7968744,5.32552055 11.6666673,5.28125016 11.53125,5.25 L10.984375,5.0625 L10.578125,3.171875 C10.5677083,3.13020813 10.5520834,3.09114602 10.53125,3.0546875 L10.5,3 L9.578125,3 C9.55729156,3.02083344 9.53645844,3.05208312 9.515625,3.09375 C9.49479156,3.13541687 9.47916672,3.18749969 9.46875,3.25 L9.015625,5.0625 L8.484375,5.234375 C8.34895766,5.27604187 8.21354234,5.32552055 8.078125,5.3828125 C7.94270766,5.44010445 7.80729234,5.50520797 7.671875,5.578125 L7.15625,5.84375 L5.484375,4.78125 L5.40625,4.7421875 C5.37499984,4.72656242 5.34375016,4.71354172 5.3125,4.703125 L4.65625,5.359375 C4.65625,5.39062516 4.66406242,5.42708313 4.6796875,5.46875 C4.69531258,5.51041688 4.71874984,5.55729141 4.75,5.609375 L5.765625,7.296875 L5.515625,7.78125 C5.45312469,7.91666734 5.39843773,8.04166609 5.3515625,8.15625 C5.30468727,8.27083391 5.26562516,8.38541609 5.234375,8.5 L5.0625,9.046875 L3.171875,9.46875 C3.14062484,9.47916672 3.10677102,9.49479156 3.0703125,9.515625 C3.03385398,9.53645844 3.01041672,9.546875 3,9.546875 L3,10.46875 C3.02083344,10.4895834 3.05208313,10.5078124 3.09375,10.5234375 C3.13541687,10.5390626 3.18749969,10.5520833 3.25,10.5625 L5.078125,11.03125 L5.25,11.5625 C5.28125016,11.6666672 5.32031227,11.773437 5.3671875,11.8828125 C5.41406273,11.992188 5.46874969,12.1041661 5.53125,12.21875 L5.765625,12.703125 L4.75,14.40625 C4.71874984,14.4479169 4.69531258,14.4895831 4.6796875,14.53125 C4.66406242,14.5729169 4.65625,14.6093748 4.65625,14.640625 L5.3125,15.28125 C5.34375016,15.28125 5.37760398,15.2734376 5.4140625,15.2578125 C5.45052102,15.2421874 5.48437484,15.2239584 5.515625,15.203125 L7.15625,14.15625 L7.671875,14.421875 C7.80729234,14.494792 7.94270766,14.5598955 8.078125,14.6171875 C8.21354234,14.6744795 8.34895766,14.7239581 8.484375,14.765625 L9.015625,14.9375 L9.484375,16.78125 C9.49479172,16.8333336 9.50781242,16.877604 9.5234375,16.9140625 C9.53906258,16.950521 9.55729156,16.9791666 9.578125,17 L10.484375,17 C10.4947917,16.9895833 10.5130207,16.9635419 10.5390625,16.921875 C10.5651043,16.8802081 10.5833333,16.8385419 10.59375,16.796875 L11,14.9375 L11.546875,14.75 C11.6718756,14.7083331 11.7968744,14.6614586 11.921875,14.609375 C12.0468756,14.5572914 12.1718744,14.5000003 12.296875,14.4375 L12.8125,14.171875 L14.453125,15.21875 L14.53125,15.2578125 C14.5625002,15.2734376 14.5937498,15.2864583 14.625,15.296875 L15.28125,14.640625 C15.28125,14.6093748 15.2734376,14.5729169 15.2578125,14.53125 C15.2421874,14.4895831 15.2187502,14.4427086 15.1875,14.390625 L14.203125,12.765625 L14.453125,12.265625 C14.5156253,12.1510411 14.5703123,12.0338548 14.6171875,11.9140625 C14.6640627,11.7942702 14.7083331,11.6718756 14.75,11.546875 L14.921875,11.03125 L16.78125,10.5625 C16.8333336,10.5520833 16.877604,10.5390626 16.9140625,10.5234375 C16.950521,10.5078124 16.9791666,10.4895834 17,10.46875 Z M10,7 C10.8333375,7 11.5442679,7.29166375 12.1328125,7.875 C12.7213571,8.45833625 13.015625,9.1666625 13.015625,10 C13.015625,10.8333375 12.7213571,11.5416638 12.1328125,12.125 C11.5442679,12.7083362 10.8333375,13 10,13 C9.17707922,13 8.47135711,12.7083362 7.8828125,12.125 C7.29426789,11.5416638 7,10.8333375 7,10 C7,9.1666625 7.29426789,8.45833625 7.8828125,7.875 C8.47135711,7.29166375 9.17707922,7 10,7 Z M10,12 C10.5520861,12 11.0234355,11.8046895 11.4140625,11.4140625 C11.8046895,11.0234355 12,10.5520861 12,10 C12,9.44791391 11.8046895,8.97656445 11.4140625,8.5859375 C11.0234355,8.19531055 10.5520861,8 10,8 C9.44791391,8 8.97656445,8.19531055 8.5859375,8.5859375 C8.19531055,8.97656445 8,9.44791391 8,10 C8,10.5520861 8.19531055,11.0234355 8.5859375,11.4140625 C8.97656445,11.8046895 9.44791391,12 10,12 Z" id="settings---simple-line-icons"></path>
                    </g>
                </g>
            </g>
        </g>
    </g>
</svg>