<?xml version="1.0" encoding="UTF-8"?>
<svg width="32px" height="32px" viewBox="0 0 19 16" version="1.1" xmlns="http://www.w3.org/2000/svg" xmlns:xlink="http://www.w3.org/1999/xlink">
    <!-- Generator: Sketch 51.3 (57544) - http://www.bohemiancoding.com/sketch -->
    <title>ico-sort</title>
    <desc>Created with Sketch.</desc>
    <defs></defs>
    <g id="02+04.-Lisitng-+-Search-+-Account" stroke="none" stroke-width="1" fill="none" fill-rule="evenodd">
        <g id="MB---02.6--Lisitng-Properties-/-Dự-Án" transform="translate(-334.000000, -261.000000)" fill="#000">
            <g id="#sort" transform="translate(284.000000, 243.000000)">
                <g id="-normal" transform="translate(38.000000, 0.000000)">
                    <g id="ico-sort" transform="translate(12.000000, 18.000000)">
                        <path d="M18.7756098,4.1398374 L14.8601626,0.224390244 C14.603252,-0.0325203252 14.1902439,-0.0325203252 13.9333333,0.224390244 L10.0211382,4.1398374 C9.76422764,4.39674797 9.76422764,4.8097561 10.0211382,5.06666667 C10.2780488,5.32357724 10.6910569,5.32357724 10.9479675,5.06666667 L13.7349593,2.2796748 L13.7349593,13.7528455 C13.7349593,14.1203252 14.0308943,14.4162602 14.398374,14.4162602 C14.7658537,14.4162602 15.0617886,14.1203252 15.0617886,13.7528455 L15.0617886,2.2796748 L17.8487805,5.06666667 C18.1056911,5.32357724 18.5186992,5.32357724 18.7756098,5.06666667 C19.0325203,4.81300813 19.0325203,4.39674797 18.7756098,4.1398374 Z" id="Path"></path>
                        <path d="M8.97886179,10.9333333 C8.72195122,10.6764228 8.30894309,10.6764228 8.05203252,10.9333333 L5.26504065,13.7203252 L5.26504065,2.24715447 C5.26504065,1.8796748 4.96910569,1.58373984 4.60162602,1.58373984 C4.23414634,1.58373984 3.93821138,1.8796748 3.93821138,2.24715447 L3.93821138,13.7203252 L1.15121951,10.9333333 C0.894308943,10.6764228 0.481300813,10.6764228 0.224390244,10.9333333 C-0.0325203252,11.1902439 -0.0325203252,11.603252 0.224390244,11.8601626 L4.1398374,15.7756098 C4.39674797,16.0325203 4.8097561,16.0325203 5.06666667,15.7756098 L8.98211382,11.8601626 C9.23577236,11.603252 9.23577236,11.1869919 8.97886179,10.9333333 Z" id="Path"></path>
                    </g>
                </g>
            </g>
        </g>
    </g>
</svg>