<?xml version="1.0" encoding="UTF-8"?>
<svg width="121px" height="85px" viewBox="0 0 121 85" version="1.1" xmlns="http://www.w3.org/2000/svg" xmlns:xlink="http://www.w3.org/1999/xlink">
    <!-- Generator: Sketch 61.2 (89653) - https://sketch.com -->
    <title>Group 4</title>
    <desc>Created with Sketch.</desc>
    <g id="01.-Home" stroke="none" stroke-width="1" fill="none" fill-rule="evenodd">
        <g id="MB---01.1---Home-/-Listing-DA-/-HEART-Share-Popup" transform="translate(-132.000000, -340.000000)">
            <g id="Group-2" transform="translate(17.000000, 322.000000)">
                <g id="Group" transform="translate(77.000000, 18.000000)">
                    <g id="Group-4" transform="translate(38.000000, 0.000000)">
                        <path d="M43.0285146,48.3156208 L38.7115385,52.6351215 L52.5875332,66.5192308 L83.4230769,35.6656545 L79.1061008,31.3461538 L52.5875332,57.8802294 L43.0285146,48.3156208 Z M80.8,54 C80.8,67.64 69.64,78.8 56,78.8 C42.36,78.8 31.2,67.64 31.2,54 C31.2,40.36 42.36,29.2 56,29.2 C58.48,29.2 60.65,29.51 62.82,30.13 L67.7801216,25.17 C64.06,23.93 60.03,23 56,23 C38.95,23 25,36.95 25,54 C25,71.05 38.95,85 56,85 C73.05,85 87,71.05 87,54 L80.8,54 Z" id="Shape" fill="#2866B0" fill-rule="nonzero"></path>
                        <g id="Group-2">
                            <polyline id="Fill-7" fill="#275D9C" points="52.1865317 0.190471429 54.0975635 4.59907143 58.5198254 6.50378571 54.0975635 8.4085 52.1865317 12.8161429 50.2755 8.4085 45.8532381 6.50378571 50.2755 4.59907143 52.1865317 0.190471429"></polyline>
                            <polyline id="Fill-8" fill="#275D9C" points="115.368698 44.5492571 116.877357 48.0284714 120.369071 49.5321429 116.877357 51.0367714 115.368698 54.5169429 113.859079 51.0367714 110.368325 49.5321429 113.859079 48.0284714 115.368698 44.5492571"></polyline>
                            <polyline id="Fill-9" fill="#275D9C" points="4.00740476 47.9365857 5.12137302 50.5055571 7.6998254 51.6158429 5.12137302 52.7261286 4.00740476 55.2960571 2.89343651 52.7261286 0.315944444 51.6158429 2.89343651 50.5055571 4.00740476 47.9365857"></polyline>
                            <path d="M94.8294286,11.2196286 C97.0362381,11.7881714 98.3624365,14.0326714 97.7910476,16.2321857 C97.220619,18.4317 94.9696349,19.7535143 92.7628254,19.1840143 C90.5560159,18.6154714 89.2298175,16.3709714 89.8012063,14.1724143 C90.3706746,11.9729 92.622619,10.6510857 94.8294286,11.2196286" id="Fill-10" fill="#3DADCD"></path>
                            <path d="M14.4191667,22.1750857 C14.4191667,23.6778 13.1966825,24.8962429 11.6889841,24.8962429 C10.1812857,24.8962429 8.9597619,23.6778 8.9597619,22.1750857 C8.9597619,20.6723714 10.1812857,19.4539286 11.6889841,19.4539286 C13.1966825,19.4539286 14.4191667,20.6723714 14.4191667,22.1750857" id="Fill-11" fill="#3DADCD"></path>
                        </g>
                    </g>
                </g>
            </g>
        </g>
    </g>
</svg>