<?xml version="1.0" encoding="utf-8"?>
<!-- Generator: Adobe Illustrator 17.0.0, SVG Export Plug-In . SVG Version: 6.00 Build 0)  -->
<!DOCTYPE svg PUBLIC "-//W3C//DTD SVG 1.1//EN" "http://www.w3.org/Graphics/SVG/1.1/DTD/svg11.dtd">
<svg version="1.1" id="Layer_1" xmlns="http://www.w3.org/2000/svg" xmlns:xlink="http://www.w3.org/1999/xlink" x="0px" y="0px"
	 width="1137.469px" height="443px" viewBox="0 0 1137.469 443" enable-background="new 0 0 1137.469 443" xml:space="preserve">
<g>
	<path fill="#8D8D8D" d="M12.5,15.066c1.426,0,2.588-1.152,2.588-2.567S13.927,9.933,12.5,9.933s-2.588,1.152-2.588,2.567
		S11.073,15.066,12.5,15.066z M12.5,10.666c1.019,0,1.849,0.823,1.849,1.833s-0.829,1.833-1.849,1.833s-1.849-0.823-1.849-1.833
		C10.652,11.489,11.48,10.666,12.5,10.666z"/>
	<path fill="#8D8D8D" d="M19.757,15.066H17.11l1.126-1.613c2.127-2.813,1.819-7.436-0.658-9.893C16.239,2.231,14.459,1.5,12.565,1.5
		S8.891,2.231,7.552,3.559c-2.478,2.457-2.786,7.081-0.667,9.882l1.134,1.625H5.242L1.194,23.5h22.613L19.757,15.066z M7.486,13.013
		c-1.922-2.542-1.646-6.717,0.59-8.936c1.199-1.189,2.794-1.845,4.49-1.845s3.291,0.655,4.49,1.845
		c2.237,2.218,2.512,6.393,0.582,8.947l-5.072,7.265l-3.646-5.223l0,0L7.486,13.013z M5.71,15.799h2.822l4.034,5.777l4.033-5.777
		h2.692l3.345,6.967H2.365L5.71,15.799z"/>
</g>
<rect fill="none" width="25" height="25"/>
</svg>
