<?xml version="1.0" encoding="UTF-8"?>
<svg  width="32px" height="32px"  viewBox="0 0 17 17" version="1.1" xmlns="http://www.w3.org/2000/svg" xmlns:xlink="http://www.w3.org/1999/xlink">
    <!-- Generator: Sketch 59.1 (86144) - https://sketch.com -->
    <title>icon_document</title>
    <desc>Created with Sketch.</desc>
    <g id="icon_document" stroke="none" stroke-width="1" fill="none" fill-rule="evenodd">
        <g fill="#EF7733" fill-rule="nonzero" id="Shape">
            <path d="M16.4362192,6.95633258 L10.9793398,6.95633258 L10.0042346,7.98705865 C9.94690627,8.04787652 9.88308005,8.09857039 9.81869488,8.14893172 L15.8723337,8.14893172 L15.8723337,12.1218605 L15.2871028,9.94250446 C15.218246,9.68626394 14.9968979,9.50924184 14.7447721,9.50924184 L2.81901674,9.50924184 L2.81901674,6.19259914 L6.04770793,6.19259914 L5.13097903,5.22272787 C5.06488204,5.15344872 5.00769347,5.07807299 4.95532593,5 L2.25527091,5 C1.94365085,5 1.69145521,5.26702959 1.69145521,5.59631804 L1.69145521,9.50927879 L0.563858737,9.50927879 C0.387157589,9.50927879 0.220343042,9.59692154 0.114070822,9.74597334 C0.00723964137,9.89535768 -0.0268569027,10.0886742 0.0215629847,10.2686153 L1.64694804,16.2609115 C1.76562218,16.6984971 2.14400298,17 2.57440198,17 L16.0351307,17 C16.567994,17 17,16.543127 17,15.9795088 L17,7.55265062 C17,7.22332521 16.7478044,6.95633258 16.4362192,6.95633258 Z"></path>
            <path d="M8.67774381,7.8548085 C8.766613,7.9514306 8.88322623,8 8.99943196,8 C9.11611311,8 9.2327603,7.95146751 9.32112012,7.8548085 L11.8664738,5.08934223 C11.9970779,4.94769378 12.0355868,4.73481514 11.9654966,4.55068693 C11.8948631,4.36570986 11.7283989,4.2450245 11.5447857,4.2450245 L10.4326473,4.2450245 L10.4326473,0.658787057 C10.4326473,0.294664194 10.1613195,0 9.8263196,0 L8.17257828,0 C7.83805384,0 7.56730332,0.294627287 7.56730332,0.658787057 L7.56730332,4.2450245 L6.45455367,4.2450245 C6.27097442,4.2450245 6.10563085,4.36574676 6.03499733,4.55068693 C5.96436381,4.73477824 6.00236328,4.94769378 6.13347676,5.08934223 L8.67774381,7.8548085 Z"></path>
        </g>
    </g>
</svg>