<?xml version="1.0" encoding="UTF-8"?>
<svg  width="32px" height="32px"  viewBox="0 0 22 32" version="1.1" xmlns="http://www.w3.org/2000/svg" xmlns:xlink="http://www.w3.org/1999/xlink">
    <!-- Generator: Sketch 59.1 (86144) - https://sketch.com -->
    <title>ico-du an </title>
    <desc>Created with Sketch.</desc>
    <g id="01.-Home" stroke="none" stroke-width="1" fill="none" fill-rule="evenodd">
        <g id="MB---01.1---Home-/-Listing-MuaBan" transform="translate(-297.000000, -278.000000)">
            <g id="Group-20" transform="translate(0.000000, 0.000000)">
                <g id="Group-19" transform="translate(0.000000, 250.000000)">
                    <g id="Group-3-Copy-2" transform="translate(254.000000, 15.000000)">
                        <g id="Group-7" transform="translate(36.000000, 12.000000)">
                            <g id="Group-11" transform="translate(2.000000, 0.000000)">
                                <g id="ico-du-an-" transform="translate(0.000000, 1.000000)">
                                    <rect id="Rectangle-6" x="0" y="0" width="32" height="32"></rect>
                                    <path d="M26.9185321,1.52073394 C26.9214679,0.437431193 26.7247706,0 25.4976147,0 C19.2385321,0.0675229358 12.9765138,0.0499082569 6.70862385,0 C5.67816514,0 5.2759633,0.202568807 5.29357798,1.37100917 C5.36697248,6.16220183 5.32587156,10.9563303 5.32587156,15.7563303 L5.32587156,15.7563303 C5.31706422,20.6385321 5.34055046,25.5412844 5.29357798,30.4205505 C5.29357798,31.4245872 5.56366972,31.8179817 6.61174312,31.7886239 C8.90752294,31.7269725 11.2091743,31.7181651 13.5049541,31.7886239 C14.5823853,31.8209174 14.8436697,31.3746789 14.8172477,30.4058716 C14.7702752,28.5475229 14.8172477,26.6891743 14.799633,24.8278899 C14.799633,23.8649541 15.2223853,23.36 16.1970642,23.36 C18.1023853,23.36 20.013578,23.4099083 21.9159633,23.4011009 C22.9493578,23.4011009 23.266422,23.9354128 23.2517431,24.8689908 C23.2253211,26.6304587 23.333945,28.3919266 23.2223853,30.1533945 C23.1372477,31.480367 23.6069725,31.9559633 24.8811009,31.7592661 C25.1734974,31.7220176 25.4694384,31.7220176 25.7618349,31.7592661 C26.6719266,31.853211 26.9361468,31.4422018 26.9361468,30.5614679 C26.8989602,20.8831804 26.8930887,11.2029358 26.9185321,1.52073394 Z M9.82642202,13.906789 C8.48477064,13.853945 7.90642202,13.533945 7.98862385,12.0807339 C8.11192661,9.8466055 8.07376147,9.89651376 9.95266055,9.77908257 C11.7141284,9.66752294 11.6700917,10.7185321 11.5497248,11.9633028 C11.7933945,13.2755963 11.4293578,13.9713761 9.82642202,13.906789 Z M9.69724771,7.70055046 C8.02972477,7.76220183 7.83302752,6.91669725 7.99155963,5.88036697 C8.01504587,3.58458716 8.04146789,3.55816514 9.98201835,3.57577982 C11.6143119,3.59045872 11.5262385,3.5933945 11.6113761,5.96844037 C11.6700917,7.48623853 10.9801835,7.65357798 9.69724771,7.70055046 Z M16.0825688,3.5640367 C17.8616514,3.69614679 17.8704587,3.66091743 17.9409174,5.6866055 C17.9849541,6.95192661 17.7941284,7.74165138 16.2411009,7.67412844 C14.4091743,7.58311927 14.3622018,7.61247706 14.3680734,5.39009174 C14.2066055,4.33321101 14.3944954,3.44073394 16.0825688,3.5640367 Z M16.0825688,13.8715596 C14.3680734,13.7482569 14.4414679,13.8099083 14.3475229,11.5229358 C14.2858716,9.98458716 15.040367,9.82899083 16.2910092,9.77908257 C18.0524771,9.70862385 18.0055046,10.7625688 17.9056881,12.0631193 C18.1875229,13.4605505 17.5533945,13.9801835 16.0678899,13.8715596 L16.0825688,13.8715596 Z M24.2352294,11.6344954 C24.2352294,13.8157798 24.1765138,13.7511927 22.2858716,13.8921101 C20.6124771,14.0154128 20.6183486,13.0818349 20.6477064,11.8987156 C20.7005505,9.8612844 20.7299083,9.90825688 22.506055,9.78495413 C24.2088073,9.66165138 24.3497248,10.5922936 24.2205505,11.6344954 L24.2352294,11.6344954 Z M22.3387156,7.69174312 C20.5772477,7.69174312 20.5772477,7.69174312 20.5772477,5.56917431 C20.5772477,3.54642202 20.6066055,3.51412844 22.4355963,3.54055046 C24.1970642,3.55522936 24.3350459,3.70201835 24.3321101,5.61908257 C24.3409174,7.63302752 24.2616514,7.70642202 22.3387156,7.69174312 Z" id="Shape" fill="#CE5510" fill-rule="nonzero"></path>
                                </g>
                            </g>
                        </g>
                    </g>
                </g>
            </g>
        </g>
    </g>
</svg>