<?xml version="1.0" encoding="UTF-8"?>
<svg width="20px" height="20px" viewBox="0 0 20 20" version="1.1" xmlns="http://www.w3.org/2000/svg" xmlns:xlink="http://www.w3.org/1999/xlink">
    <!-- Generator: Sketch 61.2 (89653) - https://sketch.com -->
    <title>ico-grid</title>
    <desc>Created with Sketch.</desc>
    <g id="02.-Listing-+-Search" stroke="none" stroke-width="1" fill="none" fill-rule="evenodd">
        <g id="PC-02.2-Listing-ChoThue" transform="translate(-949.000000, -282.000000)" fill="#9B9B9B">
            <g id="Group-4" transform="translate(136.000000, 275.000000)">
                <g id="--Sort" transform="translate(700.000000, 4.000000)">
                    <g id="ico-grid" transform="translate(113.000000, 3.000000)">
                        <path d="M0.315315315,0 L8.46846847,0 C8.64266613,0 8.78378378,0.141117658 8.78378378,0.315315315 L8.78378378,8.46846847 C8.78378378,8.64266613 8.64266613,8.78378378 8.46846847,8.78378378 L0.315315315,8.78378378 C0.141117658,8.78378378 0,8.64266613 0,8.46846847 L0,0.315315315 C0,0.141117658 0.141117658,0 0.315315315,0 Z" id="Path"></path>
                        <path d="M11.5315315,0 L19.6846847,0 C19.8588823,0 20,0.141117658 20,0.315315315 L20,8.46846847 C20,8.64266613 19.8588823,8.78378378 19.6846847,8.78378378 L11.5315315,8.78378378 C11.3573339,8.78378378 11.2162162,8.64266613 11.2162162,8.46846847 L11.2162162,0.315315315 C11.2162162,0.141117658 11.3573339,0 11.5315315,0 Z" id="Path"></path>
                        <path d="M0.315315315,11.2162162 L8.46846847,11.2162162 C8.64266613,11.2162162 8.78378378,11.3573339 8.78378378,11.5315315 L8.78378378,19.6846847 C8.78378378,19.8588823 8.64266613,20 8.46846847,20 L0.315315315,20 C0.141117658,20 0,19.8588823 0,19.6846847 L0,11.5315315 C0,11.3573339 0.141117658,11.2162162 0.315315315,11.2162162 Z" id="Path"></path>
                        <path d="M11.5315315,11.2162162 L19.6846847,11.2162162 C19.8588823,11.2162162 20,11.3573339 20,11.5315315 L20,19.6846847 C20,19.8588823 19.8588823,20 19.6846847,20 L11.5315315,20 C11.3573339,20 11.2162162,19.8588823 11.2162162,19.6846847 L11.2162162,11.5315315 C11.2162162,11.3573339 11.3573339,11.2162162 11.5315315,11.2162162 Z" id="Path"></path>
                    </g>
                </g>
            </g>
        </g>
    </g>
</svg>