<?xml version="1.0" encoding="UTF-8"?>
<svg width="40px" height="40px" viewBox="0 0 40 40" version="1.1" xmlns="http://www.w3.org/2000/svg" xmlns:xlink="http://www.w3.org/1999/xlink">
    <!-- Generator: Sketch 55 (78076) - https://sketchapp.com -->
    <title>ico-360</title>
    <desc>Created with Sketch.</desc>
    <g id="03.-Detail" stroke="none" stroke-width="1" fill="none" fill-rule="evenodd">
        <g id="MB---03.2a---Detail-MuaBan-(Less-Color)" transform="translate(-169.000000, -189.000000)" fill="#FFFFFF">
            <g id="Group-7" transform="translate(0.000000, 1.000000)">
                <g id="Group-48" transform="translate(0.000000, 135.000000)">
                    <g id="banner">
                        <g id="group">
                            <g id="ico-360" transform="translate(169.000000, 53.000000)">
                                <path d="M16.5716563,19.4000234 C16.9811875,19.2077578 17.2238438,18.6727578 17.2238438,18.0120547 C17.2238438,16.9000234 16.4712656,16.5154922 15.459625,16.5154922 C14.0466563,16.5154922 13.6285313,17.3767422 13.6285313,17.9702578 C13.6285313,18.3215078 13.7036094,18.4386953 14.1885313,18.4386953 C14.5901719,18.4386953 14.7070469,18.2711953 14.7070469,18.0206484 C14.7070469,17.6861953 14.9078281,17.4603359 15.4513438,17.4603359 C15.9026719,17.4603359 16.187125,17.6443203 16.187125,18.1961172 C16.187125,18.9151016 15.835875,19.0154922 15.41775,19.0154922 C15.1751719,19.0154922 15.0915781,19.2327578 15.0915781,19.4418203 C15.0915781,19.6590859 15.1751719,19.8681484 15.41775,19.8681484 C15.95275,19.8681484 16.3375938,20.0439297 16.3375938,20.6625234 L16.3375938,20.8215078 C16.3375938,21.4568984 16.0699375,21.7245547 15.4428281,21.7245547 C14.9075156,21.7245547 14.5730625,21.4901797 14.5730625,21.1141641 C14.5730625,20.8465859 14.4561875,20.7293984 14.0130625,20.7293984 C13.6368125,20.7293984 13.4945469,20.8215078 13.4945469,21.1560391 C13.4945469,21.8332266 14.0463438,22.6776016 15.41775,22.6776016 C16.5212656,22.6776016 17.4243125,22.1676797 17.4243125,20.8215078 L17.4243125,20.6625234 C17.4243125,19.9685391 17.0647813,19.5922891 16.5716563,19.4000234" id="Fill-1"></path>
                                <path d="M20.0250234,19.7680703 C20.5767422,19.7680703 20.9029922,20.0271328 20.9029922,20.7211172 L20.9029922,20.8301016 C20.9029922,21.4904922 20.5767422,21.7916641 20.0332266,21.7916641 C19.4815078,21.7916641 19.1470547,21.4904922 19.1470547,20.8301016 L19.1470547,20.6460391 C19.1470547,20.0104141 19.4983047,19.7680703 20.0250234,19.7680703 M20.0583047,17.4685391 C20.5181484,17.4685391 20.9112734,17.6943984 20.9112734,18.0874453 C20.9112734,18.4133828 21.1789297,18.4969766 21.4797891,18.4969766 C21.8225234,18.4969766 21.9897109,18.3883828 21.9897109,18.0456484 C21.9897109,17.3431484 21.4211953,16.5154922 20.0833047,16.5154922 C18.9461953,16.5154922 18.0682266,17.0340078 18.0682266,18.4301797 L18.0682266,20.7632266 C18.0682266,22.1593984 18.9294766,22.6779141 20.0332266,22.6779141 C21.1370547,22.6779141 21.9897109,22.1593984 21.9897109,20.7632266 L21.9897109,20.6460391 C21.9897109,19.3249453 21.2039297,18.9154141 20.2590859,18.9154141 C19.8242422,18.9154141 19.4229141,19.0154922 19.1470547,19.3417422 L19.1470547,18.4301797 C19.1470547,17.7697891 19.4897109,17.4685391 20.0583047,17.4685391" id="Fill-3"></path>
                                <path d="M25.4934687,20.7629375 C25.4934687,21.4236406 25.1590156,21.7245781 24.6155,21.7245781 C24.0637031,21.7245781 23.7457344,21.4236406 23.7457344,20.7629375 L23.7457344,18.4302031 C23.7457344,17.7697344 24.0637031,17.4685625 24.6155,17.4685625 C25.1590156,17.4685625 25.4934687,17.7697344 25.4934687,18.4302031 L25.4934687,20.7629375 Z M26.5805,18.4302031 C26.5805,17.0340313 25.7193281,16.5155156 24.6155,16.5155156 C23.5116719,16.5155156 22.6590156,17.0340313 22.6590156,18.4302031 L22.6590156,20.7629375 C22.6590156,22.1594219 23.5116719,22.6779375 24.6155,22.6779375 C25.7193281,22.6779375 26.5805,22.1594219 26.5805,20.7629375 L26.5805,18.4302031 Z" id="Fill-5"></path>
                                <g id="Fill-7">
                                    <path d="M36.1096172,24.7952266 C34.4998516,26.1138984 32.2805547,27.2140547 29.6493828,28.0035078 C30.2145391,25.5132734 30.5118047,22.7996797 30.5118047,19.9999922 C30.5118047,17.1988203 30.2142266,14.4839766 29.6487578,11.9924922 C31.0238359,12.4063203 32.3046953,12.9117109 33.4610234,13.5031172 C36.9219609,15.2724922 38.8281328,17.5799922 38.8281328,19.9999922 C38.8281328,21.6803047 37.8882109,23.3385859 36.1096172,24.7952266 M33.3136016,33.3135859 C30.7754766,35.8514766 27.6407109,37.5756953 24.2254766,38.3550703 C25.4568828,37.3400703 26.5804766,35.8718672 27.5402422,33.9947578 C28.2580547,32.5909297 28.8550078,31.0159297 29.3207109,29.3173359 C33.4418047,28.1875703 36.5814141,26.3775703 38.3575078,24.2135859 C37.5796172,27.6333516 35.8544609,30.7727266 33.3136016,33.3135859 M20.0000078,38.8281172 C17.5799297,38.8281172 15.2725078,36.9220234 13.5031328,33.4610078 C12.9119609,32.3046797 12.4063359,31.0241328 11.9928203,29.6487422 C14.4839141,30.2142109 17.1987578,30.5117891 20.0000078,30.5117891 C21.3839922,30.5117891 22.7578984,30.4385078 24.1003203,30.2932734 L22.8201641,32.0837422 C22.6318047,32.3467891 22.6925859,32.7130391 22.9559453,32.9013203 C23.0590703,32.9748359 23.1781328,33.0105391 23.2961797,33.0105391 C23.4786797,33.0105391 23.6587578,32.9253828 23.7732109,32.7655391 L25.8279766,29.8916328 C25.8963359,29.7961641 25.9338359,29.6831953 25.9371953,29.5675703 C25.9384453,29.5318672 25.9365703,29.4958516 25.9314141,29.4592109 C25.9029766,29.2651484 25.7827422,29.1073359 25.6210234,29.0234297 L22.8182891,27.0193672 C22.5552422,26.8313203 22.1893047,26.8917891 22.0010234,27.1551484 C21.8127422,27.4181953 21.8734453,27.7844453 22.1368047,27.9727266 L23.7814141,29.1485859 C22.5421172,29.2758516 21.2756328,29.3399141 19.9996953,29.3399141 C17.0504766,29.3399141 14.2068828,29.0014766 11.6387578,28.3609297 C10.9982109,25.7931172 10.6597734,22.9492109 10.6597734,19.9999922 C10.6597734,17.0602266 10.9906328,14.2489766 11.6427422,11.6381953 C14.2099297,10.9981953 17.0522734,10.6600703 20.0000078,10.6600703 C22.9492266,10.6600703 25.7931328,10.9985078 28.3608672,11.6391328 C29.0014922,14.2068672 29.3399297,17.0507734 29.3399297,19.9999922 C29.3399297,23.0526484 28.9773516,25.9924141 28.2925078,28.6300703 C28.2769609,28.6700703 28.2660234,28.7121797 28.2596172,28.7552266 C27.8054766,30.4714766 27.2143828,32.0578047 26.4968828,33.4610078 C24.7275078,36.9220234 22.4200078,38.8281172 20.0000078,38.8281172 M8.19961719,34.6700703 C7.71742969,34.2604609 6.23203906,32.8704609 5.41289844,31.9053047 C5.41250781,31.9049141 5.41211719,31.9044453 5.41172656,31.9039766 C5.41110156,31.9032734 5.41055469,31.9025703 5.40992969,31.9018672 C5.29782031,31.7644453 5.18828906,31.6253047 5.08032031,31.4851484 C5.06766406,31.4682734 5.05539844,31.4524922 5.04360156,31.4381172 C3.40657031,29.2986641 2.25532031,26.8407734 1.65438281,24.2364766 C2.66875781,25.4635859 4.13391406,26.5835859 6.00555469,27.5403047 C7.40844531,28.2574141 8.98250781,28.8543672 10.6799297,29.3200703 C11.1456328,31.0174922 11.7425859,32.5915547 12.4596953,33.9947578 C13.4164141,35.8660859 14.5364141,37.3312422 15.7635234,38.3456172 C13.0106328,37.7103828 10.4220391,36.4591328 8.19961719,34.6700703 M6.53899219,13.5031172 C7.69594531,12.9117109 8.97735156,12.4056953 10.3536797,11.9918672 C9.77938281,14.5132734 9.48821094,17.2018672 9.48821094,19.9999922 C9.48821094,22.8012422 9.78578906,25.5160859 10.3512578,28.0071797 C8.97610156,27.5936641 7.69532031,27.0880391 6.53899219,26.4968672 C3.07797656,24.7274922 1.17188281,22.4200703 1.17188281,19.9999922 C1.17188281,17.5799922 3.07797656,15.2724922 6.53899219,13.5031172 M6.68641406,6.68639844 C9.22696094,4.14608594 12.3653984,2.42092969 15.7846172,1.64272656 C14.5098516,2.69014844 13.3526641,4.21663281 12.3809453,6.16061719 L11.7328203,4.22085156 C11.6299297,3.91389844 11.2982109,3.74819531 10.9911797,3.85069531 C10.6842266,3.95327344 10.5188359,4.28530469 10.6213359,4.59225781 L11.7410234,7.94280469 C11.8231328,8.18819531 12.0517266,8.34319531 12.2967266,8.34319531 C12.3583672,8.34319531 12.4209453,8.33342969 12.4825859,8.31296094 L15.8331328,7.19296094 C16.1401641,7.09046094 16.3058672,6.75842969 16.2032891,6.45139844 C16.1007891,6.14467969 15.7690703,5.97897656 15.4617266,6.08155469 L13.3828984,6.77639844 C15.1446172,3.19639844 17.5149297,1.17186719 20.0000078,1.17186719 C22.4200078,1.17186719 24.7275078,3.07803906 26.4968828,6.53897656 C27.0879766,7.69530469 27.5936797,8.97585156 28.0071953,10.3512422 C25.5160234,9.78577344 22.8011797,9.48819531 20.0000078,9.48819531 C14.7232109,9.48819531 9.75344531,10.5435078 6.00555469,12.4596797 C4.12844531,13.4195234 2.65992969,14.5431172 1.64516406,15.7745234 C2.42430469,12.3592891 4.14852344,9.22452344 6.68641406,6.68639844 M31.7836016,5.31608594 C32.1541484,5.65803906 33.5028203,6.87803906 34.4018047,7.87483594 C36.3343828,10.1682734 37.6792266,12.8752266 38.3459453,15.7635859 C37.3312578,14.5364766 35.8661016,13.4164766 33.9947734,12.4596797 C32.5915703,11.7425703 31.0174297,11.1456172 29.3200859,10.6799141 C28.8543828,8.98257031 28.2577422,7.40842969 27.5402422,6.00522656 C26.5835234,4.13389844 25.4638359,2.66874219 24.2367266,1.65436719 C26.9825859,2.28819531 29.5653203,3.53467969 31.7836016,5.31608594 M35.0967266,6.88108594 C35.0967266,6.88108594 33.2232891,4.86882031 32.3358672,4.25757031 C28.8263359,1.50585156 24.4832891,-7.8125e-06 20.0000078,-7.8125e-06 C14.6578984,-7.8125e-06 9.63532031,2.08038281 5.85782031,5.85788281 C2.08039844,9.63530469 7.8125e-06,14.6578828 7.8125e-06,19.9999922 L7.8125e-06,20.0338984 C0.0082109375,24.8437422 1.74742969,29.4881953 4.89992969,33.1146016 C4.89992969,33.1146016 5.92313281,34.2273359 6.83352344,35.0484297 C6.84969531,35.0663984 6.86664844,35.0838203 6.88539844,35.1000703 C6.97305469,35.1763203 7.06125781,35.2516328 7.15008594,35.3261641 C7.17399219,35.3462422 7.19844531,35.3656172 7.22242969,35.3855391 C7.24469531,35.4038984 7.26680469,35.4221797 7.28867969,35.4399141 C10.8532109,38.3767109 15.3324297,39.9921016 19.9661016,39.9999922 L20.0000078,39.9999922 C25.3421172,39.9999922 30.3646953,37.9196016 34.1421172,34.1421797 C37.9196172,30.3646797 40.0000078,25.3421016 40.0000078,19.9999922 L40.0000078,19.9660859 C39.9917266,15.1541328 38.2513359,10.5084297 35.0967266,6.88108594"></path>
                                </g>
                            </g>
                        </g>
                    </g>
                </g>
            </g>
        </g>
    </g>
</svg>