<?xml version="1.0" encoding="UTF-8"?>
<svg width="109px" height="109px" viewBox="0 0 109 109" version="1.1" xmlns="http://www.w3.org/2000/svg" xmlns:xlink="http://www.w3.org/1999/xlink">
    <!-- Generator: Sketch 51.3 (57544) - http://www.bohemiancoding.com/sketch -->
    <title>ico-user</title>
    <desc>Created with Sketch.</desc>
    <defs></defs>
    <g id="02+04.-Lisitng-+-Search-+-Account" stroke="none" stroke-width="1" fill="none" fill-rule="evenodd">
        <g id="MB---04.1-Account-/-None-LOGIN" transform="translate(-133.000000, -116.000000)">
            <g id="ico-user" transform="translate(133.000000, 116.000000)">
                <path d="M37.8767743,85.3402742 L21.610574,94.2540056 C20.6560379,94.7768839 19.7981897,95.4196315 19,96.1202471 C28.4836453,104.153559 40.7259823,109 54.1018309,109 C67.3789344,109 79.5430981,104.225894 89,96.3021178 C88.1277515,95.5622347 87.1814441,94.8967533 86.1322773,94.3718083 L68.7140506,85.6234139 C66.4634849,84.4929221 65.0419667,82.1823374 65.0419667,79.6547479 L65.0419667,72.7891286 C65.5315779,72.2290495 66.0911335,71.5098336 66.6897758,70.6604147 C69.0637729,67.2916731 70.8596997,63.5860575 72.1042995,59.6985711 C74.3384077,59.0062224 75.9841596,56.9333096 75.9841596,54.4697882 L75.9841596,47.1412254 C75.9841596,45.5291895 75.2703148,44.0886909 74.1614894,43.0801351 L74.1614894,32.4861664 C74.1614894,32.4861664 76.3277103,16 54.1038881,16 C31.8800658,16 34.0462868,32.4861664 34.0462868,32.4861664 L34.0462868,43.0801351 C32.9354042,44.0886909 32.2236165,45.5291895 32.2236165,47.1412254 L32.2236165,54.4697882 C32.2236165,56.4000978 33.2336968,58.0989355 34.7457313,59.080624 C36.5684016,67.0519345 41.3410821,72.7891286 41.3410821,72.7891286 L41.3410821,79.4852775 C41.3390249,81.9239983 40.0100802,84.1705149 37.8767743,85.3402742 Z" id="Path" fill="#E7ECED"></path>
                <path d="M55.4336718,0.00808554352 C25.3382293,-0.504155457 0.522292128,23.3867648 0.00812137524,53.369255 C-0.283927612,70.3695093 7.32168616,85.6486339 19.4314357,95.8094463 C20.2232587,95.1209944 21.0726688,94.4899135 22.0166863,93.9776725 L38.2788788,85.1404908 C40.4116591,83.9807772 41.7402764,81.7535533 41.7402764,79.3316779 L41.7402764,72.6930345 C41.7402764,72.6930345 36.9667151,67.0051104 35.1465506,59.1022563 C33.6369453,58.1289984 32.6250573,56.4467989 32.6250573,54.5310176 L32.6250573,47.2653912 C32.6250573,45.6671993 33.3387263,44.2390714 34.4472784,43.239177 L34.4472784,32.7361875 C34.4472784,32.7361875 32.2815912,16.3916017 54.4999378,16.3916017 C76.7182843,16.3916017 74.5525971,32.7361875 74.5525971,32.7361875 L74.5525971,43.239177 C75.6632059,44.2390714 76.3748183,45.6671993 76.3748183,47.2653912 L76.3748183,54.5310176 C76.3748183,56.9733827 74.7294719,59.0284936 72.4959141,59.7148965 C71.2516209,63.5689978 69.4561366,67.2427903 67.0827244,70.5826016 C66.4842297,71.4247258 65.9248119,72.1377653 65.4353213,72.6930345 L65.4353213,79.4996929 C65.4353213,82.0055759 66.8564893,84.2983666 69.1065005,85.4171009 L86.5204356,94.0903656 C87.5652305,94.6108024 88.509248,95.2685199 89.3792249,96 C101.122885,86.2428334 108.709989,71.6542097 108.991754,55.2256164 C109.510038,25.2431262 85.531171,0.520326544 55.4336718,0.00808554352 Z" id="Path" fill="#9B9B9B"></path>
            </g>
        </g>
    </g>
</svg>