<?xml version="1.0" encoding="UTF-8"?>
<svg width="32px" height="32px" viewBox="0 0 16 16" version="1.1" xmlns="http://www.w3.org/2000/svg" xmlns:xlink="http://www.w3.org/1999/xlink">
    <!-- Generator: Sketch 51.3 (57544) - http://www.bohemiancoding.com/sketch -->
    <title>ico-logout</title>
    <desc>Created with Sketch.</desc>
    <defs></defs>
    <g id="02+04.-Lisitng-+-Search-+-Account" stroke="none" stroke-width="1" fill="none" fill-rule="evenodd">
        <g id="MB---04.2-Account-/-LOGIN" transform="translate(-16.000000, -633.000000)" fill="#000">
            <g id="Group-2" transform="translate(14.000000, 619.000000)">
                <g id="ico" transform="translate(0.000000, 12.000000)">
                    <g id="ico-logout" transform="translate(2.000000, 2.000000)">
                        <polygon id="Path" points="12.6265507 4.63915942 11.9206377 5.34507246 14.0637391 7.48817391 6.98895652 7.48817391 6.98895652 8.4866087 14.0637391 8.4866087 11.9206377 10.6297101 12.6265507 11.3356232 15.9747826 7.9873913"></polygon>
                        <path d="M10.9826667,14.9763768 L0.998434783,14.9763768 L0.998434783,0.998434783 L10.9826667,0.998434783 L10.9826667,1.99686957 L11.9811014,1.99686957 L11.9811014,0.499217391 C11.9811014,0.223275362 11.7578261,-2.84217094e-14 11.4818841,-2.84217094e-14 L0.499217391,-2.84217094e-14 C0.223275362,-2.84217094e-14 -5.68434189e-14,0.223275362 -5.68434189e-14,0.499217391 L-5.68434189e-14,15.4755652 C-5.68434189e-14,15.7515072 0.223275362,15.9747826 0.499217391,15.9747826 L11.4818841,15.9747826 C11.7578261,15.9747826 11.9811014,15.7515072 11.9811014,15.4755652 L11.9811014,13.977942 L10.9826667,13.977942 L10.9826667,14.9763768 Z" id="Path"></path>
                    </g>
                </g>
            </g>
        </g>
    </g>
</svg>