<?xml version="1.0" encoding="UTF-8"?>
<svg width="32px" height="32px" viewBox="0 0 13 16" version="1.1" xmlns="http://www.w3.org/2000/svg" xmlns:xlink="http://www.w3.org/1999/xlink">
    <!-- Generator: Sketch 61.2 (89653) - https://sketch.com -->
    <title></title>
    <desc>Created with Sketch.</desc>
    <g id="03.-Detail" stroke="none" stroke-width="1" fill="none" fill-rule="evenodd">
        <g id="PC-03.1-Detail-BDS" transform="translate(-770.000000, -1310.000000)" fill="#A6A6A6" fill-rule="nonzero">
            <g id="Group-58" transform="translate(0.000000, 1017.000000)">
                <g id="-Dky-Tu-Van" transform="translate(734.000000, 162.000000)">
                    <g id="Group-36" transform="translate(1.000000, 0.000000)">
                        <g id="--So-dthoai" transform="translate(20.000000, 119.000000)">
                            <g id="ico-sodt" transform="translate(15.000000, 12.000000)">
                                <path d="M11.5,0 C11.9166687,0 12.2708319,0.145831875 12.5625,0.4375 C12.8541681,0.729168125 13,1.08333125 13,1.5 L13,14.5 C13,14.9166687 12.8541681,15.2708319 12.5625,15.5625 C12.2708319,15.8541681 11.9166687,16 11.5,16 L1.5,16 C1.08333125,16 0.729168125,15.8541681 0.4375,15.5625 C0.145831875,15.2708319 0,14.9166687 0,14.5 L0,1.5 C0,1.08333125 0.145831875,0.729168125 0.4375,0.4375 C0.729168125,0.145831875 1.08333125,0 1.5,0 L11.5,0 Z M12,14.5 L12,1.5 C12,1.36458266 11.9505213,1.24739633 11.8515625,1.1484375 C11.7526037,1.04947867 11.6354173,1 11.5,1 L1.5,1 C1.36458266,1 1.24739633,1.04947867 1.1484375,1.1484375 C1.04947867,1.24739633 1,1.36458266 1,1.5 L1,14.5 C1,14.6354173 1.04947867,14.7526037 1.1484375,14.8515625 C1.24739633,14.9505213 1.36458266,15 1.5,15 L11.5,15 C11.6354173,15 11.7526037,14.9505213 11.8515625,14.8515625 C11.9505213,14.7526037 12,14.6354173 12,14.5 Z M6.5,12.5 C6.77083469,12.5 7.00520734,12.5989573 7.203125,12.796875 C7.40104266,12.9947927 7.5,13.2291653 7.5,13.5 C7.5,13.7708347 7.40104266,14.0052073 7.203125,14.203125 C7.00520734,14.4010427 6.77083469,14.5 6.5,14.5 C6.22916531,14.5 5.99479266,14.4010427 5.796875,14.203125 C5.59895734,14.0052073 5.5,13.7708347 5.5,13.5 C5.5,13.2291653 5.59895734,12.9947927 5.796875,12.796875 C5.99479266,12.5989573 6.22916531,12.5 6.5,12.5 Z M7.5,1.5 C7.63541734,1.5 7.75260367,1.54947867 7.8515625,1.6484375 C7.95052133,1.74739633 8,1.86458266 8,2 C8,2.13541734 7.95052133,2.25260367 7.8515625,2.3515625 C7.75260367,2.45052133 7.63541734,2.5 7.5,2.5 L5.5,2.5 C5.36458266,2.5 5.24739633,2.45052133 5.1484375,2.3515625 C5.04947867,2.25260367 5,2.13541734 5,2 C5,1.86458266 5.04947867,1.74739633 5.1484375,1.6484375 C5.24739633,1.54947867 5.36458266,1.5 5.5,1.5 L7.5,1.5 Z" id=""></path>
                            </g>
                        </g>
                    </g>
                </g>
            </g>
        </g>
    </g>
</svg>