<?xml version="1.0" encoding="UTF-8"?>
<svg  width="32px" height="32px"  viewBox="0 0 10 14" version="1.1" xmlns="http://www.w3.org/2000/svg" xmlns:xlink="http://www.w3.org/1999/xlink">
    <!-- Generator: Sketch 59.1 (86144) - https://sketch.com -->
    <title>location_on - material</title>
    <desc>Created with Sketch.</desc>
    <g id="03.-Detail" stroke="none" stroke-width="1" fill="none" fill-rule="evenodd">
        <g id="MB---03.2a---Detail-MuaBan-/-có-thuộc-DA" transform="translate(-344.000000, -451.000000)" fill="#EF7733">
            <g id="Group-4" transform="translate(0.000000, 302.000000)">
                <g id="Group-45" transform="translate(299.000000, 142.000000)">
                    <g id="Group-6" transform="translate(36.000000, 0.000000)">
                        <path d="M13.7142,13.5828 C14.0166015,13.5828 14.2973987,13.5072008 14.5566,13.356 C14.8158013,13.2047992 15.0209992,13.0023013 15.1722,12.7485 C15.3234008,12.4946987 15.399,12.2166015 15.399,11.9142 C15.399,11.6117985 15.3234008,11.3310013 15.1722,11.0718 C15.0209992,10.8125987 14.8158013,10.6074008 14.5566,10.4562 C14.2973987,10.3049992 14.0166015,10.2294 13.7142,10.2294 C13.4117985,10.2294 13.1337013,10.3049992 12.8799,10.4562 C12.6260987,10.6074008 12.4236008,10.8125987 12.2724,11.0718 C12.1211992,11.3310013 12.0456,11.6117985 12.0456,11.9142 C12.0456,12.3786023 12.2075984,12.7727984 12.5316,13.0968 C12.8556016,13.4208016 13.2497977,13.5828 13.7142,13.5828 Z M13.7142,7.2 C14.5782043,7.2 15.3719964,7.41059789 16.0956,7.8318 C16.8084036,8.25300211 17.3753979,8.81999644 17.7966,9.5328 C18.2178021,10.2564036 18.4284,11.0501957 18.4284,11.9142 C18.4284,12.5730033 18.2664016,13.3289957 17.9424,14.1822 C17.6615986,14.9058036 17.2728025,15.6887958 16.776,16.5312 C16.3655979,17.2008033 15.8958026,17.8973964 15.3666,18.621 C14.9993982,19.1286025 14.6106021,19.6253976 14.2002,20.1114 L13.7142,20.6784 L13.2282,20.1114 C12.8177979,19.6253976 12.4290018,19.1286025 12.0618,18.621 C11.5325974,17.8973964 11.0628021,17.2008033 10.6524,16.5312 C10.1555975,15.6887958 9.7668014,14.9058036 9.486,14.1822 C9.16199838,13.3289957 9,12.5730033 9,11.9142 C9,11.0501957 9.21059789,10.2564036 9.6318,9.5328 C10.0530021,8.81999644 10.6199964,8.25300211 11.3328,7.8318 C12.0564036,7.41059789 12.8501957,7.2 13.7142,7.2 Z" id="location_on---material"></path>
                    </g>
                </g>
            </g>
        </g>
    </g>
</svg>