<?xml version="1.0" encoding="UTF-8"?>
<svg width="11px" height="10px" viewBox="0 0 11 10" version="1.1" xmlns="http://www.w3.org/2000/svg" xmlns:xlink="http://www.w3.org/1999/xlink">
    <!-- Generator: Sketch 63.1 (92452) - https://sketch.com -->
    <title>Group</title>
    <desc>Created with Sketch.</desc>
    <g id="Page-1" stroke="none" stroke-width="1" fill="none" fill-rule="evenodd" stroke-linecap="round" stroke-linejoin="round">
        <g id="Home---Dien-tich-+-Muc-gia-filter" transform="translate(-1131.000000, -552.000000)" fill="#BABABA" fill-rule="nonzero">
            <g id="Group-20" transform="translate(234.000000, 399.000000)">
                <g id="Group-16" transform="translate(32.000000, 137.000000)">
                    <g id="rotate-ccw" transform="translate(865.000000, 16.000000)">
                        <g id="Group" transform="translate(-0.000000, -0.000000)">
                            <g transform="translate(0.000000, 0.000000)" id="Path">
                                <path d="M0.500000003,0.50000001 C0.745459891,0.50000001 0.949608373,0.676875171 0.991944333,0.910124378 L1,1.00000001 L1,3.50000001 L3.5,3.50000001 C3.74545989,3.50000001 3.94960837,3.67687517 3.99194433,3.91012438 L4,4.00000001 C4,4.2454599 3.82312484,4.44960838 3.58987563,4.49194434 L3.5,4.50000001 L0.500000003,4.50000001 C0.254540114,4.50000001 0.0503916321,4.32312485 0.00805567191,4.08987564 L2.50020094e-09,4.00000001 L2.50020094e-09,1.00000001 C2.50020094e-09,0.723857635 0.223857628,0.50000001 0.500000003,0.50000001 Z"></path>
                                <path d="M2.4667457,1.4661478 C4.04276364,-0.107207184 6.46935458,-0.448615037 8.41832032,0.628794346 C10.3672861,1.70620373 11.3687853,3.942697 10.874646,6.1141262 C10.3805067,8.2855554 8.50985193,9.86844952 6.28658748,9.99640908 C4.06332304,10.1243686 2.02341592,8.76654617 1.28341236,6.66614783 C1.19165147,6.40569716 1.32840155,6.12017328 1.58885222,6.02841239 C1.84930289,5.9366515 2.13482677,6.07340158 2.22658766,6.33385225 C2.81859051,8.01417092 4.4505162,9.1004289 6.22912776,8.99806125 C8.00773933,8.8956936 9.50426311,7.62937831 9.89957458,5.89223494 C10.2948861,4.15509158 9.49368664,2.36589697 7.93451404,1.50396946 C6.43770834,0.676519052 4.58875914,0.895134218 3.31813669,2.03686164 L0.842388295,4.36437656 C0.641148694,4.55347239 0.324719303,4.54362792 0.135623471,4.34238832 C-0.0324617139,4.16350867 -0.0433594989,3.89361487 0.097630901,3.70303882 L0.15761171,3.63562349 L2.4667457,1.4661478 Z"></path>
                            </g>
                        </g>
                    </g>
                </g>
            </g>
        </g>
    </g>
</svg>