<?xml version="1.0" encoding="UTF-8"?>
<svg width="29px" height="29px" viewBox="0 0 29 29" version="1.1" xmlns="http://www.w3.org/2000/svg" xmlns:xlink="http://www.w3.org/1999/xlink">
    <!-- Generator: Sketch 61.2 (89653) - https://sketch.com -->
    <title></title>
    <desc>Created with Sketch.</desc>
    <g id="01+04.-Home-+-Wish-List" stroke="none" stroke-width="1" fill="none" fill-rule="evenodd">
        <g id="PC-01.1-Home" transform="translate(-191.000000, -5886.000000)" fill="#FFFFFF" fill-rule="nonzero">
            <g id="Group-17" transform="translate(0.000000, 5704.000000)">
                <g id="Group-57" transform="translate(135.000000, 70.000000)">
                    <g id="Group-60" transform="translate(0.000000, 88.000000)">
                        <g id="ico" transform="translate(32.000000, 0.000000)">
                            <path d="M52.7683105,51.3865967 C52.9375008,51.555787 53.0220947,51.7672717 53.0220947,52.0210571 C53.0220947,52.2748426 52.9375008,52.4863273 52.7683105,52.6555176 C52.5803213,52.8435068 52.364137,52.9375 52.119751,52.9375 C51.875365,52.9375 51.6591806,52.8435068 51.4711914,52.6555176 L42.7297363,43.857666 C41.7333935,44.7224164 40.605475,45.3991675 39.3459473,45.8879395 C38.0864195,46.3767114 36.751716,46.6210938 35.3417969,46.6210938 C33.7814863,46.6210938 32.3151924,46.3250152 30.9428711,45.7328491 C29.5705498,45.1406831 28.3721365,44.3370412 27.3475952,43.3218994 C26.323054,42.3067576 25.5194121,41.113044 24.9366455,39.7407227 C24.3538789,38.3684013 24.0625,36.9021074 24.0625,35.3417969 C24.0625,33.7814863 24.3538789,32.3151924 24.9366455,30.9428711 C25.5194121,29.5705498 26.323054,28.3768361 27.3475952,27.3616943 C28.3721365,26.3465525 29.5705498,25.5429107 30.9428711,24.9507446 C32.3151924,24.3585786 33.7814863,24.0625 35.3417969,24.0625 C36.8833085,24.0625 38.3402031,24.3585786 39.7125244,24.9507446 C41.0848457,25.5429107 42.283259,26.3465525 43.3078003,27.3616943 C44.3323415,28.3768361 45.1406831,29.5705498 45.7328491,30.9428711 C46.3250152,32.3151924 46.6210938,33.7814863 46.6210938,35.3417969 C46.6210938,36.7141182 46.3861107,38.015924 45.9161377,39.2472534 C45.4461646,40.4785828 44.8070109,41.5830029 43.9986572,42.5605469 L52.7683105,51.3865967 Z M35.3417969,44.8446045 C36.6389225,44.8446045 37.8655338,44.5955225 39.0216675,44.0973511 C40.1778012,43.5991796 41.1835284,42.9177289 42.0388794,42.0529785 C42.8942304,41.1882281 43.5709814,40.1825009 44.0691528,39.0357666 C44.5673243,37.8890324 44.8164062,36.6577214 44.8164062,35.3417969 C44.8164062,34.0258723 44.5673243,32.7945614 44.0691528,31.6478271 C43.5709814,30.5010929 42.8942304,29.4953657 42.0388794,28.6306152 C41.1835284,27.7658648 40.1778012,27.0844141 39.0216675,26.5862427 C37.8655338,26.0880712 36.6389225,25.8389893 35.3417969,25.8389893 C34.0258723,25.8389893 32.7898617,26.0880712 31.633728,26.5862427 C30.4775943,27.0844141 29.4718671,27.7658648 28.6165161,28.6306152 C27.7611652,29.4953657 27.0844141,30.5010929 26.5862427,31.6478271 C26.0880712,32.7945614 25.8389893,34.0258723 25.8389893,35.3417969 C25.8389893,36.6577214 26.0880712,37.8890324 26.5862427,39.0357666 C27.0844141,40.1825009 27.7611652,41.1882281 28.6165161,42.0529785 C29.4718671,42.9177289 30.4775943,43.5991796 31.633728,44.0973511 C32.7898617,44.5955225 34.0258723,44.8446045 35.3417969,44.8446045 Z" id=""></path>
                        </g>
                    </g>
                </g>
            </g>
        </g>
    </g>
</svg>