<?xml version="1.0" encoding="UTF-8"?>
<svg width="44px" height="44px" viewBox="0 0 44 44" version="1.1" xmlns="http://www.w3.org/2000/svg" xmlns:xlink="http://www.w3.org/1999/xlink">
    <!-- Generator: Sketch 61.2 (89653) - https://sketch.com -->
    <title>ico-muaban</title>
    <desc>Created with Sketch.</desc>
    <g id="01+04.-Home-+-Wish-List" stroke="none" stroke-width="1" fill="none" fill-rule="evenodd">
        <g id="PC-01.1-Home" transform="translate(-985.000000, -5880.000000)" fill="#FFFFFF" fill-rule="nonzero">
            <g id="Group-17" transform="translate(0.000000, 5704.000000)">
                <g id="Group-57" transform="translate(135.000000, 70.000000)">
                    <g id="Group-60-Copy-2" transform="translate(800.000000, 88.000000)">
                        <g id="ico" transform="translate(32.000000, 0.000000)">
                            <g id="ico-muaban" transform="translate(18.046875, 18.046875)">
                                <path d="M34.65,3.26886792 L34.65,3.73050472 L23.6273513,0.227891851 C22.3121097,-0.191687391 20.8796737,-0.00259773314 19.7164753,0.744149611 L15.1547929,3.66532803 C14.0218273,4.38726668 13.2546583,5.56715394 13.0509784,6.9009434 L2.8875,6.9009434 C2.4888211,6.90094741 2.165625,7.22617217 2.165625,7.62735849 L2.165625,23.6084906 C2.165625,24.0096769 2.4888211,24.3349057 2.8875,24.3349057 L33.20625,24.3349057 C33.6049289,24.3349057 33.928121,24.0096769 33.928125,23.6084906 L33.928125,15.8505154 C34.0252767,15.7769168 34.1206662,15.6999032 34.2132358,15.6179245 L34.65,15.6179245 L34.65,17.0707547 C34.650004,17.471941 34.9731961,17.7971658 35.371875,17.7971698 L43.3125,17.7971698 L43.3125,16.3443396 L36.09375,16.3443396 L36.09375,3.99528302 L43.3125,3.99528302 L43.3125,2.54245283 L35.371875,2.54245283 C34.9731961,2.54245684 34.650004,2.86768161 34.65,3.26886792 Z M23.2748742,19.25 C23.5616781,19.2498545 23.8475501,19.2171488 24.1270666,19.1525033 C23.1731687,20.1779514 22.5741128,21.4861377 22.4191889,22.8820755 L18.76875,22.8820755 L18.76875,8.35377358 L19.3153556,8.35377358 C20.2621102,8.35377358 21.1156345,8.92769226 21.4779196,9.80788996 C21.8402047,10.6880877 21.6399022,11.7012238 20.9704155,12.3748607 L20.5988159,12.7487093 C19.5163952,13.8378742 19.1925722,15.4759375 19.7783507,16.8990441 C20.3641292,18.3221507 21.7441448,19.2500312 23.2748742,19.25 L23.2748742,19.25 Z M28.153125,17.1120768 C27.6197413,17.1715406 27.0958257,17.2978062 26.593542,17.4879422 L28.153125,15.9186168 L28.153125,17.1120768 Z M28.153125,18.5763018 L28.153125,22.8820755 L23.8742624,22.8820755 C24.1976719,20.652707 25.93769,18.9017453 28.153125,18.5763018 L28.153125,18.5763018 Z M17.325,22.8820755 L14.4375,22.8820755 L14.4375,8.35377358 L17.325,8.35377358 L17.325,22.8820755 Z M12.99375,22.8820755 L9.34330573,22.8820755 C9.00186302,19.849079 6.62341495,17.4556698 3.609375,17.1120768 L3.609375,14.1237722 C6.62341495,13.7801792 9.00186302,11.3867701 9.34330573,8.35377358 L12.99375,8.35377358 L12.99375,22.8820755 Z M7.88823763,8.35377358 C7.56482613,10.5831411 5.82480898,12.3341018 3.609375,12.6595473 L3.609375,8.35377358 L7.88823763,8.35377358 Z M3.609375,18.5763018 C5.82480898,18.9017473 7.56482613,20.6527079 7.88823763,22.8820755 L3.609375,22.8820755 L3.609375,18.5763018 Z M32.484375,22.8820755 L29.596875,22.8820755 L29.596875,16.5964838 C30.536942,16.8922731 31.5443168,16.8922579 32.484375,16.5964838 L32.484375,22.8820755 Z M33.9279933,14.1651851 C33.7365623,14.1651827 33.5529706,14.241703 33.4176051,14.3779131 C32.103846,15.6968198 29.9770907,15.6967791 28.6633814,14.3778223 C28.3814186,14.0942882 27.9244795,14.0942882 27.6425166,14.3778223 L24.9299811,17.1072879 C24.3387804,17.7030591 23.4765303,17.935993 22.6683059,17.7182717 C21.8600815,17.5005505 21.2287947,16.8652843 21.0124456,16.0519736 C20.7960966,15.2386629 21.0275868,14.3709932 21.6196428,13.7760827 L21.9912424,13.4022341 L21.9912866,13.4022341 C23.073691,12.3130857 23.3975221,10.6750534 22.8117762,9.25195843 C22.2260304,7.82886342 20.8460618,6.900964 19.3153556,6.9009434 L14.5179088,6.9009434 C14.7061683,6.06953421 15.2138067,5.34691004 15.9298963,4.89097644 L20.4915787,1.96979802 C21.294939,1.45409438 22.284231,1.32353098 23.1925742,1.61332979 L34.65,5.254095 L34.65,14.1651851 L33.9279933,14.1651851 Z" id="Shape"></path>
                                <path d="M4.33125,42.495283 L4.33125,41.7688679 L6.496875,41.7688679 C6.8955539,41.7688639 7.21874601,41.4436391 7.21875,41.0424528 L7.21875,40.2747819 L7.28699877,40.3238413 C13.4369371,44.7442364 21.8612803,44.0426506 27.2053997,38.6650215 L32.6338699,33.2023664 C33.8304974,31.9984987 33.9182587,30.0753524 32.8363112,28.7661917 C31.7543638,27.4570309 29.8592614,27.1932872 28.4648261,28.1578067 C28.069496,27.2993309 27.2666278,26.7028047 26.334945,26.5753179 C25.4032622,26.4478311 24.4712557,26.8069657 23.8624805,27.5280448 C23.0978797,27.0671663 22.1615284,26.9979756 21.3382265,27.3415175 C20.5149246,27.6850595 19.901992,28.4007251 19.6858579,29.2708381 L18.926985,32.3254717 L14.7365367,32.3254717 L14.226061,31.8117845 C12.3690371,29.9436787 9.49997241,29.5557171 7.21875,30.8642396 L7.21875,30.1462264 C7.21874601,29.7450401 6.8955539,29.4198153 6.496875,29.4198113 L4.33125,29.4198113 C4.33124601,29.018625 4.0080539,28.6934002 3.609375,28.6933962 L0,28.6933962 L0,30.1462264 L2.8875,30.1462264 L2.8875,41.7688679 L0,41.7688679 L0,43.2216981 L3.609375,43.2216981 C4.0080539,43.2216941 4.33124601,42.8964693 4.33125,42.495283 Z M25.645241,28.042176 C26.029199,27.9455789 26.435972,28.0282943 26.7525295,28.267338 C27.069087,28.5063817 27.2616985,28.8762826 27.2768427,29.2742559 L22.2396892,34.3430896 C22.1557319,34.0803937 22.0349033,33.8311177 21.8808668,33.6028191 L24.837102,28.6448027 C25.0157139,28.343401 25.3067054,28.1264096 25.645241,28.042176 L25.645241,28.042176 Z M21.0865102,29.6232284 C21.1791413,29.2503807 21.4221163,28.9333086 21.7569155,28.7483779 C22.0917147,28.5634471 22.4879935,28.5274189 22.8503098,28.6489705 C22.9325699,28.6767282 23.0120457,28.7122293 23.0876821,28.7550026 L20.7767753,32.6307086 C20.648757,32.5662944 20.5161263,32.5116147 20.3799949,32.4671281 L21.0865102,29.6232284 Z M10.10625,31.5473595 C11.2692246,31.5441828 12.3851237,32.0093472 13.2051926,32.8391589 L13.9270676,33.565574 C14.0624504,33.7017852 14.246056,33.7783047 14.4375,33.7783019 L19.490625,33.7783019 C20.2879861,33.7783019 20.934375,34.4287561 20.934375,35.2311321 C20.934375,36.033508 20.2879861,36.6839623 19.490625,36.6839623 L12.99375,36.6839623 L12.99375,38.1367925 L19.490625,38.1367925 C20.5543712,38.1359722 21.5316687,37.5471526 22.0347236,36.6039785 L29.0244949,29.5702909 C29.7393934,28.8517353 30.8976899,28.8520654 31.6121838,29.5710285 C32.3266777,30.2899915 32.3270453,31.4555728 31.6130051,32.1749921 L26.1845349,37.6376481 C21.3394879,42.5131393 13.7018185,43.1492441 8.12616041,39.1416434 L7.21875,38.4894034 L7.21875,32.6412389 C8.01607151,31.9337868 9.0432513,31.5446575 10.10625,31.5473595 Z M5.775,30.8726415 L5.775,40.3160377 L4.33125,40.3160377 L4.33125,30.8726415 L5.775,30.8726415 Z" id="Shape"></path>
                            </g>
                        </g>
                    </g>
                </g>
            </g>
        </g>
    </g>
</svg>