<?xml version="1.0" encoding="UTF-8"?>
<svg width="39px" height="35px" viewBox="0 0 39 35" version="1.1" xmlns="http://www.w3.org/2000/svg" xmlns:xlink="http://www.w3.org/1999/xlink">
    <!-- Generator: Sketch 61.2 (89653) - https://sketch.com -->
    <title>ico-safe</title>
    <desc>Created with Sketch.</desc>
    <g id="01+04.-Home-+-Wish-List" stroke="none" stroke-width="1" fill="none" fill-rule="evenodd">
        <g id="PC-01.1-Home" transform="translate(-586.000000, -5883.000000)" fill="#FFFFFF" fill-rule="nonzero">
            <g id="Group-17" transform="translate(0.000000, 5704.000000)">
                <g id="Group-57" transform="translate(135.000000, 70.000000)">
                    <g id="Group-60-Copy" transform="translate(400.000000, 88.000000)">
                        <g id="ico" transform="translate(32.000000, 0.000000)">
                            <g id="ico-safe" transform="translate(19.250000, 21.656250)">
                                <path d="M35.9333333,12.1916667 L35.9333333,11.55 C35.9333333,11.536525 35.926275,11.524975 35.9256333,11.5115 C35.9218942,11.4532952 35.9102369,11.3958719 35.8909833,11.3408167 C35.884987,11.3203539 35.877919,11.3002205 35.8698083,11.2805 C35.8397871,11.2140181 35.7987893,11.1530637 35.7485333,11.1001917 L35.7446833,11.0957 L27.4030167,2.75403333 C27.2827612,2.63408151 27.1198523,2.56670275 26.95,2.56666667 L24.3833333,2.56666667 L24.3833333,0.641666667 C24.3833333,0.287283952 24.0960494,0 23.7416667,0 L20.5333333,0 C20.1789506,0 19.8916667,0.287283952 19.8916667,0.641666667 L19.8916667,2.56666667 L10.9083333,2.56666667 L10.901275,2.56666667 L10.8955,2.56666667 C10.8871583,2.56666667 10.8794583,2.5718 10.8711167,2.57244167 C10.8034646,2.576265 10.7369068,2.59122423 10.674125,2.61671667 C10.6543953,2.62487422 10.6351176,2.63408469 10.616375,2.64430833 C10.5612134,2.67252699 10.5105997,2.70886509 10.466225,2.75210833 C10.4578833,2.76045 10.4456917,2.76365833 10.43735,2.77264167 L2.73735,11.1143083 L3.67931667,11.9856917 L10.93015,4.13425833 L18.6083333,11.81565 L18.6083333,23.1 L14.1166667,23.1 L14.1166667,15.4 C14.1166667,15.0456173 13.8293827,14.7583333 13.475,14.7583333 L8.98333333,14.7583333 C8.62895062,14.7583333 8.34166667,15.0456173 8.34166667,15.4 L8.34166667,19.8916667 L9.625,19.8916667 L9.625,16.0416667 L12.8333333,16.0416667 L12.8333333,23.1 L12.1916667,23.1 L12.1916667,24.3833333 L26.3083333,24.3833333 L26.3083333,23.1 L19.8916667,23.1 L19.8916667,12.1916667 L35.9333333,12.1916667 Z M21.175,1.28333333 L23.1,1.28333333 L23.1,5.13333333 L21.175,5.13333333 L21.175,1.28333333 Z M19.51565,10.9083333 L12.4573167,3.85 L19.8916667,3.85 L19.8916667,5.775 C19.8916667,6.12938271 20.1789506,6.41666667 20.5333333,6.41666667 L23.7416667,6.41666667 C24.0960494,6.41666667 24.3833333,6.12938271 24.3833333,5.775 L24.3833333,3.85 L26.68435,3.85 L33.7426833,10.9083333 L19.51565,10.9083333 Z" id="Shape"></path>
                                <path d="M22.4583333,14.7583333 C22.1039506,14.7583333 21.8166667,15.0456173 21.8166667,15.4 L21.8166667,18.6083333 C21.8166667,18.962716 22.1039506,19.25 22.4583333,19.25 L25.6666667,19.25 C26.0210494,19.25 26.3083333,18.962716 26.3083333,18.6083333 L26.3083333,15.4 C26.3083333,15.0456173 26.0210494,14.7583333 25.6666667,14.7583333 L22.4583333,14.7583333 Z M25.025,17.9666667 L23.1,17.9666667 L23.1,16.0416667 L25.025,16.0416667 L25.025,17.9666667 Z" id="Shape"></path>
                                <path d="M28.875,14.7583333 C28.5206173,14.7583333 28.2333333,15.0456173 28.2333333,15.4 L28.2333333,18.6083333 C28.2333333,18.962716 28.5206173,19.25 28.875,19.25 L32.0833333,19.25 C32.437716,19.25 32.725,18.962716 32.725,18.6083333 L32.725,15.4 C32.725,15.0456173 32.437716,14.7583333 32.0833333,14.7583333 L28.875,14.7583333 Z M31.4416667,17.9666667 L29.5166667,17.9666667 L29.5166667,16.0416667 L31.4416667,16.0416667 L31.4416667,17.9666667 Z" id="Shape"></path>
                                <path d="M0,22.5295583 C0.000891637797,23.4262043 0.209543243,24.3104479 0.609583333,25.1129083 L5.20070833,34.2951583 L6.34929167,33.7215083 L1.757525,24.5386167 C1.44660542,23.9144735 1.28430934,23.2268565 1.28333333,22.5295583 L1.28333333,15.0791667 C1.28333333,14.5475926 1.71425926,14.1166667 2.24583333,14.1166667 C2.77740741,14.1166667 3.20833333,14.5475926 3.20833333,15.0791667 L3.20833333,22.4583333 C3.2081588,22.6114139 3.26304648,22.7594512 3.362975,22.8754167 L4.17404167,23.8225167 L4.18559167,23.83535 L7.212975,27.3645167 C7.44708065,27.6179017 7.83963322,27.6408397 8.10165704,27.4164452 C8.36368086,27.1920506 8.40138998,26.8006407 8.187025,26.53035 L5.15258333,22.9922 C4.8169829,22.6002527 4.86266105,22.0104588 5.25460833,21.6748583 C5.64655562,21.3392579 6.23634957,21.3849361 6.57195,21.7768833 L9.78028333,25.4472167 C9.809761,25.4806816 9.84242613,25.5111977 9.87781667,25.5383333 C11.3300383,26.6310068 12.1864385,28.3409573 12.1916667,30.1583333 L12.1916667,34.0083333 L13.475,34.0083333 L13.475,30.1583333 C13.4694445,27.9622937 12.4472765,25.8926049 10.70685,24.553375 L7.5383,20.93245 C7.09572101,20.4322472 6.45347132,20.1549816 5.78590833,20.175925 C5.31452387,20.1930208 4.8609854,20.3605399 4.49166667,20.6539667 L4.49166667,15.0791667 C4.49166664,13.8388272 3.48617282,12.8333334 2.24583333,12.8333334 C1.00549385,12.8333334 0,13.8388272 0,15.0791667 L0,22.5295583 Z" id="Path"></path>
                                <path d="M36.2541667,12.8333333 C35.0138272,12.8333333 34.0083333,13.8388272 34.0083333,15.0791667 L34.0083333,20.6539667 C33.6390146,20.3605399 33.1854761,20.1930208 32.7140917,20.175925 C32.0468537,20.1566836 31.4052947,20.433651 30.9617,20.93245 L27.79315,24.553375 C26.0527235,25.8926049 25.0305555,27.9622937 25.025,30.1583333 L25.025,34.0083333 L26.3083333,34.0083333 L26.3083333,30.1583333 C26.31265,28.3416317 27.167562,26.6318077 28.6183333,25.5383333 C28.6537239,25.5111977 28.686389,25.4806816 28.7158667,25.4472167 L31.9274083,21.7768833 C32.1090557,21.5595993 32.3825311,21.4406969 32.665325,21.45605 C33.0217561,21.4690035 33.339664,21.6838971 33.4845452,22.0098118 C33.6294265,22.3357264 33.5759632,22.7157084 33.346775,22.9889917 L30.312975,26.5329167 C30.09861,26.8032074 30.1363191,27.1946173 30.398343,27.4190118 C30.6603668,27.6434064 31.0529193,27.6204683 31.287025,27.3670833 L34.31505,23.8379167 L34.3259583,23.8250833 L35.137025,22.8779833 C35.2375331,22.7613498 35.2924595,22.6122964 35.2916667,22.4583333 L35.2916667,15.0791667 C35.2916667,14.5475926 35.7225926,14.1166667 36.2541667,14.1166667 C36.7857407,14.1166667 37.2166667,14.5475926 37.2166667,15.0791667 L37.2166667,22.5295583 C37.2156907,23.2268565 37.0533946,23.9144735 36.742475,24.5386167 L32.1507083,33.7215083 L33.2992917,34.2951583 L37.8904167,25.1129083 C38.2904568,24.3104479 38.4991084,23.4262043 38.5,22.5295583 L38.5,15.0791667 C38.5,13.8388272 37.4945062,12.8333333 36.2541667,12.8333333 L36.2541667,12.8333333 Z" id="Path"></path>
                            </g>
                        </g>
                    </g>
                </g>
            </g>
        </g>
    </g>
</svg>