<?xml version="1.0" encoding="UTF-8"?>
<svg  width="32px" height="32px"  viewBox="0 0 18 12" version="1.1" xmlns="http://www.w3.org/2000/svg" xmlns:xlink="http://www.w3.org/1999/xlink">
    <!-- Generator: Sketch 59.1 (86144) - https://sketch.com -->
    <title>Group 26</title>
    <desc>Created with Sketch.</desc>
    <g id="Symbols" stroke="none" stroke-width="1" fill="none" fill-rule="evenodd">
        <g id="#-FOOTER" transform="translate(-270.000000, -116.000000)">
            <g id="Group-17" transform="translate(0.000000, 91.000000)">
                <g id="Group-13" transform="translate(13.000000, 18.000000)">
                    <g id="Social-media" transform="translate(217.000000, 0.000000)">
                        <g id="youtube" transform="translate(35.000000, 0.000000)">
                            <g id="Group-26" transform="translate(5.400000, 7.200000)">
                                <path d="M16.7420288,1.83143596 C16.5541024,1.10036864 15.9789408,0.523012596 15.2341981,0.317852523 C13.8973585,0 8.55,0 8.55,0 C8.55,0 3.20264153,0 1.86580191,0.348124191 C1.12105925,0.553284265 0.545897572,1.13064031 0.357971175,1.86170763 C0.11330975,3.18272959 -0.00636742005,4.52282174 0.000444300707,5.86513583 C-0.00827679469,7.21755668 0.111407964,8.56786747 0.357971175,9.89883571 C0.564987245,10.6066299 1.13678429,11.1576494 1.86580191,11.3518758 C3.20264153,11.7 8.55,11.7 8.55,11.7 C8.55,11.7 13.8973585,11.7 15.2341981,11.3518758 C15.9789408,11.1467157 16.5541024,10.5693597 16.7420288,9.83829237 C16.9848029,8.52721766 17.1044725,7.19734222 17.0995557,5.86513583 C17.1082768,4.51271499 16.988592,3.1624042 16.7420288,1.83143596 Z" id="Path" fill="#555555"></path>
                                <polygon id="Path" stroke="#FFFFFF" stroke-width="1.218375" fill="#FFFFFF" stroke-linecap="round" stroke-linejoin="round" points="6.94165181 7.91785718 10.0990179 6.16607146 6.94165181 4.41428574"></polygon>
                            </g>
                        </g>
                    </g>
                </g>
            </g>
        </g>
    </g>
</svg>