<?xml version="1.0" encoding="UTF-8"?>
<svg width="32px" height="32px" viewBox="0 0 20 8" version="1.1" xmlns="http://www.w3.org/2000/svg" xmlns:xlink="http://www.w3.org/1999/xlink">
    <!-- Generator: Sketch 59.1 (86144) - https://sketch.com -->
    <title>icon-zalo </title>
    <desc>Created with Sketch.</desc>
    <g id="Symbols" stroke="none" stroke-width="1" fill="none" fill-rule="evenodd">
        <g id="#-FOOTER" transform="translate(-304.000000, -117.000000)" fill="#555555" fill-rule="nonzero">
            <g id="Group-17" transform="translate(0.000000, 91.000000)">
                <g id="Group-13" transform="translate(13.000000, 18.000000)">
                    <g id="Social-media" transform="translate(217.000000, 0.000000)">
                        <g id="zalo" transform="translate(70.000000, 0.000000)">
                            <g id="icon-zalo-" transform="translate(4.000000, 8.000000)">
                                <path d="M2.10919395,6.48556055 C2.99960258,6.48556055 3.70921757,6.48556055 4.41883257,6.48556055 C4.64482461,6.48556055 4.87081664,6.48556055 5.09680868,6.4993269 C5.54879276,6.53718438 5.86179173,6.73564933 5.8312828,7.24959324 C5.8030338,7.72797406 5.49229475,7.89661191 5.06177991,7.9012007 C4.51600914,7.90693668 3.97023837,7.9012007 3.42559757,7.9012007 C2.65383476,7.9012007 1.87868207,7.94823574 1.11369902,7.87825677 C0.764541327,7.84613528 0.334026496,7.66831986 0.121593981,7.40446473 C-0.160896066,7.06030586 0.103514618,6.6507568 0.36001558,6.32380588 C1.27528333,5.16284329 2.19055108,3.99996872 3.10581883,2.83518214 C3.24028409,2.66310271 3.36683964,2.48528729 3.59622155,2.1778387 C2.74310161,2.1778387 2.03913642,2.1778387 1.33630118,2.1778387 C1.11030914,2.1778387 0.84589846,2.23175693 0.670754631,2.13195085 C0.450412395,2.00690647 0.188261632,1.7545233 0.17583207,1.54458638 C0.163402508,1.33464947 0.430073112,1.10406303 0.60521694,0.909039674 C0.66510483,0.842502292 0.817649455,0.842502292 0.928385554,0.842502292 C2.22670981,0.842502292 3.52729398,0.817263975 4.82222836,0.850532666 C5.61320049,0.871182198 5.92845938,1.44248592 5.46404574,2.09638777 C4.59623632,3.31815176 3.65610944,4.48485032 2.73858177,5.67334562 C2.56795778,5.89475449 2.39620384,6.11501617 2.10919395,6.48556055 Z" id="Shape"></path>
                                <path d="M13.7451391,3.77744506 C13.7451391,4.72677338 13.7524304,5.67833805 13.7451391,6.6265482 C13.7451391,7.22700675 13.4595637,7.50766801 12.911502,7.4998408 C12.3634403,7.4920136 12.0912322,7.20017061 12.0888018,6.60530293 C12.0815105,4.70590083 12.0815105,2.80500784 12.0888018,0.902623959 C12.0888018,0.301047237 12.3707316,0.00808608207 12.9066411,0.000258875648 C13.4765767,-0.00980467547 13.7402783,0.273092928 13.7451391,0.927223751 C13.7560761,1.87767025 13.7451391,2.82699857 13.7451391,3.77744506 Z" id="Shape"></path>
                                <path d="M11.2490816,6.71671518 C11.2490816,5.68263792 11.2490816,4.64856066 11.2490816,3.61004529 C11.2490816,3.21172583 11.2603018,2.7523825 10.7789539,2.66583955 C10.4423469,2.60592521 10.0743233,2.76347775 9.71976401,2.82450162 L9.6905914,2.98316369 C8.55510397,2.25531532 7.38595583,2.35406304 6.56239083,3.25055921 C5.6400878,4.24913167 5.58735271,5.92229531 6.43560222,6.98300117 C7.22101843,7.95938314 8.58315455,8.21346435 9.53350816,7.53776365 C10.0821775,7.61321135 10.4793737,7.76854484 10.8238348,7.6908781 C11.2962065,7.58547323 11.2479596,7.10393939 11.2490816,6.71671518 Z M8.53827362,6.52810257 C7.86505972,6.52810257 7.37810167,5.95558106 7.38483381,5.17336596 C7.39044393,4.41999852 7.85944961,3.87078366 8.52144327,3.85746936 C9.20251133,3.84415506 9.69956759,4.40224612 9.70405568,5.18889931 C9.70854377,5.97555251 9.21597561,6.53031499 8.53827362,6.52810257 Z" id="Shape"></path>
                                <path d="M17.288285,2.5 C15.7002772,2.5 14.5754853,3.63144784 14.5833333,5.22058694 C14.5912639,6.80972604 15.6766092,7.91666667 17.2950472,7.91666667 C18.9134853,7.91666667 20.0078469,6.82197589 20,5.21390521 C19.9920683,3.60583453 18.8762928,2.49666666 17.288285,2.5 Z M17.288285,6.55804739 C16.6334712,6.55804739 16.1285546,6.00123621 16.113903,5.25956372 C16.0981244,4.48002808 16.5861353,3.89648996 17.2589818,3.878672 C17.9318282,3.86085405 18.4435071,4.4165516 18.4491423,5.20276898 C18.4547776,5.98898637 17.9712748,6.55804739 17.289412,6.55804739 L17.288285,6.55804739 Z" id="Shape"></path>
                            </g>
                        </g>
                    </g>
                </g>
            </g>
        </g>
    </g>
</svg>